<?xml version="1.0" encoding="UTF-8"?>
<svg version="1.1" xmlns="http://www.w3.org/2000/svg" width="512" height="512">
<path d="M0 0 C1.03087234 -0.0038269 2.06174469 -0.00765381 3.12385559 -0.01159668 C5.28432198 -0.01429794 7.44482208 -0.00706322 9.60522461 0.00976562 C12.89706527 0.03126655 16.18674017 0.00986794 19.47851562 -0.015625 C21.58984852 -0.01298269 23.70118008 -0.00785973 25.8125 0 C27.27371529 -0.01214539 27.27371529 -0.01214539 28.76445007 -0.02453613 C36.04567402 0.07472608 41.42118035 1.6518371 46.94921875 6.49609375 C47.48804688 7.14707031 48.026875 7.79804687 48.58203125 8.46875 C49.13632812 9.11714844 49.690625 9.76554687 50.26171875 10.43359375 C54.01588601 15.88220948 53.98828722 20.80344088 53.94754028 27.20588684 C53.95010356 28.67624855 53.95010356 28.67624855 53.95271862 30.17631453 C53.9560151 33.46372721 53.94500706 36.75093617 53.93408203 40.03833008 C53.93351795 42.3937174 53.93383441 44.74910507 53.93496704 47.10449219 C53.93554168 53.5027831 53.92376927 59.90099926 53.90981913 66.29927278 C53.89764167 72.30724991 53.89657341 78.315236 53.89451538 84.32322332 C53.89013946 96.22225088 53.87683315 108.121251 53.85791016 120.02026367 C53.83954869 131.57820498 53.82539349 143.13613884 53.81689453 154.6940918 C53.81636908 155.40667012 53.81584364 156.11924845 53.81530227 156.85342006 C53.81269217 160.42825987 53.81016476 164.00309973 53.80767846 167.57793963 C53.78694917 197.22906128 53.75157764 226.88015433 53.70703125 256.53125 C54.97087646 256.51755371 56.23472168 256.50385742 57.53686523 256.48974609 C65.08620521 256.40793391 71.7065118 259.72003372 77.17578125 264.828125 C84.58768716 273.07197953 86.29463673 281.80994705 86.015625 292.61328125 C85.31608417 301.49479331 80.9947814 307.43654481 74.70703125 313.53125 C74.02024292 313.9546315 73.33345459 314.378013 72.62585449 314.81422424 C70.49394749 316.37987929 70.49394749 316.37987929 70.21496582 318.89927673 C70.21814819 319.83348953 70.22133057 320.76770233 70.22460938 321.73022461 C70.21439758 323.32349831 70.21439758 323.32349831 70.20397949 324.94895935 C70.22095886 326.67385338 70.22095886 326.67385338 70.23828125 328.43359375 C70.23123169 329.6216713 70.22418213 330.80974884 70.21691895 332.03382874 C70.18742415 337.12007728 70.20396717 342.20594528 70.21630859 347.29223633 C70.21870736 351.00625016 70.19765966 354.71965573 70.17578125 358.43359375 C70.19276062 360.13116066 70.19276062 360.13116066 70.21008301 361.86302185 C70.12409378 375.63764427 64.93020514 389.58137378 55.53125 399.84375 C49.39840874 405.51695647 42.42030143 410.31081633 34.70703125 413.53125 C34.08014404 413.79421875 33.45325684 414.0571875 32.80737305 414.328125 C23.99586223 417.46430681 14.81671067 417.09645385 5.58203125 417.21875 C3.84502721 417.25197936 2.10804689 417.28647406 0.37109375 417.32226562 C-3.85012824 417.40652345 -8.07130253 417.47363263 -12.29296875 417.53125 C-11.78846191 418.01480957 -11.28395508 418.49836914 -10.76416016 418.99658203 C-8.47151299 421.20578339 -6.19475448 423.43071026 -3.91796875 425.65625 C-3.12390625 426.41679687 -2.32984375 427.17734375 -1.51171875 427.9609375 C5.96192603 435.30791033 5.96192603 435.30791033 6.70703125 440.53125 C6.18792669 443.29807731 5.09120046 445.01008465 3.70703125 447.53125 C0.39548106 449.18702509 -2.73922097 449.26822002 -6.29296875 448.53125 C-11.46179843 445.29421062 -15.128522 440.5375122 -18.74081421 435.71713257 C-26.65361877 425.50715881 -34.73932496 417.2102942 -47.96466064 415.20733643 C-58.62776065 413.91579249 -69.40108908 413.99801169 -80.12429476 414.1098485 C-84.46278653 414.14090751 -88.79928764 414.09644018 -93.1375736 414.05301607 C-103.39514395 413.95159911 -113.64734962 413.97178268 -123.90478516 414.07275391 C-134.40074565 414.17415457 -144.88171093 414.07945275 -155.37603152 413.88541663 C-164.46506324 413.72388902 -173.54949113 413.68193118 -182.63981092 413.73250711 C-188.03507789 413.76173013 -193.42135758 413.75090077 -198.81544876 413.62578201 C-226.56095645 413.01720545 -226.56095645 413.01720545 -249.91771495 426.42588127 C-255.76604656 432.1138736 -261.05533386 438.27162307 -266.03938866 444.72369957 C-268.29296875 447.53125 -268.29296875 447.53125 -270.29296875 448.53125 C-277.34510145 449.09997038 -277.34510145 449.09997038 -280.79296875 447.03125 C-282.4852855 444.21072208 -283.04996133 441.96045215 -282.85546875 438.66015625 C-281.70100943 434.29084841 -278.41412722 431.62940875 -275.29296875 428.53125 C-274.36395752 427.60223877 -273.43494629 426.67322754 -272.4777832 425.71606445 C-268.38537598 421.62365723 -268.38537598 421.62365723 -264.29296875 417.53125 C-265.3509668 417.5219043 -266.40896484 417.51255859 -267.49902344 417.50292969 C-271.48038565 417.46260776 -275.46100885 417.39673972 -279.44189453 417.32373047 C-281.15436197 417.29576263 -282.8669527 417.27442973 -284.57958984 417.26025391 C-301.24838259 417.11412188 -316.83247786 414.05380897 -329.60546875 402.35546875 C-341.47075353 389.52887618 -346.81057605 376.10674797 -346.5234375 358.76953125 C-346.52133988 356.32747477 -346.52073311 353.88541664 -346.52148438 351.44335938 C-346.50695964 347.63123242 -346.48014239 343.82033983 -346.42700195 340.00854492 C-346.38200178 336.30305487 -346.38669627 332.6002171 -346.3984375 328.89453125 C-346.355196 327.19119377 -346.355196 327.19119377 -346.31108093 325.45344543 C-346.30120689 319.46567493 -346.30120689 319.46567493 -349.03286743 314.33529663 C-351.11227148 312.46933565 -351.11227148 312.46933565 -353.2936554 310.97575378 C-358.24933792 307.39527344 -360.71769071 302.31417861 -362.29296875 296.53125 C-363.29148387 285.43147728 -362.64244077 275.7967634 -355.54296875 266.71875 C-350.12742495 260.92028896 -343.1216575 256.91128436 -335.13685477 256.28285301 C-333.42697412 256.28399217 -333.42697412 256.28399217 -331.68255043 256.28515434 C-331.04079886 256.28284665 -330.39904729 256.28053897 -329.7378487 256.27816135 C-327.59080287 256.27287416 -325.44405795 256.28183457 -323.29702759 256.29074097 C-321.74092361 256.28986864 -320.18481991 256.28811715 -318.62871778 256.28556263 C-314.35524448 256.2810905 -310.08187142 256.28909096 -305.80841088 256.29911876 C-301.19906636 256.30775287 -296.58972753 256.30483312 -291.9803772 256.30331421 C-283.99521164 256.30226533 -276.01007876 256.30854221 -268.02492142 256.31978989 C-256.47971775 256.33604156 -244.93452988 256.34125255 -233.38931601 256.34376587 C-214.65813531 256.34814349 -195.92697202 256.36145443 -177.19580078 256.38037109 C-158.99983813 256.39872815 -140.8038802 256.41288551 -122.60791016 256.42138672 C-120.92560916 256.42217489 -120.92560916 256.42217489 -119.20932229 256.42297898 C-113.58293533 256.42558905 -107.95654834 256.42811647 -102.33016133 256.43060279 C-55.65108507 256.45133739 -8.97202781 256.48656476 37.70703125 256.53125 C37.62512819 227.06088919 37.53311817 197.59057358 37.42697964 168.12028994 C37.41446063 164.64179838 37.40202787 161.16330651 37.38964844 157.68481445 C37.38594945 156.64604784 37.38594945 156.64604784 37.38217573 155.58629604 C37.34244181 144.37026361 37.30969727 133.1542211 37.27953143 121.93815932 C37.24842777 110.43118748 37.20967493 98.92426272 37.16424119 87.41733807 C37.13896195 80.95334546 37.11718483 74.48938323 37.10368729 68.02535439 C37.09087995 61.9441569 37.06883975 55.86306353 37.03964806 49.78192329 C37.03056191 47.54741795 37.02487964 45.31289583 37.02281761 43.07837296 C37.01950245 40.03217632 37.00404493 36.9862762 36.98550415 33.94013977 C36.98840625 32.60793607 36.98840625 32.60793607 36.99136698 31.24881917 C36.95212384 26.94837477 36.86792754 23.38103332 34.70703125 19.53125 C30.79061342 17.1996724 27.0145242 17.27366283 22.53515625 17.265625 C21.51237579 17.26275482 21.51237579 17.26275482 20.46893311 17.25982666 C19.03006622 17.25847044 17.59118687 17.26212745 16.15234375 17.27050781 C13.97757622 17.28114947 11.8036472 17.27062829 9.62890625 17.2578125 C-4.74001849 17.16075945 -4.74001849 17.16075945 -17.29296875 23.53125 C-23.48678911 29.77668553 -25.34021558 36.25770316 -25.35546875 44.90625 C-25.32453125 46.700625 -25.32453125 46.700625 -25.29296875 48.53125 C-24.60332031 48.73878906 -23.91367187 48.94632813 -23.203125 49.16015625 C-11.42333263 53.02211836 -2.70445286 59.96931634 3.02734375 71.09375 C5.85966192 77.90715875 7.0722576 85.21323521 5.70703125 92.53125 C3.46283685 95.54886054 2.27469388 96.44079181 -1.48046875 97.03918457 C-3.36765625 97.04395813 -3.36765625 97.04395813 -5.29296875 97.04882812 C-5.98938477 97.0558374 -6.68580078 97.06284668 -7.40332031 97.07006836 C-9.70027807 97.08764196 -11.99599896 97.07602919 -14.29296875 97.0625 C-15.89192948 97.06519513 -17.49088862 97.06907773 -19.08984375 97.07409668 C-22.43896101 97.07999082 -25.78765118 97.07143192 -29.13671875 97.05273438 C-33.42775466 97.02994435 -37.71778986 97.04306796 -42.00878906 97.06702423 C-45.30997241 97.0814848 -48.61091886 97.07687515 -51.91210938 97.06651306 C-53.49414183 97.06384646 -55.07619586 97.06711322 -56.65820312 97.07643127 C-58.87037038 97.08660179 -61.08092175 97.0710919 -63.29296875 97.04882812 C-64.55109375 97.04564575 -65.80921875 97.04246338 -67.10546875 97.03918457 C-70.86063138 96.44079181 -72.04877435 95.54886054 -74.29296875 92.53125 C-76.03951374 83.16925519 -73.72520989 74.07974344 -68.78515625 66.09375 C-62.06675367 56.8442283 -54.15554522 51.80017488 -43.29296875 48.53125 C-43.2671875 47.43167969 -43.24140625 46.33210938 -43.21484375 45.19921875 C-42.72549374 30.70920359 -40.05397026 19.89477696 -29.2265625 9.55859375 C-20.53893581 2.23860776 -11.17153894 -0.09343851 0 0 Z M-53.9453125 75.62890625 C-55.47476338 77.59270002 -55.47476338 77.59270002 -56.29296875 80.53125 C-41.77296875 80.53125 -27.25296875 80.53125 -12.29296875 80.53125 C-15.0692835 74.83982368 -15.0692835 74.83982368 -19.16796875 70.78125 C-19.82539063 70.20890625 -20.4828125 69.6365625 -21.16015625 69.046875 C-32.86495868 60.72917657 -45.60292991 65.7282654 -53.9453125 75.62890625 Z M-342.29296875 278.59375 C-345.72012695 283.6273886 -345.95065535 287.51017552 -345.29296875 293.53125 C-342.94504217 298.4077129 -340.00536021 300.93462614 -335.29296875 303.53125 C-331.40144856 304.55077875 -327.71810731 304.65836524 -323.7057991 304.66267776 C-323.05439075 304.6647304 -322.40298241 304.66678303 -321.73183441 304.66889787 C-319.54591499 304.67455878 -317.36005876 304.67311175 -315.1741333 304.67169189 C-313.59230818 304.67427605 -312.01048372 304.67728935 -310.42866015 304.6806953 C-306.0791248 304.68876257 -301.72960596 304.69055472 -297.38006401 304.69129276 C-292.69008822 304.69314377 -288.00012099 304.70069132 -283.31015015 304.70742798 C-273.05397185 304.72100956 -262.79779746 304.72703565 -252.54161167 304.73143864 C-246.13811981 304.73420117 -239.73462945 304.73843852 -233.33113861 304.74294281 C-215.60291768 304.7551349 -197.87469796 304.76543456 -180.14647293 304.7688179 C-179.01184987 304.76903747 -177.87722682 304.76925703 -176.70822124 304.76948325 C-175.00221065 304.76981067 -175.00221065 304.76981067 -173.2617352 304.7701447 C-170.95704222 304.77058817 -168.65234923 304.77103473 -166.34765625 304.77148438 C-165.20444848 304.7717058 -164.06124071 304.77192723 -162.88339028 304.77215537 C-144.35670525 304.77610393 -125.83005954 304.79355999 -107.3033897 304.8168439 C-88.28394766 304.84055427 -69.26452537 304.8530196 -50.24506831 304.85418582 C-39.56567287 304.85510272 -28.88632866 304.86085886 -18.20694733 304.87900543 C-9.11385115 304.89440211 -0.02082206 304.8995294 9.07228467 304.89126733 C13.71134536 304.8873594 18.35027095 304.88829745 22.98931503 304.90232468 C27.23823652 304.91505477 31.48692126 304.91387393 35.73584238 304.90173396 C37.27083842 304.89977543 38.80585119 304.90286263 40.34082374 304.91157833 C53.14999556 305.38276506 53.14999556 305.38276506 64.31395793 300.07931638 C68.39961561 295.35578691 69.06295162 292.12944292 68.984375 286.0703125 C68.57326681 282.30664598 67.22416765 280.31334813 64.70703125 277.53125 C58.92190333 272.97700036 54.32251377 272.40756381 47.1198616 272.39982224 C46.46845325 272.3977696 45.81704491 272.39571697 45.14589691 272.39360213 C42.95997749 272.38794122 40.77412126 272.38938825 38.5881958 272.39080811 C37.00637068 272.38822395 35.42454622 272.38521065 33.84272265 272.3818047 C29.4931873 272.37373743 25.14366846 272.37194528 20.79412651 272.37120724 C16.10415072 272.36935623 11.41418349 272.36180868 6.72421265 272.35507202 C-3.53196565 272.34149044 -13.78814004 272.33546435 -24.04432583 272.33106136 C-30.44781769 272.32829883 -36.85130805 272.32406148 -43.25479889 272.31955719 C-60.98301982 272.3073651 -78.71123954 272.29706544 -96.43946457 272.2936821 C-97.57408763 272.29346253 -98.70871068 272.29324297 -99.87771626 272.29301675 C-101.58372685 272.29268933 -101.58372685 272.29268933 -103.3242023 272.2923553 C-105.62889528 272.29191183 -107.93358827 272.29146527 -110.23828125 272.29101562 C-111.38148902 272.2907942 -112.52469679 272.29057277 -113.70254722 272.29034463 C-132.22923225 272.28639607 -150.75587796 272.26894001 -169.2825478 272.2456561 C-188.30198984 272.22194573 -207.32141213 272.2094804 -226.34086919 272.20831418 C-237.02026463 272.20739728 -247.69960884 272.20164114 -258.37899017 272.18349457 C-267.47208635 272.16809789 -276.56511544 272.1629706 -285.65822217 272.17123267 C-290.29728286 272.1751406 -294.93620845 272.17420255 -299.57525253 272.16017532 C-303.82417402 272.14744523 -308.07285876 272.14862607 -312.32177988 272.16076604 C-313.85677592 272.16272457 -315.39178869 272.15963737 -316.92676124 272.15092167 C-330.89811335 271.69416653 -330.89811335 271.69416653 -342.29296875 278.59375 Z M-330.29296875 320.53125 C-332.8390804 358.06820878 -332.8390804 358.06820878 -317.53515625 389.48828125 C-306.04753978 399.955221 -292.65147713 400.68484325 -277.8706665 400.66496277 C-276.63089798 400.66722833 -275.39112945 400.66949388 -274.11379218 400.67182809 C-270.68893846 400.67704825 -267.2641374 400.67781555 -263.83928347 400.67663372 C-260.13908802 400.67642905 -256.43890031 400.68195471 -252.7387085 400.68669128 C-245.4953468 400.69498427 -238.25199325 400.69774552 -231.00862721 400.69830366 C-225.11837796 400.69877947 -219.22813139 400.70083747 -213.337883 400.70400429 C-196.62332614 400.71280724 -179.90877571 400.71742424 -163.19421652 400.71667381 C-161.8436604 400.71661388 -161.8436604 400.71661388 -160.46582031 400.71655273 C-159.56434516 400.71651185 -158.66287001 400.71647097 -157.73407742 400.71642885 C-143.12833193 400.7160225 -128.52261223 400.72559017 -113.9168742 400.7396911 C-98.90547642 400.75406885 -83.89409121 400.76096051 -68.88268638 400.76009732 C-60.46070246 400.75976583 -52.03874558 400.76249187 -43.61676788 400.77327538 C-36.44558765 400.7823988 -29.27444671 400.78454053 -22.10326317 400.77776595 C-18.44811248 400.77451001 -14.79303711 400.77441042 -11.13789368 400.7831192 C-7.16629648 400.79248421 -3.19480818 400.78618401 0.77679443 400.77848816 C1.91923166 400.78363172 3.06166889 400.78877529 4.23872542 400.79407471 C19.26063688 400.7299853 31.4567236 398.28651647 42.6640625 387.7734375 C59.23041188 369.59163149 53.70703125 343.10907598 53.70703125 320.53125 C-73.01296875 320.53125 -199.73296875 320.53125 -330.29296875 320.53125 Z " fill="#000000" transform="translate(394.29296875,31.46875)"/>
<path d="M0 0 C2.5 1.3125 2.5 1.3125 4 4 C5.08584245 10.44266518 4.49878701 15.67182798 0.71484375 21.03515625 C-1.33663917 23.38571641 -3.58536088 25.44431591 -5.875 27.5625 C-9.40105999 30.93595778 -9.40105999 30.93595778 -10.5625 35.625 C-8.6983577 39.65154737 -6.46359916 41.44653953 -3.078125 44.2109375 C1.35231511 48.02511338 3.66640348 51.47588476 4.44140625 57.33984375 C4.67054983 64.26589336 4.57061323 70.51526412 0 76 C-2.52666169 78.29095021 -5.12102535 80.48692904 -7.7265625 82.6875 C-10.6146095 85.6251698 -11.5681979 88.17788412 -12.40234375 92.15234375 C-13 94 -13 94 -16 96 C-22.77159309 96.64491363 -22.77159309 96.64491363 -26.5 94.6875 C-28.96819836 90.26531127 -28.66252999 85.93373398 -28 81 C-25.56114529 74.68114917 -21.01274198 71.01675766 -15.94921875 66.625 C-13.64666212 64.06349714 -13.64666212 64.06349714 -13.97265625 60.40234375 C-15.07016424 56.76763099 -15.74636089 55.7361862 -18.75 53.5625 C-24.06416433 49.22323632 -27.51487438 45.67064077 -28.44140625 38.66015625 C-28.67054983 31.73410664 -28.57061323 25.48473588 -24 20 C-21.47333831 17.70904979 -18.87897465 15.51307096 -16.2734375 13.3125 C-13.3853905 10.3748302 -12.4318021 7.82211588 -11.59765625 3.84765625 C-9.96387989 -1.2031687 -4.35376659 -0.65700703 0 0 Z " fill="#000000" transform="translate(276,176)"/>
<path d="M0 0 C2.5 1.3125 2.5 1.3125 4 4 C5.08584245 10.44266518 4.49878701 15.67182798 0.71484375 21.03515625 C-1.33663917 23.38571641 -3.58536088 25.44431591 -5.875 27.5625 C-9.40105999 30.93595778 -9.40105999 30.93595778 -10.5625 35.625 C-8.6983577 39.65154737 -6.46359916 41.44653953 -3.078125 44.2109375 C1.35231511 48.02511338 3.66640348 51.47588476 4.44140625 57.33984375 C4.67054983 64.26589336 4.57061323 70.51526412 0 76 C-2.52666169 78.29095021 -5.12102535 80.48692904 -7.7265625 82.6875 C-10.6146095 85.6251698 -11.5681979 88.17788412 -12.40234375 92.15234375 C-13 94 -13 94 -16 96 C-22.77159309 96.64491363 -22.77159309 96.64491363 -26.5 94.6875 C-28.96819836 90.26531127 -28.66252999 85.93373398 -28 81 C-25.56114529 74.68114917 -21.01274198 71.01675766 -15.94921875 66.625 C-13.64666212 64.06349714 -13.64666212 64.06349714 -13.97265625 60.40234375 C-15.07016424 56.76763099 -15.74636089 55.7361862 -18.75 53.5625 C-24.06416433 49.22323632 -27.51487438 45.67064077 -28.44140625 38.66015625 C-28.67054983 31.73410664 -28.57061323 25.48473588 -24 20 C-21.47333831 17.70904979 -18.87897465 15.51307096 -16.2734375 13.3125 C-13.3853905 10.3748302 -12.4318021 7.82211588 -11.59765625 3.84765625 C-9.96387989 -1.2031687 -4.35376659 -0.65700703 0 0 Z " fill="#000000" transform="translate(228,176)"/>
<path d="M0 0 C2.5 1.3125 2.5 1.3125 4 4 C5.08584245 10.44266518 4.49878701 15.67182798 0.71484375 21.03515625 C-1.33663917 23.38571641 -3.58536088 25.44431591 -5.875 27.5625 C-9.40105999 30.93595778 -9.40105999 30.93595778 -10.5625 35.625 C-8.6983577 39.65154737 -6.46359916 41.44653953 -3.078125 44.2109375 C1.35231511 48.02511338 3.66640348 51.47588476 4.44140625 57.33984375 C4.67054983 64.26589336 4.57061323 70.51526412 0 76 C-2.52666169 78.29095021 -5.12102535 80.48692904 -7.7265625 82.6875 C-10.6146095 85.6251698 -11.5681979 88.17788412 -12.40234375 92.15234375 C-13 94 -13 94 -16 96 C-22.77159309 96.64491363 -22.77159309 96.64491363 -26.5 94.6875 C-28.96819836 90.26531127 -28.66252999 85.93373398 -28 81 C-25.56114529 74.68114917 -21.01274198 71.01675766 -15.94921875 66.625 C-13.64666212 64.06349714 -13.64666212 64.06349714 -13.97265625 60.40234375 C-15.07016424 56.76763099 -15.74636089 55.7361862 -18.75 53.5625 C-24.06416433 49.22323632 -27.51487438 45.67064077 -28.44140625 38.66015625 C-28.67054983 31.73410664 -28.57061323 25.48473588 -24 20 C-21.47333831 17.70904979 -18.87897465 15.51307096 -16.2734375 13.3125 C-13.3853905 10.3748302 -12.4318021 7.82211588 -11.59765625 3.84765625 C-9.96387989 -1.2031687 -4.35376659 -0.65700703 0 0 Z " fill="#000000" transform="translate(180,176)"/>
<path d="M0 0 C2.5 1.3125 2.5 1.3125 4 4 C5.08584245 10.44266518 4.49878701 15.67182798 0.71484375 21.03515625 C-1.33663917 23.38571641 -3.58536088 25.44431591 -5.875 27.5625 C-9.40105999 30.93595778 -9.40105999 30.93595778 -10.5625 35.625 C-8.6983577 39.65154737 -6.46359916 41.44653953 -3.078125 44.2109375 C1.35231511 48.02511338 3.66640348 51.47588476 4.44140625 57.33984375 C4.67054983 64.26589336 4.57061323 70.51526412 0 76 C-2.52666169 78.29095021 -5.12102535 80.48692904 -7.7265625 82.6875 C-10.6146095 85.6251698 -11.5681979 88.17788412 -12.40234375 92.15234375 C-13 94 -13 94 -16 96 C-22.77159309 96.64491363 -22.77159309 96.64491363 -26.5 94.6875 C-28.96819836 90.26531127 -28.66252999 85.93373398 -28 81 C-25.56114529 74.68114917 -21.01274198 71.01675766 -15.94921875 66.625 C-13.64666212 64.06349714 -13.64666212 64.06349714 -13.97265625 60.40234375 C-15.07016424 56.76763099 -15.74636089 55.7361862 -18.75 53.5625 C-24.06416433 49.22323632 -27.51487438 45.67064077 -28.44140625 38.66015625 C-28.67054983 31.73410664 -28.57061323 25.48473588 -24 20 C-21.47333831 17.70904979 -18.87897465 15.51307096 -16.2734375 13.3125 C-13.3853905 10.3748302 -12.4318021 7.82211588 -11.59765625 3.84765625 C-9.96387989 -1.2031687 -4.35376659 -0.65700703 0 0 Z " fill="#000000" transform="translate(116,176)"/>
<path d="M0 0 C0.66 -0.0103125 1.32 -0.020625 2 -0.03125 C4.96483533 0.75628439 6.09612021 2.11284264 8 4.5 C8.51757812 7.64453125 8.51757812 7.64453125 8.53125 11.3125 C8.5350769 11.96323486 8.53890381 12.61396973 8.54284668 13.28442383 C8.54556076 14.65610304 8.53823453 16.02783444 8.52148438 17.39941406 C8.50006119 19.49401685 8.52129637 21.58519084 8.546875 23.6796875 C8.54423163 25.01563254 8.53910643 26.35157545 8.53125 27.6875 C8.52673828 28.89792969 8.52222656 30.10835937 8.51757812 31.35546875 C7.9070868 35.06449153 6.9419439 36.23929054 4 38.5 C2 39.03125 2 39.03125 0 39 C-0.99 39.01546875 -0.99 39.01546875 -2 39.03125 C-4.96483533 38.24371561 -6.09612021 36.88715736 -8 34.5 C-8.51757812 31.35546875 -8.51757812 31.35546875 -8.53125 27.6875 C-8.5350769 27.03676514 -8.53890381 26.38603027 -8.54284668 25.71557617 C-8.54556076 24.34389696 -8.53823453 22.97216556 -8.52148438 21.60058594 C-8.50006119 19.50598315 -8.52129637 17.41480916 -8.546875 15.3203125 C-8.54423163 13.98436746 -8.53910643 12.64842455 -8.53125 11.3125 C-8.52673828 10.10207031 -8.52222656 8.89164063 -8.51757812 7.64453125 C-7.71293614 2.75595163 -5.06603935 -0.07915686 0 0 Z " fill="#000000" transform="translate(392,180.5)"/>
<path d="M0 0 C0.66 -0.0103125 1.32 -0.020625 2 -0.03125 C4.96483533 0.75628439 6.09612021 2.11284264 8 4.5 C8.51757812 7.64453125 8.51757812 7.64453125 8.53125 11.3125 C8.5350769 11.96323486 8.53890381 12.61396973 8.54284668 13.28442383 C8.54556076 14.65610304 8.53823453 16.02783444 8.52148438 17.39941406 C8.50006119 19.49401685 8.52129637 21.58519084 8.546875 23.6796875 C8.54423163 25.01563254 8.53910643 26.35157545 8.53125 27.6875 C8.52673828 28.89792969 8.52222656 30.10835937 8.51757812 31.35546875 C7.9070868 35.06449153 6.9419439 36.23929054 4 38.5 C2 39.03125 2 39.03125 0 39 C-0.99 39.01546875 -0.99 39.01546875 -2 39.03125 C-4.96483533 38.24371561 -6.09612021 36.88715736 -8 34.5 C-8.51757812 31.35546875 -8.51757812 31.35546875 -8.53125 27.6875 C-8.5350769 27.03676514 -8.53890381 26.38603027 -8.54284668 25.71557617 C-8.54556076 24.34389696 -8.53823453 22.97216556 -8.52148438 21.60058594 C-8.50006119 19.50598315 -8.52129637 17.41480916 -8.546875 15.3203125 C-8.54423163 13.98436746 -8.53910643 12.64842455 -8.53125 11.3125 C-8.52673828 10.10207031 -8.52222656 8.89164063 -8.51757812 7.64453125 C-7.71293614 2.75595163 -5.06603935 -0.07915686 0 0 Z " fill="#000000" transform="translate(360,180.5)"/>
<path d="M0 0 C0.66 -0.0103125 1.32 -0.020625 2 -0.03125 C4.96483533 0.75628439 6.09612021 2.11284264 8 4.5 C8.51757812 7.64453125 8.51757812 7.64453125 8.53125 11.3125 C8.5350769 11.96323486 8.53890381 12.61396973 8.54284668 13.28442383 C8.54556076 14.65610304 8.53823453 16.02783444 8.52148438 17.39941406 C8.50006119 19.49401685 8.52129637 21.58519084 8.546875 23.6796875 C8.54423163 25.01563254 8.53910643 26.35157545 8.53125 27.6875 C8.52673828 28.89792969 8.52222656 30.10835937 8.51757812 31.35546875 C7.9070868 35.06449153 6.9419439 36.23929054 4 38.5 C2 39.03125 2 39.03125 0 39 C-0.99 39.01546875 -0.99 39.01546875 -2 39.03125 C-4.96483533 38.24371561 -6.09612021 36.88715736 -8 34.5 C-8.51757812 31.35546875 -8.51757812 31.35546875 -8.53125 27.6875 C-8.5350769 27.03676514 -8.53890381 26.38603027 -8.54284668 25.71557617 C-8.54556076 24.34389696 -8.53823453 22.97216556 -8.52148438 21.60058594 C-8.50006119 19.50598315 -8.52129637 17.41480916 -8.546875 15.3203125 C-8.54423163 13.98436746 -8.53910643 12.64842455 -8.53125 11.3125 C-8.52673828 10.10207031 -8.52222656 8.89164063 -8.51757812 7.64453125 C-7.71293614 2.75595163 -5.06603935 -0.07915686 0 0 Z " fill="#000000" transform="translate(328,180.5)"/>
<path d="M0 0 C0.66 -0.0103125 1.32 -0.020625 2 -0.03125 C4.91796104 0.7438334 6.0931088 2.19104167 8 4.5 C8.51757812 7.09375 8.51757812 7.09375 8.53125 10 C8.53640625 11.051875 8.5415625 12.10375 8.546875 13.1875 C8.53140625 14.280625 8.5159375 15.37375 8.5 16.5 C8.51546875 17.593125 8.5309375 18.68625 8.546875 19.8125 C8.54171875 20.864375 8.5365625 21.91625 8.53125 23 C8.52673828 23.9590625 8.52222656 24.918125 8.51757812 25.90625 C7.857725 29.21298564 6.58886445 30.40908706 4 32.5 C2 33.03125 2 33.03125 0 33 C-0.99 33.01546875 -0.99 33.01546875 -2 33.03125 C-4.91796104 32.2561666 -6.0931088 30.80895833 -8 28.5 C-8.51757812 25.90625 -8.51757812 25.90625 -8.53125 23 C-8.53640625 21.948125 -8.5415625 20.89625 -8.546875 19.8125 C-8.53140625 18.719375 -8.5159375 17.62625 -8.5 16.5 C-8.51546875 15.406875 -8.5309375 14.31375 -8.546875 13.1875 C-8.53914063 11.6096875 -8.53914063 11.6096875 -8.53125 10 C-8.52673828 9.0409375 -8.52222656 8.081875 -8.51757812 7.09375 C-7.60329874 2.51200272 -4.67433964 -0.07303656 0 0 Z " fill="#000000" transform="translate(392,223.5)"/>
<path d="M0 0 C0.66 -0.0103125 1.32 -0.020625 2 -0.03125 C4.91796104 0.7438334 6.0931088 2.19104167 8 4.5 C8.51757812 7.09375 8.51757812 7.09375 8.53125 10 C8.53640625 11.051875 8.5415625 12.10375 8.546875 13.1875 C8.53140625 14.280625 8.5159375 15.37375 8.5 16.5 C8.51546875 17.593125 8.5309375 18.68625 8.546875 19.8125 C8.54171875 20.864375 8.5365625 21.91625 8.53125 23 C8.52673828 23.9590625 8.52222656 24.918125 8.51757812 25.90625 C7.857725 29.21298564 6.58886445 30.40908706 4 32.5 C2 33.03125 2 33.03125 0 33 C-0.99 33.01546875 -0.99 33.01546875 -2 33.03125 C-4.91796104 32.2561666 -6.0931088 30.80895833 -8 28.5 C-8.51757812 25.90625 -8.51757812 25.90625 -8.53125 23 C-8.53640625 21.948125 -8.5415625 20.89625 -8.546875 19.8125 C-8.53140625 18.719375 -8.5159375 17.62625 -8.5 16.5 C-8.51546875 15.406875 -8.5309375 14.31375 -8.546875 13.1875 C-8.53914063 11.6096875 -8.53914063 11.6096875 -8.53125 10 C-8.52673828 9.0409375 -8.52222656 8.081875 -8.51757812 7.09375 C-7.60329874 2.51200272 -4.67433964 -0.07303656 0 0 Z " fill="#000000" transform="translate(360,223.5)"/>
<path d="M0 0 C0.66 -0.0103125 1.32 -0.020625 2 -0.03125 C4.91796104 0.7438334 6.0931088 2.19104167 8 4.5 C8.51757812 7.09375 8.51757812 7.09375 8.53125 10 C8.53640625 11.051875 8.5415625 12.10375 8.546875 13.1875 C8.53140625 14.280625 8.5159375 15.37375 8.5 16.5 C8.51546875 17.593125 8.5309375 18.68625 8.546875 19.8125 C8.54171875 20.864375 8.5365625 21.91625 8.53125 23 C8.52673828 23.9590625 8.52222656 24.918125 8.51757812 25.90625 C7.857725 29.21298564 6.58886445 30.40908706 4 32.5 C2 33.03125 2 33.03125 0 33 C-0.99 33.01546875 -0.99 33.01546875 -2 33.03125 C-4.91796104 32.2561666 -6.0931088 30.80895833 -8 28.5 C-8.51757812 25.90625 -8.51757812 25.90625 -8.53125 23 C-8.53640625 21.948125 -8.5415625 20.89625 -8.546875 19.8125 C-8.53140625 18.719375 -8.5159375 17.62625 -8.5 16.5 C-8.51546875 15.406875 -8.5309375 14.31375 -8.546875 13.1875 C-8.53914063 11.6096875 -8.53914063 11.6096875 -8.53125 10 C-8.52673828 9.0409375 -8.52222656 8.081875 -8.51757812 7.09375 C-7.60329874 2.51200272 -4.67433964 -0.07303656 0 0 Z " fill="#000000" transform="translate(328,223.5)"/>
<path d="M0 0 C0.66 -0.0103125 1.32 -0.020625 2 -0.03125 C4.91796104 0.7438334 6.0931088 2.19104167 8 4.5 C8.51757812 7.09375 8.51757812 7.09375 8.53125 10 C8.53640625 11.051875 8.5415625 12.10375 8.546875 13.1875 C8.53140625 14.280625 8.5159375 15.37375 8.5 16.5 C8.51546875 17.593125 8.5309375 18.68625 8.546875 19.8125 C8.54171875 20.864375 8.5365625 21.91625 8.53125 23 C8.52673828 23.9590625 8.52222656 24.918125 8.51757812 25.90625 C7.857725 29.21298564 6.58886445 30.40908706 4 32.5 C2 33.03125 2 33.03125 0 33 C-0.99 33.01546875 -0.99 33.01546875 -2 33.03125 C-4.91796104 32.2561666 -6.0931088 30.80895833 -8 28.5 C-8.51757812 25.90625 -8.51757812 25.90625 -8.53125 23 C-8.53640625 21.948125 -8.5415625 20.89625 -8.546875 19.8125 C-8.53140625 18.719375 -8.5159375 17.62625 -8.5 16.5 C-8.51546875 15.406875 -8.5309375 14.31375 -8.546875 13.1875 C-8.53914063 11.6096875 -8.53914063 11.6096875 -8.53125 10 C-8.52673828 9.0409375 -8.52222656 8.081875 -8.51757812 7.09375 C-7.60329874 2.51200272 -4.67433964 -0.07303656 0 0 Z " fill="#000000" transform="translate(392,143.5)"/>
<path d="M0 0 C0.66 -0.0103125 1.32 -0.020625 2 -0.03125 C4.91796104 0.7438334 6.0931088 2.19104167 8 4.5 C8.51757812 7.09375 8.51757812 7.09375 8.53125 10 C8.53640625 11.051875 8.5415625 12.10375 8.546875 13.1875 C8.53140625 14.280625 8.5159375 15.37375 8.5 16.5 C8.51546875 17.593125 8.5309375 18.68625 8.546875 19.8125 C8.54171875 20.864375 8.5365625 21.91625 8.53125 23 C8.52673828 23.9590625 8.52222656 24.918125 8.51757812 25.90625 C7.857725 29.21298564 6.58886445 30.40908706 4 32.5 C2 33.03125 2 33.03125 0 33 C-0.99 33.01546875 -0.99 33.01546875 -2 33.03125 C-4.91796104 32.2561666 -6.0931088 30.80895833 -8 28.5 C-8.51757812 25.90625 -8.51757812 25.90625 -8.53125 23 C-8.53640625 21.948125 -8.5415625 20.89625 -8.546875 19.8125 C-8.53140625 18.719375 -8.5159375 17.62625 -8.5 16.5 C-8.51546875 15.406875 -8.5309375 14.31375 -8.546875 13.1875 C-8.53914063 11.6096875 -8.53914063 11.6096875 -8.53125 10 C-8.52673828 9.0409375 -8.52222656 8.081875 -8.51757812 7.09375 C-7.60329874 2.51200272 -4.67433964 -0.07303656 0 0 Z " fill="#000000" transform="translate(360,143.5)"/>
<path d="M0 0 C0.66 -0.0103125 1.32 -0.020625 2 -0.03125 C4.91796104 0.7438334 6.0931088 2.19104167 8 4.5 C8.51757812 7.09375 8.51757812 7.09375 8.53125 10 C8.53640625 11.051875 8.5415625 12.10375 8.546875 13.1875 C8.53140625 14.280625 8.5159375 15.37375 8.5 16.5 C8.51546875 17.593125 8.5309375 18.68625 8.546875 19.8125 C8.54171875 20.864375 8.5365625 21.91625 8.53125 23 C8.52673828 23.9590625 8.52222656 24.918125 8.51757812 25.90625 C7.857725 29.21298564 6.58886445 30.40908706 4 32.5 C2 33.03125 2 33.03125 0 33 C-0.99 33.01546875 -0.99 33.01546875 -2 33.03125 C-4.91796104 32.2561666 -6.0931088 30.80895833 -8 28.5 C-8.51757812 25.90625 -8.51757812 25.90625 -8.53125 23 C-8.53640625 21.948125 -8.5415625 20.89625 -8.546875 19.8125 C-8.53140625 18.719375 -8.5159375 17.62625 -8.5 16.5 C-8.51546875 15.406875 -8.5309375 14.31375 -8.546875 13.1875 C-8.53914063 11.6096875 -8.53914063 11.6096875 -8.53125 10 C-8.52673828 9.0409375 -8.52222656 8.081875 -8.51757812 7.09375 C-7.60329874 2.51200272 -4.67433964 -0.07303656 0 0 Z " fill="#000000" transform="translate(328,143.5)"/>
</svg>
