<?xml version="1.0" encoding="UTF-8"?>
<svg version="1.1" xmlns="http://www.w3.org/2000/svg" width="512" height="512">
<path d="M0 0 C12.85420096 9.38232675 19.66170102 22.22831421 23.60546875 37.31640625 C26.45993065 56.73239959 22.29156613 74.03348726 10.5625 89.8125 C2.04927367 100.20526981 -10.66883604 108.48567438 -24 111 C-24.99 111 -25.98 111 -27 111 C-29.64021085 129.39226242 -29.64021085 129.39226242 -24.89086914 146.69836426 C-18.95954177 153.46403966 -10.24276842 157.51873729 -2.27294922 161.38671875 C1.67981005 163.33508763 5.31889972 165.59141049 9 168 C10.21774044 168.75163806 11.43654116 169.50156035 12.65625 170.25 C19.30793657 174.4073041 25.78579778 178.83929811 32.30029297 183.20703125 C38.80819924 187.56812752 45.31888731 191.90653927 52 196 C59.91290902 200.84817183 67.59395867 206.04021314 75.30029297 211.20703125 C81.80819924 215.56812752 88.31888731 219.90653927 95 224 C102.91290902 228.84817183 110.59395867 234.04021314 118.30029297 239.20703125 C124.80819924 243.56812752 131.31888731 247.90653927 138 252 C145.90877749 256.84564047 153.58598633 262.03471621 161.28820801 267.19897461 C168.65518503 272.13595859 176.0580367 276.98948201 183.60693359 281.64526367 C188.163188 284.46014497 192.66002831 287.35486765 197.125 290.3125 C197.72924805 290.70953125 198.33349609 291.1065625 198.95605469 291.515625 C206.24699917 296.37898381 211.58056283 301.33442756 216 309 C216.51626953 309.88945313 216.51626953 309.88945313 217.04296875 310.796875 C220.499204 318.13123338 220.14067522 328.27171725 218.2734375 336.01171875 C217.34436871 338.47790543 216.29375631 340.70613602 215 343 C214.649375 343.64324219 214.29875 344.28648437 213.9375 344.94921875 C209.55318186 351.96717245 201.73507952 356.46003287 194 359 C191.23388563 359.27448814 188.70008528 359.40949623 185.94134235 359.38590336 C185.15514359 359.39116247 184.36894482 359.39642158 183.55892184 359.40184006 C180.92635405 359.41578803 178.29428568 359.40843243 175.66169739 359.40113831 C173.75442163 359.40674389 171.84714931 359.41364651 169.93988246 359.42173427 C164.69989705 359.4400924 159.4600552 359.43968704 154.22004497 359.43615115 C148.56819306 359.43553922 142.91638731 359.45209452 137.26455688 359.46632385 C126.19161842 359.49124786 115.11872787 359.49948859 104.04576371 359.50116099 C95.04478634 359.50258634 86.04382477 359.50874995 77.0428524 359.51826286 C55.6764723 359.54038488 34.31010698 359.55883718 12.9437151 359.55726719 C12.26051553 359.55722045 11.57731596 359.55717372 10.87341338 359.55712556 C7.41076239 359.55687625 3.94811142 359.55657912 0.48546044 359.55627144 C-0.20221988 359.55621161 -0.8899002 359.55615177 -1.59841932 359.55609012 C-2.98907688 359.55596881 -4.37973443 359.55584342 -5.77039199 359.55571395 C-27.40175738 359.55387611 -49.03298163 359.57638822 -70.66430664 359.61743164 C-94.9740181 359.66353818 -119.283608 359.68929083 -143.59337217 359.68654197 C-156.46214128 359.685546 -169.33075124 359.69378965 -182.19948387 359.72607613 C-193.15678964 359.75339075 -204.11386412 359.7599175 -215.07118919 359.73954786 C-220.66059687 359.72975152 -226.24956082 359.7295836 -231.83892632 359.7556076 C-236.95966679 359.7792042 -242.07961173 359.77490874 -247.2003328 359.74875521 C-249.0489152 359.74415036 -250.89755697 359.74959866 -252.74606933 359.76633544 C-264.56519245 359.86622715 -274.16285746 359.07698831 -283.45127648 350.8212567 C-290.77350564 343.41849295 -293.35652888 335.71314215 -293.5 325.5 C-293.37042116 315.50936255 -290.87706235 308.42961787 -284.07421875 300.984375 C-279.14921771 296.27269792 -274.12002959 292.24318363 -268.25 288.75 C-260.59098596 284.08007345 -253.13390156 279.12385651 -245.6875 274.125 C-237.01415243 268.30743775 -228.29167042 262.59078714 -219.43603516 257.05297852 C-214.14320617 253.73875019 -208.92931985 250.32499932 -203.74633789 246.84204102 C-198.75721764 243.49289053 -193.72930238 240.20673917 -188.6875 236.9375 C-180.84311292 231.85013281 -173.01127675 226.74401177 -165.1875 221.625 C-152.195585 213.1257497 -139.192351 204.64395528 -126.18652344 196.16601562 C-114.02812923 188.2401071 -101.87529943 180.3057815 -89.72949219 172.3605957 C-84.34173558 168.8367444 -78.95225285 165.31559283 -73.55859375 161.80078125 C-72.52798828 161.12917969 -71.49738281 160.45757812 -70.43554688 159.765625 C-68.5061406 158.5086828 -66.57647394 157.25214014 -64.64648438 155.99609375 C-63.77185547 155.42632812 -62.89722656 154.8565625 -61.99609375 154.26953125 C-61.24513428 153.78073486 -60.4941748 153.29193848 -59.72045898 152.78833008 C-58.82270752 152.19818115 -57.92495605 151.60803223 -57 151 C-56.2473436 150.61863388 -55.49468719 150.23726776 -54.71922302 149.84434509 C-49.88310227 147.22764446 -49.88310227 147.22764446 -47.20368958 142.64750671 C-46.92758224 139.75783564 -46.9356253 136.99067918 -47.04296875 134.08984375 C-47.04299393 133.04478165 -47.0430191 131.99971954 -47.04304504 130.92298889 C-47.04893727 127.59260742 -47.11455889 124.26703303 -47.1875 120.9375 C-47.23392524 117.60522581 -47.26736326 114.27388217 -47.27839661 110.94129944 C-47.28793195 108.87095277 -47.31920715 106.80056384 -47.37480164 104.73094177 C-47.44413982 97.73624163 -47.44413982 97.73624163 -45.11645508 93.87768555 C-42.77675704 91.80194237 -41.56801897 91.27384247 -38.5 90.875 C-37.18515625 90.66230469 -37.18515625 90.66230469 -35.84375 90.4453125 C-34.9053125 90.29835938 -33.966875 90.15140625 -33 90 C-20.09082327 87.52007921 -10.90136292 82.71805248 -3 72 C3.46331328 61.95878116 4.33681585 50.41626268 1.875 38.9375 C-1.08879364 28.06093655 -8.19124588 20.3397148 -17.5625 14.359375 C-26.70251109 9.26206113 -37.03672691 8.57684929 -47.2109375 10.65625 C-57.17839496 13.62855094 -65.37451465 18.65102038 -70.7578125 27.69921875 C-71.16773438 28.45847656 -71.57765625 29.21773437 -72 30 C-72.38929688 30.68707031 -72.77859375 31.37414062 -73.1796875 32.08203125 C-76.07626382 37.78004086 -76.78501136 43.44393509 -77.41015625 49.765625 C-78.14644002 53.80299561 -79.41754458 56.81315844 -82.75 59.3125 C-86.0210618 60.31199111 -88.59742588 60.3581657 -92 60 C-94.75329021 58.20437595 -96.52627461 56.94745078 -98 54 C-99.27313145 36.22512633 -94.18341769 21.11774867 -82.54296875 7.60546875 C-60.53218983 -14.94628169 -25.73304353 -17.81518398 0 0 Z M-44.8125 167.3125 C-45.54823242 167.79396484 -46.28396484 168.27542969 -47.04199219 168.77148438 C-48.73519386 169.88033079 -50.42698274 170.99133625 -52.11767578 172.10400391 C-55.26140931 174.17195534 -58.40958937 176.23305871 -61.55859375 178.29296875 C-67.12628268 181.93605086 -72.69115984 185.58340201 -78.25492859 189.23246765 C-84.40153326 193.26369283 -90.5499993 197.29207325 -96.69876099 201.32000732 C-99.11435679 202.90246547 -101.52984071 204.48509436 -103.94532776 206.06771851 C-108.75018341 209.21584569 -113.55518757 212.36374586 -118.36050415 215.51116943 C-131.57755877 224.16819438 -144.79142323 232.83004438 -158 241.5 C-171.80281015 250.56000348 -185.61166303 259.6107472 -199.42333984 268.65722656 C-203.02850119 271.01860416 -206.63341533 273.38035894 -210.23828125 275.7421875 C-210.83809814 276.13514511 -211.43791504 276.52810272 -212.0559082 276.93296814 C-215.06412731 278.90379107 -218.07210284 280.87498387 -221.07958984 282.84692383 C-226.70729652 286.53632067 -232.33733146 290.22201198 -237.97549438 293.89541626 C-240.61949069 295.61835337 -243.26218461 297.34328246 -245.90478516 299.06835938 C-247.1569048 299.88494521 -248.40965187 300.70056993 -249.66308594 301.51513672 C-263.60280633 309.60522686 -263.60280633 309.60522686 -273 322 C-273.64279658 327.23420071 -272.85275218 330.57331558 -270 335 C-265.03002662 339.59722538 -261.16376816 340.14768271 -254.61979961 340.13142776 C-253.8583675 340.1334804 -253.09693539 340.13553303 -252.31242958 340.13764787 C-249.74022738 340.14333885 -247.16807838 340.14185804 -244.59587097 340.14044189 C-242.74139717 340.14302432 -240.88692392 340.14603714 -239.03245145 340.1494453 C-233.92010219 340.15753283 -228.80776695 340.15930584 -223.69541204 340.16004276 C-218.18813726 340.16189026 -212.6808698 340.16943603 -207.17359924 340.17617798 C-195.12417252 340.18977398 -183.07474912 340.19578791 -171.025316 340.20018864 C-163.50590872 340.20294876 -155.98650273 340.20718567 -148.46709633 340.21169281 C-127.66017717 340.22388682 -106.85325882 340.23422147 -86.04633617 340.2375679 C-84.70056817 340.23778954 -83.35480016 340.23801132 -82.00903215 340.23823325 C-80.65999221 340.23845389 -79.31095227 340.23867438 -77.96191233 340.2388947 C-75.25545132 340.23933726 -72.54899031 340.23978437 -69.8425293 340.24023438 C-68.8359603 340.24039846 -68.8359603 340.24039846 -67.80905657 340.24056586 C-46.04521481 340.24419735 -24.28140633 340.26012071 -2.51757731 340.28342474 C20.48583146 340.3080111 43.48922655 340.32173344 66.49265021 340.32293582 C79.03483539 340.32385371 91.57697697 340.32963459 104.11915016 340.34775543 C114.7974286 340.36312865 125.47564998 340.36829332 136.15393738 340.36001733 C141.60473677 340.35610104 147.05542115 340.35708805 152.50620651 340.37107468 C157.49335804 340.38375492 162.48030744 340.38266803 167.46745845 340.37048396 C169.27432955 340.36851674 171.08121469 340.37165236 172.88806603 340.38032833 C175.33971669 340.39135771 177.79064607 340.38397779 180.24227619 340.3719368 C180.94761202 340.37953199 181.65294784 340.38712718 182.37965748 340.39495254 C186.97532177 340.34605736 190.08785238 339.39403089 194 337 C197.70179396 333.09255082 199.61204736 329.49398124 200.4375 324.1875 C199.68633552 318.71473019 197.02087374 314.66043514 192.75512695 311.15551758 C190.0287834 309.2885171 187.25625111 307.53678672 184.4375 305.8125 C182.35666797 304.49886084 180.27594064 303.18505582 178.1953125 301.87109375 C176.63151855 300.8963208 176.63151855 300.8963208 175.03613281 299.90185547 C170.590443 297.11704334 166.20245582 294.2465197 161.8125 291.375 C160.17355989 290.30930687 158.53423763 289.24420124 156.89453125 288.1796875 C151.92907075 284.95407354 146.96447688 281.72712756 142 278.5 C140.33333705 277.41666095 138.66667039 276.33332761 137 275.25 C67 229.75 67 229.75 64.49926758 228.12451172 C62.8350572 227.0427831 61.17083197 225.96107732 59.5065918 224.87939453 C55.30222105 222.14669755 51.09812086 219.41358595 46.89453125 216.6796875 C39.10149196 211.61182146 31.30633217 206.54737182 23.5 201.5 C17.39054296 197.5497836 11.28701954 193.59054413 5.1875 189.625 C3.94238647 188.81554932 3.94238647 188.81554932 2.67211914 187.98974609 C-1.66215638 185.1715683 -5.99553994 182.35202594 -10.328125 179.53125 C-14.49866644 176.81632896 -18.67189758 174.10559141 -22.84716797 171.39794922 C-24.77667251 170.14501851 -26.70308591 168.88748745 -28.62890625 167.62890625 C-29.61761719 166.98824219 -30.60632813 166.34757813 -31.625 165.6875 C-32.44226563 165.15511719 -33.25953125 164.62273437 -34.1015625 164.07421875 C-38.34514909 161.67301235 -41.2333522 164.94441826 -44.8125 167.3125 Z " fill="#000000" transform="translate(293,82)"/>
</svg>
