<?xml version="1.0" encoding="UTF-8"?>
<svg version="1.1" xmlns="http://www.w3.org/2000/svg" width="512" height="512">
<path d="M0 0 C2.69990662 1.79993774 4.5418865 3.083773 6 6 C6.08902493 7.35845193 6.11760132 8.72115974 6.11352539 10.08251953 C6.11340454 10.93499268 6.11328369 11.78746582 6.11315918 12.66577148 C6.10548523 14.01070679 6.10548523 14.01070679 6.09765625 15.3828125 C6.09664917 16.20644287 6.09564209 17.03007324 6.09460449 17.87866211 C6.08936519 20.96078886 6.07540396 24.0428958 6.0625 27.125 C6.041875 34.01375 6.02125 40.9025 6 48 C28.11 48 50.22 48 73 48 C73 43.38 73 38.76 73 34 C78.12070056 28.87929944 78.12070056 28.87929944 83.15510559 28.85955811 C84.02570114 28.85384796 84.89629669 28.84813782 85.79327393 28.84225464 C86.75070496 28.84113678 87.70813599 28.84001892 88.69458008 28.83886719 C89.70121201 28.83390228 90.70784393 28.82893738 91.74497986 28.82382202 C95.08650386 28.80917611 98.42798038 28.80239417 101.76953125 28.796875 C104.08640037 28.79112533 106.40326947 28.78536758 108.72013855 28.77960205 C113.58336611 28.769085 118.44657711 28.76324701 123.30981445 28.75976562 C129.54437823 28.75428094 135.77872361 28.73025624 142.01321888 28.70179367 C146.80100648 28.68317814 151.58874138 28.67796225 156.37656212 28.67642975 C158.67508831 28.6734 160.9736135 28.66536068 163.27210426 28.65224457 C166.48731764 28.63520787 169.70199625 28.63705877 172.91723633 28.64355469 C174.34427383 28.62973251 174.34427383 28.62973251 175.80014038 28.6156311 C180.66320253 28.64644048 184.08903598 28.75614539 188 32 C190.38979311 36.77958622 189 42.65626015 189 48 C213.09 48 237.18 48 262 48 C262 44.04 262 40.08 262 36 C265.49055568 30.18240719 265.49055568 30.18240719 269 29 C271.10522461 28.74831772 271.10522461 28.74831772 273.40234375 28.74603271 C274.27713379 28.74039307 275.15192383 28.73475342 276.05322266 28.72894287 C277.48093994 28.73501556 277.48093994 28.73501556 278.9375 28.74121094 C279.94603027 28.7377063 280.95456055 28.73420166 281.99365234 28.73059082 C285.32917147 28.72178446 288.6644787 28.72761889 292 28.734375 C294.31640666 28.73302804 296.63281305 28.73108724 298.94921875 28.72857666 C303.80471487 28.72562688 308.66013743 28.72991842 313.515625 28.73925781 C319.74346777 28.75065219 325.97113816 28.74409195 332.19897461 28.73211288 C336.98243512 28.7248904 341.76585467 28.72718402 346.54931641 28.73236847 C348.84586609 28.73370389 351.14241948 28.73206102 353.43896484 28.72740936 C356.64691029 28.72233784 359.85457546 28.73006341 363.0625 28.74121094 C364.01431152 28.73716248 364.96612305 28.73311401 365.94677734 28.72894287 C366.82156738 28.73458252 367.69635742 28.74022217 368.59765625 28.74603271 C369.35570557 28.74678677 370.11375488 28.74754082 370.89477539 28.74831772 C373.35502286 29.04244343 374.9093579 29.6758666 377 31 C379 34 379 34 379 48 C396.49 48 413.98 48 432 48 C431.80237919 34.07336341 431.80237919 34.07336341 431.54956055 20.14770508 C431.53495208 18.39666264 431.52221225 16.64560318 431.51171875 14.89453125 C431.48613892 13.99166382 431.46055908 13.08879639 431.4342041 12.15856934 C431.43106739 7.62979168 431.51849054 5.64138545 434.31176758 1.9206543 C437 0 437 0 440.5 -0.625 C444.86301349 0.15410955 446.28467759 1.56591578 449 5 C450.17937152 8.53811457 450.1278501 11.33132624 450.13142776 15.06785297 C450.1334804 15.79551761 450.13553303 16.52318225 450.13764787 17.27289733 C450.14333738 19.7302322 450.14185822 22.18751136 450.14044189 24.64485168 C450.14302441 26.41682951 450.14603725 28.18880675 450.1494453 29.96078318 C450.15753184 34.8451011 450.15930579 39.72940434 450.16004276 44.61372817 C450.16189043 49.87560206 450.16943629 55.13746829 450.17617798 60.39933777 C450.18977329 71.91159149 450.19578781 83.42384174 450.20018864 94.93610215 C450.20294888 102.12049003 450.20718582 109.30487656 450.21169281 116.48926353 C450.22388675 136.36971992 450.23418601 156.25017522 450.2375679 176.13063526 C450.23778747 177.40359336 450.23800703 178.67655147 450.23823325 179.98808406 C450.23845153 181.26413464 450.23866981 182.54018522 450.2388947 183.854904 C450.23933817 186.44078561 450.23978473 189.02666722 450.24023438 191.61254883 C450.2404558 192.89524281 450.24067723 194.1779368 450.24090537 195.4995003 C450.24485481 216.29162144 450.26231273 237.08370757 450.2855939 257.87581519 C450.30928793 279.20831463 450.32176885 300.54079649 450.32293582 321.87330931 C450.32385365 333.85658181 450.32963305 345.83980867 450.34775543 357.82306862 C450.3631301 368.02557638 450.36829246 378.22802442 450.36001733 388.43054155 C450.35610155 393.63831097 450.35708557 398.84596002 450.37107468 404.05371475 C450.38375798 408.81881866 450.38266533 413.58371106 450.37048396 418.34881445 C450.36851727 420.07493248 450.37164995 421.8010652 450.38032833 423.52716253 C450.39136361 425.86990803 450.38397367 428.2118995 450.3719368 430.5546236 C450.37253389 431.856957 450.37313097 433.1592904 450.37374616 434.50108844 C449.96345774 438.34209884 449.04170947 440.73711989 447 444 C443.24952518 446.50031654 441.44143734 446.53603554 437 446 C433.354025 443.27079872 432.12901094 441.78725441 431.38476086 437.24566936 C431.3638384 435.753249 431.37040992 434.26028847 431.39872742 432.76799011 C431.39445529 431.94292396 431.39018317 431.11785782 431.38578159 430.26778966 C431.37755017 427.50503998 431.40503831 424.7438108 431.43237305 421.98120117 C431.43378349 420.00019364 431.43299162 418.0191835 431.43016052 416.03817749 C431.42872482 410.66031722 431.45814002 405.28301355 431.49303031 399.90528274 C431.52426781 394.28521652 431.5272225 388.66513781 431.53315735 383.04499817 C431.54870341 372.40254333 431.58974239 361.76034502 431.6399048 351.11800319 C431.69577437 339.00207177 431.72327879 326.88612815 431.74838197 314.7701 C431.80065749 289.8465583 431.89235898 264.92336832 432 240 C414.51 240 397.02 240 379 240 C379.05800781 247.7034375 379.11601562 255.406875 379.17578125 263.34375 C379.2013343 268.22918777 379.22540436 273.11454295 379.24414062 278 C379.27400943 285.75147654 379.30931329 293.50265727 379.37719727 301.25390625 C379.43159435 307.50441221 379.46143727 313.75460088 379.47438622 320.00532532 C379.48361211 322.3879343 379.50162825 324.77052627 379.52865028 327.15299988 C379.56504124 330.49495734 379.56994091 333.83561009 379.56762695 337.17773438 C379.58560333 338.15885193 379.60357971 339.13996948 379.62210083 340.15081787 C379.57323585 346.68948855 378.16319956 350.91763118 374 356 C368.35561863 361.49965364 362.36731169 362.29982552 354.73486328 362.2746582 C353.92753754 362.27976913 353.12021179 362.28488007 352.28842163 362.29014587 C349.63230883 362.30399129 346.976457 362.30308881 344.3203125 362.30078125 C342.46475123 362.30467118 340.60919084 362.30900646 338.75363159 362.31376648 C334.86843985 362.321218 330.983339 362.32094532 327.09814453 362.31567383 C322.13291729 362.30988306 317.16806355 362.32680591 312.20289803 362.3500185 C308.37146855 362.36479061 304.54012829 362.36562277 300.70867538 362.36250877 C298.87874487 362.36302032 297.04880915 362.36822656 295.2189064 362.37832069 C292.65367005 362.39073436 290.08915168 362.38386407 287.52392578 362.37231445 C286.77665222 362.37995819 286.02937866 362.38760193 285.25946045 362.39547729 C278.74159722 362.33100494 273.28061233 360.92585041 268.1875 356.625 C263.86960511 351.44352614 261.87169955 347.25918002 261.87974548 340.53277588 C261.87768349 339.19929863 261.87768349 339.19929863 261.87557983 337.83888245 C261.87917511 336.871436 261.88277039 335.90398956 261.88647461 334.90722656 C261.88632858 333.88251755 261.88618256 332.85780853 261.8860321 331.80204773 C261.88672879 328.41488529 261.89450985 325.02777783 261.90234375 321.640625 C261.90420879 319.29221629 261.90563229 316.94380719 261.90663147 314.59539795 C261.91044984 308.41403123 261.92027436 302.232688 261.93133545 296.05133057 C261.94336253 288.63490789 261.94795505 281.21847736 261.95378876 273.80204773 C261.96348644 262.53468215 261.98264779 251.26736811 262 240 C237.91 240 213.82 240 189 240 C189.11861684 259.80505509 189.11861684 259.80505509 189.27026367 279.60986328 C189.27902728 282.09667576 189.28667152 284.58349255 189.29296875 287.0703125 C189.3159906 288.99991821 189.3159906 288.99991821 189.33947754 290.96850586 C189.34002136 292.82511841 189.34002136 292.82511841 189.34057617 294.71923828 C189.35056892 296.32474045 189.35056892 296.32474045 189.36076355 297.962677 C188.7568772 303.04688771 186.59877739 306.97711501 182.6875 310.25 C182.13449219 310.72953125 181.58148438 311.2090625 181.01171875 311.703125 C175.90549571 314.99490373 170.65082405 315.29416555 164.73486328 315.2746582 C163.92753754 315.27976913 163.12021179 315.28488007 162.28842163 315.29014587 C159.63230883 315.30399129 156.976457 315.30308881 154.3203125 315.30078125 C152.46475123 315.30467118 150.60919084 315.30900646 148.75363159 315.31376648 C144.86843985 315.321218 140.983339 315.32094532 137.09814453 315.31567383 C132.13291729 315.30988306 127.16806355 315.32680591 122.20289803 315.3500185 C118.37146855 315.36479061 114.54012829 315.36562277 110.70867538 315.36250877 C108.87874487 315.36302032 107.04880915 315.36822656 105.2189064 315.37832069 C102.65367005 315.39073436 100.08915168 315.38386407 97.52392578 315.37231445 C96.77665222 315.37995819 96.02937866 315.38760193 95.25946045 315.39547729 C89.12618593 315.33480916 83.52062572 314.14447746 78.72265625 310.0625 C78.17480469 309.381875 77.62695312 308.70125 77.0625 308 C76.49660156 307.319375 75.93070312 306.63875 75.34765625 305.9375 C72.85749382 302.35744039 72.87774782 299.29230955 72.88647461 295.05981445 C72.88659546 293.82171021 72.88671631 292.58360596 72.88684082 291.3079834 C72.89195679 290.00623169 72.89707275 288.70447998 72.90234375 287.36328125 C72.90335083 286.1671521 72.90435791 284.97102295 72.90539551 283.73864746 C72.91063419 279.26325525 72.92459542 274.78787668 72.9375 270.3125 C72.958125 260.309375 72.97875 250.30625 73 240 C50.89 240 28.78 240 6 240 C6.02094727 246.03240967 6.04189453 252.06481934 6.06347656 258.2800293 C6.12965804 278.17706599 6.1741036 298.07410692 6.20724869 317.97122478 C6.2278848 330.03873486 6.25602555 342.10614077 6.30175781 354.17358398 C6.34159333 364.69004552 6.36742517 375.20643161 6.37635398 385.72296649 C6.38157427 391.29279435 6.39386582 396.86240638 6.42292023 402.43216515 C6.4500373 407.67291493 6.45845244 412.91335962 6.45243073 418.1541729 C6.45353262 420.07909553 6.46150847 422.00402819 6.4768219 423.92889023 C6.49669185 426.55495457 6.49195032 429.17986351 6.48101807 431.80595398 C6.49266943 432.56957943 6.5043208 433.33320488 6.51632524 434.1199705 C6.4609893 439.02972942 5.51333531 441.56140163 2 445 C-0.7798816 446.3899408 -2.9186326 446.18488204 -6 446 C-8.49930203 445.16689932 -9.62230573 444.56100638 -11.09364486 442.37555981 C-12.3462195 439.09255755 -12.25081453 436.25449558 -12.25168228 432.74104309 C-12.25458916 432.00487192 -12.25749604 431.26870075 -12.26049101 430.51022136 C-12.26782157 428.0299254 -12.26083349 425.54987446 -12.25396729 423.06958008 C-12.25627051 421.27881398 -12.2594461 419.48804882 -12.26342177 417.69728565 C-12.27179742 412.76573691 -12.26763196 407.83426524 -12.26144934 402.90271616 C-12.25693715 397.58840815 -12.26390246 392.27411369 -12.26940918 386.95980835 C-12.27831804 376.54487094 -12.27637453 366.12996231 -12.2705839 355.71502376 C-12.26607328 347.25309815 -12.2654519 338.79118062 -12.26763153 330.32925415 C-12.267938 329.12644422 -12.26824446 327.9236343 -12.26856022 326.68437558 C-12.26919964 324.24114664 -12.26984807 321.7979177 -12.2705054 319.35468876 C-12.27621307 296.42648184 -12.26964396 273.4982909 -12.25890467 250.5700866 C-12.24996876 230.88232838 -12.25152068 211.19459373 -12.26074219 191.50683594 C-12.27143711 168.66254507 -12.2756637 145.81826821 -12.26951766 122.97397518 C-12.26888054 120.53956541 -12.2682518 118.10515563 -12.26763153 115.67074585 C-12.26732298 114.47286479 -12.26701443 113.27498374 -12.26669653 112.04080325 C-12.26496725 103.58576199 -12.26788969 95.13072959 -12.27259064 86.6756897 C-12.27819084 76.37653624 -12.27670119 66.07741328 -12.26602915 55.77826333 C-12.26076082 50.52013103 -12.2587354 45.26204965 -12.26532745 40.00391769 C-12.27126506 35.19519991 -12.26804817 30.38658048 -12.25737235 25.57787168 C-12.25512899 23.83365266 -12.25629541 22.08942541 -12.26112393 20.34521163 C-12.26716412 17.98300688 -12.26100973 15.62114352 -12.25168228 13.25895691 C-12.25135758 11.94425509 -12.25103287 10.62955328 -12.25069833 9.27501202 C-12.01582198 6.20669141 -11.6981056 4.52227308 -10 2 C-6.77706714 -0.3020949 -3.88003676 -0.47510654 0 0 Z M91 47 C90.96998243 69.90446857 90.96998243 69.90446857 90.94974613 92.80893993 C90.94419427 100.99706282 90.93713445 109.18517558 90.92456055 117.37329102 C90.91461359 123.85381342 90.90814654 130.33432819 90.90591151 136.81485802 C90.90460442 140.24830542 90.9015187 143.681731 90.89426994 147.11517143 C90.88625584 150.94193821 90.88600887 154.76868335 90.88647461 158.59545898 C90.88287933 159.74200455 90.87928406 160.88855011 90.87557983 162.06983948 C90.8769545 163.10615509 90.87832916 164.1424707 90.87974548 165.21018982 C90.87882369 166.11631232 90.8779019 167.02243483 90.87695217 167.95601559 C90.77284166 169.99395435 90.77284166 169.99395435 92 171 C94.42857035 171.10029857 96.82871613 171.13618425 99.2578125 171.12939453 C100.01713074 171.13114685 100.77644897 171.13289917 101.55877686 171.13470459 C104.08087416 171.1391233 106.60290193 171.13618506 109.125 171.1328125 C110.86995456 171.13348553 112.61490904 171.13445555 114.35986328 171.13571167 C118.02181895 171.13718867 121.68375028 171.13503403 125.34570312 171.13037109 C130.05044492 171.1246738 134.75512968 171.1279528 139.45986938 171.13394356 C143.06453891 171.13754912 146.66919482 171.13641061 150.27386475 171.13381577 C152.00909431 171.13314648 153.74432509 171.13397496 155.47955322 171.13629532 C157.90046487 171.13882177 160.32128286 171.13498138 162.7421875 171.12939453 C163.46637878 171.13141876 164.19057007 171.13344299 164.93670654 171.13552856 C168.25154091 171.4099048 168.25154091 171.4099048 171 170 C171.09597204 168.40577964 171.12187924 166.8072955 171.12025452 165.21018982 C171.12162918 164.17387421 171.12300385 163.13755859 171.12442017 162.06983948 C171.12082489 160.92329391 171.11722961 159.77674835 171.11352539 158.59545898 C171.11367142 157.39562378 171.11381744 156.19578857 171.1139679 154.95959473 C171.11338894 151.66014809 171.10835978 148.36076336 171.10139394 145.0613277 C171.09515973 141.61665703 171.09455655 138.17198562 171.09336853 134.72731018 C171.09025541 128.2001727 171.08204229 121.67305189 171.07201904 115.14592177 C171.0597632 106.98856042 171.05427529 98.83119638 171.04882812 90.67382812 C171.03907686 76.11587242 171.0190466 61.55795311 171 47 C144.6 47 118.2 47 91 47 Z M280 47 C279.979375 59.354375 279.95875 71.70875 279.9375 84.4375 C279.928396 88.34392334 279.91929199 92.25034668 279.90991211 96.27514648 C279.90656847 99.76520494 279.90656847 99.76520494 279.90455627 103.25526428 C279.90301684 104.8143899 279.89949193 106.3735143 279.89442444 107.93263245 C279.88714601 110.28901246 279.88609261 112.64531948 279.88647461 115.00170898 C279.8828765 115.70073806 279.87927839 116.39976713 279.87557125 117.1199789 C279.60970723 120.33845984 279.60970723 120.33845984 281 123 C283.45905221 123.1003188 285.89003428 123.1361818 288.34960938 123.12939453 C289.11868118 123.13114685 289.88775299 123.13289917 290.68013 123.13470459 C293.23469263 123.1391234 295.78918661 123.13618502 298.34375 123.1328125 C300.11112481 123.13348553 301.87849953 123.13445555 303.64587402 123.13571167 C307.35490803 123.13718868 311.063918 123.13503398 314.77294922 123.13037109 C319.53822493 123.1246738 324.30344432 123.12795279 329.06871796 123.13394356 C332.71971057 123.13754908 336.37068973 123.13641062 340.02168274 123.13381577 C341.77924099 123.13314647 343.53680045 123.133975 345.2943573 123.13629532 C347.74640154 123.13882171 350.19835331 123.13498146 352.65039062 123.12939453 C353.75070366 123.13243088 353.75070366 123.13243088 354.87324524 123.13552856 C358.22137383 123.41575358 358.22137383 123.41575358 361 122 C361.09492895 119.65741937 361.12558483 117.34457881 361.11352539 115.00170898 C361.11364593 114.25817452 361.11376646 113.51464006 361.11389065 112.74857426 C361.11314159 110.33105079 361.10551371 107.9136035 361.09765625 105.49609375 C361.09618681 104.00785357 361.09516611 102.51961287 361.09460449 101.03137207 C361.08935187 95.50007352 361.07539078 89.96878602 361.0625 84.4375 C361.0315625 65.9059375 361.0315625 65.9059375 361 47 C334.27 47 307.54 47 280 47 Z M6 66 C6 117.48 6 168.96 6 222 C28.11 222 50.22 222 73 222 C73.495 215.565 73.495 215.565 74 209 C77.3751284 205.6248716 77.3751284 205.6248716 81.44067383 205.61904907 C82.34919098 205.6105896 83.25770813 205.60213013 84.1937561 205.59341431 C85.6853273 205.60252335 85.6853273 205.60252335 87.20703125 205.61181641 C88.25603607 205.60655945 89.30504089 205.60130249 90.38583374 205.59588623 C93.86153957 205.58265687 97.33678932 205.59143496 100.8125 205.6015625 C103.22241301 205.59954262 105.63232542 205.5966319 108.04223633 205.59286499 C113.09625053 205.58843764 118.15010581 205.59488605 123.20410156 205.60888672 C129.69109241 205.62597863 136.17771093 205.61613967 142.66468811 205.59816933 C147.64199645 205.58734269 152.61921613 205.59077272 157.5965271 205.5985527 C159.98880049 205.6005578 162.38108187 205.59808464 164.77334595 205.59111404 C168.11343798 205.58351816 171.45292214 205.59507818 174.79296875 205.61181641 C175.78734955 205.60574371 176.78173035 205.59967102 177.8062439 205.59341431 C178.71476105 205.60187378 179.6232782 205.61033325 180.55932617 205.61904907 C181.34909348 205.62018015 182.13886078 205.62131123 182.95256042 205.62247658 C185 206 185 206 188 209 C188.33 213.29 188.66 217.58 189 222 C213.09 222 237.18 222 262 222 C262.33 218.37 262.66 214.74 263 211 C265 207 265 207 267 206 C268.43748286 205.89973949 269.87946529 205.86061698 271.32041931 205.85282898 C272.68113304 205.84209602 272.68113304 205.84209602 274.06933594 205.83114624 C275.06731201 205.82845734 276.06528809 205.82576843 277.09350586 205.82299805 C278.14236465 205.81642685 279.19122345 205.80985565 280.27186584 205.80308533 C283.75285913 205.78332627 287.2338093 205.77168568 290.71484375 205.76171875 C291.90078188 205.75764322 293.08672001 205.7535677 294.30859566 205.74936867 C300.58194938 205.72849968 306.85528116 205.7141999 313.12866211 205.70483398 C319.62355392 205.69375038 326.11810491 205.65933007 332.61287594 205.61966228 C337.59445353 205.5935833 342.57594872 205.58515005 347.55758858 205.58155251 C349.95267611 205.57666622 352.34775947 205.56499478 354.74278069 205.54651451 C358.08783301 205.52230229 361.43198746 205.52305514 364.77709961 205.5300293 C366.27102737 205.51081421 366.27102737 205.51081421 367.7951355 205.49121094 C369.16007896 205.50162666 369.16007896 205.50162666 370.55259705 205.51225281 C371.34366317 205.50986445 372.13472929 205.5074761 372.94976711 205.50501537 C375 206 375 206 378 210 C378.33 213.96 378.66 217.92 379 222 C396.49 222 413.98 222 432 222 C432 170.52 432 119.04 432 66 C414.51 66 397.02 66 379 66 C378.98582031 70.310625 378.97164063 74.62125 378.95703125 79.0625 C378.931757 82.51651951 378.90152501 85.97041713 378.86795807 89.42436218 C378.83396598 93.06114965 378.8085521 96.69751822 378.80444336 100.33447266 C378.80014023 103.84268573 378.77151437 107.34996023 378.72656822 110.85787964 C378.70740673 112.83623289 378.71293101 114.81477599 378.71894836 116.79321289 C378.60195892 124.06317257 378.04993826 129.49419231 373 135 C366.98956776 139.78381341 362.33354028 140.15026666 354.85424805 140.16113281 C353.62665771 140.16858017 353.62665771 140.16858017 352.37426758 140.17617798 C349.67007604 140.19076829 346.96594317 140.19759643 344.26171875 140.203125 C342.37848408 140.20887909 340.49524942 140.21463679 338.61201477 140.22039795 C334.66362231 140.23089907 330.71525016 140.23674753 326.7668457 140.24023438 C321.71629311 140.24571682 316.66601042 140.26974331 311.61554241 140.29820633 C307.72497278 140.31686271 303.83446777 140.32203991 299.94385719 140.32357025 C298.08239072 140.32659059 296.22092522 140.33459818 294.35950279 140.34775543 C291.75077356 140.36487856 289.14269873 140.36292049 286.53393555 140.35644531 C285.77057388 140.3656601 285.00721222 140.37487488 284.22071838 140.3843689 C277.87048929 140.33518506 273.31093216 138.83824149 268.25 134.8125 C262.33848906 127.42311132 262.53508894 119.61254509 262.48828125 110.53125 C262.47164429 109.39913086 262.45500732 108.26701172 262.43786621 107.10058594 C262.38034532 102.90057662 262.34788382 98.70025415 262.3125 94.5 C262.209375 85.095 262.10625 75.69 262 66 C237.91 66 213.82 66 189 66 C188.97421875 73.78722656 188.9484375 81.57445313 188.921875 89.59765625 C188.89670631 94.533236 188.87037313 99.46875449 188.83984375 104.40429688 C188.79150523 112.23690011 188.74746178 120.06936154 188.72900391 127.90209961 C188.71385162 134.21758537 188.6794305 140.53269999 188.63169098 146.84802055 C188.61686262 149.25649221 188.60895816 151.66501685 188.60811615 154.07353401 C188.60574925 157.44924537 188.57868969 160.82392882 188.54589844 164.19946289 C188.55344398 165.69055824 188.55344398 165.69055824 188.56114197 167.21177673 C188.45115369 174.53835757 186.97291545 178.94450356 181.75 184.3125 C175.94119127 187.87699627 169.56590807 188.2981095 162.89086914 188.2746582 C162.12387192 188.27976913 161.35687469 188.28488007 160.56663513 188.29014587 C158.05606061 188.30393385 155.54576391 188.30309345 153.03515625 188.30078125 C151.27453003 188.30467384 149.51390474 188.30900966 147.75328064 188.31376648 C144.07254993 188.32120528 140.39191519 188.32095424 136.71118164 188.31567383 C132.01290108 188.30987938 127.31501478 188.32682096 122.61679935 188.3500185 C118.98349237 188.36480536 115.3502793 188.36562087 111.71694756 188.36250877 C109.98553117 188.3630194 108.25410917 188.36820816 106.52272224 188.37832069 C87.51325028 188.47574474 87.51325028 188.47574474 79.125 183.1875 C73.60199607 177.50205478 73.55684436 171.80893197 73.56762695 164.31298828 C73.55233948 162.71696526 73.55233948 162.71696526 73.53674316 161.08869934 C73.50662298 157.58251676 73.49734844 154.07660745 73.48828125 150.5703125 C73.4714339 148.13507174 73.45328358 145.69983968 73.43388367 143.26461792 C73.38638399 136.86302405 73.35657418 130.46146543 73.33044434 124.05975342 C73.29539614 116.37454206 73.23838337 108.68946606 73.18505096 101.00436401 C73.10653749 89.33625979 73.05593085 77.66833278 73 66 C50.89 66 28.78 66 6 66 Z M91 222 C90.979375 234.189375 90.95875 246.37875 90.9375 258.9375 C90.928396 262.79171631 90.91929199 266.64593262 90.90991211 270.61694336 C90.90656846 274.06043199 90.90656846 274.06043199 90.90455627 277.50392151 C90.90301687 279.04221383 90.89949201 280.58050492 90.89442444 282.11878967 C90.88714582 284.44371652 90.88609262 286.76856939 90.88647461 289.09350586 C90.884254 290.4058873 90.88203339 291.71826874 90.87974548 293.07041931 C90.66412191 295.88995879 90.66412191 295.88995879 92 297 C94.42857035 297.10029857 96.82871613 297.13618425 99.2578125 297.12939453 C100.01713074 297.13114685 100.77644897 297.13289917 101.55877686 297.13470459 C104.08087416 297.1391233 106.60290193 297.13618506 109.125 297.1328125 C110.86995456 297.13348553 112.61490904 297.13445555 114.35986328 297.13571167 C118.02181895 297.13718867 121.68375028 297.13503403 125.34570312 297.13037109 C130.05044492 297.1246738 134.75512968 297.1279528 139.45986938 297.13394356 C143.06453891 297.13754912 146.66919482 297.13641061 150.27386475 297.13381577 C152.00909431 297.13314648 153.74432509 297.13397496 155.47955322 297.13629532 C157.90046487 297.13882177 160.32128286 297.13498138 162.7421875 297.12939453 C163.46637878 297.13141876 164.19057007 297.13344299 164.93670654 297.13552856 C168.25154091 297.4099048 168.25154091 297.4099048 171 296 C171.09443335 293.69946165 171.11742128 291.39597827 171.11352539 289.09350586 C171.11364593 288.35988358 171.11376646 287.62626131 171.11389065 286.87040806 C171.11314161 284.48518958 171.10551382 282.10004833 171.09765625 279.71484375 C171.0961868 278.24646034 171.09516611 276.77807642 171.09460449 275.30969238 C171.08935194 269.85228696 171.07539085 264.39489273 171.0625 258.9375 C171.041875 246.748125 171.02125 234.55875 171 222 C144.6 222 118.2 222 91 222 Z M280 222 C279.96997791 244.32008314 279.96997791 244.32008314 279.94974613 266.64016914 C279.9441963 274.61998206 279.9371412 282.59978458 279.92456055 290.57958984 C279.91460757 296.89568276 279.9081451 303.21176785 279.90591151 309.52786839 C279.90460545 312.87359851 279.90152618 316.2193062 279.89426994 319.56502914 C279.88705489 323.29580793 279.88600926 327.02653962 279.88647461 330.75732422 C279.88287933 331.87222229 279.87928406 332.98712036 279.87557983 334.13580322 C279.8769545 335.14825104 279.87832916 336.16069885 279.87974548 337.2038269 C279.87882369 338.08690458 279.8779019 338.96998226 279.87695217 339.87981987 C279.86329778 342.05546232 279.86329778 342.05546232 281 344 C291.28304538 344.02312376 301.56608462 344.04091525 311.84915066 344.05181217 C316.6234828 344.05704093 321.39779721 344.06413844 326.17211914 344.07543945 C330.77566262 344.0862686 335.37918899 344.09227689 339.98274422 344.09487724 C341.74309623 344.09673144 343.50344726 344.10035196 345.26379204 344.10573006 C347.72072277 344.11294086 350.17758195 344.11399093 352.63452148 344.11352539 C353.36963455 344.11712067 354.10474762 344.12071594 354.86213684 344.12442017 C358.21583107 344.41400668 358.21583107 344.41400668 361 343 C361.09591199 341.43112365 361.12187996 339.85792208 361.12025452 338.28611755 C361.12162918 337.26663025 361.12300385 336.24714294 361.12442017 335.19676208 C361.12082489 334.068918 361.11722961 332.94107391 361.11352539 331.77905273 C361.11367142 330.59872467 361.11381744 329.41839661 361.1139679 328.20230103 C361.11338895 324.95657892 361.10835986 321.71089945 361.10139394 318.46518588 C361.09515962 315.07656968 361.09455654 311.68795272 361.09336853 308.29933167 C361.09025544 301.87844196 361.08204236 295.45756919 361.07201904 289.03668696 C361.05976309 281.01209143 361.05427527 272.98749317 361.04882812 264.96289062 C361.03907693 250.64191387 361.01904666 236.32097411 361 222 C334.27 222 307.54 222 280 222 Z " fill="#000000" transform="translate(37,33)"/>
</svg>
