<?xml version="1.0" encoding="UTF-8"?>
<svg version="1.1" xmlns="http://www.w3.org/2000/svg" width="512" height="512">
<path d="M0 0 C3.36604245 3.63439246 6.43223475 7.3620041 9.25390625 11.43359375 C9.68832031 12.05234375 10.12273437 12.67109375 10.5703125 13.30859375 C12.33763637 16.0673432 13.33102233 18.71635272 14.19140625 21.87109375 C13.08466921 26.07669451 12.32879584 26.45235986 8.87109375 28.87109375 C7.87102295 29.57226318 6.87095215 30.27343262 5.84057617 30.99584961 C4.64666636 31.81084871 3.45097979 32.62324868 2.25390625 33.43359375 C1.24512924 34.11653 1.24512924 34.11653 0.2159729 34.81326294 C-7.09765663 39.74677384 -14.45823684 44.60944014 -21.8203125 49.47021484 C-32.87385665 56.77982179 -32.87385665 56.77982179 -43.6640625 64.46875 C-59.67732684 76.26184917 -59.67732684 76.26184917 -70.9453125 75.05859375 C-73.74609375 74.43359375 -73.74609375 74.43359375 -76.74609375 73.43359375 C-76.89304687 74.52027344 -76.89304687 74.52027344 -77.04296875 75.62890625 C-77.1925 76.59570312 -77.34203125 77.5625 -77.49609375 78.55859375 C-77.6353125 79.50992188 -77.77453125 80.46125 -77.91796875 81.44140625 C-80.20364099 89.70001444 -85.98911771 93.10993271 -92.80859375 97.68359375 C-93.80632812 98.36526611 -94.8040625 99.04693848 -95.83203125 99.74926758 C-99.1266818 101.99250414 -102.43377547 104.21658715 -105.74609375 106.43359375 C-106.33686707 106.82939636 -106.92764038 107.22519897 -107.53631592 107.63299561 C-112.91496533 111.23542895 -118.29683115 114.83297812 -123.69555664 118.40527344 C-130.37320674 122.82214474 -130.37320674 122.82214474 -136.90234375 127.453125 C-139.74609375 129.43359375 -139.74609375 129.43359375 -141.74609375 129.43359375 C-136.94161945 137.08447127 -131.97131591 144.6021671 -126.87109375 152.05859375 C-125.74541952 153.70919698 -124.61974788 155.35980198 -123.49423218 157.01051331 C-122.33781903 158.70609373 -121.18069219 160.40118526 -120.0234375 162.09619141 C-116.46582161 167.30817422 -112.91881001 172.52736982 -109.37109375 177.74609375 C-108.67435547 178.77065674 -107.97761719 179.79521973 -107.25976562 180.85083008 C-98.34238236 193.96528768 -89.44083675 207.09049463 -80.5378418 220.21472168 C-77.73240975 224.35028125 -74.92685103 228.48575483 -72.12109375 232.62109375 C-71.72617737 233.20315582 -71.33126099 233.7852179 -70.92437744 234.38491821 C-65.36990386 242.57118336 -59.81014812 250.7538361 -54.24609375 258.93359375 C-48.28243163 267.70081773 -42.32428734 276.47175985 -36.37109375 285.24609375 C-35.77896088 286.11882431 -35.77896088 286.11882431 -35.17486572 287.00918579 C-31.96230419 291.74421503 -28.75006699 296.47946427 -25.5378418 301.21472168 C-19.99591149 309.38422376 -14.45326893 317.55324153 -8.90869141 325.72094727 C-8.13098961 326.86659576 -7.35332056 328.01226648 -6.57568359 329.15795898 C-3.92511108 333.06298826 -1.27334991 336.96720778 1.37890625 340.87109375 C2.08088135 341.90524414 2.78285645 342.93939453 3.50610352 344.00488281 C6.41814977 348.28954604 9.33556305 352.56868355 12.3125 356.80859375 C12.7461084 357.42677979 13.1797168 358.04496582 13.62646484 358.68188477 C14.70704333 360.21584507 15.79454353 361.74492361 16.8828125 363.2734375 C18.25390625 365.43359375 18.25390625 365.43359375 18.25390625 367.43359375 C22.62239379 363.63862273 26.9579588 359.81058657 31.25390625 355.93359375 C34.8706697 352.66968527 38.51780233 349.44568426 42.19140625 346.24609375 C44.56355054 344.16148211 46.9094669 342.04930731 49.25390625 339.93359375 C52.8706697 336.66968527 56.51780233 333.44568426 60.19140625 330.24609375 C62.56355054 328.16148211 64.9094669 326.04930731 67.25390625 323.93359375 C70.8706697 320.66968527 74.51780233 317.44568426 78.19140625 314.24609375 C80.56355054 312.16148211 82.9094669 310.04930731 85.25390625 307.93359375 C86.09695313 307.175625 86.94 306.41765625 87.80859375 305.63671875 C89.3398762 304.25709686 90.86666836 302.87245629 92.38671875 301.48046875 C99.61504715 294.96079999 106.0314849 290.02119257 116.11328125 290.2265625 C123.66589085 290.95701562 129.23845945 294.91083739 134.25390625 300.43359375 C137.97817627 306.3691491 138.1266246 312.6263906 137.25390625 319.43359375 C134.732722 328.78998864 127.34827107 334.43352311 120.25390625 340.43359375 C118.87707702 341.63984237 117.50180346 342.84787177 116.12890625 344.05859375 C115.50757813 344.59742188 114.88625 345.13625 114.24609375 345.69140625 C111.8936999 347.74859774 109.57355659 349.8395629 107.25390625 351.93359375 C103.6371428 355.19750223 99.99001017 358.42150324 96.31640625 361.62109375 C93.94426196 363.70570539 91.5983456 365.81788019 89.25390625 367.93359375 C85.6371428 371.19750223 81.99001017 374.42150324 78.31640625 377.62109375 C75.94426196 379.70570539 73.5983456 381.81788019 71.25390625 383.93359375 C67.6371428 387.19750223 63.99001017 390.42150324 60.31640625 393.62109375 C57.94426196 395.70570539 55.5983456 397.81788019 53.25390625 399.93359375 C48.95689198 403.80881521 44.6449263 407.664923 40.25390625 411.43359375 C39.37943848 412.2836499 38.5049707 413.13370605 37.60400391 414.00952148 C34.07538236 416.93285344 31.25621822 417.01363999 26.66796875 416.921875 C25.966185 416.91480026 25.26440125 416.90772552 24.54135132 416.9004364 C22.31941034 416.87264472 20.1000736 416.80994809 17.87890625 416.74609375 C16.36461997 416.72099061 14.85029382 416.69818097 13.3359375 416.67773438 C9.64013881 416.62713472 5.94990509 416.52928992 2.25390625 416.43359375 C2.25390625 422.04359375 2.25390625 427.65359375 2.25390625 433.43359375 C4.13898392 433.4247113 6.02406158 433.41582886 7.96626282 433.40667725 C25.69825165 433.32572472 43.43020325 433.26545233 61.1623354 433.22634506 C70.27944158 433.20570411 79.39640998 433.17755435 88.51342773 433.13183594 C96.45817425 433.09201496 104.402821 433.06617209 112.34766454 433.05723977 C116.55594586 433.05201694 120.76394174 433.03970994 124.97213173 433.01067352 C128.93084952 432.98357905 132.88916354 432.97513651 136.84796524 432.98116302 C138.30286666 432.98006009 139.75778121 432.97207039 141.21260262 432.95677185 C143.19516932 432.93694152 145.17795133 432.9440229 147.16059875 432.95257568 C148.2713593 432.94888851 149.38211985 432.94520134 150.5265398 432.94140244 C153.25390625 433.43359375 153.25390625 433.43359375 155.14255047 435.26834488 C156.72262963 438.34680515 156.24384076 440.1809518 155.25390625 443.43359375 C151.52397202 445.92021657 148.65373683 445.71398253 144.33712864 445.69086266 C143.51769263 445.69436873 142.69825662 445.6978748 141.85398921 445.70148712 C139.08444239 445.71085489 136.31510336 445.70586404 133.54554749 445.70101929 C131.54940396 445.70475284 129.55326189 445.70935317 127.55712217 445.71474993 C122.05324431 445.72703174 116.549427 445.7267134 111.04553854 445.72436118 C105.11702441 445.72395432 99.18853004 445.73497955 93.26002502 445.74447632 C81.63844251 445.76111526 70.01687519 445.76661302 58.39528257 445.76770107 C48.95316457 445.76861931 39.51105316 445.77273155 30.0689373 445.77910233 C27.35341548 445.78089734 24.63789364 445.78267697 21.9223718 445.78445208 C20.9098147 445.78511523 20.9098147 445.78511523 19.8768019 445.78579177 C0.88369174 445.79810388 -18.10941615 445.80599251 -37.10253048 445.80510521 C-37.81893592 445.80507405 -38.53534137 445.80504289 -39.27345607 445.80501079 C-42.90470159 445.80484457 -46.53594711 445.80464649 -50.16719263 445.80444138 C-50.88840362 445.80440149 -51.60961461 445.8043616 -52.35268048 445.8043205 C-53.81114506 445.80423962 -55.26960964 445.80415603 -56.72807422 445.80406971 C-79.42608225 445.80284384 -102.12403055 445.81786247 -124.82202148 445.84521484 C-150.30795434 445.875914 -175.79384795 445.89314868 -201.27980047 445.8912884 C-203.99563666 445.89113913 -206.71147285 445.89104172 -209.42730904 445.89097977 C-210.09604468 445.89095646 -210.76478032 445.89093315 -211.45378067 445.89090913 C-222.23054401 445.89084751 -233.00725563 445.90363668 -243.78400358 445.9208443 C-254.60829592 445.93777078 -265.43250868 445.93945393 -276.25680678 445.92662565 C-282.12458881 445.92007045 -287.99218277 445.92007045 -293.8599472 445.93733215 C-299.22576229 445.95295545 -304.59123851 445.9503101 -309.95704479 445.93276389 C-311.90385202 445.92967016 -313.85068388 445.93341457 -315.7974621 445.94448404 C-318.43321687 445.9584849 -321.06776304 445.94811463 -323.703475 445.93137169 C-324.85118139 445.94627623 -324.85118139 445.94627623 -326.02207378 445.96148187 C-329.49151845 445.9145223 -331.42153123 445.67093176 -334.25656992 443.59779513 C-335.74609375 441.43359375 -335.74609375 441.43359375 -335.62109375 438.30859375 C-334.74609375 435.43359375 -334.74609375 435.43359375 -332.74609375 433.43359375 C-330.22775269 433.19308472 -330.22775269 433.19308472 -327.01123047 433.20654297 C-325.81013641 433.20669403 -324.60904236 433.20684509 -323.37155151 433.20700073 C-322.06944733 433.2173233 -320.76734314 433.22764587 -319.42578125 433.23828125 C-318.08342702 433.24201099 -316.74107008 433.24485814 -315.39871216 433.24685669 C-311.86407975 433.25449631 -308.32961147 433.27414745 -304.79504395 433.29626465 C-301.18890605 433.3167161 -297.58274166 433.3258569 -293.9765625 433.3359375 C-286.89966599 433.35739317 -279.82290784 433.39257789 -272.74609375 433.43359375 C-272.74609375 427.82359375 -272.74609375 422.21359375 -272.74609375 416.43359375 C-274.24140625 416.48 -275.73671875 416.52640625 -277.27734375 416.57421875 C-279.26690699 416.61175768 -281.25649198 416.64815555 -283.24609375 416.68359375 C-284.22835937 416.71710938 -285.210625 416.750625 -286.22265625 416.78515625 C-293.90429329 416.88757808 -299.12542183 415.5496424 -304.98828125 410.50390625 C-309.95569994 404.58578542 -312.27902859 399.69273251 -312.0546875 391.8671875 C-311.15638022 384.78306803 -308.40763009 379.23957067 -302.91796875 374.6875 C-295.45638552 370.3796435 -288.9223007 369.99880827 -280.4708252 370.03486633 C-279.24709119 370.02821951 -278.02335719 370.02157268 -276.76254034 370.01472443 C-273.38278921 369.99934521 -270.00351 369.99724812 -266.62375784 370.0008539 C-262.9728401 370.00147929 -259.32199535 369.98484326 -255.67111206 369.97033691 C-249.35135859 369.94757307 -243.03166016 369.93566963 -236.71186829 369.93120766 C-227.57460099 369.92474065 -218.43743308 369.90179359 -209.30020589 369.87486436 C-194.47456531 369.83161599 -179.64892893 369.8016381 -164.82324219 369.7800293 C-150.4241327 369.75901377 -136.02505748 369.73173365 -121.62597656 369.69604492 C-120.73795367 369.6938461 -119.84993077 369.69164727 -118.9349981 369.68938182 C-114.47990968 369.67831202 -110.02482158 369.66711924 -105.56973362 369.65586531 C-68.62854992 369.56270782 -31.6873493 369.49109705 5.25390625 369.43359375 C4.7280896 368.65870605 4.20227295 367.88381836 3.66052246 367.08544922 C-92.12109368 225.93359386 -92.12109368 225.93359386 -93.30862427 224.18354797 C-94.10018821 223.01703322 -94.89175316 221.85051914 -95.68331909 220.68400574 C-97.66406554 217.76502035 -99.64479464 214.84602318 -101.62548828 211.92700195 C-105.16903376 206.70478419 -108.71268576 201.48263894 -112.25701904 196.26095581 C-113.82099186 193.9568136 -115.38486562 191.65260416 -116.94873047 189.34838867 C-117.72668091 188.20219971 -118.50467529 187.05604058 -119.28271484 185.90991211 C-124.02908772 178.91793274 -128.76977766 171.92215131 -133.50390625 164.921875 C-134.94781945 162.78754266 -136.39178625 160.65324658 -137.83575439 158.51895142 C-139.21855385 156.47431483 -140.60025565 154.42893948 -141.98193359 152.38354492 C-142.83035134 151.12935915 -143.67881884 149.87520702 -144.52734375 148.62109375 C-144.91084991 148.05260208 -145.29435608 147.48411041 -145.68948364 146.89839172 C-147.63869102 144.01999357 -149.63144621 141.19299165 -151.74609375 138.43359375 C-155.31797657 139.73790201 -158.22275893 141.29257817 -161.31640625 143.49609375 C-162.20030029 144.1197583 -163.08419434 144.74342285 -163.99487305 145.38598633 C-164.94402588 146.06169678 -165.89317871 146.73740723 -166.87109375 147.43359375 C-177.12225683 154.65632608 -187.5028847 161.65906561 -197.95947266 168.58007812 C-199.0479248 169.30130859 -200.13637695 170.02253906 -201.2578125 170.765625 C-202.22162842 171.40218018 -203.18544434 172.03873535 -204.1784668 172.69458008 C-205.80366131 173.79529896 -207.40342634 174.93540418 -208.96362305 176.12646484 C-212.85924499 178.9832187 -217.94097256 178.68465372 -222.5546875 178.04296875 C-224.97006235 177.56331984 -227.35880539 177.03664572 -229.74609375 176.43359375 C-229.66359375 177.40296875 -229.58109375 178.37234375 -229.49609375 179.37109375 C-229.56646236 184.35721245 -230.89831116 188.33278682 -233.74609375 192.43359375 C-237.13938925 195.53603535 -240.9042772 197.92373438 -244.74609375 200.43359375 C-252.41217849 205.49857799 -260.03710755 210.62034488 -267.61888123 215.81080627 C-271.38225755 218.3868236 -275.15090479 220.95508007 -278.91967773 223.52319336 C-280.86411759 224.85109148 -282.80613604 226.18254148 -284.74584961 227.51733398 C-287.58442178 229.46928249 -290.43182577 231.40768985 -293.28125 233.34375 C-294.57507347 234.24046165 -294.57507347 234.24046165 -295.89503479 235.1552887 C-303.56299949 240.33242374 -303.56299949 240.33242374 -308.74609375 240.43359375 C-317.25415665 235.88535826 -324.24475614 225.22458656 -327.74609375 216.43359375 C-333.19998634 198.27835399 -322.61603073 176.31942971 -314.19360352 160.59790039 C-302.66310417 139.64818283 -288.25483787 120.54904104 -272.0703125 102.9765625 C-270.14503469 100.87008208 -268.28015194 98.73342895 -266.43359375 96.55859375 C-258.88682255 87.88517187 -250.51599045 79.85427557 -241.74609375 72.43359375 C-240.76769531 71.56605469 -239.78929687 70.69851562 -238.78125 69.8046875 C-229.56682752 61.6716874 -219.82322357 54.45829597 -209.74609375 47.43359375 C-209.12154297 46.99305664 -208.49699219 46.55251953 -207.85351562 46.09863281 C-166.81318162 17.24425967 -47.23676749 -46.1752671 0 0 Z M-153.74609375 28.43359375 C-153.74609375 28.76359375 -153.74609375 29.09359375 -153.74609375 29.43359375 C-152.63705688 29.53849121 -152.63705688 29.53849121 -151.50561523 29.64550781 C-101.40230192 34.49408982 -101.40230192 34.49408982 -85.74609375 51.43359375 C-81.72283098 49.99155253 -78.4344821 48.05143049 -74.890625 45.671875 C-74.03995705 45.10341354 -74.03995705 45.10341354 -73.17210388 44.52346802 C-71.29773403 43.2690418 -69.42804591 42.00783485 -67.55859375 40.74609375 C-66.24530252 39.86373776 -64.93182229 38.98166302 -63.61816406 38.09985352 C-60.81402873 36.21616966 -58.01212428 34.32921918 -55.21142578 32.44042969 C-51.36601086 29.8484573 -47.51256111 27.26867851 -43.6570282 24.69178772 C-40.52838358 22.59936856 -37.40323965 20.5017642 -34.27890015 18.40292358 C-32.75960122 17.38342959 -31.2391157 16.36570164 -29.71743774 15.34976196 C-27.58266593 13.9234882 -25.45289747 12.49003355 -23.32421875 11.0546875 C-22.68600693 10.63051544 -22.0477951 10.20634338 -21.39024353 9.76931763 C-18.50897161 7.81625018 -16.70331176 6.36942077 -14.74609375 3.43359375 C-16.14058484 2.95053475 -17.53676082 2.47233858 -18.93359375 1.99609375 C-19.71089844 1.72925781 -20.48820313 1.46242188 -21.2890625 1.1875 C-61.6059387 -11.18317903 -117.24063466 11.61367232 -153.74609375 28.43359375 Z M-5.74609375 12.43359375 C-6.68839844 13.08199219 -7.63070312 13.73039062 -8.6015625 14.3984375 C-21.82077559 23.47526852 -35.11058484 32.44669951 -48.40698242 41.40991211 C-52.1603758 43.94072567 -55.90921337 46.47817343 -59.65563965 49.01928711 C-61.69004902 50.39567642 -63.72996057 51.76359298 -65.77050781 53.13085938 C-66.97356266 53.94493525 -68.1763779 54.75936536 -69.37890625 55.57421875 C-70.42191895 56.27579102 -71.46493164 56.97736328 -72.53955078 57.70019531 C-73.26770996 58.2722168 -73.99586914 58.84423828 -74.74609375 59.43359375 C-74.74609375 60.09359375 -74.74609375 60.75359375 -74.74609375 61.43359375 C-71.34879371 63.02103754 -68.50252612 63.60128126 -64.74609375 63.43359375 C-59.24785894 60.91481846 -54.5121695 57.39836882 -49.62109375 53.87109375 C-48.18660204 52.8696163 -46.74979352 51.87144994 -45.31079102 50.87646484 C-42.31276172 48.80141764 -39.32388577 46.71403473 -36.33935547 44.61962891 C-29.60076051 39.9166493 -22.7142091 35.43916575 -15.82843018 30.95584106 C-13.03818783 29.13814598 -10.25302507 27.312751 -7.46788025 25.48725891 C-4.89500301 23.80109444 -2.32058825 22.11728763 0.25390625 20.43359375 C-0.36484375 19.29921875 -0.98359375 18.16484375 -1.62109375 16.99609375 C-1.96914063 16.35800781 -2.3171875 15.71992187 -2.67578125 15.0625 C-3.66019399 13.2674106 -3.66019399 13.2674106 -5.74609375 12.43359375 Z M-215.4375 68.87207031 C-231.63039351 88.19478428 -240.04233317 113.32730275 -239.74609375 138.43359375 C-239.23398266 143.60480248 -238.38969577 148.50278768 -236.74609375 153.43359375 C-232.33496487 152.51773363 -229.11649469 150.19518015 -225.45703125 147.67578125 C-224.37328972 146.94001862 -224.37328972 146.94001862 -223.26765442 146.18939209 C-220.88176604 144.56782504 -218.50151545 142.93817273 -216.12109375 141.30859375 C-214.44352343 140.1665551 -212.765539 139.02512455 -211.0871582 137.88427734 C-207.63881129 135.5394335 -204.19241972 133.19175858 -200.74755859 130.84179688 C-194.17040099 126.35696318 -187.57562956 121.89829951 -180.97958374 117.4413147 C-178.21486073 115.5728596 -175.45108149 113.70301086 -172.68727112 111.83320618 C-169.04053873 109.36618554 -165.39333358 106.89986411 -161.74609375 104.43359375 C-160.94393433 103.89116028 -160.1417749 103.34872681 -159.31530762 102.78985596 C-137.83849861 88.26794506 -116.34619151 73.7716883 -94.74609375 59.43359375 C-107.03336879 46.69442243 -125.51322743 41.74194878 -142.875 41.09765625 C-171.14111756 40.70355925 -196.04192605 46.87219452 -215.4375 68.87207031 Z M-94.3203125 72.40625 C-95.28541748 73.05005615 -96.25052246 73.6938623 -97.24487305 74.35717773 C-98.82328979 75.41594116 -98.82328979 75.41594116 -100.43359375 76.49609375 C-102.0729187 77.59256226 -102.0729187 77.59256226 -103.74536133 78.71118164 C-111.38229338 83.82401651 -118.98464346 88.98673014 -126.57080078 94.17456055 C-139.45617677 102.98102383 -152.40235434 111.69787073 -165.33770752 120.43066406 C-171.13446072 124.34439002 -176.92902885 128.26133614 -182.72265625 132.1796875 C-185.17298083 133.836562 -187.62333612 135.49339108 -190.07369995 137.15020752 C-191.61250459 138.19082941 -193.15118646 139.23163288 -194.68972778 140.27264404 C-196.14542516 141.25755831 -197.60131972 142.24218121 -199.05741882 143.22650146 C-200.46833494 144.18038464 -201.8787563 145.1350001 -203.28865051 146.09039307 C-207.11481667 148.67793196 -210.9592243 151.23376736 -214.82666016 153.75927734 C-215.66203812 154.30746628 -216.49741608 154.85565521 -217.35810852 155.42045593 C-218.97730813 156.48152056 -220.60023487 157.536924 -222.22721863 158.58601379 C-222.94992447 159.06060532 -223.67263031 159.53519684 -224.41723633 160.02416992 C-225.38310417 160.65097908 -225.38310417 160.65097908 -226.3684845 161.29045105 C-226.82309555 161.66768814 -227.2777066 162.04492523 -227.74609375 162.43359375 C-227.74609375 163.09359375 -227.74609375 163.75359375 -227.74609375 164.43359375 C-223.55015553 166.03204641 -220.23344026 166.84402822 -215.74609375 166.43359375 C-213.04097779 164.97036706 -213.04097779 164.97036706 -210.53125 162.875 C-206.95130687 160.12504874 -203.38197346 157.45320122 -199.6171875 154.9609375 C-198.74594238 154.38400146 -197.87469727 153.80706543 -196.97705078 153.21264648 C-196.05520996 152.60493408 -195.13336914 151.99722168 -194.18359375 151.37109375 C-192.06441615 149.96588078 -189.94596973 148.55956473 -187.828125 147.15234375 C-186.98710236 146.5935276 -186.98710236 146.5935276 -186.12908936 146.02342224 C-178.84895273 141.180084 -171.61086562 136.27446628 -164.37109375 131.37109375 C-163.30174088 130.64694778 -163.30174088 130.64694778 -162.21078491 129.90817261 C-159.2842742 127.926299 -156.35788735 125.94424283 -153.43177795 123.96177673 C-147.47853263 119.92857967 -141.52208026 115.90014362 -135.56399536 111.87409973 C-131.94919202 109.43121722 -128.33561256 106.98657075 -124.72509766 104.53735352 C-113.19184085 96.71579961 -113.19184085 96.71579961 -107.44720459 92.92449951 C-105.84868368 91.86882576 -104.25386122 90.8075583 -102.65917969 89.74609375 C-100.7838379 88.49879972 -98.90211616 87.26101843 -97.01269531 86.03515625 C-96.2028418 85.49375 -95.39298828 84.95234375 -94.55859375 84.39453125 C-93.86378906 83.93868652 -93.16898438 83.4828418 -92.453125 83.01318359 C-90.27993647 81.00223826 -89.59559483 79.25214779 -88.74609375 76.43359375 C-88.6696321 74.10151355 -88.65466076 71.76513497 -88.74609375 69.43359375 C-90.77311194 69.43359375 -92.71676798 71.33466714 -94.3203125 72.40625 Z M-242.74609375 89.43359375 C-256.95618049 103.10388671 -256.95618049 103.10388671 -269.84375 117.984375 C-271.1529597 119.66994888 -272.51943235 121.31207319 -273.9296875 122.9140625 C-290.69788964 141.99512011 -317.72391713 177.14324549 -316.87109375 204.43359375 C-316.85304688 205.19671875 -316.835 205.95984375 -316.81640625 206.74609375 C-316.79320312 207.30296875 -316.77 207.85984375 -316.74609375 208.43359375 C-310.82590518 205.45783759 -305.50435108 201.89537622 -300.15649414 197.99584961 C-294.31670017 193.77415737 -288.33055302 189.77893254 -282.32727051 185.79507446 C-280.56053786 184.62238418 -278.79520023 183.44762285 -277.03027344 182.2722168 C-268.00050708 176.26008013 -268.00050708 176.26008013 -263.68017578 173.41357422 C-260.98706234 171.63849468 -258.30320614 169.85023335 -255.62109375 168.05859375 C-254.82807861 167.54192139 -254.03506348 167.02524902 -253.21801758 166.49291992 C-252.50282959 166.01185791 -251.7876416 165.5307959 -251.05078125 165.03515625 C-250.12241455 164.42148193 -250.12241455 164.42148193 -249.17529297 163.79541016 C-247.32063449 162.02819372 -246.98903348 160.97738364 -246.74609375 158.43359375 C-247.26469513 155.99502068 -247.26469513 155.99502068 -248.15625 153.43359375 C-249.9224014 147.35634034 -250.24498634 141.73623672 -250.18359375 135.43359375 C-250.1774707 134.34997559 -250.17134766 133.26635742 -250.16503906 132.14990234 C-249.9147193 119.06588109 -247.52058301 106.53573952 -242.3828125 94.46484375 C-241.4762559 92.2672544 -241.4762559 92.2672544 -242.74609375 89.43359375 Z M-248.18359375 176.30859375 C-255.11387055 181.36327937 -262.22255513 186.13206042 -269.37109375 190.87109375 C-279.43023624 197.54455626 -289.44976899 204.27291173 -299.43359375 211.05859375 C-300.05671448 211.48204071 -300.67983521 211.90548767 -301.32183838 212.34176636 C-304.79763719 214.70417199 -308.27236355 217.06814701 -311.74609375 219.43359375 C-310.02848546 222.5103741 -310.02848546 222.5103741 -307.74609375 225.43359375 C-303.74677905 225.43359375 -303.12754522 225.35366256 -300.06103516 223.28491211 C-298.9957383 222.57597054 -298.9957383 222.57597054 -297.90892029 221.85270691 C-297.14620316 221.331548 -296.38348602 220.8103891 -295.59765625 220.2734375 C-294.39539146 219.46795219 -294.39539146 219.46795219 -293.1688385 218.64619446 C-290.56321063 216.89709509 -287.96684834 215.13480577 -285.37109375 213.37109375 C-283.59518438 212.17164298 -281.818898 210.97275022 -280.04223633 209.77441406 C-277.39680038 207.98898284 -274.75233736 206.20219545 -272.1108551 204.41091919 C-267.21499631 201.09128371 -262.29786686 197.8100374 -257.34375 194.578125 C-256.32007324 193.90338135 -255.29639648 193.2286377 -254.24169922 192.53344727 C-252.42411436 191.33610415 -250.59930756 190.1496231 -248.76611328 188.97631836 C-245.18390362 186.58707772 -243.11175071 185.19095956 -241.2109375 181.25390625 C-240.71714767 178.25797132 -240.60175865 175.46463089 -240.74609375 172.43359375 C-243.93516122 172.43359375 -245.6458605 174.42667921 -248.18359375 176.30859375 Z M98.87890625 312.24609375 C97.72988289 313.32237972 96.58014634 314.39790482 95.4296875 315.47265625 C94.88135254 315.98602539 94.33301758 316.49939453 93.76806641 317.02832031 C91.29581248 319.32278881 88.75110817 321.52949983 86.19921875 323.734375 C83.91725335 325.72765803 81.68162051 327.76852402 79.44140625 329.80859375 C76.06449643 332.86218242 72.62173493 335.7778858 69.06640625 338.62109375 C63.00070407 343.52362861 57.37225648 348.85617412 51.69921875 354.203125 C48.57406223 357.14588266 45.3880867 360.00251099 42.1328125 362.80078125 C39.08178941 365.45219009 36.11410582 368.19609344 33.13671875 370.9296875 C32.18539063 371.75597656 31.2340625 372.58226562 30.25390625 373.43359375 C29.59046888 374.08057482 28.92703151 374.72755589 28.24348998 375.39414245 C21.37657455 381.62260089 16.3048959 382.57518108 7.20904541 382.39994812 C5.92658267 382.40733924 4.64411993 382.41473036 3.32279468 382.42234546 C-0.21243562 382.44174171 -3.74574129 382.41177363 -7.28075147 382.37336648 C-11.10214382 382.34071883 -14.92340521 382.35465914 -18.74488831 382.36300659 C-25.35893769 382.37135594 -31.97239613 382.35113273 -38.5863266 382.31180382 C-48.15529945 382.25538476 -57.7238348 382.24805856 -67.29294983 382.25348029 C-82.82837835 382.26142172 -98.3635738 382.23742112 -113.89892578 382.18969727 C-115.2921761 382.18542984 -115.2921761 382.18542984 -116.71357289 382.18107621 C-120.47738189 382.16951474 -124.2411908 382.15792588 -128.00499956 382.14628727 C-138.37490238 382.1146258 -148.74481778 382.09018278 -159.11474609 382.06860352 C-160.04365606 382.06666171 -160.97256602 382.0647199 -161.92962477 382.06271925 C-177.41340025 382.03108887 -192.8971449 382.01938896 -208.38095117 382.019481 C-217.92780499 382.01837338 -227.47425678 381.99775559 -237.02100286 381.95193479 C-243.55780412 381.92149201 -250.09449034 381.90817394 -256.63136211 381.90836223 C-260.40342279 381.90777365 -264.17499541 381.89877787 -267.94693947 381.86785698 C-272.03462166 381.83446213 -276.12135867 381.83950635 -280.20916748 381.84819031 C-281.40273605 381.83206009 -282.59630462 381.81592987 -283.82604194 381.79931086 C-290.62691288 381.76425225 -290.62691288 381.76425225 -296.46715164 384.84518147 C-299.86353006 388.70277293 -300.13773396 391.16270144 -300.10546875 396.171875 C-299.53552509 399.75880304 -297.54383326 401.30198269 -294.74609375 403.43359375 C-292.1831229 404.71507917 -290.36467865 404.56611907 -287.49355125 404.57619476 C-285.81249843 404.58565667 -285.81249843 404.58565667 -284.09748495 404.59530973 C-282.23508088 404.59810273 -282.23508088 404.59810273 -280.33505249 404.60095215 C-279.02408431 404.60674553 -277.71311612 404.61253892 -276.36242163 404.61850786 C-272.71108421 404.63438946 -269.05975352 404.64388422 -265.40839219 404.6522727 C-262.27954112 404.66026731 -259.15070832 404.67195985 -256.02186935 404.68368751 C-244.81278035 404.72562988 -233.6036699 404.75280492 -222.39453125 404.77734375 C-221.51010851 404.77931865 -220.62568577 404.78129355 -219.71446234 404.78332829 C-202.15817675 404.82248864 -184.60188412 404.85620137 -167.04556847 404.87841034 C-163.18418746 404.88337979 -159.32280657 404.88842409 -155.46142578 404.89355469 C-154.02180308 404.89546069 -154.02180308 404.89546069 -152.55309708 404.89740521 C-137.00652671 404.91876433 -121.46016774 404.96775714 -105.91370372 405.02779883 C-89.95782885 405.08891422 -74.00206305 405.12359749 -58.0460726 405.13288355 C-49.08518727 405.13879645 -40.12465991 405.15656847 -31.16389084 405.20426941 C-23.53195802 405.24485865 -15.90044157 405.26175264 -8.2684056 405.24761659 C-4.37449699 405.2411467 -0.48147527 405.24601231 3.4122963 405.28149033 C6.97950778 405.31373164 10.54520771 405.31346196 14.11245804 405.28767329 C16.00932932 405.28230714 17.90620228 405.31139195 19.80283701 405.34182501 C25.66587164 405.26673287 29.38191024 404.95270718 33.90924644 401.03095245 C35.04604952 399.85258976 36.16381656 398.65529926 37.25390625 397.43359375 C38.14078125 396.63953125 39.02765625 395.84546875 39.94140625 395.02734375 C40.70453125 394.33640625 41.46765625 393.64546875 42.25390625 392.93359375 C45.8706697 389.66968527 49.51780233 386.44568426 53.19140625 383.24609375 C55.56355054 381.16148211 57.9094669 379.04930731 60.25390625 376.93359375 C63.8706697 373.66968527 67.51780233 370.44568426 71.19140625 367.24609375 C73.56355054 365.16148211 75.9094669 363.04930731 78.25390625 360.93359375 C81.87414348 357.6665504 85.5237419 354.43838599 89.203125 351.23828125 C91.51479422 349.20401234 93.78922055 347.13137065 96.06640625 345.05859375 C99.52920707 341.92936548 103.06069628 338.92859026 106.69140625 335.99609375 C119.08348621 327.09843931 119.08348621 327.09843931 126.25390625 314.43359375 C125.70241587 309.86410205 124.67733502 307.89641125 121.56640625 304.49609375 C112.17256465 298.64709803 105.57617213 305.88544437 98.87890625 312.24609375 Z M-260.74609375 416.43359375 C-260.74609375 422.04359375 -260.74609375 427.65359375 -260.74609375 433.43359375 C-257.11609375 433.43359375 -253.48609375 433.43359375 -249.74609375 433.43359375 C-249.74609375 427.82359375 -249.74609375 422.21359375 -249.74609375 416.43359375 C-253.37609375 416.43359375 -257.00609375 416.43359375 -260.74609375 416.43359375 Z M-237.74609375 416.43359375 C-237.74609375 422.04359375 -237.74609375 427.65359375 -237.74609375 433.43359375 C-170.09609375 433.43359375 -102.44609375 433.43359375 -32.74609375 433.43359375 C-32.74609375 427.82359375 -32.74609375 422.21359375 -32.74609375 416.43359375 C-100.39609375 416.43359375 -168.04609375 416.43359375 -237.74609375 416.43359375 Z M-20.74609375 416.43359375 C-20.74609375 422.04359375 -20.74609375 427.65359375 -20.74609375 433.43359375 C-17.11609375 433.43359375 -13.48609375 433.43359375 -9.74609375 433.43359375 C-9.74609375 427.82359375 -9.74609375 422.21359375 -9.74609375 416.43359375 C-13.37609375 416.43359375 -17.00609375 416.43359375 -20.74609375 416.43359375 Z " fill="#000000" transform="translate(345.74609375,39.56640625)"/>
</svg>
