<?xml version="1.0" encoding="UTF-8"?>
<svg version="1.1" xmlns="http://www.w3.org/2000/svg" width="512" height="512">
<path d="M0 0 C10.12289805 8.93166154 10.12289805 8.93166154 13.06005859 13.33740234 C15.56792191 13.79297025 15.56792191 13.79297025 18.55062866 13.71594238 C19.71716476 13.72414505 20.88370087 13.73234772 22.08558655 13.74079895 C23.37186447 13.73465073 24.6581424 13.7285025 25.98339844 13.72216797 C27.34664871 13.72627136 28.70989548 13.73173086 30.07313538 13.7384491 C33.01264335 13.75019388 35.95196348 13.75265145 38.89149094 13.74809265 C43.53873065 13.74129811 48.18572205 13.75712517 52.83291626 13.77648926 C62.7002836 13.81439638 72.56762961 13.82714958 82.43505859 13.83740234 C93.07992459 13.84846853 103.72467683 13.86379577 114.36946452 13.90811491 C118.98977086 13.92649053 123.6097948 13.93035651 128.230129 13.92317963 C131.10495061 13.92165874 133.97963074 13.93243573 136.85441399 13.946558 C138.82409605 13.952475 140.7938052 13.94345019 142.76347351 13.93400574 C144.52173714 13.94630974 144.52173714 13.94630974 146.31552124 13.9588623 C147.33427023 13.95957481 148.35301922 13.96028732 149.40263939 13.96102142 C152.4855117 14.39766097 153.86337997 15.15331446 156.06005859 17.33740234 C158.88466815 33.35044622 152.5193333 50.95452133 144.06005859 64.33740234 C142.46819685 66.42313336 140.80051393 68.3699311 139.06005859 70.33740234 C140.03587891 70.37478516 141.01169922 70.41216797 142.01708984 70.45068359 C143.28939453 70.51642578 144.56169922 70.58216797 145.87255859 70.64990234 C147.13712891 70.70791016 148.40169922 70.76591797 149.70458984 70.82568359 C153.06005859 71.33740234 153.06005859 71.33740234 154.98193359 72.49365234 C158.98820971 79.34496512 155.93218569 90.92726738 154.03955078 98.21728516 C149.19399938 114.97043533 138.71825718 131.56526995 124.06005859 141.33740234 C125.20597977 141.34326859 126.35190094 141.34913483 127.532547 141.35517883 C138.31868578 141.41233011 149.10462147 141.48505171 159.89055347 141.57311726 C165.43605415 141.61789232 170.98148014 141.65713264 176.52709961 141.68383789 C181.87644816 141.70979973 187.2255104 141.75015139 192.57468224 141.80058861 C194.61803317 141.81730561 196.66143369 141.82878968 198.70484352 141.83501625 C201.56159281 141.84460488 204.41760156 141.87260088 207.27416992 141.9050293 C208.12365204 141.90359421 208.97313416 141.90215912 209.84835815 141.90068054 C215.62302522 141.99371728 215.62302522 141.99371728 217.77160168 143.68336773 C220.96250322 147.77963322 219.56133792 154.48521312 219.06005859 159.33740234 C216.73013737 169.74888607 211.80190668 177.31768763 205.06005859 185.33740234 C206.19894531 185.39347656 206.19894531 185.39347656 207.36083984 185.45068359 C208.35470703 185.51642578 209.34857422 185.58216797 210.37255859 185.64990234 C211.35869141 185.70791016 212.34482422 185.76591797 213.36083984 185.82568359 C216.06005859 186.33740234 216.06005859 186.33740234 217.88427734 187.48583984 C220.75328079 192.0038054 219.58557638 198.25059429 219.06005859 203.33740234 C216.73013737 213.74888607 211.80190668 221.31768763 205.06005859 229.33740234 C205.81931641 229.37478516 206.57857422 229.41216797 207.36083984 229.45068359 C208.35470703 229.51642578 209.34857422 229.58216797 210.37255859 229.64990234 C211.35869141 229.70791016 212.34482422 229.76591797 213.36083984 229.82568359 C216.06005859 230.33740234 216.06005859 230.33740234 217.88818359 231.47802734 C221.13538065 236.63024667 219.56660568 244.86497016 218.40380859 250.54052734 C214.5291029 263.30033402 207.2296256 273.54736653 195.68896484 280.31396484 C186.48361405 285.22447629 178.06660447 287.64935797 167.66229248 287.60482788 C166.8674823 287.60935899 166.07267212 287.61389011 165.25377679 287.61855853 C162.61720314 287.631117 159.98083833 287.62958774 157.34423828 287.62792969 C155.44284299 287.6339203 153.54145013 287.64072707 151.64006042 287.64828491 C146.49317733 287.66589812 141.34636081 287.67063832 136.19945049 287.67191648 C132.97858431 287.67334133 129.75773487 287.67761723 126.53687286 287.68291092 C115.28531323 287.70139591 104.03380088 287.70958347 92.78222656 287.70800781 C82.31839738 287.70680692 71.85477462 287.72790297 61.39099765 287.75949514 C52.38685605 287.78570503 43.38278169 287.79637313 34.37860227 287.79509699 C29.00988322 287.79458874 23.64134775 287.80019637 18.27266693 287.82145309 C13.21969642 287.84091492 8.16708312 287.84090585 3.1140995 287.82641983 C1.26833126 287.82434045 -0.57745981 287.8289802 -2.42318916 287.84114075 C-20.62203801 287.95319919 -35.42861299 284.26128169 -48.93994141 271.33740234 C-48.93994141 270.67740234 -48.93994141 270.01740234 -48.93994141 269.33740234 C-50.16326172 269.73572266 -51.38658203 270.13404297 -52.64697266 270.54443359 C-93.53779088 283.56223269 -137.62346839 281.6225689 -176.38134766 262.35717773 C-193.18163188 253.62537062 -206.59310119 242.68424256 -219.93994141 229.33740234 C-220.47876953 228.84498047 -221.01759766 228.35255859 -221.57275391 227.84521484 C-238.96233059 211.73026682 -251.38420102 186.83115038 -257.75244141 164.27490234 C-257.93516602 163.62859863 -258.11789062 162.98229492 -258.30615234 162.31640625 C-261.96593495 148.36390787 -263.4673455 134.78165453 -263.31494141 120.39990234 C-263.30796234 119.21859741 -263.30796234 119.21859741 -263.30084229 118.01342773 C-263.22163154 106.56413807 -262.88230287 95.46180218 -259.93994141 84.33740234 C-259.74126465 83.55623047 -259.54258789 82.77505859 -259.33789062 81.97021484 C-251.81679948 53.03514061 -237.50120173 28.91289523 -216.93994141 7.33740234 C-216.27349609 6.61810547 -215.60705078 5.89880859 -214.92041016 5.15771484 C-205.10863801 -5.12915364 -193.26911969 -12.76381388 -180.93994141 -19.66259766 C-179.87775391 -20.26845703 -178.81556641 -20.87431641 -177.72119141 -21.49853516 C-120.59347174 -52.1422877 -48.5192075 -41.58265833 0 0 Z M-135.93994141 -22.66259766 C-136.67873535 -22.50162598 -137.4175293 -22.3406543 -138.17871094 -22.17480469 C-162.51359418 -16.63762142 -184.69759789 -4.59919633 -202.93994141 12.33740234 C-203.52018066 12.87381348 -204.10041992 13.41022461 -204.69824219 13.96289062 C-224.47452859 32.45743014 -238.71195764 56.17149624 -245.93994141 82.33740234 C-246.13894043 83.05766602 -246.33793945 83.77792969 -246.54296875 84.52001953 C-252.14693555 105.9353423 -252.58763683 131.86249595 -246.93994141 153.33740234 C-246.77365234 154.01013184 -246.60736328 154.68286133 -246.43603516 155.37597656 C-240.84863675 177.77213184 -230.22231263 198.03949301 -214.93994141 215.33740234 C-214.51600098 215.82692383 -214.09206055 216.31644531 -213.65527344 216.82080078 C-190.08601211 243.98099451 -156.5545262 260.94407732 -120.93994141 265.33740234 C-115.81778228 265.57577669 -110.69206743 265.58243349 -105.56494141 265.58740234 C-104.48880585 265.58891296 -104.48880585 265.58891296 -103.39093018 265.5904541 C-92.61153953 265.58020667 -82.42519639 265.04437994 -71.93994141 262.33740234 C-71.2725293 262.17159668 -70.60511719 262.00579102 -69.91748047 261.83496094 C-65.87495298 260.8219376 -61.84362977 259.80723622 -57.93994141 258.33740234 C-57.60994141 257.67740234 -57.27994141 257.01740234 -56.93994141 256.33740234 C-57.50326675 254.57943418 -57.50326675 254.57943418 -58.37744141 252.58740234 C-60.58977475 246.36648336 -60.60733221 239.86396435 -59.93994141 233.33740234 C-57.2590145 230.65647544 -55.54826777 230.95069977 -51.81494141 230.71240234 C-50.17138672 230.60025391 -50.17138672 230.60025391 -48.49462891 230.48583984 C-47.65158203 230.43685547 -46.80853516 230.38787109 -45.93994141 230.33740234 C-46.50261719 229.62777344 -46.50261719 229.62777344 -47.07666016 228.90380859 C-50.90605376 223.95549898 -54.0157171 218.86077482 -56.93994141 213.33740234 C-58.13748047 213.80791016 -59.33501953 214.27841797 -60.56884766 214.76318359 C-89.42393571 225.90719702 -119.22598104 227.32662439 -148.02490234 215.11425781 C-173.50826649 203.73024672 -192.80480592 182.14242492 -202.73779297 156.25830078 C-212.19043402 129.66885593 -210.85081012 100.52105393 -198.77978516 75.04833984 C-186.32067791 49.66119921 -165.74824152 30.74526444 -138.93994141 21.33740234 C-109.67108369 12.25350613 -80.19902521 15.10511635 -53.12744141 29.14990234 C-46.40041823 32.79163839 -40.5867596 37.1632625 -34.93994141 42.33740234 C-34.02599609 43.15853516 -33.11205078 43.97966797 -32.17041016 44.82568359 C-13.88166355 62.09128354 -1.8395896 87.36719566 -0.84960938 112.64379883 C-0.80618102 115.12595388 -0.80341285 117.60492002 -0.81494141 120.08740234 C-0.81107422 120.90466797 -0.80720703 121.72193359 -0.80322266 122.56396484 C-0.81363441 129.24830947 -1.37995111 135.61751877 -1.93994141 142.33740234 C10.60005859 142.33740234 23.14005859 142.33740234 36.06005859 142.33740234 C33.49158504 139.76892879 31.06725043 137.45705667 28.31005859 135.14990234 C14.30627375 122.83175827 5.5632194 106.96942008 3.06005859 88.33740234 C2.94669935 85.92258688 2.88541732 83.50484287 2.87255859 81.08740234 C2.85837891 79.86537109 2.84419922 78.64333984 2.82958984 77.38427734 C3.06005859 74.33740234 3.06005859 74.33740234 5.06005859 72.33740234 C7.62922517 72.03141172 10.10764244 71.82653147 12.68505859 71.71240234 C13.39146484 71.67373047 14.09787109 71.63505859 14.82568359 71.59521484 C16.57004384 71.5009251 18.3150155 71.41807344 20.06005859 71.33740234 C19.62435547 70.68255859 19.18865234 70.02771484 18.73974609 69.35302734 C9.82232845 55.68737434 3.10514699 41.92095515 2.87255859 25.33740234 C2.45215685 19.84745023 0.14189472 17.36123682 -3.90478516 13.78271484 C-4.90638672 12.97576172 -5.90798828 12.16880859 -6.93994141 11.33740234 C-7.84703857 10.59055176 -7.84703857 10.59055176 -8.77246094 9.82861328 C-44.64434631 -19.53636106 -90.09488774 -32.71397345 -135.93994141 -22.66259766 Z M15.06005859 27.33740234 C18.06874895 45.38954447 24.23516373 57.40990832 37.06005859 70.33740234 C40.07307408 71.84391009 43.19645986 71.52839667 46.50390625 71.56201172 C47.27163361 71.57340179 48.03936096 71.58479187 48.83035278 71.5965271 C56.87011852 71.70726077 64.91080411 71.75462683 72.95117188 71.79736328 C76.76348012 71.81961758 80.5748062 71.86135259 84.38671875 71.92041016 C88.99273162 71.99162936 93.59782195 72.02821475 98.20435715 72.04048157 C99.95624386 72.05086186 101.70810383 72.07323808 103.45967484 72.108078 C114.48166683 72.64589614 114.48166683 72.64589614 124.05102539 67.96142578 C125.71685703 66.16392589 125.71685703 66.16392589 127.06005859 64.33740234 C127.83736328 63.44537109 128.61466797 62.55333984 129.41552734 61.63427734 C136.55666091 51.70673132 143.06005859 39.93068078 143.06005859 27.33740234 C100.82005859 27.33740234 58.58005859 27.33740234 15.06005859 27.33740234 Z M-166.93994141 52.33740234 C-168.09429687 53.35060547 -168.09429687 53.35060547 -169.27197266 54.38427734 C-186.20038124 70.15645487 -195.77488122 93.33024204 -196.9140625 116.27099609 C-197.53728502 139.78192288 -189.74777811 162.76711387 -173.93994141 180.33740234 C-173.29629639 181.05476563 -173.29629639 181.05476563 -172.63964844 181.78662109 C-156.93485347 199.03805842 -135.31311172 210.58531405 -111.74072266 211.72021484 C-99.06685656 212.06267652 -86.95689566 211.59315073 -74.93994141 207.33740234 C-74.26382813 207.10666016 -73.58771484 206.87591797 -72.89111328 206.63818359 C-68.49699527 205.06379818 -64.56856355 203.3502583 -60.93994141 200.33740234 C-59.82370633 197.22911698 -59.66254026 194.97639842 -59.86181641 191.69287109 C-59.90048828 190.52691406 -59.90048828 190.52691406 -59.93994141 189.33740234 C-57.16952031 186.56698125 -55.17460335 186.93944128 -51.31494141 186.71240234 C-49.53216797 186.60025391 -49.53216797 186.60025391 -47.71337891 186.48583984 C-46.34052734 186.41236328 -46.34052734 186.41236328 -44.93994141 186.33740234 C-45.80619141 185.40927734 -46.67244141 184.48115234 -47.56494141 183.52490234 C-51.52289859 178.89325032 -54.29588526 173.80490488 -56.93994141 168.33740234 C-57.28412109 167.62970703 -57.62830078 166.92201172 -57.98291016 166.19287109 C-61.14748727 158.42257143 -59.93994141 152.40380579 -59.93994141 143.33740234 C-45.41994141 143.00740234 -30.89994141 142.67740234 -15.93994141 142.33740234 C-9.17205796 122.03375201 -12.75757675 98.38451187 -21.93994141 79.33740234 C-33.67509865 57.2695947 -52.06390733 40.55650832 -75.93994141 32.33740234 C-108.24745855 22.82817008 -141.71110406 29.61985815 -166.93994141 52.33740234 Z M15.06005859 84.33740234 C19.29987539 104.12321404 25.99255019 120.0970631 43.42333984 131.66943359 C58.21915036 140.82696941 74.64539018 144.39412412 91.81005859 141.33740234 C109.48654027 137.15754922 124.48392115 126.81462448 134.06005859 111.33740234 C138.8426837 103.23954847 143.06005859 93.94308048 143.06005859 84.33740234 C100.82005859 84.33740234 58.58005859 84.33740234 15.06005859 84.33740234 Z M-47.93994141 155.33740234 C-44.4779776 166.87728169 -40.47579801 175.12494716 -29.93994141 181.33740234 C-22.6464064 185.13688205 -16.42459814 186.4877798 -8.19282532 186.47784424 C-7.4197339 186.48081536 -6.64664249 186.48378648 -5.85012406 186.48684764 C-3.26327155 186.49550935 -0.67646546 186.49704075 1.91040039 186.49853516 C3.7668111 186.50316515 5.62322086 186.50819006 7.47962952 186.51358032 C12.52116605 186.5266896 17.56268927 186.53314652 22.60424018 186.53759098 C25.75604223 186.54052433 28.90784066 186.54462966 32.05964088 186.54909515 C41.92678106 186.56276676 51.79391295 186.57243483 61.66106194 186.57629704 C73.04011614 186.58077585 84.4190501 186.59831697 95.79806775 186.62729764 C104.60080227 186.64893637 113.40350301 186.65900251 122.20626384 186.66033816 C127.46034261 186.6613847 132.7143083 186.66726023 137.96835899 186.68515778 C142.91369074 186.70167612 147.85882486 186.70377569 152.80417442 186.69501877 C154.61411062 186.69425039 156.42405761 186.69856477 158.23396683 186.70847702 C172.65987585 186.78281703 184.76029853 185.42493687 196.06787109 175.59130859 C200.91835045 170.54135065 206.06005859 162.55168404 206.06005859 155.33740234 C122.24005859 155.33740234 38.42005859 155.33740234 -47.93994141 155.33740234 Z M-47.93994141 199.33740234 C-44.31025757 211.43634846 -40.64141572 218.54981155 -29.93994141 225.33740234 C-22.69304289 229.21419846 -16.37006631 230.486672 -8.16159058 230.48457336 C-7.38512118 230.48825005 -6.60865177 230.49192674 -5.808653 230.49571484 C-3.2103192 230.50671593 -0.61202544 230.51058944 1.98632812 230.5144043 C3.85096869 230.52067168 5.71560801 230.52731872 7.58024597 230.53431702 C13.70111222 230.5553282 19.82197862 230.56571707 25.94287109 230.57568359 C28.05287565 230.57973233 30.16288008 230.58384929 32.27288437 230.58803368 C42.18754464 230.60707935 52.10219749 230.62131136 62.01687253 230.62964565 C73.44802228 230.63941425 84.87897819 230.66572664 96.31005967 230.70614654 C105.15442221 230.73634283 113.99872931 230.75111788 122.84314239 230.75442666 C128.12132683 230.75677322 133.39930404 230.76568249 138.67743301 230.79088783 C143.6466111 230.81423486 148.61544649 230.81837514 153.5846653 230.80812645 C155.40225047 230.80763258 157.21985289 230.81390877 159.03738594 230.8276825 C172.66100971 230.92509799 184.2408844 229.52040653 195.06005859 220.33740234 C200.25564205 214.97720634 206.06005859 207.15141197 206.06005859 199.33740234 C122.24005859 199.33740234 38.42005859 199.33740234 -47.93994141 199.33740234 Z M-47.93994141 243.33740234 C-44.46226217 254.92966645 -40.49952369 263.21180268 -29.96337891 269.52099609 C-23.16232023 273.10533783 -16.58425359 274.63799641 -8.8898468 274.60482788 C-8.10829056 274.60935899 -7.32673433 274.61389011 -6.52149457 274.61855853 C-3.91783306 274.63115976 -1.31438188 274.62958493 1.28930664 274.62792969 C3.16247322 274.6339177 5.03563733 274.64072388 6.90879822 274.64828491 C11.9875531 274.66592653 17.06624055 274.67063958 22.14502311 274.67191648 C25.32198328 274.67333994 28.49892641 274.67761327 31.67588234 274.68291092 C42.77066762 274.70140669 53.86540489 274.70958229 64.96020508 274.70800781 C75.28314042 274.70680726 85.6058664 274.72789389 95.92874879 274.75949514 C104.80629635 274.78569804 113.6837757 274.79637339 122.56136161 274.79509699 C127.85686184 274.79458845 133.15217603 274.80021199 138.44763756 274.82145309 C143.43245567 274.84090257 148.4169116 274.8409142 153.40174294 274.82641983 C155.22374123 274.82433879 157.04576259 274.82899028 158.86772156 274.84114075 C173.10366239 274.92987396 185.33025852 273.76855988 196.06005859 263.33740234 C200.83914132 258.19480997 206.06005859 250.62030988 206.06005859 243.33740234 C122.24005859 243.33740234 38.42005859 243.33740234 -47.93994141 243.33740234 Z " fill="#000000" transform="translate(277.93994140625,131.66259765625)"/>
<path d="M0 0 C2.87455539 3.04321553 4.29618197 6.71752396 6 10.5 C12.5099971 23.99788958 22.83598524 32.76627976 36.31640625 39.0859375 C38 40 38 40 39 42 C39.25860135 46.05142119 39.30441554 47.54337669 37 51 C33.67313835 52.31307991 32.19045587 52.06860132 28.80078125 50.84765625 C13.35631143 42.94382343 1.20327856 32.56519521 -7 17 C-7.3403125 16.360625 -7.680625 15.72125 -8.03125 15.0625 C-10.00801537 10.9625422 -10.52040961 7.51021662 -10 3 C-7.7810369 -1.04634448 -4.19567567 -0.52445946 0 0 Z " fill="#000000" transform="translate(114,268)"/>
</svg>
