<?xml version="1.0" encoding="UTF-8"?>
<svg version="1.1" xmlns="http://www.w3.org/2000/svg" width="512" height="512">
<path d="M0 0 C2.09206503 -0.00572045 4.18412694 -0.01269109 6.27618408 -0.02079773 C11.89631264 -0.03856125 17.51628364 -0.03759254 23.13643169 -0.03185534 C27.85730783 -0.02873833 32.57815478 -0.03488373 37.29902673 -0.04089409 C48.45198061 -0.05488315 59.60485781 -0.05342564 70.7578125 -0.04199219 C82.19811068 -0.03052208 93.63817412 -0.04458112 105.07844138 -0.07138866 C114.96110787 -0.09366463 124.84370131 -0.10015626 134.72639108 -0.09431225 C140.60221502 -0.09096911 146.47788869 -0.09317911 152.3536911 -0.11056328 C157.88617865 -0.12622108 163.41832312 -0.12187191 168.95079803 -0.10325813 C170.95965518 -0.09962341 172.96853884 -0.10252724 174.97737122 -0.11314392 C218.06566863 -0.32315189 262.26937159 14.20135301 295.28222656 42.40405273 C296.38029058 43.30748457 297.47931588 44.2097488 298.57910156 45.11108398 C333.06900673 73.65839134 333.06900673 73.65839134 334.71972656 88.27905273 C334.84082031 90.27124023 334.84082031 90.27124023 334.28222656 92.40405273 C330.90090755 96.12753588 327.31482216 98.91158817 323.11816406 101.66186523 C322.53314117 102.04680145 321.94811829 102.43173767 321.34536743 102.82833862 C319.45389906 104.06909066 317.55621487 105.29984596 315.65722656 106.52905273 C315.0067334 106.95234863 314.35624023 107.37564453 313.68603516 107.81176758 C303.08368158 114.70707744 292.38037929 121.33075762 281.28222656 127.40405273 C280.49605957 127.84088379 279.70989258 128.27771484 278.89990234 128.7277832 C254.46746419 142.24742164 228.839282 152.03829954 202.28222656 160.40405273 C204.30965504 161.93404227 206.335322 163.44044724 208.43066406 164.87670898 C214.80172143 169.42586749 219.30266695 174.74469826 221.91894531 182.22436523 C223.7031292 192.92946854 222.90841427 202.71300564 216.68066406 211.72045898 C215.25925151 213.65721779 213.80240874 215.5443632 212.28222656 217.40405273 C212.94222656 217.40405273 213.60222656 217.40405273 214.28222656 217.40405273 C215.71972656 219.16186523 215.71972656 219.16186523 217.28222656 221.52905273 C217.79785156 222.29475586 218.31347656 223.06045898 218.84472656 223.84936523 C221.8758139 229.23613457 222.62382558 234.16826008 222.59472656 240.27905273 C222.61083984 240.94807617 222.62695312 241.61709961 222.64355469 242.30639648 C222.6472044 246.0948022 222.1547818 249.12083632 220.75952148 252.65844727 C220.48436203 253.36421906 220.20920258 254.06999084 219.92570496 254.79714966 C219.71335709 255.32742767 219.50100922 255.85770569 219.28222656 256.40405273 C220.53245605 256.38310547 221.78268555 256.3621582 223.07080078 256.34057617 C227.74857952 256.26769108 232.42630895 256.22207781 237.10449219 256.18432617 C239.12183091 256.16432057 241.13911246 256.13710713 243.15625 256.10229492 C246.07078229 256.05328696 248.98454215 256.0309731 251.89941406 256.01342773 C252.78837372 255.99278259 253.67733337 255.97213745 254.5932312 255.9508667 C263.29216368 255.94781119 271.23093201 258.56908244 277.68066406 264.56030273 C286.20718709 274.37620241 287.15001862 283.92495847 286.28222656 296.40405273 C284.65322561 303.00383373 280.52514799 308.21354553 276.28222656 313.40405273 C276.94222656 313.40405273 277.60222656 313.40405273 278.28222656 313.40405273 C279.71972656 315.16186523 279.71972656 315.16186523 281.28222656 317.52905273 C281.79785156 318.29475586 282.31347656 319.06045898 282.84472656 319.84936523 C285.84799392 325.18669363 286.6687759 330.15315314 286.65722656 336.21655273 C286.65851563 336.91780273 286.65980469 337.61905273 286.66113281 338.34155273 C286.54409138 344.09786314 285.30910457 348.53942736 282.28222656 353.40405273 C283.23742187 353.8281543 284.19261719 354.25225586 285.17675781 354.68920898 C307.19007627 364.60377891 321.86501502 377.59038005 331.27441406 400.35717773 C337.36625685 418.77437687 336.00244377 439.72597126 327.69873047 457.16333008 C319.09543413 474.10817657 304.16272661 487.04387032 286.28222656 493.40405273 C276.68983389 496.52676639 267.49976584 496.83249971 257.53782654 496.79173279 C255.86476172 496.79591225 254.19169974 496.80139312 252.51864296 496.8080526 C247.94929735 496.82244507 243.38013306 496.818282 238.81077778 496.81088579 C233.87206484 496.80614112 228.9333904 496.81867528 223.99468994 496.8289032 C214.33114319 496.84606994 204.66766151 496.84693578 195.00410347 496.84169029 C187.14883249 496.83764414 179.2935807 496.83909744 171.43831062 496.84443855 C169.75948142 496.84556119 169.75948142 496.84556119 168.04673647 496.8467065 C165.77287292 496.84823801 163.49900937 496.84977636 161.22514582 496.85132147 C139.91859823 496.8650383 118.61208738 496.85961409 97.30554063 496.84813625 C77.82035423 496.83820022 58.33526274 496.85115241 38.85009097 496.87507045 C18.82921837 496.89946047 -1.19161002 496.90906983 -21.21249717 496.90241772 C-32.44741861 496.89892587 -43.68226701 496.90115559 -54.9171772 496.91866875 C-64.47888781 496.93338928 -74.04047394 496.9340278 -83.6021821 496.91659784 C-88.47852285 496.90808516 -93.35464122 496.90594504 -98.23097038 496.92124939 C-102.69875049 496.93509781 -107.1661177 496.93033134 -111.63387393 496.91101015 C-113.24608132 496.9072504 -114.8583218 496.91017142 -116.4704997 496.9206218 C-130.01824114 497.00216445 -140.66189686 495.00370806 -150.71777344 485.40405273 C-159.52628297 476.17692097 -162.34351645 466.5536095 -162.18847656 454.03930664 C-161.7942353 444.08052072 -158.78510754 436.9477727 -152.30371094 429.37670898 C-150.76429876 427.4619229 -149.72628329 425.63575523 -148.71777344 423.40405273 C-149.16507813 422.94256836 -149.61238281 422.48108398 -150.07324219 422.00561523 C-159.74016817 411.5760533 -162.2266707 401.85589248 -161.99121094 387.96655273 C-161.53745013 377.02238119 -156.4339494 368.86089368 -148.65136719 361.43139648 C-138.14793367 352.58145518 -127.17650168 351.84276039 -114.03027344 352.15405273 C-112.53876121 352.17416666 -111.04722251 352.19240871 -109.55566406 352.20874023 C-105.94247342 352.25230692 -102.33029905 352.32105754 -98.71777344 352.40405273 C-99.26191895 351.67669922 -99.80606445 350.9493457 -100.36669922 350.19995117 C-101.08325684 349.23089844 -101.79981445 348.2618457 -102.53808594 347.26342773 C-103.6018042 345.83208496 -103.6018042 345.83208496 -104.68701172 344.37182617 C-113.87826688 330.93964323 -115.97528276 314.96051021 -113.33105469 299.08178711 C-111.32269917 290.44585838 -107.25884894 283.26443192 -101.71777344 276.40405273 C-100.95464844 275.37280273 -100.19152344 274.34155273 -99.40527344 273.27905273 C-98.84839844 272.66030273 -98.29152344 272.04155273 -97.71777344 271.40405273 C-97.05777344 271.40405273 -96.39777344 271.40405273 -95.71777344 271.40405273 C-95.71777344 270.74405273 -95.71777344 270.08405273 -95.71777344 269.40405273 C-96.76964844 269.06374023 -96.76964844 269.06374023 -97.84277344 268.71655273 C-105.47962173 265.23016547 -109.75612761 259.26015499 -112.83496094 251.63842773 C-115.10827879 243.30963489 -115.05888727 232.93463627 -110.94042969 225.24389648 C-109.05726993 222.41013211 -107.02685384 219.9055565 -104.71777344 217.40405273 C-106.20550289 214.02284943 -108.24647775 211.27870755 -110.49902344 208.38061523 C-115.2231376 200.71907111 -114.98731428 189.97993382 -113.03027344 181.38452148 C-109.41764209 171.58525896 -102.97359586 165.95559577 -93.71777344 161.40405273 C-90.46202762 160.38708252 -87.4328592 160.25141026 -84.03125 160.19873047 C-82.89036926 160.17878525 -81.74948853 160.15884003 -80.57403564 160.13829041 C-78.73479523 160.11322166 -78.73479523 160.11322166 -76.85839844 160.08764648 C-75.59888367 160.06686539 -74.3393689 160.04608429 -73.04168701 160.02467346 C-69.70118472 159.97038972 -66.36067122 159.92013204 -63.02008057 159.87182617 C-59.60805951 159.82149569 -56.19612521 159.76587004 -52.78417969 159.71069336 C-46.0954468 159.6036016 -39.40664881 159.50181734 -32.71777344 159.40405273 C-33.38098099 159.18723846 -34.04418854 158.97042419 -34.72749329 158.74703979 C-59.04756319 150.77589025 -59.04756319 150.77589025 -68.90527344 146.52905273 C-69.88681396 146.11179932 -70.86835449 145.6945459 -71.87963867 145.26464844 C-97.41515265 134.30441535 -120.98282661 121.097822 -144.09277344 105.71655273 C-144.91069366 105.17319275 -145.72861389 104.62983276 -146.57131958 104.07000732 C-148.90309216 102.51709577 -151.22952142 100.95656654 -153.55371094 99.39233398 C-154.26300247 98.91892075 -154.97229401 98.44550751 -155.70307922 97.95774841 C-160.6013738 94.636852 -160.6013738 94.636852 -161.71777344 92.40405273 C-162.25549696 86.85147287 -162.07962923 83.93684336 -158.41772461 79.43505859 C-157.93924072 78.88857666 -157.46075684 78.34209473 -156.96777344 77.77905273 C-156.47188721 77.18423096 -155.97600098 76.58940918 -155.46508789 75.9765625 C-154.42004545 74.72884118 -153.36623965 73.48841212 -152.30419922 72.25512695 C-150.77709679 70.47327244 -149.28864862 68.66567328 -147.80761719 66.84545898 C-123.0751723 36.75912784 -89.47575145 17.2621696 -52.46777344 6.21655273 C-51.69602783 5.97855957 -50.92428223 5.74056641 -50.12915039 5.49536133 C-33.71618251 0.78329913 -16.96448274 -0.04262886 0 0 Z M-31.59277344 19.09155273 C-32.50639648 19.26525391 -33.42001953 19.43895508 -34.36132812 19.61791992 C-69.14678762 26.5366411 -99.27704528 42.83927779 -124.71777344 67.40405273 C-125.45511719 68.10143555 -126.19246094 68.79881836 -126.95214844 69.51733398 C-131.99641788 74.39541625 -136.69327074 79.64558877 -140.71777344 85.40405273 C-140.71777344 86.06405273 -140.71777344 86.72405273 -140.71777344 87.40405273 C-138.33488428 89.12640008 -135.95333929 90.71595649 -133.46777344 92.27905273 C-132.32236084 93.00717163 -132.32236084 93.00717163 -131.15380859 93.75 C-128.68198438 95.31258711 -126.20141984 96.86033387 -123.71777344 98.40405273 C-122.92661133 98.8979248 -122.13544922 99.39179687 -121.3203125 99.90063477 C-34.36325485 153.92266215 71.01065879 173.9183729 171.3223877 150.93664551 C223.04376292 138.76567304 269.10796206 116.57895283 313.28222656 87.40405273 C311.77775301 81.91965979 307.93725332 78.50152001 304.09472656 74.52905273 C303.1230957 73.50618164 303.1230957 73.50618164 302.13183594 72.46264648 C300.19455669 70.43053539 298.24103892 68.41539552 296.28222656 66.40405273 C295.69731445 65.79505127 295.11240234 65.1860498 294.50976562 64.55859375 C266.58045315 35.91324649 224.59804308 18.95153542 184.97583008 16.84963989 C184.19267961 16.80751251 183.40952913 16.76538513 182.60264683 16.72198117 C174.12935209 16.29930862 165.66648193 16.26320647 157.18457031 16.2746582 C155.45744795 16.27329835 153.73032588 16.27151518 152.00320435 16.26934814 C147.37097061 16.26484317 142.73875949 16.26653441 138.10652542 16.26972723 C133.22230221 16.27228711 128.33808073 16.26990331 123.45385742 16.26834106 C115.25699522 16.26652985 107.06014207 16.26889804 98.86328125 16.27368164 C89.43270231 16.27912222 80.002145 16.27735882 70.57156658 16.27185524 C62.42491568 16.2672941 54.27827122 16.26668816 46.13161945 16.2692939 C41.28776508 16.27084025 36.44392083 16.2710961 31.60006714 16.26775742 C27.04281494 16.26483478 22.4855902 16.26693366 17.92834091 16.27265167 C16.2717277 16.27395601 14.61511212 16.27362566 12.95849991 16.27138901 C-1.89261302 16.25321121 -16.96959737 16.24959272 -31.59277344 19.09155273 Z M-93.71777344 182.46655273 C-97.14493163 187.50019134 -97.37546004 191.38297825 -96.71777344 197.40405273 C-94.36984686 202.28051563 -91.4301649 204.80742887 -86.71777344 207.40405273 C-83.39473425 208.23480847 -80.29779404 208.53028146 -76.8797493 208.5354805 C-75.92786075 208.53932164 -74.9759722 208.54316279 -73.99523854 208.54712033 C-72.95760389 208.54625385 -71.91996924 208.54538737 -70.85089111 208.54449463 C-69.74224284 208.54746575 -68.63359457 208.55043687 -67.49135089 208.55349803 C-63.7689659 208.56218358 -60.04661308 208.56369316 -56.32421875 208.56518555 C-53.65831348 208.5698138 -50.99241113 208.57481793 -48.32650757 208.58023071 C-41.0784983 208.59380023 -33.83049457 208.59983653 -26.58247471 208.60424137 C-22.0550913 208.607006 -17.52771003 208.61124374 -13.00032806 208.61574554 C-0.46029927 208.62793615 12.07972783 208.63823604 24.61976242 208.64162064 C25.82313832 208.64194999 25.82313832 208.64194999 27.05082484 208.64228599 C28.25704416 208.6426134 28.25704416 208.6426134 29.48763156 208.64294744 C31.11707989 208.6433909 32.74652823 208.64383746 34.37597656 208.64428711 C35.18423548 208.64450854 35.9924944 208.64472997 36.82524601 208.64495811 C49.92005636 208.6489056 63.01481106 208.66635905 76.10959992 208.68964663 C89.56034149 208.71337377 103.01105514 208.7258231 116.46181798 208.72698855 C124.01130662 208.72790452 131.56072272 208.73363714 139.11019135 208.75180817 C145.53897535 208.76722752 151.96766438 208.7723188 158.39646336 208.76407006 C161.6745765 208.76017008 164.952459 208.76270172 168.23055649 208.77512741 C171.78967174 208.78782634 175.34829777 208.78198069 178.90740967 208.77154541 C179.93612143 208.77960181 180.9648332 208.78765822 182.02471805 208.79595876 C188.50370178 208.75159148 195.83237159 208.48926971 200.90576243 203.95211911 C204.96191372 199.20611756 205.63821864 196.0077753 205.55957031 189.94311523 C205.14846212 186.17944871 203.79936296 184.18615086 201.28222656 181.40405273 C196.12103411 177.34098634 191.89511062 176.28243717 185.44420242 176.27262497 C184.49231387 176.26878382 183.54042532 176.26494268 182.55969167 176.26098514 C181.52205702 176.26185162 180.48442236 176.2627181 179.41534424 176.26361084 C178.30669596 176.26063972 177.19804769 176.2576686 176.05580401 176.25460744 C172.33341902 176.24592189 168.6110662 176.24441231 164.88867188 176.24291992 C162.2227666 176.23829167 159.55686426 176.23328754 156.89096069 176.22787476 C149.64295142 176.21430524 142.39494769 176.20826894 135.14692783 176.2038641 C130.61954443 176.20109947 126.09216315 176.19686173 121.56478119 176.19235992 C109.02475239 176.18016931 96.4847253 176.16986943 83.9446907 176.16648483 C83.14244011 176.16626527 82.34018951 176.1660457 81.51362829 176.16581948 C80.30740896 176.16549206 80.30740896 176.16549206 79.07682157 176.16515803 C77.44737323 176.16471457 75.8179249 176.16426801 74.18847656 176.16381836 C73.38021765 176.16359693 72.57195873 176.1633755 71.73920712 176.16314736 C58.64439676 176.15919987 45.54964207 176.14174641 32.45485321 176.11845884 C19.00411163 176.0947317 5.55339798 176.08228237 -7.89736485 176.08111691 C-15.4468535 176.08020095 -22.99626959 176.07446833 -30.54573822 176.0562973 C-36.97452222 176.04087795 -43.40321125 176.03578667 -49.83201024 176.0440354 C-53.11012337 176.04793539 -56.38800587 176.04540375 -59.66610336 176.03297806 C-63.22521861 176.02027913 -66.78384465 176.02612478 -70.34295654 176.03656006 C-71.37166831 176.02850365 -72.40038007 176.02044725 -73.46026492 176.01214671 C-80.85212655 176.06276526 -88.62770055 176.51078528 -93.71777344 182.46655273 Z M-93.71777344 230.46655273 C-97.14493163 235.50019134 -97.37546004 239.38297825 -96.71777344 245.40405273 C-94.36984686 250.28051563 -91.4301649 252.80742887 -86.71777344 255.40405273 C-83.39473425 256.23480847 -80.29779404 256.53028146 -76.8797493 256.5354805 C-75.92786075 256.53932164 -74.9759722 256.54316279 -73.99523854 256.54712033 C-72.95760389 256.54625385 -71.91996924 256.54538737 -70.85089111 256.54449463 C-69.74224284 256.54746575 -68.63359457 256.55043687 -67.49135089 256.55349803 C-63.7689659 256.56218358 -60.04661308 256.56369316 -56.32421875 256.56518555 C-53.65831348 256.5698138 -50.99241113 256.57481793 -48.32650757 256.58023071 C-41.0784983 256.59380023 -33.83049457 256.59983653 -26.58247471 256.60424137 C-22.0550913 256.607006 -17.52771003 256.61124374 -13.00032806 256.61574554 C-0.46029927 256.62793615 12.07972783 256.63823604 24.61976242 256.64162064 C25.82313832 256.64194999 25.82313832 256.64194999 27.05082484 256.64228599 C28.25704416 256.6426134 28.25704416 256.6426134 29.48763156 256.64294744 C31.11707989 256.6433909 32.74652823 256.64383746 34.37597656 256.64428711 C35.18423548 256.64450854 35.9924944 256.64472997 36.82524601 256.64495811 C49.92005636 256.6489056 63.01481106 256.66635905 76.10959992 256.68964663 C89.56034149 256.71337377 103.01105514 256.7258231 116.46181798 256.72698855 C124.01130662 256.72790452 131.56072272 256.73363714 139.11019135 256.75180817 C145.53897535 256.76722752 151.96766438 256.7723188 158.39646336 256.76407006 C161.6745765 256.76017008 164.952459 256.76270172 168.23055649 256.77512741 C171.78967174 256.78782634 175.34829777 256.78198069 178.90740967 256.77154541 C179.93612143 256.77960181 180.9648332 256.78765822 182.02471805 256.79595876 C188.50370178 256.75159148 195.83237159 256.48926971 200.90576243 251.95211911 C204.96191372 247.20611756 205.63821864 244.0077753 205.55957031 237.94311523 C205.14846212 234.17944871 203.79936296 232.18615086 201.28222656 229.40405273 C196.12103411 225.34098634 191.89511062 224.28243717 185.44420242 224.27262497 C184.49231387 224.26878382 183.54042532 224.26494268 182.55969167 224.26098514 C181.52205702 224.26185162 180.48442236 224.2627181 179.41534424 224.26361084 C178.30669596 224.26063972 177.19804769 224.2576686 176.05580401 224.25460744 C172.33341902 224.24592189 168.6110662 224.24441231 164.88867188 224.24291992 C162.2227666 224.23829167 159.55686426 224.23328754 156.89096069 224.22787476 C149.64295142 224.21430524 142.39494769 224.20826894 135.14692783 224.2038641 C130.61954443 224.20109947 126.09216315 224.19686173 121.56478119 224.19235992 C109.02475239 224.18016931 96.4847253 224.16986943 83.9446907 224.16648483 C83.14244011 224.16626527 82.34018951 224.1660457 81.51362829 224.16581948 C80.30740896 224.16549206 80.30740896 224.16549206 79.07682157 224.16515803 C77.44737323 224.16471457 75.8179249 224.16426801 74.18847656 224.16381836 C73.38021765 224.16359693 72.57195873 224.1633755 71.73920712 224.16314736 C58.64439676 224.15919987 45.54964207 224.14174641 32.45485321 224.11845884 C19.00411163 224.0947317 5.55339798 224.08228237 -7.89736485 224.08111691 C-15.4468535 224.08020095 -22.99626959 224.07446833 -30.54573822 224.0562973 C-36.97452222 224.04087795 -43.40321125 224.03578667 -49.83201024 224.0440354 C-53.11012337 224.04793539 -56.38800587 224.04540375 -59.66610336 224.03297806 C-63.22521861 224.02027913 -66.78384465 224.02612478 -70.34295654 224.03656006 C-71.37166831 224.02850365 -72.40038007 224.02044725 -73.46026492 224.01214671 C-80.85212655 224.06276526 -88.62770055 224.51078528 -93.71777344 230.46655273 Z M-88.71777344 287.40405273 C-96.15972504 297.5710016 -97.93863467 308.00497359 -96.71777344 320.40405273 C-94.4943373 331.20169768 -87.94272004 339.46237559 -79.17480469 345.90014648 C-68.50667261 352.42992526 -57.09251676 352.55336105 -44.97157288 352.54449463 C-43.05974241 352.54895131 -43.05974241 352.54895131 -41.10928911 352.55349803 C-37.58744432 352.56152499 -34.06561995 352.56335518 -30.54376709 352.5640955 C-26.73933187 352.56595348 -22.93490706 352.57350431 -19.13047791 352.58023071 C-10.82069646 352.59378179 -2.51091985 352.59983312 5.7988708 352.60424137 C10.98977621 352.60700807 16.18067978 352.61124608 21.37158394 352.61574554 C35.75179267 352.62793175 50.13199993 352.6382338 64.51221371 352.64162064 C65.89123823 352.64194999 65.89123823 352.64194999 67.29812184 352.64228599 C68.21962168 352.64250427 69.14112152 352.64272254 70.09054559 352.64294744 C71.95774329 352.6433909 73.82494098 352.64383746 75.69213867 352.64428711 C77.08141918 352.64461925 77.08141918 352.64461925 78.49876595 352.64495811 C93.51394062 352.64890811 108.52906682 352.66637119 123.54422276 352.68964663 C138.9703207 352.7133657 154.39639431 352.72582266 169.82251078 352.72698855 C178.47971749 352.72790476 187.13686095 352.7336438 195.79405022 352.75180817 C203.1633216 352.76721633 210.53251017 352.77232522 217.9017946 352.76407006 C221.6598971 352.7601667 225.41783285 352.76107786 229.17591476 352.77512741 C233.25374407 352.7902328 237.33119853 352.78199105 241.40904236 352.77154541 C242.5913457 352.77960181 243.77364903 352.78765822 244.99177974 352.79595876 C255.67209985 352.7573966 255.67209985 352.7573966 264.89990944 347.95211911 C268.96650011 343.2140499 269.63819312 340.0058075 269.55957031 333.94311523 C269.14846212 330.17944871 267.79936296 328.18615086 265.28222656 325.40405273 C259.7903389 321.08065181 255.38841728 320.27839172 248.54448986 320.28100491 C247.39198087 320.27901386 246.23947188 320.27702281 245.05203837 320.27497143 C243.79037154 320.27788427 242.5287047 320.28079711 241.22880554 320.28379822 C239.87155554 320.28336208 238.51430562 320.2824864 237.15705615 320.28120905 C233.42862592 320.27897237 229.7002244 320.2829741 225.97179782 320.28798711 C221.95071658 320.29230326 217.92963698 320.29084436 213.90855408 320.29008484 C206.94213667 320.28956034 199.97572863 320.29269939 193.00931358 320.29832268 C182.93703156 320.30644773 172.86475407 320.30905393 162.79246912 320.31031067 C146.45108036 320.3124996 130.1096966 320.3191554 113.76831055 320.32861328 C97.89363632 320.33779149 82.01896345 320.34487033 66.14428711 320.34912109 C64.67665571 320.34951518 64.67665571 320.34951518 63.17937519 320.34991723 C58.270953 320.35122226 53.3625308 320.35248597 48.4541086 320.35372913 C7.73014441 320.36409681 -32.99381415 320.38178513 -73.71777344 320.40405273 C-73.71777344 315.12405273 -73.71777344 309.84405273 -73.71777344 304.40405273 C-72.03564538 304.40681811 -70.35351732 304.40958349 -68.62041569 304.41243267 C-28.68748137 304.4774103 11.24544695 304.52687634 51.17842325 304.55724872 C56.09380244 304.56100083 61.00918152 304.5648838 65.92456055 304.56884766 C66.9031214 304.56963459 67.88168225 304.57042152 68.88989646 304.5712323 C84.73329006 304.58428516 100.576651 304.60793836 116.42002522 304.63551112 C132.67755505 304.66356862 148.93506777 304.68022973 165.19262081 304.68631822 C175.22388178 304.69043394 185.25505042 304.70343182 195.28628296 304.72780214 C202.16566746 304.74366356 209.04500424 304.74845216 215.92440569 304.74455687 C219.89308119 304.74263596 223.86159536 304.74557461 227.83024216 304.76166916 C231.46687968 304.77630931 235.10324796 304.7769786 238.73989809 304.76674942 C240.67185287 304.76488939 242.60380467 304.7777912 244.53571314 304.79129666 C255.45315518 304.81607426 255.45315518 304.81607426 264.89732641 299.95209283 C268.96853954 295.21756236 269.63818162 292.00492077 269.55957031 285.94311523 C269.14846212 282.17944871 267.79936296 280.18615086 265.28222656 277.40405273 C259.89305803 273.1615158 255.54807527 272.28045764 248.82788754 272.27541828 C247.73851326 272.27219384 246.64913898 272.26896939 245.52675337 272.26564723 C244.33552714 272.26719583 243.14430092 272.26874444 241.91697693 272.27033997 C240.64710326 272.26807441 239.37722959 272.26580885 238.0688749 272.26347464 C234.54604146 272.25735744 231.02323176 272.25749015 227.50039423 272.25866902 C223.69994069 272.25887305 219.89949478 272.25335388 216.0990448 272.24861145 C208.65273774 272.24030394 201.2064386 272.23755653 193.7601273 272.23699907 C187.70485588 272.2365238 181.64958707 272.2344685 175.59431648 272.23129845 C158.41933499 272.22249032 141.24435975 272.21787913 124.06937598 272.21862892 C123.14341306 272.21866888 122.21745014 272.21870883 121.26342773 272.21875 C120.33633116 272.21879088 119.40923458 272.21883176 118.45404417 272.21887388 C103.44071708 272.21928003 88.42741511 272.20971878 73.41409528 272.19561163 C57.99146801 272.18123454 42.56885297 272.17434224 27.14621884 272.17520541 C18.49056473 272.175537 9.83493693 272.17280684 1.17928886 272.16202736 C-6.19325168 272.15290465 -13.565754 272.1507615 -20.93829776 272.15753678 C-24.69671543 272.16079353 -28.45505984 272.16088946 -32.21347046 272.15218353 C-36.2969147 272.14282247 -40.38019059 272.1491169 -44.46363831 272.15681458 C-46.22705506 272.14909923 -46.22705506 272.14909923 -48.0260964 272.14122802 C-64.18410291 272.20831493 -77.48224978 275.0729044 -88.71777344 287.40405273 Z M-138.71777344 375.40405273 C-144.40771152 382.6329567 -145.54817703 389.31574672 -144.71777344 398.40405273 C-142.9030625 404.4399391 -139.23500366 409.24856589 -133.83105469 412.56030273 C-127.57058798 415.89921831 -121.81074657 416.52931666 -114.73253822 416.52710056 C-114.05026568 416.52825441 -113.36799314 416.52940825 -112.66504568 416.53059706 C-110.38023888 416.53324266 -108.09550264 416.52875855 -105.81069946 416.52430725 C-104.15560082 416.52474337 -102.50050224 416.52561904 -100.84540403 416.52689642 C-96.29832178 416.52913331 -91.75126307 416.52513107 -87.20418382 416.52011836 C-82.30035799 416.51580252 -77.3965335 416.51726109 -72.4927063 416.51802063 C-63.99680898 416.51854514 -55.50091934 416.51540589 -47.00502396 416.50978279 C-34.72136356 416.501658 -22.43770687 416.49905156 -10.15404408 416.4977948 C9.77507298 416.49560582 29.70418595 416.48894991 49.63330078 416.47949219 C68.99332661 416.47031409 88.35335134 416.4632352 107.71337891 416.45898438 C108.9066008 416.45872165 110.09982269 416.45845893 111.32920282 416.45818824 C117.3152075 416.45688321 123.3012122 416.4556195 129.2872169 416.45437634 C178.95222298 416.44400853 228.61722451 416.42632009 278.28222656 416.40405273 C278.28222656 421.68405273 278.28222656 426.96405273 278.28222656 432.40405273 C276.22902978 432.40220915 274.175833 432.40036556 272.06041813 432.39846611 C223.3299188 432.35502163 174.59942112 432.32217522 125.86890641 432.30192208 C119.87199552 432.29942064 113.87508466 432.296832 107.87817383 432.29418945 C106.68428871 432.29366483 105.4904036 432.29314021 104.26034015 432.29259969 C84.9250333 432.28389531 65.58973833 432.26812514 46.25443853 432.24974714 C26.41702812 432.23104904 6.57962394 432.2199362 -13.25779492 432.21587574 C-25.50011178 432.21313051 -37.74239506 432.20445746 -49.98470158 432.1882198 C-58.37786397 432.17765405 -66.77100897 432.17445119 -75.16417753 432.17704998 C-80.00772786 432.1783319 -84.85121946 432.17635628 -89.69475937 432.16564178 C-94.13072524 432.15590057 -98.56659295 432.15542353 -103.00256336 432.16225494 C-104.60567583 432.16309912 -106.20879445 432.16056947 -107.81189483 432.15428637 C-124.38715406 431.9358114 -124.38715406 431.9358114 -138.71777344 439.40405273 C-144.40771152 446.6329567 -145.54817703 453.31574672 -144.71777344 462.40405273 C-142.9030625 468.4399391 -139.23500366 473.24856589 -133.83105469 476.56030273 C-127.67067505 479.84583854 -121.9887184 480.52844395 -115.02152252 480.53268719 C-114.37045831 480.53444022 -113.7193941 480.53619326 -113.04860067 480.53799942 C-110.86982203 480.54264648 -108.69111049 480.54019725 -106.5123291 480.5377655 C-104.93320458 480.53963414 -103.35408051 480.54193506 -101.77495718 480.54463083 C-97.43733224 480.55074899 -93.09972658 480.5506152 -88.76209831 480.54943645 C-84.08295265 480.54923244 -79.40381319 480.55475134 -74.72467041 480.55949402 C-65.55662312 480.56780197 -56.38858226 480.57054895 -47.22053152 480.5711064 C-39.76560631 480.57158163 -32.31068321 480.57363674 -24.85575867 480.57680702 C-3.71251485 480.58561513 17.43072388 480.59022632 38.57396954 480.58947655 C40.28387317 480.58941661 40.28387317 480.58941661 42.02832031 480.58935547 C43.16965103 480.58931459 44.31098175 480.58927371 45.48689824 480.58923159 C63.97133331 480.5888254 82.45574798 480.59838763 100.94017714 480.61249384 C119.9269045 480.62686878 138.91362192 480.63376336 157.90035486 480.63290006 C168.55696632 480.6325684 179.21355641 480.63530147 189.87016296 480.64607811 C198.94661355 480.65519797 208.0230331 480.65734628 217.09948629 480.65056869 C221.72699301 480.64731057 226.35444022 480.64722107 230.98194122 480.65592194 C235.22610727 480.6638196 239.47016694 480.66232236 243.71433049 480.6536378 C245.24198145 480.65210994 246.76964048 480.65389177 248.29728192 480.65949788 C268.43438904 480.72844558 285.81780855 478.2931857 301.28222656 464.40405273 C313.01491767 452.33501129 317.71683734 438.53483891 317.64575195 422.05664062 C317.39163819 409.74962896 313.53809613 400.28009742 306.28222656 390.40405273 C305.78207031 389.69635742 305.28191406 388.98866211 304.76660156 388.25952148 C296.62140297 377.83119905 283.28118233 370.96499006 270.3223744 369.12591666 C262.4105481 368.23710382 254.51155166 368.2614153 246.56211853 368.27033997 C244.97597832 368.26846933 243.38983858 368.26616763 241.80369955 368.26347464 C237.46545893 368.25738181 233.12723764 368.25748725 228.78899372 368.25866902 C224.10251564 368.25887365 219.41604368 368.25334841 214.72956848 368.24861145 C205.55706304 368.24031905 196.38456402 368.23755728 187.21205514 368.23699907 C179.7567059 368.23652341 172.30135878 368.23446617 164.84601021 368.23129845 C143.70107068 368.22249711 122.55613622 368.21787846 101.41119485 368.21862892 C99.70271322 368.21868885 99.70271322 368.21868885 97.9597168 368.21875 C96.2491464 368.21881132 96.2491464 368.21881132 94.50401903 368.21887388 C76.00999394 368.2192806 57.51598918 368.20970316 39.02196997 368.19561163 C20.02497001 368.18125117 1.02797997 368.17434121 -17.96902555 368.17520541 C-28.63156617 368.17553741 -39.29408544 368.17278888 -49.95662117 368.16202736 C-59.03128787 368.15292689 -68.10592355 368.15074353 -77.18059284 368.15753678 C-81.80953312 368.16080376 -86.43841385 368.16085213 -91.06734848 368.15218353 C-95.3067758 368.14432597 -99.54609627 368.14574235 -103.78552096 368.15446766 C-105.31700106 368.15600424 -106.8484891 368.15418055 -108.37995983 368.14860759 C-124.65911864 368.00210704 -124.65911864 368.00210704 -138.71777344 375.40405273 Z " fill="#000000" transform="translate(169.7177734375,7.595947265625)"/>
</svg>
