<?xml version="1.0" encoding="UTF-8"?>
<svg version="1.1" xmlns="http://www.w3.org/2000/svg" width="512" height="512">
<path d="M0 0 C2.81557468 3.72910255 3.69266323 7.33196681 4.5625 11.875 C5.2827383 15.53684315 5.98770869 18.96377299 7.1875 22.5 C9.38648637 31.97255668 8.92074793 41.5134927 4 50 C1.28179759 53.9410908 -1.61365335 57.61365335 -5 61 C-4.2575 61.804375 -4.2575 61.804375 -3.5 62.625 C-1.46144095 65.8527185 -1.27418546 67.22576439 -2 71 C-4.07037786 73.92113658 -6.52241222 76.42350652 -9 79 C-10.15501578 80.32538687 -11.30166336 81.65814049 -12.4375 83 C-13.283125 83.99 -14.12875 84.98 -15 86 C-14.54109375 86.67804688 -14.0821875 87.35609375 -13.609375 88.0546875 C-12.99578125 88.98539062 -12.3821875 89.91609375 -11.75 90.875 C-11.14671875 91.77992188 -10.5434375 92.68484375 -9.921875 93.6171875 C-4.15418015 103.76926828 -2.23946193 114.4783031 -0.0625 125.8125 C0.31191109 127.72674322 0.68684688 129.64088387 1.06225586 131.55493164 C2.14036213 137.07565503 3.20133425 142.59956064 4.25817871 148.12438965 C4.91971346 151.58054676 5.58341889 155.03627591 6.24794483 158.49185848 C8.04850004 167.85633045 9.83601338 177.22324014 11.61616898 186.59160995 C12.06208064 188.93529587 12.50961241 191.27866762 12.95748901 193.62197876 C13.66903841 197.3474365 14.37471732 201.07396239 15.07604599 204.80135727 C15.33762841 206.18705294 15.60105866 207.57240124 15.86645889 208.95737076 C16.23261952 210.87025834 16.59120645 212.78459094 16.94946289 214.69897461 C17.25515953 216.31406166 17.25515953 216.31406166 17.56703186 217.96177673 C18.00787474 221.05525864 18.21910702 223.88147913 18 227 C14.67466506 231.28710479 10.95632024 233.19642639 6.0625 235.375 C0.41602748 238.04183643 -3.71159877 240.60095827 -7 246 C-7.38414062 246.62777344 -7.76828125 247.25554687 -8.1640625 247.90234375 C-12.42411799 255.64093376 -13.28569129 263.75450104 -13.30859375 272.453125 C-13.33372527 274.22396203 -13.35912365 275.99479529 -13.38476562 277.765625 C-13.41359581 280.51952349 -13.4376581 283.27335713 -13.45629883 286.02734375 C-13.47795089 288.71124818 -13.51735039 291.39446058 -13.55859375 294.078125 C-13.55870956 294.89903625 -13.55882538 295.71994751 -13.5589447 296.56573486 C-13.64636736 301.62153023 -14.2493434 305.2493434 -18 309 C-20.29573572 309.1009282 -22.59465455 309.12925181 -24.89260674 309.13142776 C-25.99212059 309.13450672 -25.99212059 309.13450672 -27.11384684 309.13764787 C-29.60137612 309.14335955 -32.08885076 309.14185553 -34.5763855 309.14044189 C-36.36527449 309.14302315 -38.1541629 309.14603563 -39.9430505 309.1494453 C-44.88328523 309.15754673 -49.82350544 309.15930661 -54.76374602 309.16004276 C-60.08217624 309.16188787 -65.40059882 309.16943241 -70.71902466 309.17617798 C-82.35929049 309.18978392 -93.99955288 309.19578948 -105.63982534 309.20018864 C-112.90156853 309.20294713 -120.16331037 309.20718374 -127.42505264 309.21169281 C-147.51217249 309.22388822 -167.59929125 309.23418713 -187.68641472 309.2375679 C-189.61639493 309.23789725 -189.61639493 309.23789725 -191.58536465 309.23823325 C-193.52008407 309.23856067 -193.52008407 309.23856067 -195.49388874 309.2388947 C-198.10774223 309.23933817 -200.72159572 309.23978474 -203.33544922 309.24023438 C-205.28031079 309.24056652 -205.28031079 309.24056652 -207.26446249 309.24090537 C-228.28506572 309.24485543 -249.30563434 309.26231455 -270.32622419 309.2855939 C-291.88351829 309.30927586 -313.44079499 309.3217683 -334.99810231 309.32293582 C-347.11153556 309.32385434 -359.22492371 309.32965098 -371.33834457 309.34775543 C-381.6511458 309.36311388 -391.96388798 309.36830215 -402.27669846 309.36001733 C-407.54281448 309.35609572 -412.80881145 309.3571136 -418.07491302 309.37107468 C-422.88990056 309.38372359 -427.7046785 309.38269619 -432.51966538 309.37048396 C-434.26732396 309.36851121 -436.01499693 309.37167727 -437.76263522 309.38032833 C-440.12725325 309.39129814 -442.49111534 309.3840218 -444.85571098 309.3719368 C-446.83077261 309.37283243 -446.83077261 309.37283243 -448.84573448 309.37374616 C-452 309 -452 309 -453.92126477 307.70061564 C-455.798463 304.74123081 -455.4467263 301.36993267 -455.43359375 297.97265625 C-455.4388356 297.18733017 -455.44407745 296.40200409 -455.44947815 295.59288025 C-455.45589822 293.9327818 -455.4545615 292.27263785 -455.44604492 290.61254883 C-455.43754141 288.07485725 -455.46628235 285.53942186 -455.49804688 283.00195312 C-455.49965919 281.38802151 -455.49908077 279.77408591 -455.49609375 278.16015625 C-455.50732773 277.4027565 -455.51856171 276.64535675 -455.53013611 275.86500549 C-455.48375366 272.35076946 -455.27380001 270.3666392 -453.14379883 267.5144043 C-450.35038608 265.54110521 -448.63446926 265.5888348 -445.25 265.75 C-444.26515625 265.78609375 -443.2803125 265.8221875 -442.265625 265.859375 C-441.51796875 265.90578125 -440.7703125 265.9521875 -440 266 C-439.89115479 265.39269043 -439.78230957 264.78538086 -439.67016602 264.15966797 C-438.50673839 257.98122061 -436.93986737 252.08182869 -434.9375 246.125 C-434.63513428 245.22370361 -434.33276855 244.32240723 -434.02124023 243.39379883 C-430.65534043 233.62937365 -426.44943298 224.31059266 -422 215 C-421.67950684 214.31663574 -421.35901367 213.63327148 -421.02880859 212.92919922 C-412.54895455 194.88876939 -402.28070673 177.70426702 -390 162 C-389.32710938 161.12730469 -388.65421875 160.25460938 -387.9609375 159.35546875 C-386.01041378 156.87115973 -384.01695035 154.43068376 -382 152 C-381.58202148 151.49178711 -381.16404297 150.98357422 -380.73339844 150.45996094 C-369.66896777 137.05452136 -357.72333051 124.69737875 -344 114 C-342.87851562 113.06027344 -342.87851562 113.06027344 -341.734375 112.1015625 C-315.20480105 89.99358421 -283.05978549 74.73494789 -249.4375 67.25 C-248.11057129 66.95186401 -248.11057129 66.95186401 -246.75683594 66.64770508 C-232.38499756 63.61391039 -218.29221853 62.71411811 -203.65844727 63.05859375 C-202.00045926 63.08873039 -200.34244785 63.11760157 -198.68441772 63.14532471 C-195.15093142 63.20524928 -191.61759447 63.27040001 -188.08426094 63.3387146 C-182.47877696 63.44340036 -176.87317698 63.51361352 -171.26707458 63.57543945 C-169.83879651 63.59130993 -169.83879651 63.59130993 -168.38166434 63.60750103 C-165.45431611 63.63969883 -162.52696321 63.67144212 -159.59960938 63.703125 C-147.55944731 63.833983 -135.52131785 63.98914143 -123.4831543 64.24804688 C-114.65779098 64.43760897 -105.83412312 64.56195925 -97.00683254 64.61225224 C-92.35274564 64.64121627 -87.7042032 64.70161458 -83.05203438 64.8420105 C-60.44321476 66.25770036 -60.44321476 66.25770036 -41.05123043 56.49067688 C-38.19873621 53.39767243 -35.6212586 50.2268185 -33.26737881 46.73908997 C-32 45 -32 45 -30 44 C-25.40069799 43.45890565 -22.76982171 43.83253682 -19.0625 46.5 C-17.5465625 47.7375 -17.5465625 47.7375 -16 49 C-10.62330217 43.13297438 -7.52550153 39.04235783 -7.6640625 30.71484375 C-8.07791286 27.37035538 -9.0057408 24.3440023 -10 21.125 C-11.83240018 15.05640587 -13.26503236 9.32516181 -12 3 C-8.54838562 -1.6021525 -5.32668119 -1.67691815 0 0 Z M-27 62 C-28.17262904 63.11878383 -29.33795138 64.24523051 -30.5 65.375 C-31.1496875 66.00148438 -31.799375 66.62796875 -32.46875 67.2734375 C-34.22117431 68.86475907 -34.22117431 68.86475907 -34 71 C-30.79725776 73.41048025 -30.79725776 73.41048025 -26.9375 73.9375 C-24.42925669 72.72383388 -22.85557973 71.05439184 -21 69 C-22.39332574 65.63279613 -23.9789286 64.0140476 -27 62 Z M-253.625 83.6875 C-254.56609619 83.94096191 -255.50719238 84.19442383 -256.47680664 84.45556641 C-289.36685316 93.65561801 -320.70217415 111.6646028 -345.23828125 135.37890625 C-347.17814528 137.21999361 -349.08900015 138.92769707 -351.15234375 140.61328125 C-353.4465947 142.53617197 -355.34079865 144.34400681 -357.25 146.625 C-359.17001688 148.88728076 -361.09867401 151.10407587 -363.140625 153.2578125 C-376.44873089 167.31505018 -387.34555607 183.2757957 -397 200 C-397.42087891 200.7130127 -397.84175781 201.42602539 -398.27539062 202.16064453 C-416.62535549 232.53374886 -416.62535549 232.53374886 -425 266 C-294.32 266 -163.64 266 -29 266 C-27.68 260.06 -26.36 254.12 -25 248 C-18.90029025 233.81154471 -11.72358475 226.80543268 2 220 C-1.22086278 200.91892803 -4.74486642 181.89411295 -8.32752037 162.87816048 C-9.22819192 158.09699689 -10.12357283 153.31497584 -11.0065918 148.53051758 C-11.87480601 143.82683324 -12.7560952 139.12577027 -13.64645576 134.42622948 C-13.97904363 132.65908143 -14.30718315 130.89108932 -14.630476 129.12221718 C-17.84767526 111.55567504 -22.51551717 96.56899694 -37.56640625 85.53515625 C-45.65347048 80.43368555 -53.13854731 77.88368692 -62.67930603 77.85955811 C-63.33775829 77.85658698 -63.99621056 77.85361586 -64.67461592 77.8505547 C-66.87415475 77.84190551 -69.0736389 77.84036258 -71.27319336 77.83886719 C-72.85397965 77.83423575 -74.43476482 77.82921065 -76.01554871 77.82382202 C-80.30998085 77.81071357 -84.60439736 77.80425423 -88.89884639 77.79981136 C-91.59109564 77.79687363 -94.28334071 77.79276717 -96.97558784 77.78830719 C-105.42461881 77.77462646 -113.8736401 77.76496681 -122.32268137 77.7611053 C-132.02516981 77.75664529 -141.72751592 77.73919624 -151.42996114 77.7101047 C-158.95731029 77.68833238 -166.48461991 77.67839255 -174.01200014 77.67706418 C-178.49293375 77.67602571 -182.97373371 77.67032789 -187.45463371 77.65224457 C-209.83894677 77.56703093 -231.85707828 77.68299075 -253.625 83.6875 Z M-441 281 C-441 285.29 -441 289.58 -441 294 C-305.04 294 -169.08 294 -29 294 C-29 289.71 -29 285.42 -29 281 C-164.96 281 -300.92 281 -441 281 Z " fill="#000000" transform="translate(474,90)"/>
<path d="M0 0 C1.97570984 -0.01007584 1.97570984 -0.01007584 3.99133301 -0.02035522 C7.56118643 -0.03781924 11.13094368 -0.04270167 14.7008357 -0.0439868 C16.93672248 -0.0454181 19.17258551 -0.04970558 21.40846634 -0.05498123 C29.22317281 -0.07340356 37.03781159 -0.08166008 44.85253906 -0.08007812 C52.11742253 -0.07887291 59.38201078 -0.10006933 66.64681947 -0.13156545 C72.90872439 -0.15773912 79.17053272 -0.16844525 85.4324919 -0.16716731 C89.16225808 -0.16665879 92.89176016 -0.17228314 96.62147141 -0.19352341 C100.77389518 -0.2165349 104.925655 -0.20737842 109.078125 -0.1953125 C110.91728989 -0.21217102 110.91728989 -0.21217102 112.79360962 -0.22937012 C119.44064915 -0.18024767 123.81301275 0.17547896 129.15087891 4.29052734 C132.79190846 10.42527885 133.8936909 17.82474006 135.50634766 24.71240234 C135.81573669 26.02130946 136.1253363 27.33016681 136.43513489 28.63897705 C137.08085775 31.3746451 137.7213547 34.11147644 138.35864258 36.84912109 C139.16964863 40.32943942 139.99763571 43.8054657 140.83019543 47.28068161 C141.47439859 49.98131664 142.10727198 52.68451775 142.73714638 55.38852692 C143.18181436 57.2860528 143.63741171 59.18100704 144.0933075 61.0758667 C148.03504845 78.23231602 148.03504845 78.23231602 144.52587891 85.79052734 C140.75741689 89.75732947 137.13124731 91.42791952 131.69400692 91.66805077 C129.92595839 91.68448999 128.15771022 91.68449436 126.38963318 91.67147827 C124.92328158 91.67849823 124.92328158 91.67849823 123.42730671 91.68566 C120.15460582 91.6976174 116.88232308 91.68814968 113.60961914 91.67871094 C111.26219437 91.68277627 108.91477152 91.68811793 106.56735229 91.69464111 C100.19356053 91.70832423 93.81991435 91.70301205 87.44612002 91.69350386 C81.45498099 91.68668262 75.46385535 91.691887 69.4727167 91.69628544 C56.8849224 91.70483657 44.29719368 91.69500923 31.70941014 91.67888434 C20.90967485 91.66547828 10.11003629 91.66781213 -0.68969727 91.68164062 C-13.23442249 91.69769599 -25.77909028 91.7040159 -38.32382435 91.69480383 C-44.96324746 91.69006063 -51.60261664 91.68951377 -58.24203682 91.6994133 C-64.48255815 91.70806805 -70.72289646 91.70208818 -76.96339798 91.68473053 C-79.25596881 91.6807579 -81.54855501 91.68191293 -83.84111977 91.68851852 C-86.96590869 91.69669313 -90.09010786 91.6864615 -93.21485901 91.67147827 C-94.12613873 91.67817044 -95.03741844 91.6848626 -95.9763127 91.69175756 C-100.69597644 91.64773793 -104.10383978 91.5107567 -107.84912109 88.29052734 C-111.03472232 77.02045914 -102.69855183 64.08821403 -97.29052734 54.39599609 C-82.53669755 28.99677413 -58.8404438 11.90755691 -31.05615234 3.29833984 C-20.8083831 0.64041322 -10.54269149 -0.0078714 0 0 Z M-27.84912109 18.29052734 C-28.65184448 18.50260834 -29.45456787 18.71468933 -30.28161621 18.93319702 C-53.18941693 25.7056529 -72.86521896 42.14654611 -84.47021484 62.86083984 C-88.62000644 69.34224273 -88.62000644 69.34224273 -90.84912109 76.29052734 C-61.14912109 76.29052734 -31.44912109 76.29052734 -0.84912109 76.29052734 C-0.51912109 66.39052734 -0.18912109 56.49052734 0.15087891 46.29052734 C4.25706005 43.21089149 4.8379815 42.91332984 9.59033203 42.88647461 C10.6782605 42.87379044 11.76618896 42.86110626 12.88708496 42.84803772 C14.64188171 42.85244118 14.64188171 42.85244118 16.43212891 42.85693359 C17.63776489 42.85169174 18.84340088 42.84644989 20.08557129 42.84104919 C22.63418813 42.83462673 25.1828346 42.83596885 27.73144531 42.84448242 C31.63611457 42.85299516 35.53932285 42.82422657 39.44384766 42.79248047 C41.91910763 42.7908685 44.39437021 42.7914459 46.86962891 42.79443359 C48.03949341 42.78319962 49.20935791 42.77196564 50.41467285 42.76039124 C51.50260132 42.76977219 52.59052979 42.77915314 53.71142578 42.78881836 C54.66754761 42.78898453 55.62366943 42.7891507 56.60876465 42.7893219 C59.15087891 43.29052734 59.15087891 43.29052734 63.15087891 47.29052734 C63.48087891 56.86052734 63.81087891 66.43052734 64.15087891 76.29052734 C86.26087891 76.29052734 108.37087891 76.29052734 131.15087891 76.29052734 C128.56840816 63.37264851 128.56840816 63.37264851 125.70556641 50.52490234 C125.49022247 49.59881165 125.27487854 48.67272095 125.05300903 47.71856689 C124.60546328 45.79616784 124.156805 43.87402744 123.70703125 41.95214844 C123.0174307 39.00441503 122.33196081 36.05574188 121.64697266 33.10693359 C121.20840957 31.22536745 120.76961621 29.34385497 120.33056641 27.46240234 C120.02431839 26.14535309 120.02431839 26.14535309 119.71188354 24.80169678 C119.42621017 23.58332123 119.42621017 23.58332123 119.13476562 22.34033203 C118.96838593 21.62834656 118.80200623 20.91636108 118.63058472 20.18280029 C118.21192274 18.53132408 117.68964152 16.90681519 117.15087891 15.29052734 C100.60772064 15.22015461 84.06461162 15.16740173 67.52133942 15.13509083 C59.83839384 15.11968331 52.15554177 15.09871226 44.47265625 15.06420898 C37.76895214 15.03411773 31.06531582 15.01490802 24.36154604 15.00826186 C20.8185565 15.00438264 17.27576072 14.99539712 13.73283386 14.97333717 C-7.25123859 14.76512095 -7.25123859 14.76512095 -27.84912109 18.29052734 Z M14.15087891 57.29052734 C14.15087891 63.56052734 14.15087891 69.83052734 14.15087891 76.29052734 C25.70087891 76.29052734 37.25087891 76.29052734 49.15087891 76.29052734 C49.15087891 70.02052734 49.15087891 63.75052734 49.15087891 57.29052734 C37.60087891 57.29052734 26.05087891 57.29052734 14.15087891 57.29052734 Z " fill="#000000" transform="translate(299.84912109375,199.70947265625)"/>
<path d="M0 0 C1.05004211 -0.01134979 2.10008423 -0.02269958 3.1819458 -0.03439331 C4.32855179 -0.03146271 5.47515778 -0.0285321 6.6565094 -0.0255127 C7.86825836 -0.03398224 9.08000732 -0.04245178 10.32847595 -0.05117798 C13.64889795 -0.07056872 16.96875797 -0.07632509 20.28919864 -0.07443047 C23.06257677 -0.07431074 25.83590236 -0.08287577 28.60926586 -0.09120798 C35.15288142 -0.11043954 41.69636942 -0.11332675 48.24000549 -0.10656738 C54.98735485 -0.09992578 61.73415764 -0.1227956 68.48139614 -0.15988111 C74.27771734 -0.19058229 80.07386276 -0.20193776 85.87026364 -0.1980443 C89.33076477 -0.19597725 92.79084053 -0.20144828 96.25126457 -0.22593689 C100.11052227 -0.25234614 103.96906447 -0.23847282 107.8283844 -0.2208252 C108.97296616 -0.23408844 110.11754791 -0.24735168 111.29681396 -0.26101685 C119.00238083 -0.17898314 119.00238083 -0.17898314 123.0519104 2.70629883 C124.80714417 5.39440918 124.80714417 5.39440918 124.86964417 9.01940918 C123.68764667 12.77398946 123.11061117 13.47256471 119.80714417 15.39440918 C117.37674809 15.77751923 117.37674809 15.77751923 114.61428833 15.78881836 C113.56424622 15.80016815 112.5142041 15.81151794 111.43234253 15.82321167 C110.28573654 15.82028107 109.13913055 15.81735046 107.95777893 15.81433105 C106.74602997 15.8228006 105.53428101 15.83127014 104.28581238 15.83999634 C100.96539038 15.85938708 97.64553036 15.86514345 94.32508969 15.86324883 C91.55171156 15.8631291 88.77838597 15.87169413 86.00502247 15.88002634 C79.46140691 15.8992579 72.91791891 15.90214511 66.37428284 15.89538574 C59.62693348 15.88874414 52.88013069 15.91161396 46.13289219 15.94869947 C40.33657099 15.97940065 34.54042557 15.99075612 28.74402469 15.98686266 C25.28352356 15.98479561 21.8234478 15.99026664 18.36302376 16.01475525 C14.50376606 16.0411645 10.64522386 16.02729117 6.78590393 16.00964355 C5.0690313 16.02953842 5.0690313 16.02953842 3.31747437 16.04983521 C-4.3880925 15.9678015 -4.3880925 15.9678015 -8.43762207 13.08251953 C-10.19285583 10.39440918 -10.19285583 10.39440918 -10.25535583 6.76940918 C-8.51166072 1.23061293 -5.59897733 0.02290118 0 0 Z " fill="#000000" transform="translate(201.19285583496094,319.6055908203125)"/>
</svg>
