<?xml version="1.0" encoding="UTF-8"?>
<svg version="1.1" xmlns="http://www.w3.org/2000/svg" width="512" height="512">
<path d="M0 0 C0.77405597 -0.00297112 1.54811194 -0.00594224 2.34562415 -0.0090034 C4.95346461 -0.01771263 7.56125929 -0.01920052 10.16911316 -0.02069092 C12.03319396 -0.02531753 13.8972738 -0.03034198 15.76135254 -0.03573608 C20.8357878 -0.04887745 25.91020981 -0.05530845 30.98465943 -0.05974674 C34.15298978 -0.06267475 37.32131649 -0.06677904 40.489645 -0.07125092 C50.39683033 -0.08493059 60.30400737 -0.09459487 70.21120149 -0.09845281 C81.6582561 -0.10293449 93.10519136 -0.12048555 104.55220968 -0.1494534 C113.3930218 -0.17105144 122.23380031 -0.18115609 131.07463855 -0.18249393 C136.35822455 -0.18354333 141.64169843 -0.18947977 146.92525673 -0.20731354 C151.89515623 -0.2237617 156.86485895 -0.22596557 161.83477592 -0.21717453 C163.65971019 -0.2164024 165.4846549 -0.22076996 167.30956268 -0.23063278 C169.79962854 -0.243302 172.28899213 -0.23750312 174.77905273 -0.22705078 C175.86408033 -0.23913539 175.86408033 -0.23913539 176.97102767 -0.25146413 C181.34766768 -0.2084537 184.11039314 0.43848449 187.58000183 3.14044189 C189.62991582 6.21531288 189.82882077 6.81370168 189.81809998 10.2749939 C189.82183876 11.53641457 189.82183876 11.53641457 189.82565308 12.82331848 C189.81838699 13.74281784 189.81112091 14.6623172 189.80363464 15.60968018 C189.80404251 16.58077225 189.80445038 17.55186432 189.80487061 18.55238342 C189.80506834 20.66403679 189.80102111 22.77569378 189.7932663 24.88733292 C189.78305633 28.23386241 189.78841469 31.5800185 189.7986908 34.92654419 C189.82668632 44.44257083 189.83920975 53.95838992 189.8099823 63.47442627 C189.79322617 69.29418785 189.80561509 75.11328411 189.83643341 80.93297958 C189.84252772 83.14724321 189.83769458 85.36156576 189.82155609 87.57577896 C189.79986545 90.68286901 189.81531375 93.7878041 189.83879089 96.89483643 C189.81574638 98.25586739 189.81574638 98.25586739 189.79223633 99.64439392 C189.9053441 106.69003599 192.41349987 110.61451712 196.58000183 116.14044189 C198.00578308 119.03106689 198.00578308 119.03106689 198.89250183 121.39044189 C199.35076355 122.57380127 199.35076355 122.57380127 199.81828308 123.78106689 C201.68646275 129.56763367 201.71166474 135.00776567 201.67765808 141.03497314 C201.67553566 142.45600594 201.67553566 142.45600594 201.67337036 143.90574646 C201.66778794 146.92151084 201.65523865 149.93720007 201.64250183 152.95294189 C201.63748456 155.00176894 201.63292205 157.05059716 201.62882996 159.09942627 C201.61782427 164.11312695 201.60057171 169.1267717 201.58000183 174.14044189 C202.67312683 174.24356689 203.76625183 174.34669189 204.89250183 174.45294189 C209.65343 175.34057257 209.65343 175.34057257 211.58000183 178.14044189 C211.96768188 181.16972351 211.96768188 181.16972351 211.98405457 184.93511963 C211.99091782 185.62163605 211.99778107 186.30815247 212.00485229 187.01547241 C212.02315594 189.2852038 212.0192779 191.55424628 212.01359558 193.82403564 C212.01815589 195.40200526 212.02346102 196.97997289 212.02947998 198.55793762 C212.03841819 201.86587591 212.03598025 205.17357288 212.02604675 208.48150635 C212.01455934 212.71985236 212.03476062 216.95736496 212.06396389 221.19560146 C212.08231471 224.45473011 212.08203567 227.71365866 212.07632637 230.972826 C212.076173 232.53533153 212.08223049 234.0978505 212.09461784 235.66030693 C212.10950496 237.84619194 212.09886987 240.0305328 212.08171082 242.21636963 C212.08154465 243.45974594 212.08137848 244.70312225 212.08120728 245.98417664 C211.4886604 249.7156507 210.51880457 250.85280257 207.58000183 253.14044189 C204.15433048 254.85327757 200.22140601 254.28449258 196.45162964 254.28088379 C195.0149059 254.28534047 195.0149059 254.28534047 193.54915744 254.28988719 C190.31943997 254.29860243 187.08975945 254.30008482 183.86003113 254.30157471 C181.55260641 254.30620088 179.24518245 254.31122526 176.9377594 254.31661987 C170.65468493 254.32976513 164.37162115 254.33619295 158.08853507 254.34063053 C154.16641135 254.3435578 150.24429059 254.34766193 146.32216835 254.3521347 C135.46618475 254.36424664 124.61020441 254.37462769 113.75421429 254.3780098 C112.7116234 254.37833915 112.7116234 254.37833915 111.64797007 254.37867515 C110.60286115 254.37900256 110.60286115 254.37900256 109.53663892 254.3793366 C108.12474231 254.37978006 106.7128457 254.38022663 105.3009491 254.38067627 C104.25042122 254.38100841 104.25042122 254.38100841 103.17867056 254.38134727 C91.83015867 254.38529537 80.481711 254.40274908 69.13322391 254.42603579 C57.48609497 254.44974267 45.83900143 254.4619533 34.1918481 254.46337771 C27.6507156 254.46442764 21.10967361 254.47037527 14.56856346 254.48819733 C8.41675823 254.50463201 2.265112 254.5068559 -3.88670731 254.49805832 C-6.14703102 254.49728548 -8.40736312 254.50166301 -10.66766548 254.51151657 C-13.74885997 254.52416293 -16.82948508 254.51839895 -19.91067505 254.50793457 C-20.80911945 254.51599097 -21.70756385 254.52404738 -22.63323385 254.53234792 C-27.37512385 254.49457738 -30.60057594 254.27121048 -34.41999817 251.14044189 C-36.82630527 247.53098124 -36.68843069 245.84135396 -36.72639465 241.54522705 C-36.73471817 240.87982407 -36.74304169 240.21442108 -36.75161743 239.52885437 C-36.77571376 237.32901152 -36.78448897 235.12946522 -36.79109192 232.92950439 C-36.80005874 231.39877229 -36.80918059 229.86804109 -36.81845093 228.33731079 C-36.83494258 225.12778595 -36.8426413 221.91836545 -36.84553528 218.70880127 C-36.85091864 214.60048407 -36.88859444 210.49315037 -36.93427944 206.38511086 C-36.96405534 203.22289469 -36.97125894 200.06091518 -36.97226143 196.89857101 C-36.97646294 195.38430655 -36.98889473 193.87004134 -37.00977898 192.35591507 C-37.03670707 190.23469472 -37.03186694 188.1157511 -37.0193634 185.9944458 C-37.02696938 184.18600693 -37.02696938 184.18600693 -37.034729 182.34103394 C-36.2422895 178.21520289 -34.67019601 176.71657684 -31.41999817 174.14044189 C-28.60749817 173.82794189 -28.60749817 173.82794189 -26.41999817 174.14044189 C-26.4304718 172.98109131 -26.44094543 171.82174072 -26.45173645 170.6272583 C-26.48821013 166.28484237 -26.51099731 161.94243971 -26.52986145 157.59991455 C-26.53985711 155.72814652 -26.55345814 153.85639385 -26.57087708 151.98468018 C-26.59541085 149.27874943 -26.60654584 146.57302691 -26.61531067 143.86700439 C-26.63079453 142.63199692 -26.63079453 142.63199692 -26.64659119 141.37203979 C-26.64871762 130.10973953 -24.18187227 120.04679211 -17.32371521 111.00245667 C-13.92105271 105.93114064 -13.58808921 101.90368788 -13.71052551 95.91070557 C-13.70421867 94.44070602 -13.70421867 94.44070602 -13.69778442 92.94100952 C-13.6901273 89.72949925 -13.72355614 86.51974326 -13.75593567 83.30841064 C-13.75484112 81.06640755 -13.75052927 78.82440393 -13.7431488 76.58241272 C-13.72977614 70.6999974 -13.74852913 64.81819548 -13.77760315 58.93585205 C-13.82307851 49.50378345 -13.83861375 40.07203868 -13.81805801 30.63988686 C-13.81843131 27.34687274 -13.84420712 24.05470938 -13.87174988 20.76182556 C-13.87243451 18.74895231 -13.87213234 16.73607841 -13.87068176 14.72320557 C-13.8851384 13.80730148 -13.89959503 12.8913974 -13.91448975 11.94773865 C-13.87590847 5.74805059 -13.87590847 5.74805059 -11.51683044 2.60401917 C-7.64954776 -0.09532265 -4.58518196 -0.00544211 0 0 Z M3.58000183 18.14044189 C3.58000183 43.22044189 3.58000183 68.30044189 3.58000183 94.14044189 C8.03500183 93.15044189 8.03500183 93.15044189 12.58000183 92.14044189 C14.25297306 91.94758282 15.93258762 91.79697676 17.61515808 91.72637939 C18.44338074 91.68770752 19.27160339 91.64903564 20.12492371 91.60919189 C20.95572449 91.57825439 21.78652527 91.54731689 22.64250183 91.51544189 C23.5081073 91.47677002 24.37371277 91.43809814 25.26554871 91.39825439 C27.37006542 91.30523708 29.47500273 91.22181521 31.58000183 91.14044189 C31.59458435 90.23801758 31.60916687 89.33559326 31.62419128 88.40582275 C31.6855576 85.03024183 31.75976512 81.65543493 31.842453 78.28033447 C31.87553167 76.82471195 31.9036158 75.36896643 31.92643738 73.91314697 C31.96030104 71.80999754 32.01262543 69.70795814 32.06828308 67.60528564 C32.09446716 66.34321289 32.12065125 65.08114014 32.14762878 63.78082275 C32.77454064 58.50251517 34.4220049 54.63902616 37.70500183 50.39044189 C46.17967958 43.75808539 56.54540386 44.69823049 66.73234558 44.74200439 C68.39946622 44.7399795 70.06658598 44.73706461 71.73370361 44.73330688 C75.21600332 44.72890186 78.69807105 44.73525468 82.18034363 44.74932861 C86.61958037 44.76640612 91.05827225 44.75657694 95.49748898 44.73861122 C98.93698141 44.72771247 102.37634709 44.73124771 105.81584358 44.7389946 C107.45152922 44.74098051 109.08722678 44.7385946 110.72289848 44.73155594 C131.46997242 44.66185844 131.46997242 44.66185844 137.21170044 49.52145386 C141.75741184 54.69235075 142.88322355 59.02148172 142.99406433 65.74981689 C143.01343048 66.47662659 143.03279663 67.20343628 143.05274963 67.95227051 C143.11234454 70.26487637 143.15884941 72.57753257 143.20500183 74.89044189 C143.24320019 76.46207772 143.28225301 78.03369302 143.32218933 79.60528564 C143.41802926 83.45017031 143.50213378 87.29515297 143.58000183 91.14044189 C145.48072449 91.21391846 145.48072449 91.21391846 147.41984558 91.28887939 C149.11908279 91.3639838 150.81830059 91.43952821 152.51750183 91.51544189 C153.34830261 91.54637939 154.17910339 91.57731689 155.03507996 91.60919189 C155.86330261 91.64786377 156.69152527 91.68653564 157.54484558 91.72637939 C158.6681427 91.77351074 158.6681427 91.77351074 159.81413269 91.82159424 C163.78523135 92.27938 167.67779344 93.27328447 171.58000183 94.14044189 C171.58000183 69.06044189 171.58000183 43.98044189 171.58000183 18.14044189 C116.14000183 18.14044189 60.70000183 18.14044189 3.58000183 18.14044189 Z M49.58000183 63.14044189 C49.58000183 72.38044189 49.58000183 81.62044189 49.58000183 91.14044189 C74.99000183 91.14044189 100.40000183 91.14044189 126.58000183 91.14044189 C126.58000183 81.90044189 126.58000183 72.66044189 126.58000183 63.14044189 C124.92111444 61.48155451 122.92315401 62.01481665 120.70709229 62.00491333 C120.01095322 62.00693756 119.31481415 62.00896179 118.59757996 62.01104736 C117.50249367 62.00841888 117.50249367 62.00841888 116.38528442 62.0057373 C113.96058305 62.0013189 111.53595401 62.00425672 109.11125183 62.00762939 C107.433558 62.00695635 105.75586427 62.00598632 104.07817078 62.00473022 C100.55745009 62.00325327 97.03675473 62.00540773 93.51603699 62.0100708 C88.99289688 62.01576809 84.46981609 62.01248907 79.94667816 62.00649834 C76.48097788 62.00289266 73.01529176 62.00403134 69.54959106 62.00662613 C67.88134759 62.00729538 66.21310284 62.00646704 64.54486084 62.00414658 C62.2173469 62.00161994 59.88993036 62.00546077 57.56242371 62.01104736 C56.5182151 62.00801102 56.5182151 62.00801102 55.45291138 62.00491333 C52.23786944 61.74818558 52.23786944 61.74818558 49.58000183 63.14044189 Z M-1.41999817 118.14044189 C-14.19397367 134.27926947 -8.41999817 153.26377434 -8.41999817 174.14044189 C55.27000183 174.14044189 118.96000183 174.14044189 184.58000183 174.14044189 C187.22379862 144.1667287 187.22379862 144.1667287 175.58000183 117.14044189 C166.34258625 108.41952697 155.98519095 107.69317862 143.75187683 107.7522583 C142.38732994 107.74818433 141.02278635 107.74283785 139.6582489 107.73632812 C135.9805174 107.72274661 132.30304067 107.72791485 128.62530518 107.73746538 C124.75961161 107.74510988 120.89393852 107.73800316 117.02824402 107.73330688 C110.53894675 107.72786319 104.04975222 107.7350044 97.56047058 107.74932861 C90.07932679 107.7656525 82.59842835 107.760363 75.1172905 107.7438494 C68.67110483 107.73019486 62.22499262 107.72833418 55.77879715 107.7361654 C51.93885024 107.7408202 48.09901831 107.74152769 44.25907898 107.73155594 C40.64738595 107.72283048 37.03600642 107.72900875 33.42434692 107.74623871 C31.48213623 107.75203734 29.53989873 107.74323586 27.59770203 107.7338562 C16.01173378 107.81710867 6.97751986 109.80930741 -1.41999817 118.14044189 Z M-19.41999817 191.14044189 C-19.41999817 205.99044189 -19.41999817 220.84044189 -19.41999817 236.14044189 C51.20000183 236.14044189 121.82000183 236.14044189 194.58000183 236.14044189 C194.58000183 221.29044189 194.58000183 206.44044189 194.58000183 191.14044189 C123.96000183 191.14044189 53.34000183 191.14044189 -19.41999817 191.14044189 Z " fill="#000000" transform="translate(300.4199981689453,128.85955810546875)"/>
<path d="M0 0 C0.77491039 -0.00297112 1.54982079 -0.00594224 2.34821332 -0.0090034 C4.95294774 -0.01769674 7.55763624 -0.01919918 10.16238403 -0.02069092 C12.02661233 -0.0253186 13.89083968 -0.03034319 15.75506592 -0.03573608 C20.82530986 -0.04886585 25.89554056 -0.05530602 30.96579885 -0.05974674 C34.13195697 -0.06267619 37.29811144 -0.06678072 40.46426773 -0.07125092 C50.36611028 -0.08492659 60.26794453 -0.09459323 70.16979587 -0.09845281 C81.60835039 -0.10293563 93.04678554 -0.12049364 104.48530376 -0.1494534 C113.3218898 -0.17105087 122.1584422 -0.18115603 130.99505436 -0.18249393 C136.27527205 -0.18354323 141.55537753 -0.18947775 146.83556747 -0.20731354 C151.8013764 -0.22376105 156.76698837 -0.2259659 161.73281479 -0.21717453 C163.55613735 -0.21640241 165.37947037 -0.22076988 167.20276642 -0.23063278 C169.69058944 -0.24330198 172.17770958 -0.23750317 174.66552734 -0.22705078 C175.38819695 -0.23510719 176.11086656 -0.24316359 176.85543525 -0.25146413 C181.21979121 -0.20853494 183.98716222 0.45985247 187.45974731 3.14044189 C188.59529893 5.41154512 188.58221075 6.63425738 188.57759094 9.15473938 C188.57926773 10.41409805 188.57926773 10.41409805 188.58097839 11.69889832 C188.57547218 13.08354027 188.57547218 13.08354027 188.56985474 14.49615479 C188.5703976 16.50918072 188.57098462 18.52220664 188.5716095 20.53523254 C188.57018133 21.60653475 188.56875317 22.67783695 188.56728172 23.78160286 C188.56376865 29.44748838 188.58956357 35.11327381 188.61013794 40.77911377 C188.63445399 47.9926581 188.65020507 55.20591511 188.63479614 62.41949463 C188.62311626 68.24461902 188.64058557 74.06902825 188.67724037 79.89404106 C188.68584299 82.11108298 188.68379513 84.32819355 188.67073631 86.5452137 C188.65378314 89.65725431 188.67410765 92.76705651 188.70266724 95.87896729 C188.68887527 96.7878923 188.67508331 97.69681732 188.66087341 98.63328552 C188.76830012 104.69973069 190.29270473 108.26958716 193.95413685 113.10520077 C202.97958547 125.30554385 201.72268018 140.96340539 201.58474731 155.32794189 C201.57469645 157.15671303 201.56557433 158.98548952 201.55740356 160.81427002 C201.53555921 165.25646145 201.50114573 169.69839142 201.45974731 174.14044189 C202.55287231 174.22294189 203.64599731 174.30544189 204.77224731 174.39044189 C208.45974731 175.14044189 208.45974731 175.14044189 210.16496277 176.76802063 C211.88843861 179.92592883 211.8476467 182.25610731 211.86380005 185.84918213 C211.8706633 186.51473114 211.87752655 187.18028015 211.88459778 187.86599731 C211.90286146 190.060562 211.89902914 192.25441145 211.89334106 194.44903564 C211.89790327 195.97833997 211.90320896 197.50764224 211.90922546 199.03694153 C211.9181558 202.24055312 211.91573468 205.44391541 211.90579224 208.64752197 C211.89430525 212.74786792 211.91450932 216.84735234 211.94370937 220.94758511 C211.96207873 224.10552921 211.96177747 227.26326716 211.95607185 230.4212513 C211.95591871 231.93269115 211.96195723 233.44414504 211.97436333 234.95553398 C211.9892858 237.07167044 211.97858977 239.18621947 211.9614563 241.30230713 C211.96129013 242.50491684 211.96112396 243.70752655 211.96095276 244.94657898 C211.3593621 248.78013288 210.19494908 250.43191369 207.45974731 253.14044189 C204.75598901 254.04169466 203.20799357 254.26700058 200.4344883 254.27186966 C199.61300068 254.2757108 198.79151307 254.27955195 197.9451319 254.28350949 C197.04290817 254.28264301 196.14068444 254.28177653 195.21112061 254.28088379 C194.25245036 254.28385491 193.29378011 254.28682603 192.30605924 254.28988719 C189.07944783 254.29858959 185.85287345 254.30008373 182.62625122 254.30157471 C180.318679 254.30620174 178.01110754 254.31122624 175.70353699 254.31661987 C169.42465383 254.32975576 163.14578137 254.33619099 156.86688662 254.34063053 C152.94693513 254.34355896 149.02698659 254.34766329 145.10703659 254.3521347 C134.25530162 254.36424432 123.40356988 254.37462646 112.55182838 254.3780098 C111.51004018 254.37833915 111.51004018 254.37833915 110.44720574 254.37867515 C109.75101456 254.37889343 109.05482338 254.3791117 108.3375355 254.3793366 C106.92677538 254.37978006 105.51601525 254.38022663 104.10525513 254.38067627 C103.0555755 254.38100841 103.0555755 254.38100841 101.98469023 254.38134727 C90.64270845 254.38529627 79.30079087 254.40275373 67.95883389 254.42603579 C56.31619333 254.44974236 44.67358819 254.46195325 33.03092325 254.46337771 C26.49315908 254.46442756 19.95548548 254.47037365 13.41774368 254.48819733 C7.27002905 254.50463147 1.12247352 254.50685617 -5.0252552 254.49805832 C-7.28396721 254.49728548 -9.54268761 254.50166296 -11.80137825 254.51151657 C-14.88032984 254.52416289 -17.95871163 254.518399 -21.03765869 254.50793457 C-22.38430212 254.52001918 -22.38430212 254.52001918 -23.75815046 254.53234792 C-28.49654937 254.49457703 -31.70943859 254.25794847 -35.54025269 251.14044189 C-36.98906538 248.2428165 -36.69967875 245.69654351 -36.73312378 242.45928955 C-36.74539001 241.42973396 -36.74539001 241.42973396 -36.75790405 240.37937927 C-36.78274886 238.10442988 -36.79927041 235.82954278 -36.81369019 233.55450439 C-36.81901386 232.77801922 -36.82433754 232.00153404 -36.82982254 231.20151901 C-36.8565485 227.09262835 -36.87592625 222.98376802 -36.89035034 218.87481689 C-36.90700913 214.62855355 -36.95179764 210.38306472 -37.00272179 206.1370945 C-37.03635561 202.87371923 -37.04792334 199.61052884 -37.05357742 196.34699631 C-37.0602993 194.78165127 -37.07554587 193.21631879 -37.09946823 191.65114212 C-37.13104705 189.46024404 -37.13116934 187.27144866 -37.12374878 185.0803833 C-37.13183563 183.83399078 -37.13992249 182.58759827 -37.14825439 181.30343628 C-36.54025269 178.14044189 -36.54025269 178.14044189 -34.17956543 175.72232056 C-31.30551724 173.99975262 -29.82538151 173.7649986 -26.54025269 174.14044189 C-26.56119995 172.90592285 -26.58214722 171.67140381 -26.60372925 170.3994751 C-26.67686026 165.76076136 -26.72231483 161.12209712 -26.75997925 156.48297119 C-26.77992987 154.48613885 -26.8071004 152.48936365 -26.8420105 150.49273682 C-27.11643986 134.37808346 -26.02014304 121.79148401 -16.54025269 108.14044189 C-16.21025269 107.81044189 -15.88025269 107.48044189 -15.54025269 107.14044189 C-15.43614619 104.03159574 -15.39664485 100.94423219 -15.39840698 97.83477783 C-15.39493256 96.85755264 -15.39145813 95.88032745 -15.38787842 94.87348938 C-15.38050597 92.74324874 -15.37516856 90.61300033 -15.37158775 88.48274994 C-15.36444499 85.1123373 -15.34879452 81.74207218 -15.33024597 78.3717041 C-15.27767618 68.78601113 -15.22979507 59.20039697 -15.21432495 49.61456299 C-15.20425214 43.75829519 -15.17494198 37.90239497 -15.13300514 32.04627228 C-15.120677 29.81198149 -15.11557718 27.57763881 -15.11780357 25.34331512 C-15.12015233 22.21637172 -15.0980206 19.09048488 -15.07028198 15.96368408 C-15.07688339 15.03880692 -15.0834848 14.11392975 -15.09028625 13.161026 C-15.02965896 9.00210653 -14.88703253 6.71378763 -12.69462585 3.08898926 C-8.84730265 -0.39076606 -4.90500475 -0.00584503 0 0 Z M3.45974731 18.14044189 C3.45974731 43.22044189 3.45974731 68.30044189 3.45974731 94.14044189 C7.91474731 93.15044189 7.91474731 93.15044189 12.45974731 92.14044189 C14.13271854 91.94758282 15.8123331 91.79697676 17.49490356 91.72637939 C18.32312622 91.68770752 19.15134888 91.64903564 20.00466919 91.60919189 C20.83546997 91.57825439 21.66627075 91.54731689 22.52224731 91.51544189 C23.38785278 91.47677002 24.25345825 91.43809814 25.14529419 91.39825439 C27.24981091 91.30523708 29.35474821 91.22181521 31.45974731 91.14044189 C31.46591064 89.70378174 31.46591064 89.70378174 31.47219849 88.23809814 C31.49412934 84.65179142 31.54855938 81.06656029 31.61233521 77.48077393 C31.63539471 75.93498112 31.64988243 74.38903389 31.65530396 72.84307861 C31.69710476 62.88162625 31.98263379 55.8064214 39.27224731 48.26544189 C44.93626777 45.35251709 50.93308161 44.88791169 57.20169067 44.86578369 C57.92967361 44.86067276 58.65765656 44.85556183 59.40769958 44.85029602 C61.78841623 44.83651833 64.16883956 44.83734764 66.54959106 44.83966064 C68.22053635 44.83576749 69.89148065 44.83143156 71.56242371 44.82667542 C75.05484229 44.81923882 78.54715973 44.81948602 82.0395813 44.82476807 C86.49573355 44.83056227 90.9514701 44.81362051 95.40755367 44.79042339 C98.8555693 44.77563086 102.30348604 44.77482178 105.75152779 44.77793312 C107.39362982 44.77742278 109.03573782 44.77223947 110.67780876 44.7621212 C130.00944452 44.65759623 130.00944452 44.65759623 137.33474731 50.39044189 C141.59986028 55.90999984 142.82825109 60.70232407 142.97146606 67.60528564 C142.98941727 68.2834584 143.00736847 68.96163116 143.02586365 69.66035461 C143.07949674 71.79948946 143.11370775 73.93840748 143.14724731 76.07794189 C143.18046223 77.53956033 143.21495569 79.0011503 143.25076294 80.46270752 C143.33519334 84.021744 143.40222702 87.58085702 143.45974731 91.14044189 C145.36046997 91.21391846 145.36046997 91.21391846 147.29959106 91.28887939 C148.99882827 91.3639838 150.69804607 91.43952821 152.39724731 91.51544189 C153.2280481 91.54637939 154.05884888 91.57731689 154.91482544 91.60919189 C155.7430481 91.64786377 156.57127075 91.68653564 157.42459106 91.72637939 C158.54788818 91.77351074 158.54788818 91.77351074 159.69387817 91.82159424 C163.66497683 92.27938 167.55753892 93.27328447 171.45974731 94.14044189 C171.45974731 69.06044189 171.45974731 43.98044189 171.45974731 18.14044189 C116.01974731 18.14044189 60.57974731 18.14044189 3.45974731 18.14044189 Z M48.45974731 63.14044189 C48.45974731 72.38044189 48.45974731 81.62044189 48.45974731 91.14044189 C73.86974731 91.14044189 99.27974731 91.14044189 125.45974731 91.14044189 C125.45974731 81.90044189 125.45974731 72.66044189 125.45974731 63.14044189 C123.80085993 61.48155451 121.80289949 62.01481665 119.58683777 62.00491333 C118.8906987 62.00693756 118.19455963 62.00896179 117.47732544 62.01104736 C116.38223915 62.00841888 116.38223915 62.00841888 115.26502991 62.0057373 C112.84032853 62.0013189 110.41569949 62.00425672 107.99099731 62.00762939 C106.31330349 62.00695635 104.63560975 62.00598632 102.95791626 62.00473022 C99.43719558 62.00325327 95.91650022 62.00540773 92.39578247 62.0100708 C87.87264236 62.01576809 83.34956158 62.01248907 78.82642365 62.00649834 C75.36072336 62.00289266 71.89503725 62.00403134 68.42933655 62.00662613 C66.76109307 62.00729538 65.09284832 62.00646704 63.42460632 62.00414658 C61.09709238 62.00161994 58.76967584 62.00546077 56.44216919 62.01104736 C55.39796059 62.00801102 55.39796059 62.00801102 54.33265686 62.00491333 C51.11761492 61.74818558 51.11761492 61.74818558 48.45974731 63.14044189 Z M-2.29806519 119.13262939 C-14.75284997 135.07716064 -9.54025269 153.78067026 -9.54025269 174.14044189 C54.14974731 174.14044189 117.83974731 174.14044189 183.45974731 174.14044189 C186.27324703 143.93693208 186.27324703 143.93693208 177.14724731 118.82794189 C168.47630127 110.15699585 159.61759479 107.82134517 147.44204712 107.7338562 C146.18460693 107.73992889 144.92716675 107.74600159 143.63162231 107.7522583 C142.26707542 107.74818433 140.90253183 107.74283785 139.53799438 107.73632812 C135.86026288 107.72274661 132.18278615 107.72791485 128.50505066 107.73746538 C124.6393571 107.74510988 120.77368401 107.73800316 116.9079895 107.73330688 C110.41869223 107.72786319 103.9294977 107.7350044 97.44021606 107.74932861 C89.95907227 107.7656525 82.47817384 107.760363 74.99703598 107.7438494 C68.55085031 107.73019486 62.10473811 107.72833418 55.65854263 107.7361654 C51.81859572 107.7408202 47.97876379 107.74152769 44.13882446 107.73155594 C40.52713144 107.72283048 36.9157519 107.72900875 33.30409241 107.74623871 C31.36188171 107.75203734 29.41964421 107.74323586 27.47744751 107.7338562 C15.55831199 107.81950268 5.82954998 109.9213322 -2.29806519 119.13262939 Z M-19.54025269 191.14044189 C-19.54025269 205.99044189 -19.54025269 220.84044189 -19.54025269 236.14044189 C51.07974731 236.14044189 121.69974731 236.14044189 194.45974731 236.14044189 C194.45974731 221.29044189 194.45974731 206.44044189 194.45974731 191.14044189 C123.83974731 191.14044189 53.21974731 191.14044189 -19.54025269 191.14044189 Z " fill="#000000" transform="translate(36.540252685546875,128.85955810546875)"/>
</svg>
