<?xml version="1.0" encoding="UTF-8"?>
<svg version="1.1" xmlns="http://www.w3.org/2000/svg" width="512" height="512">
<path d="M0 0 C0.9897072 -0.00445784 1.9794144 -0.00891569 2.99911273 -0.01350862 C4.08926444 -0.01332426 5.17941615 -0.01313989 6.30260277 -0.01294994 C7.45854482 -0.01662663 8.61448687 -0.02030332 9.80545747 -0.02409142 C13.01935727 -0.03321942 16.23322706 -0.03782822 19.44713759 -0.04048073 C22.91151012 -0.04438384 26.37586786 -0.05396224 29.84023094 -0.0626936 C38.20987525 -0.08245886 46.57952076 -0.09252475 54.94918257 -0.10142139 C58.89096853 -0.10580459 62.83275314 -0.11117136 66.77453804 -0.11641026 C79.87894029 -0.13342336 92.9833417 -0.14791706 106.0877533 -0.155159 C109.48866464 -0.15706888 112.88957597 -0.15898922 116.29048729 -0.16094494 C117.55840323 -0.16167055 117.55840323 -0.16167055 118.85193364 -0.16241082 C132.54180773 -0.17070933 146.23159439 -0.19604284 159.9214303 -0.22852562 C173.97779475 -0.261606 188.03411478 -0.27960868 202.09051836 -0.28280324 C209.98211613 -0.28496754 217.87358644 -0.29370432 225.76514626 -0.31926441 C232.48677693 -0.3409849 239.20824919 -0.34901528 245.92991097 -0.33929763 C249.35792173 -0.33475664 252.78560573 -0.33662685 256.21357155 -0.35605907 C259.93493057 -0.37373094 263.65546211 -0.36669365 267.37682152 -0.35352612 C268.4535889 -0.36449536 269.53035629 -0.37546461 270.63975298 -0.38676625 C279.71542401 -0.30930361 286.89321844 2.18117284 293.65035057 8.35687733 C299.04799274 14.46614894 301.34811977 20.89254468 301.34091759 28.93018055 C301.34297958 30.70540089 301.34297958 30.70540089 301.34508324 32.51648426 C301.34148796 33.81120655 301.33789268 35.10592884 301.33418846 36.43988514 C301.33390633 37.81976793 301.33406484 39.19965087 301.33463097 40.57953358 C301.33491792 44.32299213 301.32903764 48.06641866 301.32205701 51.80986977 C301.31580653 55.72297789 301.31521833 59.63608675 301.3140316 63.5491991 C301.31092329 70.95809334 301.30271663 78.36697281 301.29268211 85.77586055 C301.28150546 94.21109913 301.27600661 102.64633841 301.27098668 111.08158255 C301.26053361 128.43247059 301.24294383 145.78334427 301.22066307 163.13422108 C301.90401726 163.1933115 302.58737144 163.25240192 303.29143333 163.31328297 C304.1895977 163.39590885 305.08776207 163.47853474 306.01314354 163.56366444 C307.34754982 163.68323757 307.34754982 163.68323757 308.7089138 163.80522633 C316.78947856 164.86363746 324.11274827 170.04335504 329.53316307 175.91547108 C335.21504411 183.38609244 337.35846179 190.50041993 337.41353416 199.74164295 C337.42171165 200.50323719 337.42988914 201.26483143 337.43831444 202.04950428 C337.46310006 204.56731874 337.47967238 207.08507682 337.49410057 209.60297108 C337.49942425 210.46692997 337.50474792 211.33088886 337.51023293 212.22102833 C337.5369427 216.79950541 337.55631924 221.37795551 337.57076073 225.9564867 C337.58406203 229.72756885 337.61184686 233.49810504 337.65279198 237.2689867 C337.70239704 241.83836528 337.72691623 246.40725142 337.73398781 250.9768877 C337.74065668 252.70866239 337.75576335 254.440428 337.77987862 256.17204762 C337.95038628 269.1630359 336.72412006 280.53648334 327.22066307 290.38812733 C320.09137928 296.61232626 310.87830566 301.13422108 301.22066307 301.13422108 C301.24161034 302.35528553 301.2625576 303.57634998 301.28413963 304.83441639 C301.35656466 309.36668632 301.40247196 313.89890515 301.44038963 318.43158436 C301.4604994 320.39293489 301.48779125 322.35422552 301.52242088 324.31537342 C301.57096728 327.13534802 301.59363793 329.95452972 301.61128807 332.77484608 C301.63193321 333.65102589 301.65257835 334.5272057 301.67384911 335.42993641 C301.67522105 339.15604321 301.63149851 341.45521222 299.67671776 344.68597889 C296.32505029 346.66232992 293.31784497 346.70860074 289.53316307 346.66547108 C288.79364403 346.66929798 288.05412498 346.67312489 287.29219627 346.67706776 C285.73220517 346.67978379 284.17216829 346.672444 282.61226463 346.65570545 C280.22809121 346.63428781 277.84693058 346.65551371 275.46285057 346.68109608 C273.94461477 346.67845274 272.42638084 346.67332763 270.90816307 346.66547108 C270.19764793 346.673568 269.4871328 346.68166492 268.7550869 346.69000721 C265.32200875 346.62515788 263.53330868 346.38095352 260.80269432 344.22601795 C252.12265371 332.74907537 258.22066307 315.52391586 258.22066307 301.13422108 C178.36066307 301.13422108 98.50066307 301.13422108 16.22066307 301.13422108 C16.22066307 314.00422108 16.22066307 326.87422108 16.22066307 340.13422108 C13.22066307 345.13422108 13.22066307 345.13422108 11.22066307 346.13422108 C8.71413597 346.2692911 6.23662986 346.3467995 3.72847557 346.37250233 C2.98612663 346.38057407 2.24377769 346.38864582 1.47893333 346.39696217 C-0.09297286 346.41079824 -1.66490904 346.42152254 -3.23685646 346.42938709 C-5.63831523 346.4466062 -8.03839911 346.49049388 -10.43949318 346.5346117 C-11.96682681 346.54473837 -13.49417214 346.55325456 -15.02152443 346.56000233 C-15.73831367 346.57751041 -16.45510292 346.5950185 -17.19361305 346.61305714 C-20.3583353 346.59931927 -22.49294793 346.30202491 -25.23978615 344.69257069 C-27.58365809 340.79763981 -27.27506233 337.23530697 -27.16996193 332.77484608 C-27.16430214 331.87046803 -27.15864235 330.96608997 -27.15281105 330.03430653 C-27.13044941 327.15040255 -27.08025379 324.26774847 -27.02933693 321.38422108 C-27.00927164 319.42720779 -26.99102092 317.470175 -26.97464943 315.51312733 C-26.93058532 310.71967818 -26.86155945 305.92716142 -26.77933693 301.13422108 C-27.58975441 301.01594959 -28.40017189 300.89767811 -29.23514748 300.77582264 C-30.30547218 300.61050037 -31.37579689 300.44517811 -32.47855568 300.27484608 C-33.53647316 300.11532459 -34.59439064 299.95580311 -35.68436623 299.79144764 C-40.32925494 298.80509121 -43.90714754 296.81784268 -47.77933693 294.13422108 C-48.71906349 293.48646717 -48.71906349 293.48646717 -49.67777443 292.82562733 C-56.38401312 287.65684511 -60.50474782 280.19926121 -62.77933693 272.13422108 C-62.97185868 269.48163699 -63.07325166 266.93439963 -63.06986427 264.28387928 C-63.0765815 263.5203867 -63.08329872 262.75689411 -63.0902195 261.97026539 C-63.10913928 259.45844387 -63.11312109 256.94689058 -63.11527443 254.43500233 C-63.12170821 252.67630882 -63.128437 250.91761637 -63.13544655 249.15892506 C-63.14740549 245.4746398 -63.15112897 241.79044819 -63.1499424 238.10614491 C-63.14973967 233.41014841 -63.17699961 228.71476025 -63.21148682 224.01890755 C-63.23384886 220.38551099 -63.23777705 216.75225845 -63.23672295 213.11880016 C-63.23906655 211.38902351 -63.24781927 209.65924213 -63.26338768 207.92953396 C-63.37613035 194.10555114 -62.19568476 183.66357643 -52.13871193 173.29437733 C-44.80803946 166.58268548 -36.74103798 163.02954918 -26.77933693 163.13422108 C-26.7830241 162.42191648 -26.78671127 161.70961189 -26.79051018 160.97572231 C-26.8789896 143.6142353 -26.94510884 126.25280583 -26.98658562 108.89114285 C-27.00717852 100.49503558 -27.03523622 92.09907916 -27.08109474 83.70306873 C-27.12106307 76.38195133 -27.14679351 69.06094323 -27.15569091 61.73971975 C-27.16088883 57.86599241 -27.17303673 53.99257764 -27.20225716 50.11895084 C-27.22958476 46.46635183 -27.23774736 42.81419152 -27.23176765 39.16149998 C-27.2333777 37.19527787 -27.25480918 35.22910259 -27.27701759 33.26300526 C-27.22854371 22.75722241 -24.98692512 14.58143261 -17.71683693 6.82562733 C-12.691754 2.43881098 -6.64848681 0.01388023 0 0 Z M-6.77933693 20.13422108 C-11.0652104 25.77844945 -10.17775087 32.63772984 -10.1199131 39.3915453 C-10.11906614 40.74216664 -10.11954332 42.09278937 -10.12124062 43.44340992 C-10.1220993 47.09801869 -10.10449429 50.75233045 -10.08351874 54.40687037 C-10.06473073 58.2305328 -10.06299983 62.05420247 -10.05944252 65.87790394 C-10.05012828 73.11325171 -10.02552296 80.34846307 -9.99539405 87.58375084 C-9.96183066 95.82313353 -9.94535917 104.06252283 -9.93030775 112.30195689 C-9.8989728 129.24612379 -9.84622445 146.19015799 -9.77933693 163.13422108 C-6.80933693 163.13422108 -3.83933693 163.13422108 -0.77933693 163.13422108 C-0.77347069 162.50195103 -0.76760445 161.86968098 -0.76156044 161.21825123 C-0.69771706 154.64835816 -0.61332112 148.07895908 -0.51688576 141.50946522 C-0.48359366 139.05640639 -0.45557523 136.60327017 -0.43290138 134.15009022 C-0.39943464 130.6275373 -0.34712178 127.10569643 -0.29105568 123.58343983 C-0.28466576 122.48336094 -0.27827583 121.38328205 -0.27169228 120.24986744 C-0.25189812 119.22903568 -0.23210396 118.20820393 -0.21170998 117.15643787 C-0.20060692 116.25709019 -0.18950386 115.3577425 -0.17806435 114.43114185 C0.29879903 111.68410881 1.05228348 110.82852839 3.22066307 109.13422108 C6.61037004 107.43936759 10.46773226 107.98704614 14.19673729 107.98895741 C15.12694695 107.98559879 16.0571566 107.98224018 17.01555443 107.97877979 C20.10216659 107.96925164 23.1887246 107.9673257 26.27535057 107.96625233 C28.41525355 107.96304089 30.55515631 107.95967691 32.69505882 107.95616627 C37.18585787 107.95017022 41.67663765 107.94832684 46.16744041 107.94891834 C51.92675271 107.94901996 57.6859417 107.93537054 63.44522476 107.91814613 C67.86667513 107.9070364 72.28809559 107.90499882 76.70955849 107.90552807 C78.8330649 107.90434629 80.95657205 107.89991351 83.08006477 107.8921957 C86.04873132 107.8824172 89.01712908 107.88526551 91.98579979 107.89130116 C92.86594749 107.88568165 93.7460952 107.88006214 94.65291405 107.87427235 C95.46328117 107.87846684 96.2736483 107.88266132 97.10857201 107.88698292 C98.16105031 107.88616577 98.16105031 107.88616577 99.2347908 107.88533211 C101.60213953 108.18203144 103.19356152 108.88848705 105.22066307 110.13422108 C106.45278255 112.59846004 106.37846215 114.28656771 106.42598534 117.04291248 C106.44616722 118.07811024 106.46634911 119.11330799 106.48714256 120.17987537 C106.51185631 121.81629993 106.51185631 121.81629993 106.53706932 123.48578358 C106.55572044 124.48633778 106.57437157 125.48689198 106.59358788 126.517766 C106.66202279 130.2648256 106.72208377 134.01203436 106.78316307 137.75922108 C106.99972557 150.31984608 106.99972557 150.31984608 107.22066307 163.13422108 C127.02066307 163.13422108 146.82066307 163.13422108 167.22066307 163.13422108 C167.43071808 146.4853485 167.43071808 146.4853485 167.60860252 129.83612537 C167.64088156 127.75187844 167.67425372 125.66764802 167.70894432 123.58343983 C167.71518822 122.49760609 167.72143211 121.41177235 167.72786522 120.29303455 C167.7478054 119.25795765 167.76774559 118.22288074 167.78829002 117.15643787 C167.80494461 115.80741634 167.80494461 115.80741634 167.82193565 114.43114185 C168.29879903 111.68410881 169.05228348 110.82852839 171.22066307 109.13422108 C174.61037004 107.43936759 178.46773226 107.98704614 182.19673729 107.98895741 C183.12694695 107.98559879 184.0571566 107.98224018 185.01555443 107.97877979 C188.10216659 107.96925164 191.1887246 107.9673257 194.27535057 107.96625233 C196.41525355 107.96304089 198.55515631 107.95967691 200.69505882 107.95616627 C205.18585787 107.95017022 209.67663765 107.94832684 214.16744041 107.94891834 C219.92675271 107.94901996 225.6859417 107.93537054 231.44522476 107.91814613 C235.86667513 107.9070364 240.28809559 107.90499882 244.70955849 107.90552807 C246.8330649 107.90434629 248.95657205 107.89991351 251.08006477 107.8921957 C254.04873132 107.8824172 257.01712908 107.88526551 259.98579979 107.89130116 C260.86594749 107.88568165 261.7460952 107.88006214 262.65291405 107.87427235 C263.86846474 107.88056408 263.86846474 107.88056408 265.10857201 107.88698292 C265.81022421 107.88643815 266.51187641 107.88589338 267.2347908 107.88533211 C269.60213953 108.18203144 271.19356152 108.88848705 273.22066307 110.13422108 C274.45278255 112.59846004 274.37846215 114.28656771 274.42598534 117.04291248 C274.44593056 118.06381977 274.46587578 119.08472706 274.4864254 120.13657093 C274.51149414 121.79443119 274.51149414 121.79443119 274.53706932 123.48578358 C274.55785042 124.61495197 274.57863152 125.74412037 274.60004234 126.90750599 C274.66557642 130.52468079 274.72444081 134.14192988 274.78316307 137.75922108 C274.82634461 140.20714551 274.86995878 142.65506236 274.91402245 145.10297108 C275.02126174 151.11330857 275.12302094 157.12372043 275.22066307 163.13422108 C278.19066307 163.13422108 281.16066307 163.13422108 284.22066307 163.13422108 C284.29076734 145.37528772 284.34365818 127.6163903 284.37609959 109.85734844 C284.39156357 101.6113761 284.41264409 93.36548977 284.44698143 85.11957264 C284.47689818 77.93180347 284.49624149 70.7440966 284.50292856 63.5562669 C284.50683697 59.75091376 284.51601242 55.94573883 284.53785324 52.14044285 C284.55825444 48.55685065 284.5644896 44.97350967 284.55998611 41.38986492 C284.56120163 39.45152421 284.57732477 37.5132107 284.59392357 35.57494068 C284.70589634 27.36574575 284.70589634 27.36574575 281.22066307 20.13422108 C276.41940694 16.06743377 271.0605796 16.71576427 265.09908104 16.75327015 C263.96310919 16.74859018 262.82713734 16.74391021 261.6567421 16.73908842 C257.84199359 16.72710162 254.02760188 16.73661037 250.21285057 16.74603748 C247.48133666 16.74362407 244.74983801 16.7367412 242.01833153 16.73010731 C235.36442606 16.71676297 228.71062208 16.71965081 222.05671263 16.72834523 C216.64925713 16.73511862 211.24183009 16.73603999 205.83437157 16.73277378 C204.68022753 16.73208423 204.68022753 16.73208423 203.50276744 16.73138075 C201.93971776 16.73042158 200.37666809 16.72944894 198.81361842 16.72846298 C184.15468584 16.71990703 169.49580952 16.72974642 154.83688617 16.74586408 C142.25710133 16.75926745 129.67739954 16.75693942 117.0976162 16.7431078 C102.49136869 16.72705559 87.8851705 16.72073103 73.27891541 16.72994459 C71.72159514 16.73090024 70.16427486 16.73184335 68.60695457 16.73277378 C67.45758834 16.73346802 67.45758834 16.73346802 66.28500259 16.73417629 C60.88364089 16.73676725 55.48231046 16.73239288 50.0809536 16.72533512 C43.49906319 16.71692391 36.91728012 16.71919223 30.33540201 16.73517735 C26.97675406 16.74306534 23.61843348 16.74452993 20.25976372 16.7362299 C16.6204108 16.72806383 12.98156545 16.73827689 9.3422451 16.75327015 C7.74668187 16.7432319 7.74668187 16.7432319 6.11888504 16.73299086 C-0.83970394 16.74013159 -0.83970394 16.74013159 -6.77933693 20.13422108 Z M16.22066307 124.13422108 C16.22066307 137.00422108 16.22066307 149.87422108 16.22066307 163.13422108 C40.64066307 163.13422108 65.06066307 163.13422108 90.22066307 163.13422108 C90.22066307 150.26422108 90.22066307 137.39422108 90.22066307 124.13422108 C65.80066307 124.13422108 41.38066307 124.13422108 16.22066307 124.13422108 Z M184.22066307 124.13422108 C184.22066307 137.00422108 184.22066307 149.87422108 184.22066307 163.13422108 C208.64066307 163.13422108 233.06066307 163.13422108 258.22066307 163.13422108 C258.22066307 150.26422108 258.22066307 137.39422108 258.22066307 124.13422108 C233.80066307 124.13422108 209.38066307 124.13422108 184.22066307 124.13422108 Z M-41.65433693 187.13422108 C-47.77484807 195.77494268 -46.93843977 204.7719892 -46.94730568 215.06390858 C-46.95052518 216.42239891 -46.95388976 217.78088891 -46.95739174 219.13937855 C-46.96335697 221.97865063 -46.9652343 224.81789239 -46.96463966 227.6571703 C-46.96453813 231.2736397 -46.97819307 234.8899124 -46.99541187 238.50633526 C-47.00659551 241.31010275 -47.00855694 244.11382362 -47.00802994 246.91761112 C-47.00976461 248.89216286 -47.02056245 250.86670005 -47.03157997 252.84122181 C-47.161889 265.87838067 -47.161889 265.87838067 -41.15433693 277.00922108 C-40.5226963 277.72851795 -39.89105568 278.44781483 -39.24027443 279.18890858 C-31.99196723 284.91852284 -24.09912103 284.56196812 -15.2671299 284.515172 C-13.89648949 284.51863221 -12.52585187 284.52339921 -11.15522003 284.52935374 C-7.4033409 284.54184361 -3.65169156 284.53570262 0.10018826 284.52639508 C4.15206054 284.51959664 8.2038938 284.53008976 12.25575829 284.53833485 C20.18762315 284.5516659 28.11940278 284.54879724 36.05127096 284.54009692 C42.49838745 284.53331832 48.94548008 284.53240443 55.39259911 284.53566837 C56.31062533 284.53612807 57.22865156 284.53658777 58.17449677 284.5370614 C60.03952265 284.53802059 61.90454853 284.53899323 63.7695744 284.53997917 C81.252768 284.54853123 98.73591438 284.53870183 116.21910024 284.52257808 C131.21638961 284.50917506 146.21360933 284.51150321 161.21089745 284.52533436 C178.63206886 284.54139342 196.0531989 284.54770727 213.47437668 284.53849757 C215.33249346 284.53754193 217.19061024 284.53659882 219.04872704 284.53566837 C219.96292605 284.53520555 220.87712506 284.53474272 221.81902707 284.53426587 C228.25746093 284.53167696 234.69586853 284.53604484 241.13429832 284.54310703 C248.98194176 284.55152585 256.82949518 284.54923385 264.67712831 284.5332648 C268.6801521 284.52538723 272.68302588 284.52228169 276.68604851 284.53221226 C280.35255743 284.54117036 284.01877769 284.53620814 287.68526053 284.5202796 C289.63545245 284.5153563 291.58566451 284.52511835 293.53583527 284.53545129 C301.18707066 284.48418073 307.47069906 284.09847834 313.68160057 279.18890858 C314.3132412 278.4696117 314.94488182 277.75031483 315.59566307 277.00922108 C316.56632713 275.95347889 316.56632713 275.95347889 317.55660057 274.87640858 C322.24309348 267.15359632 321.51382826 257.7267191 321.48628807 249.00922108 C321.48763885 247.65358886 321.48958281 246.29795712 321.49208641 244.94232655 C321.49501826 242.11496797 321.49080304 239.28773662 321.48140526 236.46039295 C321.4700118 232.85965308 321.47658175 229.25921151 321.48855019 225.65848255 C321.49582154 222.86328403 321.49345682 220.06815474 321.4882946 217.27295399 C321.48633595 215.30727409 321.49234622 213.34159136 321.49855614 211.3759203 C321.58169322 198.92830028 321.58169322 198.92830028 316.59566307 187.82172108 C316.14964745 187.20683826 315.70363182 186.59195545 315.24410057 185.95843983 C308.05569914 179.47777676 300.79032842 179.56184761 291.55660057 179.62628651 C290.1694581 179.62167302 288.78232052 179.6153171 287.3951931 179.60737753 C283.59764994 179.59072222 279.80051029 179.59891303 276.00296593 179.6113224 C271.90200162 179.62038623 267.80110587 179.60639657 263.70015526 179.59540272 C255.67201588 179.57762711 247.64402618 179.58145319 239.61588097 179.59305328 C233.0905745 179.6020911 226.56530994 179.60331009 220.03999901 179.59895802 C218.6463075 179.59803862 218.6463075 179.59803862 217.2244606 179.59710065 C215.33688671 179.59582173 213.44931283 179.59452488 211.56173897 179.59321028 C193.86679102 179.58180729 176.171926 179.59491378 158.47699165 179.61641175 C143.29775727 179.63428247 128.11864525 179.63117829 112.93941307 179.6127367 C95.30728198 179.59132503 77.67522356 179.5829059 60.04308128 179.59518576 C58.16249658 179.59645994 56.28191186 179.59771742 54.40132713 179.59895802 C53.47607168 179.59957512 52.55081623 179.60019222 51.59752274 179.60082802 C45.08093457 179.60428003 38.56439253 179.59845579 32.04781151 179.5890398 C24.1049885 179.57781515 16.16232359 179.58086966 8.21951866 179.60216278 C4.16785037 179.61266695 0.11644556 179.61680594 -3.93522072 179.60356617 C-7.64621917 179.59162311 -11.35671057 179.5982358 -15.06766319 179.61947638 C-17.04171495 179.62604186 -19.01580206 179.6130234 -20.98981667 179.59924746 C-29.3572038 179.67312503 -35.86108303 180.53176521 -41.65433693 187.13422108 Z M-9.77933693 301.13422108 C-9.77933693 310.37422108 -9.77933693 319.61422108 -9.77933693 329.13422108 C-6.80933693 329.13422108 -3.83933693 329.13422108 -0.77933693 329.13422108 C-0.77933693 319.89422108 -0.77933693 310.65422108 -0.77933693 301.13422108 C-3.74933693 301.13422108 -6.71933693 301.13422108 -9.77933693 301.13422108 Z M275.22066307 301.13422108 C275.22066307 310.37422108 275.22066307 319.61422108 275.22066307 329.13422108 C278.19066307 329.13422108 281.16066307 329.13422108 284.22066307 329.13422108 C284.22066307 319.89422108 284.22066307 310.65422108 284.22066307 301.13422108 C281.25066307 301.13422108 278.28066307 301.13422108 275.22066307 301.13422108 Z " fill="#000000" transform="translate(118.77933692932129,82.86577892303467)"/>
</svg>
