<?xml version="1.0" encoding="UTF-8"?>
<svg version="1.1" xmlns="http://www.w3.org/2000/svg" width="512" height="512">
<path d="M0 0 C1.42054765 -0.00373909 2.84109325 -0.00834164 4.2616356 -0.01373065 C8.15621946 -0.02594432 12.05071732 -0.0257021 15.94531596 -0.02334189 C20.14929245 -0.02293331 24.35324152 -0.03397692 28.5572052 -0.04345703 C36.79065147 -0.06005951 45.0240691 -0.06556626 53.25753071 -0.06668179 C59.95205945 -0.0676327 66.64657875 -0.07174519 73.34110451 -0.07808304 C92.3304116 -0.09569411 111.3196961 -0.10492223 130.30901142 -0.10342209 C131.84411588 -0.10330222 131.84411588 -0.10330222 133.41023254 -0.10317993 C134.4348884 -0.10309817 135.45954426 -0.10301641 136.5152503 -0.10293217 C153.11601071 -0.10211951 169.71668033 -0.12125242 186.31741448 -0.14945666 C203.37184766 -0.17820255 220.42623658 -0.19199599 237.48069459 -0.19026911 C247.05184756 -0.18960576 256.62290537 -0.19507411 266.19403648 -0.21662521 C274.3442624 -0.23485953 282.49435003 -0.23916595 290.64458754 -0.22560637 C294.80004141 -0.2190878 298.95523018 -0.21891905 303.11065865 -0.23631287 C306.92118983 -0.2520984 310.73124692 -0.24912469 314.54176692 -0.2317446 C316.55964827 -0.22724757 318.57754465 -0.24228896 320.59536809 -0.25822389 C335.06246418 -0.14927662 347.3789795 4.64723855 357.95393372 14.64242554 C366.58268984 23.93175629 372.27525007 35.54333448 372.26168823 48.38639832 C372.26375023 49.8986348 372.26375023 49.8986348 372.26585388 51.44142151 C372.26225861 52.53618301 372.25866333 53.63094452 372.25495911 54.75888062 C372.25510513 55.92028564 372.25525116 57.08169067 372.25540161 58.27828979 C372.25470532 62.11453117 372.24692614 65.9507239 372.23908997 69.78695679 C372.23722478 72.44782086 372.23575215 75.10868225 372.23480225 77.76954651 C372.2316971 84.05572256 372.22349473 90.34188117 372.21345276 96.62804955 C372.20226625 103.78643075 372.19677477 110.94481279 372.19175732 118.10320055 C372.18131143 132.82461779 372.16372781 147.54602136 372.14143372 162.26742554 C372.73310333 162.25632248 373.32477295 162.24521942 373.93437195 162.23377991 C380.1318186 162.12255549 386.32897853 162.04749852 392.5271759 161.99276733 C394.83556143 161.96773237 397.14386855 161.933694 399.45198059 161.89022827 C402.78355837 161.82909181 406.11408184 161.80110447 409.44612122 161.77914429 C410.46632355 161.75333786 411.48652588 161.72753143 412.53764343 161.70094299 C420.80809409 161.69775672 427.18875329 163.97985961 433.57893372 169.29476929 C434.09455872 169.92512085 434.61018372 170.55547241 435.14143372 171.20492554 C435.94580872 172.14658569 435.94580872 172.14658569 436.76643372 173.10726929 C439.59938008 177.55789241 440.39157052 181.94341462 440.38194275 187.15203857 C440.38606674 188.88089798 440.38606674 188.88089798 440.39027405 190.64468384 C440.3830835 191.89481262 440.37589294 193.14494141 440.3684845 194.43295288 C440.36791985 195.77372224 440.36823799 197.11449223 440.36936951 198.45526123 C440.36994192 202.08294401 440.35820565 205.71049378 440.34422159 209.33814573 C440.3316957 213.13378946 440.33054227 216.92943644 440.32817078 220.72509766 C440.32196146 227.90728532 440.30555809 235.08941191 440.2854718 242.27157271 C440.2630957 250.45050773 440.25211507 258.62944571 440.24208093 266.80840373 C440.22119136 283.62811339 440.18602608 300.44776166 440.14143372 317.26742554 C441.07858215 317.56390991 442.01573059 317.86039429 442.98127747 318.16586304 C449.71124294 320.51178425 452.9046565 325.20469282 456.14143372 331.26742554 C467.36486351 364.93771491 451.30565598 403.80421392 439.99769926 435.3511095 C437.61395559 442.01277756 435.32600954 448.70631423 433.03879118 455.40159607 C429.47635156 465.81329244 425.87236753 476.21124105 422.1756134 486.57601929 C421.8253157 487.57621597 421.47501801 488.57641266 421.11410522 489.60691833 C418.60304535 496.57771392 415.91301959 502.08839298 410.20393372 507.01742554 C409.23133606 507.87594116 409.23133606 507.87594116 408.23908997 508.75180054 C402.64377838 512.7945955 397.26236437 512.56400052 390.60310364 512.55795288 C389.01194481 512.56802872 389.01194481 512.56802872 387.38864136 512.57830811 C383.88301403 512.59730073 380.37757804 512.60121304 376.87190247 512.60336304 C374.43198569 512.60979031 371.99206969 512.61651861 369.55215454 512.62353516 C364.43695794 512.63551126 359.32182889 512.63921565 354.20661926 512.63803101 C347.65959414 512.63782786 341.11300329 512.66512509 334.56608105 512.69957542 C329.52596049 512.72183911 324.4859445 512.72586869 319.4457798 512.72481155 C317.03250444 512.72716849 314.61922624 512.73599717 312.20599937 512.75147629 C308.82634158 512.77112364 305.44762104 512.76530218 302.06794739 512.75326538 C301.07598358 512.76450439 300.08401978 512.77574341 299.06199646 512.787323 C291.47479994 512.71883395 285.21009635 510.71471759 279.51643372 505.51742554 C276.43753167 502.10778582 274.98670322 498.75033697 273.41828918 494.44857788 C273.16523954 493.7561669 272.9121899 493.06375591 272.65147209 492.35036278 C269.02952482 482.33738107 265.69701012 472.2218854 262.33674622 462.11898804 C261.60562828 459.92698434 260.87433236 457.73503999 260.14286804 455.54315186 C258.62319053 450.98704532 257.10565211 446.43023367 255.5896759 441.87289429 C253.64346317 436.02276492 251.69178874 430.17447428 249.73855782 424.32668495 C248.2334543 419.81857839 246.73119276 415.30952888 245.22980881 410.80018234 C244.51060496 408.64123529 243.79050736 406.48258577 243.0695076 404.32423782 C242.06861144 401.3266009 241.07154178 398.32771873 240.07551575 395.32846069 C239.77636765 394.43506485 239.47721954 393.54166901 239.16900635 392.62120056 C238.76551216 391.40225853 238.76551216 391.40225853 238.35386658 390.15869141 C238.11830614 389.45125605 237.8827457 388.74382069 237.64004707 388.01494789 C237.14143372 386.26742554 237.14143372 386.26742554 237.14143372 384.26742554 C235.85890842 384.27111271 234.57638313 384.27479988 233.25499344 384.27859879 C202.77883838 384.3653166 172.30271673 384.43123077 141.82646783 384.47168685 C138.07159296 384.4766894 134.31671835 384.48186672 130.56184387 384.4871521 C129.81434729 384.48820134 129.06685071 384.48925058 128.29670271 384.49033162 C116.20913118 384.50771495 104.12163611 384.53924116 92.03410986 384.57603672 C79.62200048 384.61350393 67.20993101 384.63567358 54.7977674 384.64377952 C47.14490925 384.64925534 39.49226724 384.6665211 31.83947566 384.6990914 C25.9614597 384.72282689 20.08355337 384.72523083 14.2054882 384.71985626 C11.80135458 384.72095356 9.39721251 384.72886811 6.99312782 384.74424744 C-11.62245603 384.85745833 -26.44332878 383.42592247 -40.60856628 370.01742554 C-51.27320861 358.75089864 -55.48734518 345.76993035 -55.36650085 330.44003296 C-55.37274082 329.20501384 -55.37898078 327.96999472 -55.38540983 326.69755077 C-55.39851121 323.30423688 -55.39392349 319.91182118 -55.38146496 316.51856375 C-55.37235742 312.84567929 -55.38641225 309.17286931 -55.39738464 305.5 C-55.41511403 298.31862959 -55.4113549 291.13742698 -55.39973408 283.95605016 C-55.39067796 278.11641778 -55.38948515 272.27683222 -55.39382935 266.43719482 C-55.39444228 265.60412628 -55.39505521 264.77105774 -55.39568672 263.9127447 C-55.3969657 262.22005787 -55.39826255 260.52737106 -55.39957708 258.83468425 C-55.41096653 242.98516955 -55.3978949 227.13574758 -55.37637562 211.28624809 C-55.35850611 197.70473217 -55.36161068 184.12335305 -55.38005066 170.5418396 C-55.40148632 154.74666882 -55.40986805 138.9515792 -55.3976016 123.15639591 C-55.39632749 121.47014937 -55.39507001 119.78390282 -55.39382935 118.09765625 C-55.39321224 117.26812335 -55.39259514 116.43859044 -55.39195934 115.58392018 C-55.38851452 109.75545079 -55.39431601 103.92703315 -55.40374756 98.09857178 C-55.41499894 90.98965124 -55.41186184 83.88090723 -55.39062458 76.77200675 C-55.38015614 73.14916129 -55.37591973 69.52660951 -55.38922119 65.90376663 C-55.40345495 61.9672866 -55.38638992 58.03128104 -55.36650085 54.09481812 C-55.37542374 52.96289126 -55.38434663 51.83096441 -55.39353991 50.66473675 C-55.25496999 36.47060327 -49.91624524 24.46802577 -40.35856628 14.07992554 C-28.86668571 3.04007053 -15.46163213 -0.03644981 0 0 Z M-31.10856628 31.57992554 C-36.35063251 39.63024153 -37.44212845 47.18305729 -37.36650085 56.63998413 C-37.37274082 57.85020422 -37.37898078 59.06042431 -37.38540983 60.30731773 C-37.39853636 63.64060644 -37.39390523 66.97298427 -37.38146496 70.30621624 C-37.37237383 73.91093147 -37.38640422 77.51557003 -37.39738464 81.12026978 C-37.41513134 88.17156875 -37.41134713 95.222697 -37.39973408 102.27400255 C-37.39068482 108.00691149 -37.3894822 113.73977273 -37.39382935 119.47268677 C-37.39444228 120.28995157 -37.39505521 121.10721637 -37.39568672 121.94924676 C-37.39696567 123.60972612 -37.39826253 125.27020547 -37.39957708 126.9306848 C-37.4109716 142.48541085 -37.39788691 158.04004247 -37.37637562 173.59475303 C-37.35850565 186.92905051 -37.36161007 200.26320869 -37.38005066 213.59750366 C-37.40147733 229.09818882 -37.40987307 244.59879131 -37.3976016 260.09948921 C-37.39632747 261.75371423 -37.39506998 263.40793926 -37.39382935 265.06216431 C-37.39321224 265.87598395 -37.39259514 266.68980359 -37.39195934 267.52828443 C-37.38851183 273.25147136 -37.39432185 278.97460565 -37.40374756 284.69778442 C-37.41498892 291.67652372 -37.41188275 298.65508314 -37.39062458 305.63380194 C-37.38014274 309.19157905 -37.37594289 312.74905674 -37.38922119 316.30683136 C-37.40341959 320.16967764 -37.38641782 324.03203817 -37.36650085 327.89486694 C-37.37988518 329.56852357 -37.37988518 329.56852357 -37.39353991 331.27599144 C-37.2813878 342.50979942 -33.83666002 350.43505041 -25.85856628 358.26742554 C-18.76200492 365.17218794 -9.87627547 366.86845899 -0.31690979 366.7484436 C1.2027374 366.75357015 1.2027374 366.75357015 2.75308454 366.75880027 C6.12192422 366.76534881 9.48995354 366.74345266 12.85871887 366.7215271 C15.2838082 366.72039797 17.70889889 366.72103376 20.13398743 366.72329712 C25.34171394 366.72420574 30.54925982 366.71291696 35.7569313 366.69034576 C43.2861787 366.65773372 50.81532934 366.64740939 58.3446397 366.6423938 C70.56260406 366.63365551 82.78046114 366.60707993 94.99836731 366.56918335 C106.86164313 366.53242517 118.72488973 366.50413209 130.58821106 366.4871521 C131.32038474 366.48610121 132.05255841 366.48505031 132.80691917 366.48396757 C136.48029417 366.47874714 140.15366938 366.47369237 143.82704473 366.46871996 C174.26525117 366.42730363 204.7033275 366.35659645 235.14143372 366.26742554 C235.15545227 364.87620483 235.15545227 364.87620483 235.16975403 363.45687866 C235.21403217 359.98234674 235.27576085 356.50900147 235.34895325 353.03500366 C235.37700311 351.53772106 235.39829645 350.04029479 235.41242981 348.54281616 C235.58409164 331.37663326 235.58409164 331.37663326 242.14143372 324.02523804 C242.80143372 323.48640991 243.46143372 322.94758179 244.14143372 322.39242554 C244.80143372 321.83812866 245.46143372 321.28383179 246.14143372 320.71273804 C248.14143372 319.26742554 248.14143372 319.26742554 252.14143372 317.26742554 C252.14143372 308.68742554 252.14143372 300.10742554 252.14143372 291.26742554 C243.89143372 291.26742554 235.64143372 291.26742554 227.14143372 291.26742554 C227.12725403 293.38922241 227.11307434 295.51101929 227.09846497 297.69711304 C227.06772135 299.78580853 227.02866569 301.87419809 226.98884583 303.96273804 C226.96585965 305.39784678 226.95131625 306.83311958 226.94587708 308.2684021 C226.90169595 318.01543858 226.19335474 326.3548949 219.58503723 334.08895874 C212.90245995 340.46519905 204.63518738 341.72134216 195.72541809 341.65560913 C194.83147842 341.66086609 193.93753876 341.66612305 193.01651001 341.67153931 C190.08921851 341.68464145 187.16247984 341.67603608 184.23518372 341.66586304 C182.18452349 341.66788658 180.13386396 341.67080036 178.08320618 341.67456055 C173.79639296 341.67897066 169.50976794 341.67259518 165.22297668 341.65853882 C159.74562852 341.64144786 154.26872147 341.65129608 148.79138947 341.66925621 C144.5601625 341.68012954 140.32903902 341.67663143 136.09780884 341.66887283 C134.07891792 341.66688064 132.06001741 341.66929541 130.0411377 341.67631149 C127.21299068 341.68398455 124.38554456 341.67224021 121.55744934 341.65560913 C120.32276665 341.66471817 120.32276665 341.66471817 119.06314087 341.67401123 C111.38078833 341.59089298 103.82409789 339.70850023 97.6978302 334.86630249 C90.05764198 327.01758207 90.36636843 316.8587004 90.32893372 306.64242554 C90.3057442 305.14629605 90.28036975 303.65019876 90.25276184 302.15414429 C90.19048161 298.52526236 90.15769625 294.89683989 90.14143372 291.26742554 C89.09801819 291.2476062 88.05460266 291.22778687 86.97956848 291.20736694 C83.07113912 291.13071601 79.16305352 291.04209553 75.25495911 290.95004272 C73.57045834 290.91199677 71.88588306 290.87710355 70.20124817 290.84555054 C67.76567628 290.79936488 65.33060679 290.7414656 62.89533997 290.68148804 C62.15433548 290.66993683 61.41333099 290.65838562 60.64987183 290.64648438 C51.45926084 290.3928767 43.8183863 288.91528464 37.14143372 282.26742554 C32.6272251 276.34182664 31.0064089 271.40311695 30.82502747 263.97445679 C30.80424637 263.26842819 30.78346527 262.5623996 30.76205444 261.8349762 C30.6967588 259.58339003 30.63776725 257.33168892 30.57893372 255.07992554 C30.53572946 253.55191894 30.49211456 252.02392389 30.44807434 250.49594116 C30.34109797 246.75321992 30.2397745 243.01038324 30.14143372 239.26742554 C29.21919006 239.25807983 28.29694641 239.24873413 27.34675598 239.23910522 C23.88524718 239.19477427 20.42491912 239.13302256 16.96394348 239.05990601 C15.47349669 239.03189069 13.98290669 239.0105806 12.49226379 238.99642944 C-5.92962422 238.81116071 -5.92962422 238.81116071 -12.69230652 232.57699585 C-17.95565031 227.03768709 -20.23030433 221.02536707 -20.24624634 213.44322205 C-20.25163188 212.79360077 -20.25701741 212.1439795 -20.26256615 211.47467273 C-20.27677018 209.31758325 -20.26976127 207.16111402 -20.26261902 205.0039978 C-20.26832657 203.44945791 -20.27529232 201.89492221 -20.28341675 200.34039307 C-20.3013207 196.13166625 -20.30018502 191.92314823 -20.29447436 187.71439481 C-20.29137854 184.19555765 -20.29747932 180.67676036 -20.30351311 177.15792888 C-20.31754761 168.85414321 -20.31600597 160.55046044 -20.30461121 152.24667358 C-20.29313043 143.69135969 -20.30720735 135.13635929 -20.33400768 126.5810867 C-20.3561865 119.22459574 -20.36279717 111.86820303 -20.35693127 104.51168102 C-20.35356577 100.12286458 -20.35594961 95.73424909 -20.3731823 91.34546089 C-20.38868428 87.21750106 -20.38466015 83.09000458 -20.36587715 78.96206284 C-20.36220026 77.4512268 -20.36527346 75.94035618 -20.37576294 74.42955208 C-20.43728118 64.83296926 -19.9419711 58.1233664 -13.54606628 50.51742554 C-7.26260413 45.25685257 -1.5466168 43.14864335 6.64541817 43.13320446 C7.74585933 43.12874662 8.84630049 43.12428877 9.98008835 43.11969584 C11.18366954 43.1198802 12.38725073 43.12006457 13.62730408 43.12025452 C14.91013397 43.11657783 16.19296386 43.11290114 17.51466739 43.10911304 C21.07363122 43.09911414 24.63257819 43.09537965 28.19155407 43.09272373 C32.03084718 43.08881444 35.87012701 43.07923659 39.70941162 43.07051086 C48.97998243 43.05076486 58.2505543 43.04068295 67.52114087 43.03178307 C71.88903742 43.02739742 76.25693275 43.02203136 80.62482834 43.0167942 C95.14816855 42.99978436 109.67150801 42.98529047 124.19485664 42.97804546 C127.96220526 42.97613564 131.72955387 42.97421529 135.49690247 42.97225952 C136.90139856 42.97153391 136.90139856 42.97153391 138.33426832 42.97079364 C153.50026133 42.96249433 168.66617545 42.93715798 183.83213402 42.90467884 C199.40956796 42.87159096 214.98696181 42.85359517 230.56443107 42.85040122 C239.30784174 42.84823781 248.05113732 42.83951379 256.7945137 42.81394005 C264.24103704 42.79220949 271.68741733 42.78419423 279.13396879 42.79390683 C282.93082774 42.79844463 286.72739168 42.79659593 290.52420998 42.77714539 C294.64756686 42.75620515 298.77027251 42.76652097 302.8936615 42.77967834 C304.08385836 42.7687091 305.27405522 42.75773985 306.50031865 42.74643821 C314.63953877 42.80901553 322.94743928 43.66826042 329.35140336 49.16395777 C336.13566196 56.18864568 337.58886631 63.85098396 337.57380676 73.26351929 C337.58399841 74.23029099 337.59419006 75.19706268 337.60469055 76.19313049 C337.63469638 79.36378875 337.6440676 82.53414426 337.65315247 85.70492554 C337.67000833 87.91310622 337.68815979 90.12127737 337.70755005 92.32943726 C337.75495741 98.12272154 337.7848268 103.91596712 337.81098938 109.7093811 C337.84084159 115.62854655 337.88735594 121.5475788 337.93244934 127.46664429 C338.01837713 139.06683489 338.08576928 150.66705299 338.14143372 162.26742554 C343.42143372 162.26742554 348.70143372 162.26742554 354.14143372 162.26742554 C354.23423522 147.18528765 354.30551703 132.10319326 354.3486824 117.02083015 C354.36926223 110.01699192 354.39729441 103.01333491 354.44319153 96.00961304 C354.48748801 89.24688889 354.51059165 82.4843529 354.52094269 75.72149277 C354.52831657 73.14518145 354.54271596 70.56888008 354.56435394 67.99264908 C354.59351551 64.3758469 354.59738422 60.7598152 354.59553528 57.14291382 C354.61710693 55.55578835 354.61710693 55.55578835 354.63911438 53.93659973 C354.58195403 43.55995537 351.25927687 34.89368606 344.14143372 27.26742554 C335.02488364 18.92634964 326.37456318 17.82380177 314.37693787 17.87974548 C312.97884868 17.87556861 311.58076289 17.87008915 310.18268335 17.86342567 C306.35486275 17.84899858 302.52725797 17.85320716 298.6994257 17.86059248 C294.56570997 17.86532867 290.43204063 17.8528103 286.29833984 17.84257507 C278.20538664 17.82539036 270.11251109 17.82454641 262.01954438 17.82978798 C255.44038847 17.83383165 248.86125549 17.83238377 242.28210068 17.82703972 C241.34522437 17.8262913 240.40834805 17.82554287 239.44308155 17.82477177 C237.53972813 17.82324027 235.63637471 17.82170193 233.7330213 17.82015681 C215.88876247 17.80643286 198.04454749 17.81186863 180.20028965 17.82334202 C163.88276423 17.83327349 147.56535222 17.82033503 131.24784429 17.79640783 C114.48492698 17.77201308 97.72206249 17.76240993 80.95912778 17.76906055 C71.55126165 17.77255204 62.14348273 17.7703254 52.73563004 17.75280952 C44.72663042 17.73808283 36.71777941 17.73745818 28.70878269 17.75488044 C24.62445773 17.76338912 20.54039819 17.76554336 16.45608711 17.75022888 C12.71292068 17.7363676 8.97024669 17.74116299 5.22710864 17.76046812 C3.24061018 17.76599551 1.25408656 17.75196856 -0.73236406 17.73711401 C-14.1720893 17.84741345 -21.93782064 22.15443696 -31.10856628 31.57992554 Z M-1.85856628 63.26742554 C-3.22186136 65.99401569 -2.99392993 68.15326272 -3.0057373 71.20683289 C-3.01289261 72.47289368 -3.02004791 73.73895447 -3.02742004 75.04338074 C-3.03026044 76.45440649 -3.03297215 77.86543251 -3.03556824 79.27645874 C-3.04183184 80.7563086 -3.04847854 82.23615687 -3.05548096 83.71600342 C-3.07289981 87.7429463 -3.08344505 91.76987731 -3.09168649 95.79684854 C-3.09683461 98.31189128 -3.10291041 100.82693031 -3.10919762 103.34197044 C-3.12825189 111.20844956 -3.14248271 119.07491927 -3.15080959 126.94141704 C-3.16058491 136.02666829 -3.18691101 145.11167609 -3.22731048 154.19684154 C-3.25745358 161.21601232 -3.27227672 168.23511324 -3.2755906 175.2543475 C-3.2779431 179.44811526 -3.28692917 183.64162301 -3.31205177 187.83532143 C-3.33530624 191.78095991 -3.33957655 195.72616671 -3.32929039 199.67185593 C-3.32879428 201.11946103 -3.33513701 202.56708719 -3.34884644 204.01462746 C-3.36652518 205.99202855 -3.35708699 207.96961649 -3.34631348 209.94706726 C-3.34870183 211.05338658 -3.35109018 212.15970591 -3.35355091 213.29955006 C-2.73836088 216.98816445 -1.50182588 218.66106262 1.14143372 221.26742554 C4.48232901 221.99875172 4.48232901 221.99875172 8.25080872 221.86898804 C8.93644897 221.87699432 9.62208923 221.88500061 10.32850647 221.89324951 C12.5167521 221.91627746 14.70313924 221.90689201 16.89143372 221.89242554 C34.5741374 221.86094765 34.5741374 221.86094765 41.14143372 225.26742554 C46.32599315 230.45198497 47.38151552 235.40394352 47.41487122 242.57992554 C47.43515313 243.99920436 47.45600377 245.41847514 47.47737122 246.83773804 C47.49997882 249.05623202 47.5164521 251.27440748 47.52229309 253.49301147 C47.53183914 255.64755522 47.56562432 257.8006976 47.60237122 259.95492554 C47.61058899 261.23754272 47.61880676 262.52015991 47.62727356 263.84164429 C48.22505984 267.82461536 49.28552179 269.47561139 52.14143372 272.26742554 C54.83174605 273.16419632 56.3907992 273.39562409 59.15046692 273.40927124 C59.95172501 273.41630569 60.75298309 273.42334015 61.57852173 273.43058777 C62.4410405 273.43475204 63.30355927 273.43891632 64.19221497 273.44320679 C66.02360664 273.46640703 67.85498689 273.49052445 69.68635559 273.51547241 C72.5698154 273.55056175 75.45285488 273.57992051 78.33650208 273.59335327 C81.1222559 273.60886548 83.90678608 273.64909568 86.69221497 273.69320679 C87.97688408 273.69034416 87.97688408 273.69034416 89.2875061 273.68742371 C94.72977332 273.79812615 97.77884377 274.72348192 102.14143372 278.26742554 C102.71893372 278.70055054 103.29643372 279.13367554 103.89143372 279.57992554 C107.29834122 284.17925067 107.3883105 290.08244913 107.41487122 295.59164429 C107.43513809 296.96339756 107.45598841 298.33514233 107.47737122 299.70687866 C107.50003878 301.8398469 107.51648153 303.97247669 107.52229309 306.1055603 C107.53181475 308.18485339 107.56554868 310.26268048 107.60237122 312.34164429 C107.61058899 313.57487427 107.61880676 314.80810425 107.62727356 316.07870483 C108.23180816 319.82791015 109.18933339 320.96702048 112.14143372 323.26742554 C115.37169902 324.88255819 118.90911796 324.43274638 122.45906067 324.44442749 C123.31938904 324.45099869 124.17971741 324.45756989 125.06611633 324.46434021 C127.92065004 324.48409312 130.7751311 324.49574005 133.62971497 324.50570679 C134.60353811 324.50978231 135.57736126 324.51385784 136.5806942 324.51805687 C141.73464624 324.53892581 146.88857159 324.55322413 152.04255676 324.56259155 C157.36920083 324.57365953 162.69542756 324.60806163 168.02192402 324.64776325 C172.11486596 324.67389364 176.20770792 324.68228019 180.30072594 324.68587303 C182.26433825 324.69074802 184.22794583 324.70238786 186.19147682 324.72091103 C188.93986313 324.74522707 191.6871625 324.74435133 194.43562317 324.73739624 C195.24672043 324.7502063 196.05781769 324.76301636 196.89349365 324.7762146 C200.68833509 324.74121302 202.89253834 324.42639642 206.12304688 322.36305237 C209.59973231 318.75332051 209.27404464 316.28471899 209.31721497 311.35336304 C209.34043436 309.93798393 209.36455253 308.52261933 209.38948059 307.10726929 C209.42441976 304.88240142 209.4538387 302.65806014 209.46736145 300.43295288 C209.58740261 283.90420909 209.58740261 283.90420909 214.14143372 278.26742554 C220.85501547 272.81576738 228.83569446 273.59737575 237.07893372 273.51742554 C238.54055718 273.48923327 240.00214817 273.45930132 241.46369934 273.42758179 C245.02279216 273.35410015 248.58175147 273.30429038 252.14143372 273.26742554 C252.14285873 272.13704865 252.14428375 271.00667175 252.14575195 269.84204102 C252.16246071 259.16103928 252.2053528 248.48041665 252.27352428 237.79961586 C252.30773581 232.30917583 252.33289522 226.81901234 252.33699036 221.32846069 C252.34128576 216.02434865 252.36985183 210.72085984 252.41486549 205.4169426 C252.42780077 203.39891573 252.43216234 201.38081414 252.42758751 199.36275101 C252.3899917 177.73216039 252.3899917 177.73216039 259.54833984 169.68603516 C266.44484931 163.31558228 273.63477857 162.81067307 282.54377747 162.75570679 C283.62147903 162.73775558 284.6991806 162.71980438 285.80953979 162.7013092 C289.23263198 162.64737107 292.65558602 162.61336277 296.07893372 162.57992554 C298.40772891 162.54673798 300.73650591 162.512247 303.06526184 162.47640991 C308.75719522 162.3916541 314.44914685 162.32323462 320.14143372 162.26742554 C320.23409344 149.83699774 320.30517848 137.40665204 320.3486824 124.97594929 C320.3695616 119.20392475 320.3978858 113.4321364 320.44319153 107.6602478 C320.48663669 102.0905697 320.51056832 96.52111887 320.52094269 90.95128441 C320.52833639 88.82578135 320.54277447 86.70029079 320.56435394 84.57488441 C320.59336977 81.59883317 320.59739042 78.62372231 320.59553528 75.64755249 C320.61710693 74.32801071 320.61710693 74.32801071 320.63911438 72.98181152 C320.611382 68.87322905 320.47602309 66.79896236 318.23805237 63.2436676 C315.06335606 60.25124531 313.31534212 60.14164317 309.05230236 60.13599777 C307.96806773 60.13215663 306.88383311 60.12831548 305.76674289 60.12435794 C304.56589425 60.12522442 303.36504561 60.1260909 302.12780762 60.12698364 C300.22555891 60.12252696 300.22555891 60.12252696 298.28488094 60.11798024 C294.75315921 60.10989191 291.22145779 60.10811965 287.6897279 60.10738277 C283.88526367 60.10553539 280.08081005 60.09798965 276.27635193 60.09124756 C267.95202141 60.07765063 259.62769571 60.07163738 251.30335593 60.0672369 C246.10815882 60.06447673 240.91296357 60.06023979 235.71776772 60.05573273 C221.34122554 60.04353821 206.96468486 60.03323931 192.58813763 60.02985764 C191.66753858 60.02963807 190.74693953 60.0294185 189.79844354 60.02919228 C188.87560822 60.02897401 187.95277289 60.02875573 187.00197285 60.02853084 C185.13187452 60.02808737 183.26177619 60.0276408 181.39167786 60.02719116 C180.46403922 60.02696973 179.53640058 60.0267483 178.58065168 60.02652016 C163.54622699 60.02257132 148.51185076 60.0051155 133.47744479 59.98183164 C118.05155611 59.95813382 102.62569176 59.9456565 87.19978458 59.94448972 C78.53479139 59.94357206 69.86986131 59.9377971 61.20488548 59.9196701 C53.82693682 59.90429026 46.44907077 59.8991361 39.07110914 59.90740821 C35.30544306 59.91132228 31.53994344 59.91034848 27.77429771 59.89635086 C23.69474769 59.88132483 19.61557484 59.88945599 15.53601074 59.89993286 C14.34185427 59.89187646 13.1476978 59.88382005 11.91735476 59.87551951 C10.27926796 59.88540428 10.27926796 59.88540428 8.60808849 59.89548874 C7.66632706 59.89489165 6.72456562 59.89429456 5.75426596 59.89367938 C2.60198032 60.34459032 0.71010824 61.41479521 -1.85856628 63.26742554 Z M271.19095802 183.40530968 C268.77898426 187.68474806 269.50225778 193.00192066 269.57380676 197.76864624 C269.57307663 199.03734055 269.5723465 200.30603485 269.57159424 201.61317444 C269.57016171 205.08419804 269.59952328 208.55435481 269.63446403 212.02517724 C269.66575568 215.65529481 269.66866045 219.28543304 269.67459106 222.91566467 C269.69012138 229.78638713 269.73113841 236.65671102 269.78133851 243.5272581 C269.83725761 251.35062708 269.86472486 259.17401526 269.88981569 266.99753439 C269.94205548 283.08776811 270.03373644 299.17745293 270.14143372 315.26742554 C286.64143372 315.26742554 303.14143372 315.26742554 320.14143372 315.26742554 C320.14143372 306.02742554 320.14143372 296.78742554 320.14143372 287.26742554 C316.51143372 285.28742554 312.88143372 283.30742554 309.14143372 281.26742554 C304.0453565 275.24478883 303.46857356 270.74380415 303.71565247 263.03695679 C303.72355654 261.08057944 303.73069541 259.12419887 303.73713684 257.16781616 C303.77679423 254.11271931 303.82940946 251.05859492 303.89753723 248.0039978 C303.95439014 245.03503921 303.96258518 242.06888701 303.96565247 239.09945679 C304.00075424 238.18791336 304.03585602 237.27636993 304.07202148 236.33720398 C304.06209323 233.74852331 303.97385596 231.72124097 303.14143372 229.26742554 C301.25203617 227.50777288 299.45401774 226.42429553 297.13711548 225.29627991 C291.74630996 222.51710243 288.96531303 216.85085508 287.14143372 211.26742554 C286.70906067 207.62704468 286.70906067 207.62704468 286.62971497 203.80258179 C286.60278816 202.78532265 286.60278816 202.78532265 286.57531738 201.74751282 C286.52168429 199.60837797 286.48747328 197.46945995 286.45393372 195.32992554 C286.4207188 193.8683071 286.38622534 192.40671713 286.35041809 190.94515991 C286.26598769 187.38612344 286.19895401 183.82701042 286.14143372 180.26742554 C284.41448696 180.13132641 282.68438649 180.03493326 280.95393372 179.95492554 C279.99100403 179.89691772 279.02807434 179.83890991 278.03596497 179.77914429 C274.94413839 180.30070747 273.34088052 181.1175848 271.19095802 183.40530968 Z M304.14143372 180.26742554 C304.03354442 184.66391436 303.95415439 189.05775803 303.89143372 193.45492554 C303.85791809 194.70080444 303.82440247 195.94668335 303.78987122 197.23031616 C303.77698059 198.43236694 303.76408997 199.63441772 303.75080872 200.87289429 C303.72986145 201.97786255 303.70891418 203.08283081 303.68733215 204.22128296 C304.24471281 207.96022837 305.53533952 209.58409354 308.14143372 212.26742554 C311.2594677 214.01278153 311.2594677 214.01278153 320.14143372 213.26742554 C320.14143372 202.37742554 320.14143372 191.48742554 320.14143372 180.26742554 C314.86143372 180.26742554 309.58143372 180.26742554 304.14143372 180.26742554 Z M338.14143372 180.26742554 C338.14143372 191.15742554 338.14143372 202.04742554 338.14143372 213.26742554 C343.42143372 213.26742554 348.70143372 213.26742554 354.14143372 213.26742554 C354.14143372 202.37742554 354.14143372 191.48742554 354.14143372 180.26742554 C348.86143372 180.26742554 343.58143372 180.26742554 338.14143372 180.26742554 Z M372.14143372 180.26742554 C372.14143372 191.15742554 372.14143372 202.04742554 372.14143372 213.26742554 C381.39607772 214.01278153 381.39607772 214.01278153 386.14143372 211.26742554 C388.5325558 207.68074241 388.37524398 206.10345985 388.33674622 201.84945679 C388.3303009 200.59584351 388.32385559 199.34223022 388.31721497 198.05062866 C388.30045715 196.74029663 388.28369934 195.4299646 388.26643372 194.07992554 C388.2564001 192.74464567 388.24727491 191.40935864 388.23908997 190.07406616 C388.21548739 186.80510908 388.1796159 183.53624483 388.14143372 180.26742554 C382.86143372 180.26742554 377.58143372 180.26742554 372.14143372 180.26742554 Z M406.14143372 180.26742554 C406.13208801 181.15937622 406.12274231 182.0513269 406.1131134 182.9703064 C406.06876654 186.32001651 406.00700869 189.66850962 405.93391418 193.01766968 C405.90590909 194.45961026 405.88459403 195.90169852 405.87043762 197.34384155 C405.77241167 206.77067073 405.54558265 215.11491535 399.14143372 222.60726929 C398.48143372 223.13449585 397.82143372 223.66172241 397.14143372 224.20492554 C396.48143372 224.75019897 395.82143372 225.29547241 395.14143372 225.85726929 C393.20405123 227.2232753 391.26861894 228.23291554 389.14143372 229.26742554 C389.13208801 230.56365845 389.12274231 231.85989136 389.1131134 233.19540405 C389.07311084 238.0245241 389.00732311 242.85301395 388.93391418 247.68173218 C388.9057641 249.76791258 388.88452001 251.85419845 388.87043762 253.94052124 C388.84892569 256.94717169 388.80223247 259.95256194 388.75080872 262.95883179 C388.74896576 264.34830772 388.74896576 264.34830772 388.74708557 265.76585388 C388.61273547 271.76422907 387.6135735 275.33867681 384.14143372 280.26742554 C382.14143372 281.97445679 382.14143372 281.97445679 380.14143372 283.07992554 C379.48143372 283.45762085 378.82143372 283.83531616 378.14143372 284.22445679 C376.15305066 285.26136748 374.14719561 286.26454459 372.14143372 287.26742554 C372.14143372 296.50742554 372.14143372 305.74742554 372.14143372 315.26742554 C388.64143372 315.26742554 405.14143372 315.26742554 422.14143372 315.26742554 C422.2542724 298.25621315 422.34638923 281.24531975 422.40049458 264.23383713 C422.42628361 256.33522907 422.4614471 248.43686993 422.51863098 240.53842163 C422.56844502 233.65464496 422.60071966 226.77104854 422.61187619 219.88709664 C422.6183985 216.24150803 422.63374109 212.59643509 422.670084 208.95101166 C422.71031395 204.88274702 422.71138447 200.81538056 422.70906067 196.74691772 C422.73602524 194.93106926 422.73602524 194.93106926 422.76353455 193.07853699 C422.88918594 186.74910383 422.88918594 186.74910383 419.78686523 181.51187134 C416.7204265 180.0693782 414.70187753 179.85487403 411.32893372 180.01742554 C410.3531134 180.05351929 409.37729309 180.08961304 408.37190247 180.12680054 C407.26782043 180.19640991 407.26782043 180.19640991 406.14143372 180.26742554 Z M321.14143372 231.26742554 C321.14143372 243.47742554 321.14143372 255.68742554 321.14143372 268.26742554 C324.77143372 270.24742554 328.40143372 272.22742554 332.14143372 274.26742554 C336.4168931 278.64468157 337.25725455 282.02742165 337.34675598 288.02401733 C337.3667012 289.20501511 337.38664642 290.38601288 337.40719604 291.60279846 C337.42390854 292.87786758 337.44062103 294.15293671 337.45783997 295.46664429 C337.47862106 296.77196609 337.49940216 298.0772879 337.52081299 299.42216492 C337.57595644 302.88924907 337.62539967 306.356392 337.67366028 309.82357788 C337.72393181 313.36285623 337.77958835 316.90204943 337.83479309 320.44125366 C337.94228012 327.38323867 338.04324825 334.32530281 338.14143372 341.26742554 C343.42143372 341.26742554 348.70143372 341.26742554 354.14143372 341.26742554 C354.15077942 339.55232788 354.16012512 337.83723022 354.16975403 336.07015991 C354.20539773 330.37827458 354.25926894 324.68675307 354.32533646 318.99514008 C354.36470274 315.54714668 354.39694362 312.0994045 354.41242981 308.6512146 C354.43059033 304.67920739 354.48058947 300.70789607 354.53205872 296.73617554 C354.53328735 295.50878662 354.53451599 294.28139771 354.53578186 293.01681519 C354.65530928 285.98166789 355.33060102 281.24046443 359.14143372 275.26742554 C361.14143372 273.46273804 361.14143372 273.46273804 363.14143372 272.39242554 C363.80143372 272.02375366 364.46143372 271.65508179 365.14143372 271.27523804 C367.13934499 270.26847806 369.14039096 269.26794691 371.14143372 268.26742554 C371.14143372 256.05742554 371.14143372 243.84742554 371.14143372 231.26742554 C354.64143372 231.26742554 338.14143372 231.26742554 321.14143372 231.26742554 Z M255.14143372 335.26742554 C252.64585787 339.01078931 252.80062422 342.00475041 252.77033997 346.34555054 C252.76131149 347.1491803 252.75228302 347.95281006 252.74298096 348.78079224 C252.72846187 350.48886393 252.7195876 352.19699144 252.71589661 353.90512085 C252.70416457 356.46701473 252.65514524 359.0263648 252.60432434 361.58773804 C252.49992616 372.37441502 253.78050937 381.31253159 258.14143372 391.26742554 C259.24285529 392.59418566 259.24285529 392.59418566 261.9975214 392.39047337 C263.93190398 392.38909068 263.93190398 392.38909068 265.90536499 392.38768005 C266.62084108 392.38853448 267.33631717 392.3893889 268.07347435 392.39026922 C270.48881185 392.39192612 272.90408104 392.38639925 275.31941223 392.38095093 C277.04367572 392.38066908 278.76793934 392.38082675 280.49220276 392.38139343 C285.18828519 392.38168148 289.8843423 392.37578355 294.58041883 392.36881948 C299.4825053 392.36258718 304.3845923 392.36198224 309.28668213 392.36079407 C318.57626267 392.35768038 327.86583151 392.3494665 337.15540689 392.33944458 C347.72838332 392.32828458 358.30136029 392.32277328 368.87434113 392.31774914 C390.6300452 392.30728392 412.38573872 392.28968376 434.14143372 392.26742554 C434.96791321 389.87817775 435.78696884 387.48679886 436.60198975 385.09364319 C436.83517835 384.42194705 437.06836696 383.75025092 437.30862188 383.05820036 C439.11557372 377.72398644 439.86753683 373.00636898 439.77033997 367.41195679 C439.7739579 366.15955452 439.7739579 366.15955452 439.77764893 364.8818512 C439.77668485 363.15217236 439.76364493 361.42245689 439.73835754 359.69296265 C439.70346322 357.04421141 439.71791577 354.39870551 439.73713684 351.74984741 C439.73025168 350.05386973 439.72059142 348.35790051 439.70783997 346.66195679 C439.71279984 345.87658035 439.7177597 345.09120392 439.72286987 344.2820282 C439.64546603 340.70375544 439.4564898 338.67347546 437.23103333 335.80526733 C433.71214006 333.21553621 431.66118546 333.14495691 427.31477356 333.15390015 C425.48310135 333.15401344 425.48310135 333.15401344 423.61442566 333.15412903 C422.27707377 333.15923602 420.93972229 333.16445202 419.60237122 333.16976929 C418.23759513 333.17163414 416.87281838 333.17305772 415.50804138 333.17405701 C411.91428279 333.17787691 408.32056454 333.1877027 404.7268219 333.19876099 C401.06034389 333.20898643 397.39385937 333.21355706 393.72737122 333.21859741 C386.53204031 333.22932544 379.33674267 333.24639555 372.14143372 333.26742554 C372.08302307 334.16525757 372.02461243 335.0630896 371.96443176 335.98812866 C371.88233459 337.16310913 371.80023743 338.3380896 371.71565247 339.54867554 C371.63661682 340.71463257 371.55758118 341.8805896 371.47615051 343.08187866 C370.91131223 348.45752412 369.11299123 351.58140713 365.14143372 355.07992554 C359.42566419 359.24767415 353.71004909 358.48646701 346.89143372 358.51742554 C345.21114075 358.54836304 345.21114075 358.54836304 343.49690247 358.57992554 C336.5175108 358.61288606 330.90444749 358.50732977 325.39924622 353.76742554 C321.75197696 348.93793797 320.99229956 345.54420418 320.57893372 339.57992554 C320.49514465 338.40043335 320.41135559 337.22094116 320.32502747 336.00570679 C320.26444153 335.10207397 320.20385559 334.19844116 320.14143372 333.26742554 C312.25711944 333.22106701 304.3728622 333.18553852 296.48844528 333.16380119 C292.8273156 333.15336791 289.16627923 333.1392171 285.50520325 333.11654663 C281.97147455 333.0948019 278.43783555 333.08285348 274.9040451 333.07767105 C272.90101155 333.0721821 270.89801403 333.05657173 268.89503479 333.04083252 C267.67407104 333.04068146 266.4531073 333.0405304 265.19514465 333.04037476 C264.12036865 333.03593353 263.04559265 333.03149231 261.93824768 333.0269165 C259.08951636 333.27189012 257.50038255 333.68279917 255.14143372 335.26742554 Z M265.14143372 410.26742554 C267.67183794 420.36895039 267.67183794 420.36895039 270.14143372 426.26742554 C320.30143372 426.26742554 370.46143372 426.26742554 422.14143372 426.26742554 C426.22284205 417.09677295 426.22284205 417.09677295 427.14143372 410.26742554 C373.68143372 410.26742554 320.22143372 410.26742554 265.14143372 410.26742554 Z M276.14143372 444.26742554 C277.79143372 449.54742554 279.44143372 454.82742554 281.14143372 460.26742554 C324.04143372 460.26742554 366.94143372 460.26742554 411.14143372 460.26742554 C414.58110461 452.43018946 414.58110461 452.43018946 416.14143372 444.26742554 C369.94143372 444.26742554 323.74143372 444.26742554 276.14143372 444.26742554 Z M288.14143372 478.26742554 C289.96716118 487.40767257 289.96716118 487.40767257 295.14143372 494.26742554 C297.0310771 494.58137859 297.0310771 494.58137859 299.22061157 494.54830933 C300.50126244 494.56543976 300.50126244 494.56543976 301.80778503 494.58291626 C303.21587936 494.58626984 303.21587936 494.58626984 304.65242004 494.58969116 C306.13310722 494.60458588 306.13310722 494.60458588 307.64370728 494.61978149 C310.9203212 494.64907215 314.19674145 494.66263665 317.47346497 494.67367554 C319.74549365 494.68517503 322.01752226 494.69669053 324.28955078 494.70822144 C329.05862841 494.72925522 333.82763847 494.74093132 338.59675598 494.74789429 C344.71054593 494.75886382 350.82344497 494.80691128 356.93695545 494.8638382 C361.63211683 494.90107178 366.32706329 494.91150108 371.02235985 494.91456604 C373.27626603 494.92062516 375.53016817 494.93670291 377.78392982 494.9629364 C380.93739816 494.99702023 384.0886864 494.99330932 387.24226379 494.98031616 C388.17492065 494.99874573 389.10757751 495.01717529 390.0684967 495.03616333 C394.57215712 494.97798473 396.51062733 494.78812427 400.07263184 491.84786987 C402.81393596 487.42092143 402.81393596 487.42092143 405.14143372 478.26742554 C366.53143372 478.26742554 327.92143372 478.26742554 288.14143372 478.26742554 Z " fill="#000000" transform="translate(54.85856628417969,-0.267425537109375)"/>
<path d="M0 0 C4.00538252 0.64372219 5.65945826 1.72195826 8.5 4.5625 C10.14366184 7.84982368 9.68455332 11.4990422 9.703125 15.11328125 C9.70882507 15.96423874 9.71452515 16.81519623 9.72039795 17.69194031 C9.72985298 19.49505366 9.73638392 21.29818433 9.74023438 23.10131836 C9.74992487 25.85366198 9.78093675 28.60525408 9.8125 31.35742188 C9.81903163 33.10937057 9.82428147 34.8613246 9.828125 36.61328125 C9.8404718 37.43427811 9.8528186 38.25527496 9.86553955 39.10115051 C9.84752973 43.74584192 9.53243885 46.80481618 6.5 50.5625 C2.74952518 53.06281654 0.94143734 53.09853554 -3.5 52.5625 C-6.28348801 50.55802418 -8.17955757 48.96284976 -8.96710205 45.52124023 C-9.16236247 43.0217478 -9.19298801 40.56949302 -9.1640625 38.0625 C-9.16884613 37.14919922 -9.17362976 36.23589844 -9.17855835 35.29492188 C-9.18195317 33.36847201 -9.17277994 31.44196421 -9.15185547 29.515625 C-9.12508281 26.57160652 -9.15161622 23.6314003 -9.18359375 20.6875 C-9.18028958 18.81249161 -9.17388318 16.93748558 -9.1640625 15.0625 C-9.17418365 14.18529297 -9.18430481 13.30808594 -9.19473267 12.40429688 C-9.11053851 8.00059265 -8.91759022 6.11238125 -6.17724609 2.50390625 C-3.5 0.5625 -3.5 0.5625 0 0 Z " fill="#000000" transform="translate(315.5,84.4375)"/>
<path d="M0 0 C0.639375 -0.02449219 1.27875 -0.04898438 1.9375 -0.07421875 C5.31121878 1.17175694 7.24951347 3.65652524 9 6.6875 C9.69657144 9.75219099 9.67905145 12.71486655 9.62890625 15.84765625 C9.63131821 16.71514999 9.63373016 17.58264374 9.63621521 18.47642517 C9.63523938 20.3027709 9.62190901 22.12914718 9.59692383 23.95532227 C9.56255755 26.74532746 9.57629164 29.53217216 9.59570312 32.32226562 C9.58880553 34.10157593 9.57913392 35.8808781 9.56640625 37.66015625 C9.57136612 38.49047867 9.57632599 39.32080109 9.58143616 40.17628479 C9.49991942 44.19688746 9.29928485 46.21724988 7.08959961 49.68920898 C4.53741918 52.12986757 3.65814953 52.6445772 0.125 52.875 C-2.94628429 52.69072294 -4.48618314 52.3933043 -7 50.6875 C-9.02773588 47.64589618 -9.25606623 46.99740236 -9.30639648 43.57080078 C-9.32238388 42.74629425 -9.33837128 41.92178772 -9.35484314 41.07229614 C-9.36020584 40.18476654 -9.36556854 39.29723694 -9.37109375 38.3828125 C-9.38012222 37.46668182 -9.3891507 36.55055115 -9.39845276 35.60665894 C-9.41296085 33.6683072 -9.42184338 31.72990642 -9.42553711 29.79150391 C-9.43742887 26.8302123 -9.48660392 23.87100769 -9.53710938 20.91015625 C-9.54657427 19.02605183 -9.55380899 17.14193462 -9.55859375 15.2578125 C-9.57812607 14.37433136 -9.59765839 13.49085022 -9.61778259 12.58059692 C-9.58492595 8.08917226 -9.46123534 6.27304189 -6.59399414 2.63305664 C-4.10656495 0.76742622 -3.04800535 -0.01843552 0 0 Z " fill="#000000" transform="translate(350,84.3125)"/>
<path d="M0 0 C4.02339163 0.64661651 5.68303517 1.66268326 8.5 4.5625 C9.77442926 8.38578777 9.68195319 12.00661918 9.703125 15.9921875 C9.70882507 16.819534 9.71452515 17.64688049 9.72039795 18.4992981 C9.72984023 20.24935632 9.73637887 21.99943227 9.74023438 23.74951172 C9.74993847 26.42056431 9.78096785 29.09084675 9.8125 31.76171875 C9.81903058 33.46353711 9.82428084 35.16536096 9.828125 36.8671875 C9.8404718 37.66317352 9.8528186 38.45915955 9.86553955 39.27926636 C9.84720524 43.86561353 9.47758433 46.84444435 6.5 50.5625 C2.74952518 53.06281654 0.94143734 53.09853554 -3.5 52.5625 C-6.28348801 50.55802418 -8.17955757 48.96284976 -8.96710205 45.52124023 C-9.16236247 43.0217478 -9.19298801 40.56949302 -9.1640625 38.0625 C-9.16884613 37.14919922 -9.17362976 36.23589844 -9.17855835 35.29492188 C-9.18195317 33.36847201 -9.17277994 31.44196421 -9.15185547 29.515625 C-9.12508281 26.57160652 -9.15161622 23.6314003 -9.18359375 20.6875 C-9.18028958 18.81249161 -9.17388318 16.93748558 -9.1640625 15.0625 C-9.17418365 14.18529297 -9.18430481 13.30808594 -9.19473267 12.40429688 C-9.11053851 8.00059265 -8.91759022 6.11238125 -6.17724609 2.50390625 C-3.5 0.5625 -3.5 0.5625 0 0 Z " fill="#000000" transform="translate(281.5,84.4375)"/>
<path d="M0 0 C2.78348801 2.00447582 4.67955757 3.59965024 5.46710205 7.04125977 C5.66236247 9.5407522 5.69298801 11.99300698 5.6640625 14.5 C5.66884613 15.41330078 5.67362976 16.32660156 5.67855835 17.26757812 C5.68195317 19.19402799 5.67277994 21.12053579 5.65185547 23.046875 C5.62508281 25.99089348 5.65161622 28.9310997 5.68359375 31.875 C5.68028958 33.75000839 5.67388318 35.62501442 5.6640625 37.5 C5.67418365 38.37720703 5.68430481 39.25441406 5.69473267 40.15820312 C5.61053851 44.56190735 5.41759022 46.45011875 2.67724609 50.05859375 C0 52 0 52 -3.5 52.5625 C-7.52339163 51.91588349 -9.18303517 50.89981674 -12 48 C-13.27442926 44.17671223 -13.18195319 40.55588082 -13.203125 36.5703125 C-13.20882507 35.742966 -13.21452515 34.91561951 -13.22039795 34.0632019 C-13.22984023 32.31314368 -13.23637887 30.56306773 -13.24023438 28.81298828 C-13.24993847 26.14193569 -13.28096785 23.47165325 -13.3125 20.80078125 C-13.31903058 19.09896289 -13.32428084 17.39713904 -13.328125 15.6953125 C-13.3404718 14.89932648 -13.3528186 14.10334045 -13.36553955 13.28323364 C-13.34720524 8.69688647 -12.97758433 5.71805565 -10 2 C-6.24952518 -0.50031654 -4.44143734 -0.53603554 0 0 Z " fill="#000000" transform="translate(217,85)"/>
<path d="M0 0 C2.79627335 2.00277402 4.68414865 3.59349441 5.45999146 7.04837036 C5.64575728 9.5575508 5.66679495 12.01934944 5.62890625 14.53515625 C5.63131821 15.4508287 5.63373016 16.36650116 5.63621521 17.30992126 C5.63523799 19.2405939 5.62187416 21.17129498 5.59692383 23.10180664 C5.56257013 26.05646847 5.57628181 29.00814586 5.59570312 31.96289062 C5.58880564 33.84115856 5.57913414 35.71941878 5.56640625 37.59765625 C5.57136612 38.48002457 5.57632599 39.36239288 5.58143616 40.27149963 C5.4639699 46.38672963 5.4639699 46.38672963 3.08959961 49.52514648 C-0.45823929 52.02923514 -2.63628285 52.42781541 -7 52 C-9.69990662 50.20006226 -11.5418865 48.916227 -13 46 C-13.13582508 43.06898854 -13.21276479 40.16294862 -13.23828125 37.23046875 C-13.246353 36.35731522 -13.25442474 35.48416168 -13.26274109 34.58454895 C-13.27658364 32.7343647 -13.28730503 30.88415488 -13.29516602 29.03393555 C-13.3123692 26.20897803 -13.35625166 23.38519379 -13.40039062 20.56054688 C-13.41051847 18.76302944 -13.41903429 16.96550205 -13.42578125 15.16796875 C-13.44328934 14.32509811 -13.46079742 13.48222748 -13.47883606 12.61381531 C-13.46383565 8.54271514 -13.32364949 6.51237924 -11.09838867 2.98950195 C-7.50084678 -0.42136121 -4.9112449 -0.49944863 0 0 Z " fill="#000000" transform="translate(183,85)"/>
<path d="M0 0 C3.51809288 0.92140528 4.90244686 2.72852118 7.1328125 5.55859375 C7.83364267 8.6710277 7.76372543 11.69647964 7.69140625 14.875 C7.68790916 16.21521461 7.68790916 16.21521461 7.68434143 17.58250427 C7.67462167 19.46615179 7.65287532 21.34977083 7.61987305 23.2331543 C7.57041946 26.11486112 7.55838795 28.99486 7.55273438 31.87695312 C7.53864908 33.70965356 7.52244492 35.5423392 7.50390625 37.375 C7.49854355 38.23549454 7.49318085 39.09598907 7.48765564 39.9825592 C7.47166824 40.78696945 7.45568085 41.5913797 7.43920898 42.42016602 C7.42324928 43.4767617 7.42324928 43.4767617 7.40696716 44.55470276 C7.08453059 46.91150288 6.35172755 48.52435044 5.1328125 50.55859375 C1.90987964 52.86068865 -0.98715074 53.03370029 -4.8671875 52.55859375 C-7.56709412 50.75865601 -9.409074 49.47482075 -10.8671875 46.55859375 C-10.97864421 43.61576208 -11.03131212 40.6973287 -11.03515625 37.75390625 C-11.04014885 36.44061844 -11.04014885 36.44061844 -11.04524231 35.10079956 C-11.0503102 33.24640428 -11.05265068 31.39199986 -11.05249023 29.53759766 C-11.05467333 26.70199505 -11.07282103 23.86678355 -11.09179688 21.03125 C-11.0947315 19.23047008 -11.09671583 17.42968831 -11.09765625 15.62890625 C-11.10484177 14.78087433 -11.11202728 13.93284241 -11.11943054 13.05911255 C-11.1148156 11.86800369 -11.1148156 11.86800369 -11.11010742 10.65283203 C-11.11153244 9.95715118 -11.11295746 9.26147034 -11.11442566 8.54470825 C-10.8161209 6.14836532 -10.14887219 4.60207583 -8.8671875 2.55859375 C-5.69899994 0.44646871 -3.73499498 0.22702911 0 0 Z " fill="#000000" transform="translate(146.8671875,84.44140625)"/>
<path d="M0 0 C3.9375 0.5625 3.9375 0.5625 6.375 2.4375 C9.43476202 6.59877635 9.13223739 10.32775201 9.17578125 15.33203125 C9.183853 16.20518478 9.19192474 17.07833832 9.20024109 17.97795105 C9.21408364 19.8281353 9.22480503 21.67834512 9.23266602 23.52856445 C9.2498692 26.35352197 9.29375166 29.17730621 9.33789062 32.00195312 C9.34801847 33.79947056 9.35653429 35.59699795 9.36328125 37.39453125 C9.38078934 38.23740189 9.39829742 39.08027252 9.41633606 39.94868469 C9.40133565 44.01978486 9.26114949 46.05012076 7.03588867 49.57299805 C4.4762824 51.99978472 3.59180524 52.51982792 0.0625 52.75 C-3.02325154 52.56485491 -4.57273567 52.34090309 -7.0625 50.5625 C-8.73382632 47.77322903 -9.32004071 45.65851907 -9.36889648 42.42407227 C-9.38488388 41.61966202 -9.40087128 40.81525177 -9.41734314 39.98646545 C-9.42270584 39.12597092 -9.42806854 38.26547638 -9.43359375 37.37890625 C-9.44262222 36.48638657 -9.4516507 35.59386688 -9.46095276 34.67430115 C-9.47544228 32.78900501 -9.48433877 30.90365874 -9.48803711 29.01831055 C-9.49994502 26.13829796 -9.54915121 23.2604207 -9.59960938 20.38085938 C-9.60907281 18.54688543 -9.61630823 16.71289836 -9.62109375 14.87890625 C-9.64062607 14.02043594 -9.66015839 13.16196564 -9.68028259 12.27748108 C-9.64693904 7.84704253 -9.49626328 6.11159867 -6.65869141 2.51953125 C-4.11478509 0.60191295 -3.11474416 -0.10526968 0 0 Z " fill="#000000" transform="translate(111.0625,84.4375)"/>
<path d="M0 0 C2.75329021 1.79562405 4.52627461 3.05254922 6 6 C6.13582508 8.93101146 6.21276479 11.83705138 6.23828125 14.76953125 C6.246353 15.64268478 6.25442474 16.51583832 6.26274109 17.41545105 C6.27658364 19.2656353 6.28730503 21.11584512 6.29516602 22.96606445 C6.3123692 25.79102197 6.35625166 28.61480621 6.40039062 31.43945312 C6.41051847 33.23697056 6.41903429 35.03449795 6.42578125 36.83203125 C6.44328934 37.67490189 6.46079742 38.51777252 6.47883606 39.38618469 C6.46383565 43.45728486 6.32364949 45.48762076 4.09838867 49.01049805 C1.58075414 51.39749093 0.64565052 51.94260884 -2.8125 52.25 C-6.39154719 51.96929042 -8.14250017 51.12271416 -11 49 C-12.12237281 46.75525437 -12.14877721 45.48809601 -12.19287109 42.99682617 C-12.20893402 42.17224411 -12.22499695 41.34766205 -12.24154663 40.49809265 C-12.28602528 36.72521801 -12.32706263 32.95251891 -12.35009766 29.17944336 C-12.36665551 27.19006653 -12.39394328 25.20074915 -12.43212891 23.21166992 C-12.48692264 20.34262245 -12.50877517 17.47496913 -12.5234375 14.60546875 C-12.54610687 13.71885056 -12.56877625 12.83223236 -12.59213257 11.91874695 C-12.57694749 7.4749643 -12.44111188 5.58431732 -9.68603516 1.93481445 C-6.15242021 -0.61053171 -4.26946062 -0.68616331 0 0 Z " fill="#000000" transform="translate(80,85)"/>
<path d="M0 0 C2.77711402 2.00684546 4.68012736 3.6030376 5.46734619 7.04101562 C5.66232516 9.54056255 5.6929884 11.9929738 5.6640625 14.5 C5.66884613 15.41330078 5.67362976 16.32660156 5.67855835 17.26757812 C5.68195317 19.19402799 5.67277994 21.12053579 5.65185547 23.046875 C5.62508281 25.99089348 5.65161622 28.9310997 5.68359375 31.875 C5.68028958 33.75000839 5.67388318 35.62501442 5.6640625 37.5 C5.67418365 38.37720703 5.68430481 39.25441406 5.69473267 40.15820312 C5.61055837 44.56086842 5.419124 46.44880392 2.67724609 50.0546875 C0 52 0 52 -3.5 52.625 C-7.86301349 51.84589045 -9.28467759 50.43408422 -12 47 C-13.23322522 43.30032434 -13.16229845 39.86140787 -13.16796875 36.0078125 C-13.17129715 35.22485809 -13.17462555 34.44190369 -13.17805481 33.63522339 C-13.18311519 31.97931505 -13.18546341 30.32339653 -13.18530273 28.66748047 C-13.1874858 26.14142934 -13.20564117 23.61581743 -13.22460938 21.08984375 C-13.22754421 19.47916816 -13.2295284 17.86849049 -13.23046875 16.2578125 C-13.23765427 15.50557404 -13.24483978 14.75333557 -13.25224304 13.978302 C-13.23031347 8.91267765 -12.84088018 4.97724168 -9.3125 1.1875 C-5.95694997 -0.53562029 -3.71982635 -0.52208089 0 0 Z " fill="#000000" transform="translate(251,85)"/>
</svg>
