<?xml version="1.0" encoding="UTF-8"?>
<svg version="1.1" xmlns="http://www.w3.org/2000/svg" width="512" height="512">
<path d="M0 0 C1.56750625 -0.00417806 3.13500947 -0.00965816 4.70250714 -0.01631981 C8.98940514 -0.03073128 13.27611019 -0.0265432 17.56301856 -0.019153 C22.19435397 -0.01441295 26.82564813 -0.02693858 31.45697021 -0.03717041 C40.52221487 -0.05434742 49.58739018 -0.05520069 58.65264688 -0.04995751 C66.02264093 -0.04591249 73.39261451 -0.04736331 80.76260757 -0.05270576 C81.81242527 -0.05345419 82.86224297 -0.05420261 83.94387332 -0.05497371 C86.07672921 -0.05650522 88.2095851 -0.05804357 90.34244098 -0.05958868 C110.33421685 -0.07330978 130.32595356 -0.06787879 150.31772853 -0.05640347 C168.59636177 -0.04647175 186.87489377 -0.05941141 205.15351139 -0.08333766 C223.93470255 -0.10773601 242.71584658 -0.1173347 261.49705327 -0.11068493 C272.03619082 -0.10719432 282.57525052 -0.10941435 293.11437607 -0.12693596 C302.08615277 -0.14166713 311.0577968 -0.14228138 320.02957092 -0.12486505 C324.60426209 -0.11636021 329.17871635 -0.11419288 333.75339508 -0.1295166 C337.94683719 -0.14338905 342.13984 -0.13856791 346.33325686 -0.11927737 C347.84460029 -0.11552487 349.35597914 -0.11841759 350.86729096 -0.12888902 C365.24581383 -0.22137471 376.54224668 2.66532391 387.45193481 12.38768005 C397.72366474 23.3276452 400.75766137 34.69454109 400.78787231 49.40330505 C400.79452911 50.53669312 400.80118591 51.67008118 400.80804443 52.83781433 C400.81812734 55.22128179 400.82286281 57.60477723 400.82254028 59.98826599 C400.82693773 63.64009904 400.8633714 67.29074601 400.90115356 70.94236755 C400.90701768 73.26267593 400.91098978 75.58299003 400.91287231 77.90330505 C400.92724335 78.995 400.94161438 80.08669495 400.9564209 81.21147156 C400.95026764 82.226427 400.94411438 83.24138245 400.93777466 84.28709412 C400.94062469 85.17785645 400.94347473 86.06861877 400.94641113 86.9863739 C400.29279649 90.16049732 398.92251254 91.3629704 396.45193481 93.38768005 C394.45193481 93.9540863 394.45193481 93.9540863 392.45193481 93.95018005 C391.79193481 93.97209412 391.13193481 93.99400818 390.45193481 94.0165863 C387.14322124 92.97615098 386.24483271 91.34320328 384.45193481 88.38768005 C383.87840898 84.76957646 383.94239184 81.18871741 383.98318481 77.5322113 C383.97613525 76.47539658 383.96908569 75.41858185 383.96182251 74.32974243 C383.93239871 69.82052452 383.94889973 65.31174053 383.96121216 60.80247498 C383.96360754 57.50379599 383.94258917 54.20580459 383.92068481 50.9072113 C383.93200439 49.90269424 383.94332397 48.89817719 383.95498657 47.86322021 C383.89837275 39.8456224 381.89862679 33.52823571 377.82693481 26.63768005 C366.99947306 16.38008471 354.79008289 16.08568732 340.57376099 16.13371277 C339.07907809 16.13140512 337.58439632 16.12822656 336.08971691 16.12425828 C332.00421563 16.11594346 327.91880832 16.12002042 323.83330679 16.12623072 C319.41879243 16.13076781 315.0042939 16.12376522 310.58978271 16.11827087 C301.95033842 16.10938864 293.31092892 16.11129367 284.67148328 16.11709616 C277.64853966 16.12161724 270.62560579 16.12222361 263.60266113 16.12004852 C262.60222249 16.11974206 261.60178385 16.11943559 260.57102889 16.11911984 C258.53850754 16.11848037 256.50598619 16.11783195 254.47346485 16.11717466 C235.42504982 16.11147479 216.37665405 16.11802387 197.32824218 16.12877539 C180.99218477 16.13771058 164.65615578 16.13615845 148.32009888 16.12693787 C129.33874322 16.11622918 110.35740444 16.11202408 91.37604618 16.11816239 C89.35110029 16.11879948 87.32615439 16.11942822 85.3012085 16.12004852 C84.30495758 16.12035707 83.30870666 16.12066563 82.28226632 16.12098353 C75.2696757 16.12270867 68.2570958 16.11979926 61.24450684 16.11508942 C52.69577498 16.10947394 44.14707985 16.11101107 35.59835219 16.1216509 C31.23864964 16.12689862 26.87900825 16.1289797 22.51930618 16.1223526 C18.52469292 16.1163724 14.53019725 16.11970229 10.53559458 16.1303077 C9.09427272 16.13253297 7.65294082 16.13142517 6.21162546 16.12655613 C-5.91199403 16.08875721 -16.79791222 16.46988342 -26.54806519 24.38768005 C-33.9087417 32.88895727 -34.84552215 41.00578746 -34.82272339 51.9072113 C-34.82783432 53.16641388 -34.83294525 54.42561646 -34.83821106 55.72297668 C-34.85156215 59.16509296 -34.85218422 62.60709918 -34.84964776 66.0492363 C-34.84857567 68.92699086 -34.85346737 71.80472336 -34.85825318 74.68247318 C-34.86933433 81.47257205 -34.86979325 88.26261559 -34.86373901 95.05271912 C-34.85769601 102.04988595 -34.87002161 109.04685186 -34.89130908 116.04398441 C-34.90893732 122.06029826 -34.91492463 128.07654821 -34.91167134 134.09288692 C-34.9098607 137.68238735 -34.91247288 141.27174435 -34.92638588 144.86122131 C-34.94132041 148.86366284 -34.9319835 152.86569625 -34.92037964 156.8681488 C-34.92802338 158.05274689 -34.93566711 159.23734497 -34.94354248 160.45783997 C-34.89872942 168.34217756 -34.89872942 168.34217756 -31.54806519 175.38768005 C-26.38614437 180.27792083 -21.85856525 181.63659339 -14.83316326 181.64494896 C-14.16794833 181.64845503 -13.50273339 181.65196111 -12.81736043 181.65557343 C-10.58442025 181.66489025 -8.35174072 181.65996346 -6.11878967 181.65510559 C-4.50325203 181.65884171 -2.8877162 181.66344308 -1.27218324 181.66883624 C3.17051273 181.68108637 7.61313351 181.6808034 12.05584252 181.67844748 C16.84601196 181.67803983 21.63615713 181.68907358 26.42631531 181.69856262 C35.81240248 181.71518461 45.19846454 181.72067271 54.5845652 181.72178738 C62.21310028 181.72273728 69.84162707 181.72684468 77.47015953 181.73318863 C99.09240883 181.75080427 120.71463826 181.76002699 142.33689479 181.75852768 C143.50286825 181.75844777 144.66884171 181.75836786 145.87014771 181.75828552 C147.0375427 181.75820376 148.2049377 181.758122 149.40770831 181.75803776 C168.32954305 181.75722476 187.25129821 181.77636521 206.17310993 181.80456226 C225.59596567 181.83327786 245.01878259 181.84710328 264.44166011 181.8453747 C275.34851388 181.84471035 286.25528423 181.85022265 297.16211891 181.8717308 C306.44813231 181.88992517 315.73402446 181.89430428 325.02004794 181.88071196 C329.75825713 181.87417352 334.4962336 181.8740967 339.23442078 181.89141846 C343.57279077 181.90711551 347.91074285 181.90432012 352.24910244 181.88685019 C353.81772743 181.88377286 355.38638336 181.88744028 356.95497189 181.89857034 C368.28839496 181.97643204 368.28839496 181.97643204 378.45193481 177.38768005 C382.39793314 173.23932284 383.57156849 170.08974911 383.59378052 164.44480896 C383.60081497 163.44011566 383.60784943 162.43542236 383.61509705 161.40028381 C383.62134346 159.77369339 383.62134346 159.77369339 383.62771606 158.11424255 C383.650911 155.82256667 383.6750282 153.53089997 383.69998169 151.23924255 C383.73512532 147.62264328 383.76445815 144.0063826 383.77786255 140.38963318 C383.79332375 136.90158559 383.83351974 133.41452884 383.87771606 129.92674255 C383.87580765 128.8463974 383.87389923 127.76605225 383.87193298 126.65296936 C383.99432351 119.14966397 383.99432351 119.14966397 386.36282349 115.20579529 C388.62091709 113.24061788 389.50058948 112.72718617 392.45193481 112.82518005 C393.11193481 112.82389099 393.77193481 112.82260193 394.45193481 112.8212738 C397.34357584 113.64019558 398.54557519 115.09343307 400.45193481 117.38768005 C400.96659851 119.8759613 400.96659851 119.8759613 400.98538208 122.70018005 C401.00121841 123.76228699 401.01705475 124.82439392 401.03337097 125.91868591 C401.02593117 127.63583801 401.02593117 127.63583801 401.01834106 129.38768005 C401.02453964 130.57434265 401.03073822 131.76100525 401.03712463 132.98362732 C401.04423168 135.49867432 401.04103352 138.01376827 401.02835083 140.52879333 C401.01458534 144.34594047 401.04842737 148.16058755 401.08670044 151.9775238 C401.08765266 154.42674315 401.08578732 156.87596552 401.08084106 159.32518005 C401.09409927 160.45375427 401.10735748 161.58232849 401.12101746 162.74510193 C401.00681835 172.65257376 398.51270909 181.36672027 391.76443481 188.82518005 C385.70069823 194.32724728 379.47698681 197.05017139 371.45193481 198.38768005 C371.12193481 276.26768005 370.79193481 354.14768005 370.45193481 434.38768005 C373.09193481 435.04768005 375.73193481 435.70768005 378.45193481 436.38768005 C389.02093132 441.71339904 395.38357814 449.40984158 399.45193481 460.38768005 C400.69024246 464.20275209 400.63109889 468.03433829 400.65505981 472.00486755 C400.66075989 472.73964325 400.66645996 473.47441895 400.67233276 474.23146057 C400.68175855 475.78303091 400.6883071 477.33462105 400.69216919 478.88621521 C400.70187342 481.24773909 400.73291772 483.60839148 400.76443481 485.9697113 C400.77096593 487.48142492 400.77621598 488.99314472 400.78005981 490.50486755 C400.79240662 491.20506012 400.80475342 491.90525269 400.81747437 492.62666321 C400.79012492 498.70824449 399.06472416 502.56268158 395.07693481 507.07518005 C390.10209802 511.45777438 386.89635177 512.7626278 380.20604229 512.7707901 C379.48342265 512.77574962 378.76080301 512.78070913 378.01628581 512.78581893 C375.58797525 512.79880173 373.16021216 512.79038206 370.73188782 512.78208923 C368.97610515 512.78697688 367.2203257 512.7931661 365.46455175 512.80054712 C360.6341748 512.81698596 355.80396064 512.81462069 350.97356546 512.80917215 C345.76620555 512.80650679 340.55888951 512.82102451 335.35154724 512.83326721 C325.1472935 512.85434473 314.94309655 512.85886072 304.73882362 512.85707933 C296.445716 512.8557728 288.15262614 512.85957026 279.85952187 512.86700439 C277.47261995 512.86910355 275.08571804 512.87120115 272.69881612 512.87329721 C271.51086017 512.87434074 270.32290421 512.87538427 269.09894959 512.87645942 C246.61984714 512.89537136 224.1407773 512.89430875 201.66167019 512.88749009 C181.09085418 512.88191467 160.52016272 512.90273838 139.94937583 512.93585056 C118.83601647 512.96957275 97.7227168 512.98475768 76.60933 512.98013353 C64.75231134 512.97788726 52.89540778 512.98315503 41.03841209 513.00802612 C30.94356735 513.02902027 20.8489008 513.03264998 10.75404879 513.01372653 C5.60265076 513.00455689 0.45158516 513.00346336 -4.69978714 513.02408218 C-9.4157103 513.04274942 -14.13102781 513.03833642 -18.84692761 513.01553637 C-20.552832 513.01133984 -22.25878244 513.01558593 -23.96463821 513.02913231 C-39.35488433 513.14302307 -39.35488433 513.14302307 -45.16123503 508.76475763 C-50.5665854 503.39741918 -51.7085444 498.35042648 -51.78634644 491.04393005 C-51.79441818 490.31959778 -51.80248993 489.5952655 -51.81080627 488.84898376 C-51.8246338 487.31242756 -51.83536192 485.77584082 -51.8432312 484.23924255 C-51.8546823 482.68576397 -51.8750237 481.13232257 -51.90475464 479.5790863 C-52.17329883 465.53677532 -50.30617541 454.52702331 -40.36056519 443.82518005 C-34.71760719 438.36386234 -29.28153118 435.67659105 -21.54806519 434.38768005 C-21.87806519 356.50768005 -22.20806519 278.62768005 -22.54806519 198.38768005 C-25.51806519 197.72768005 -28.48806519 197.06768005 -31.54806519 196.38768005 C-40.69924013 192.07316214 -47.16443763 184.63169805 -50.73518372 175.2850914 C-52.23879264 169.92567097 -52.10273178 164.58151034 -52.06564331 159.05027771 C-52.07265259 157.75136093 -52.07966187 156.45244415 -52.08688354 155.11416626 C-52.10498657 151.57878682 -52.0981031 148.04387877 -52.0853672 144.50849199 C-52.07516704 140.78920346 -52.08465259 137.06995253 -52.09091187 133.35066223 C-52.09816984 127.10511612 -52.08865137 120.85975978 -52.06954956 114.61424255 C-52.04780333 107.4216302 -52.05482304 100.22947189 -52.07685518 93.0368706 C-52.09508514 86.83437043 -52.09753008 80.63200592 -52.08710051 74.42948759 C-52.08090458 70.73699544 -52.07992065 67.04471571 -52.09324646 63.3522377 C-52.10708904 59.22918158 -52.08783228 55.10689119 -52.06564331 50.98387146 C-52.07374023 49.78037552 -52.08183716 48.57687958 -52.09017944 47.33691406 C-51.97983203 36.20409151 -49.20171005 26.38967017 -42.54806519 17.38768005 C-42.13040894 16.7947113 -41.71275269 16.20174255 -41.28244019 15.59080505 C-30.85483213 2.04690034 -15.95015317 -0.0694394 0 0 Z M-5.54806519 198.38768005 C-5.54806519 275.93768005 -5.54806519 353.48768005 -5.54806519 433.38768005 C32.73193481 433.38768005 71.01193481 433.38768005 110.45193481 433.38768005 C109.64628917 422.5802815 109.64628917 422.5802815 108.23684692 411.89793396 C108.06106361 410.77542992 108.06106361 410.77542992 107.88172913 409.63024902 C107.63122968 408.03356118 107.37856965 406.43721095 107.12385368 404.84119034 C106.71900015 402.29971972 106.32173121 399.75716176 105.92643738 397.21418762 C104.80309781 389.99361124 103.66978804 382.77464379 102.5239563 375.55760193 C101.81924625 371.11556476 101.12587346 366.67187269 100.43918037 362.22701645 C100.17831147 360.55292453 99.91329203 358.87947305 99.64372063 357.20676041 C95.01640491 328.47399778 95.01640491 328.47399778 101.60818481 316.9228363 C106.45154156 310.26322078 112.50685376 307.24762469 120.52204895 305.85379028 C125.13086544 305.30715443 129.63165761 305.24006684 134.26760864 305.24241638 C135.22792496 305.23905777 136.18824127 305.23569916 137.17765808 305.23223877 C140.3381074 305.22277502 143.49850348 305.22078796 146.65896606 305.2197113 C148.86703004 305.21649554 151.07509381 305.21313122 153.28315735 305.20962524 C157.90721124 305.20364541 162.53124647 305.20178417 167.15530396 305.20237732 C173.06297337 305.20247887 178.97052242 305.18882844 184.87816334 305.17160511 C189.4379582 305.16045393 193.99772425 305.15845907 198.55753136 305.15898705 C200.73469139 305.15781157 202.91185227 305.15341419 205.08899879 305.14565468 C208.14210932 305.13579181 211.19496219 305.13875762 214.24807739 305.14476013 C215.13620117 305.13914062 216.02432495 305.13352112 216.93936157 305.12773132 C227.8662002 305.18196802 237.02449688 307.07525699 245.45193481 314.38768005 C253.48411537 324.38870313 252.08161625 336.29133825 251.45193481 348.38768005 C252.70748169 348.40185974 253.96302856 348.41603943 255.25662231 348.4306488 C274.32743504 348.87056869 274.32743504 348.87056869 280.45193481 354.38768005 C285.29907278 360.657831 286.22421074 366.657969 285.45193481 374.38768005 C284.57151852 378.81985329 283.46196778 383.16871143 282.25369263 387.52000427 C281.70204792 389.51227156 281.17336323 391.5096313 280.64724731 393.5087738 C275.71676095 411.89040673 275.71676095 411.89040673 268.45193481 416.38768005 C262.80377925 418.83910528 257.1949608 418.78927496 251.13943481 418.95018005 C249.14321254 419.0098256 247.14710256 419.07340586 245.15115356 419.1415863 C244.27289917 419.16551453 243.39464478 419.18944275 242.48977661 419.21409607 C240.45811467 419.16665315 240.45811467 419.16665315 239.45193481 420.38768005 C239.12193481 424.67768005 238.79193481 428.96768005 238.45193481 433.38768005 C276.73193481 433.38768005 315.01193481 433.38768005 354.45193481 433.38768005 C354.45193481 355.83768005 354.45193481 278.28768005 354.45193481 198.38768005 C315.18193481 198.38768005 275.91193481 198.38768005 235.45193481 198.38768005 C235.12193481 206.96768005 234.79193481 215.54768005 234.45193481 224.38768005 C229.66382506 238.75200932 229.66382506 238.75200932 221.95584106 243.28611755 C217.01955143 245.45777695 211.7310409 246.39784766 206.45193481 247.38768005 C206.414552 248.46146912 206.37716919 249.53525818 206.33865356 250.6415863 C206.2729437 252.07781625 206.20649814 253.51401267 206.13943481 254.95018005 C206.10559692 256.00688904 206.10559692 256.00688904 206.07107544 257.08494568 C205.76582001 263.10680274 204.4584846 267.91293532 200.57693481 272.70018005 C195.74809891 276.53484386 190.90938234 276.70656945 184.93240356 276.72361755 C184.11500198 276.73027435 183.2976004 276.73693115 182.45542908 276.74378967 C180.72992188 276.75388884 179.00437584 276.75860754 177.27883911 276.75828552 C174.65813742 276.76264891 172.03913473 276.79896835 169.41873169 276.8368988 C167.73579469 276.84276978 166.05284976 276.84673729 164.36990356 276.84861755 C163.59567551 276.86298859 162.82144745 276.87735962 162.02375793 276.89216614 C156.44090606 276.84599595 152.10295769 275.54313416 147.45193481 272.38768005 C143.38232858 267.13657524 143.23657646 261.57971854 142.88943481 255.13768005 C142.84625122 254.39260193 142.80306763 253.6475238 142.75857544 252.87986755 C142.65296756 251.04933106 142.5519928 249.2185283 142.45193481 247.38768005 C141.60630981 247.22912537 140.76068481 247.07057068 139.88943481 246.9072113 C124.7637163 243.79612602 124.7637163 243.79612602 119.67068481 237.0165863 C111.81319265 224.54467068 114.08090325 214.7408595 113.45193481 198.38768005 C74.18193481 198.38768005 34.91193481 198.38768005 -5.54806519 198.38768005 Z M129.45193481 198.38768005 C127.45289585 217.14372279 127.45289585 217.14372279 133.95193481 229.13768005 C137.34077399 231.9617127 141.12657612 231.52602643 145.32254028 231.54881287 C146.36453583 231.55626022 146.36453583 231.55626022 147.42758179 231.56385803 C149.72477206 231.57845835 152.02189328 231.5852779 154.31912231 231.59080505 C155.91711427 231.59655805 157.51510622 231.60231576 159.11309814 231.608078 C162.46383994 231.61858177 165.81455778 231.62442859 169.16531372 231.62791443 C173.45495197 231.63339938 177.74427285 231.65742985 182.03381157 231.68588638 C185.3349703 231.7045265 188.63605276 231.70971908 191.93725967 231.71125031 C193.51848207 231.71427402 195.09970321 231.72229309 196.68087387 231.73543549 C198.89500719 231.75252602 201.10836742 231.75060889 203.32254028 231.74412537 C204.58146088 231.747771 205.84038147 231.75141663 207.13745117 231.75517273 C211.94158879 231.22251498 215.3703589 229.08557116 218.45193481 225.38768005 C221.29993606 216.84367631 219.45193481 207.39385078 219.45193481 198.38768005 C189.75193481 198.38768005 160.05193481 198.38768005 129.45193481 198.38768005 Z M158.45193481 247.38768005 C158.45193481 252.00768005 158.45193481 256.62768005 158.45193481 261.38768005 C169.01193481 261.38768005 179.57193481 261.38768005 190.45193481 261.38768005 C190.45193481 256.76768005 190.45193481 252.14768005 190.45193481 247.38768005 C179.89193481 247.38768005 169.33193481 247.38768005 158.45193481 247.38768005 Z M113.45193481 326.51268005 C110.93223063 333.75682958 112.56453683 341.16830863 114.45193481 348.38768005 C116.24050903 348.46115662 116.24050903 348.46115662 118.06521606 348.53611755 C119.63164549 348.61115609 121.1980506 348.68670346 122.76443481 348.76268005 C123.55011841 348.79361755 124.335802 348.82455505 125.14529419 348.85643005 C126.28128052 348.91443787 126.28128052 348.91443787 127.44021606 348.97361755 C128.48496094 349.0207489 128.48496094 349.0207489 129.55081177 349.0688324 C131.45193481 349.38768005 131.45193481 349.38768005 134.45193481 351.38768005 C135.28146753 354.83343132 135.78042528 357.34746025 134.70193481 360.76268005 C133.45193481 362.38768005 133.45193481 362.38768005 130.45193481 363.38768005 C128.05938906 363.61328681 125.66265359 363.796166 123.26443481 363.95018005 C121.99213013 364.03396912 120.71982544 364.11775818 119.40896606 364.2040863 C118.43314575 364.26467224 117.45732544 364.32525818 116.45193481 364.38768005 C116.84251203 367.06086413 117.23313904 369.7340409 117.62380981 372.4072113 C117.74627579 373.24523788 117.86874176 374.08326447 117.99491882 374.94668579 C118.67125193 379.573647 119.34838182 384.20048981 120.02688599 388.82713318 C120.3026895 390.70799168 120.57848702 392.58885105 120.85427856 394.4697113 C120.99129684 395.40404999 121.12831512 396.33838867 121.26948547 397.30104065 C121.99085019 402.22457779 122.70779002 407.14870032 123.4161377 412.0741272 C123.69465161 414.00915784 123.97510808 415.94390858 124.25564575 417.87864685 C124.58901146 420.1778145 124.91920727 422.4774445 125.24588013 424.77757263 C125.46582642 426.28613831 125.46582642 426.28613831 125.69021606 427.82518005 C125.87644531 429.12262146 125.87644531 429.12262146 126.06643677 430.4462738 C126.26457721 432.38560477 126.26457721 432.38560477 127.45193481 433.38768005 C130.3685111 433.48826249 133.26144427 433.52383216 136.17849731 433.51707458 C137.09387268 433.5188269 138.00924805 433.52057922 138.95236206 433.52238464 C141.9939053 433.52680466 145.03539093 433.52386464 148.07693481 433.52049255 C150.18061331 433.52116555 152.28429174 433.52213554 154.38796997 433.52339172 C158.8031793 433.5248689 163.21836845 433.52271351 167.63357544 433.51805115 C173.30686042 433.51235385 178.9800981 433.51563275 184.65338135 433.52162361 C188.99922037 433.52522869 193.34504809 433.52409088 197.69088745 433.52149582 C199.78337611 433.5208264 201.87586579 433.52165548 203.96835327 433.52397537 C206.88738747 433.52650103 209.80634394 433.52266253 212.72537231 433.51707458 C214.03607697 433.52011093 214.03607697 433.52011093 215.3732605 433.52320862 C219.22269723 433.88878895 219.22269723 433.88878895 222.45193481 432.38768005 C222.84200572 430.34919316 223.17418399 428.29960319 223.48342896 426.24729919 C223.62995155 425.28629555 223.62995155 425.28629555 223.7794342 424.30587769 C224.1026781 422.17878479 224.41995226 420.05084731 224.73709106 417.9228363 C224.95954526 416.44927228 225.18232257 414.97575699 225.40541077 413.50228882 C225.8727489 410.40985439 226.33735255 407.31702594 226.79983521 404.22386169 C227.39344467 400.2540285 227.99193373 396.28495149 228.5922327 392.31612492 C229.05247362 389.27178146 229.51106315 386.22719128 229.96905327 383.18250847 C230.18925098 381.71879603 230.40974641 380.25512835 230.63054085 378.79150581 C230.93851323 376.74704969 231.24448855 374.70230516 231.54983521 372.65745544 C231.72446793 371.49242996 231.89910065 370.32740448 232.07902527 369.1270752 C232.49689628 366.51816968 232.49689628 366.51816968 232.45193481 364.38768005 C231.55879578 364.38403442 230.66565674 364.38038879 229.74545288 364.37663269 C221.3288415 364.33876764 212.9126182 364.28193201 204.49628067 364.20377731 C200.16930879 364.16426616 195.84254153 364.13209571 191.51541138 364.11668396 C187.33951949 364.10154106 183.16418997 364.06713843 178.98854828 364.01937103 C177.3954024 364.00453264 175.80217624 363.99663763 174.20896149 363.9957962 C171.97716808 363.99343202 169.74693585 363.96640067 167.51541138 363.93357849 C166.24522156 363.92469604 164.97503174 363.9158136 163.66635132 363.90666199 C159.88655195 363.29639646 158.6811017 362.45641107 156.45193481 359.38768005 C155.95193481 355.82518005 155.95193481 355.82518005 156.45193481 352.38768005 C158.81864675 349.85675167 160.27957644 349.40856663 163.74227905 348.98895264 C165.04799866 348.97784958 166.35371826 348.96674652 167.69900513 348.95530701 C168.42135345 348.94511536 169.14370178 348.93492371 169.88793945 348.92442322 C172.26872519 348.89429809 174.64910854 348.88502832 177.03005981 348.8759613 C178.68345476 348.8591142 180.3368369 348.84096392 181.99020386 348.82156372 C186.3368225 348.77406074 190.68338921 348.74425341 195.03018188 348.71812439 C199.4677455 348.68832031 203.90513022 348.64178947 208.34255981 348.59666443 C217.04559693 348.51062793 225.74865032 348.44328432 234.45193481 348.38768005 C234.93654175 346.49976746 234.93654175 346.49976746 235.43093872 344.57371521 C235.70353012 343.51176437 235.70353012 343.51176437 235.98162842 342.42835999 C237.30074493 336.70465598 237.2854018 331.2546461 234.88943481 325.88768005 C230.79618393 321.68947402 226.52616269 320.25928095 220.79167175 320 C219.00153558 319.97929401 217.21116326 319.97482966 215.42092896 319.98362732 C214.43789291 319.97676407 213.45485687 319.96990082 212.44203186 319.96282959 C209.20690281 319.94459498 205.97226026 319.9483944 202.73709106 319.9540863 C200.47939395 319.94952296 198.22169823 319.94421694 195.96400452 319.9382019 C191.23734893 319.92927737 186.51086236 319.93168661 181.78421021 319.94163513 C175.73716871 319.95312464 169.69071118 319.9329097 163.64374638 319.90371799 C158.98277603 319.88534269 154.32194529 319.88565114 149.6609478 319.89135551 C147.43189106 319.89150856 145.20282475 319.8854781 142.97380257 319.87306404 C139.85294428 319.85813093 136.73316063 319.86884884 133.61233521 319.88597107 C132.6983194 319.8763031 131.78430359 319.86663513 130.84259033 319.85667419 C123.99482801 319.93505841 118.2646082 321.39921458 113.45193481 326.51268005 Z M248.45193481 364.38768005 C247.7549331 368.49480586 247.06130959 372.60248456 246.37063599 376.7106781 C246.13585738 378.10438444 245.90020101 379.49794324 245.66360474 380.89134216 C244.39378366 388.37335347 243.1800556 395.83028848 242.45193481 403.38768005 C245.22302788 403.44160403 247.99307299 403.4813146 250.76443481 403.51268005 C251.55011841 403.52943787 252.335802 403.54619568 253.14529419 403.5634613 C253.90261841 403.56990662 254.65994263 403.57635193 255.44021606 403.58299255 C256.48496094 403.598703 256.48496094 403.598703 257.55081177 403.61473083 C259.78310782 403.493426 259.78310782 403.493426 262.45193481 401.38768005 C263.63234125 398.40721284 263.63234125 398.40721284 264.53005981 394.84080505 C264.705755 394.19198364 264.8814502 393.54316223 265.06246948 392.87467957 C265.43105392 391.50096979 265.79380899 390.12568458 266.15115356 388.74900818 C266.69749406 386.65470295 267.26857088 384.56830389 267.84255981 382.48143005 C268.1982453 381.14329117 268.55245961 379.80476021 268.90505981 378.46580505 C269.22635864 377.25311951 269.54765747 376.04043396 269.87869263 374.79100037 C270.47137145 371.27228537 270.39669953 368.81772571 269.45193481 365.38768005 C267.10340953 364.21341741 265.71419416 364.27259832 263.10037231 364.2900238 C261.82420044 364.29485779 261.82420044 364.29485779 260.52224731 364.29978943 C259.63279419 364.30816833 258.74334106 364.31654724 257.82693481 364.32518005 C256.48115356 364.33194763 256.48115356 364.33194763 255.10818481 364.33885193 C252.88936833 364.35065414 250.67068463 364.3671185 248.45193481 364.38768005 Z M-30.48556519 457.32518005 C-31.03083862 457.97357849 -31.57611206 458.62197693 -32.13790894 459.2900238 C-36.58275118 465.90188055 -35.915321 472.8227081 -35.92306519 480.51268005 C-35.94755737 481.80045349 -35.97204956 483.08822693 -35.99728394 484.4150238 C-36.00115112 485.64607849 -36.00501831 486.87713318 -36.00900269 488.14549255 C-36.01722046 489.27100525 -36.02543823 490.39651794 -36.03390503 491.55613708 C-35.81603227 494.42113437 -35.81603227 494.42113437 -33.94991112 496.04105628 C-30.71292294 497.85591258 -28.33937506 497.76375672 -24.63269043 497.76520348 C-23.93366348 497.7695638 -23.23463653 497.77392412 -22.51442695 497.77841657 C-20.16037303 497.78940845 -17.80690047 497.77893287 -15.45285034 497.76863098 C-13.75282808 497.772086 -12.05280805 497.77684951 -10.35279274 497.78281271 C-5.67204355 497.79537384 -0.9914771 497.78912917 3.68927288 497.77985406 C8.73364712 497.77308478 13.77798925 497.78353424 18.82235718 497.79179382 C28.70791091 497.80515606 38.59339644 497.80224234 48.47895288 497.7935559 C56.51086647 497.78678955 64.5427609 497.78585809 72.57467651 497.78912735 C73.71642849 497.78958705 74.85818047 497.79004675 76.034531 497.79052038 C78.35374594 497.79147952 80.67296088 497.79245216 82.99217582 497.79343815 C104.75581852 497.80199934 126.51942335 497.79214648 148.28305984 497.77603705 C166.97022984 497.76263322 185.65734394 497.7649611 204.34451294 497.77879333 C226.02857955 497.79483628 247.71261294 497.8011753 269.39668465 497.79195654 C271.7075208 497.79100086 274.01835695 497.79005775 276.32919312 497.78912735 C277.46626375 497.78866452 278.60333438 497.7882017 279.77486169 497.78772485 C287.80010102 497.7851311 295.82531934 497.78951423 303.85055542 497.79656601 C313.62637584 497.80496694 323.40212397 497.80273057 333.17793608 497.78672378 C338.16875661 497.77882207 343.15945646 497.77578171 348.15027618 497.78567123 C352.71478716 497.79457943 357.27906505 497.7897496 361.84355474 497.77373858 C363.49894391 497.77037427 365.15435259 497.77212161 366.80972934 497.77936594 C369.05228997 497.78843069 371.29404231 497.77919164 373.53656006 497.76520348 C374.7844311 497.76471642 376.03230213 497.76422936 377.31798744 497.76372755 C380.69100074 497.35899414 382.1044082 496.80894647 384.45193481 494.38768005 C385.06972846 491.52629278 385.06972846 491.52629278 384.98318481 488.2509613 C384.98834106 487.03344177 384.99349731 485.81592224 384.99880981 484.56150818 C384.98334106 483.2872699 384.96787231 482.01303162 384.95193481 480.70018005 C384.96740356 479.44527771 384.98287231 478.19037537 384.99880981 476.89744568 C384.96312581 468.42695627 384.09190859 462.61712326 378.52224731 456.14549255 C377.55931763 455.33725037 377.55931763 455.33725037 376.57693481 454.51268005 C375.94013794 453.95838318 375.30334106 453.4040863 374.64724731 452.83299255 C369.9270994 449.72542187 365.29833905 449.13716363 359.74171734 449.13041115 C359.08915515 449.12690507 358.43659295 449.123399 357.76425615 449.11978668 C355.58036676 449.11049213 353.39674519 449.11539087 351.21284485 449.12025452 C349.63015521 449.11651727 348.04746741 449.11191546 346.46478254 449.10652387 C342.11748863 449.09428764 337.77027165 449.09455507 333.42296445 449.09691262 C328.73368033 449.09732063 324.04442093 449.0862832 319.35514832 449.07679749 C310.16872302 449.06018323 300.98232339 449.05468775 291.79588433 449.05357273 C284.32899498 449.05262248 276.8621141 449.04851336 269.39522743 449.04217148 C248.22665208 449.02455811 227.05809702 449.01533279 205.88951429 449.01683243 C204.74826492 449.01691234 203.60701555 449.01699225 202.43118286 449.01707458 C201.28854059 449.01715635 200.14589832 449.01723811 198.96863053 449.01732235 C180.44845883 449.01813533 161.92836844 448.99899471 143.40822025 448.97079785 C124.39326238 448.942076 105.37834417 448.92825716 86.36336404 448.9299854 C75.68732381 448.93064953 65.01136883 448.92514712 54.33534813 448.9036293 C45.24591696 448.88542674 36.15660969 448.8810626 27.0671682 448.89464815 C22.43008962 448.90118238 17.7932488 448.90127855 13.15619278 448.88394165 C8.90909496 448.86822608 4.66242372 448.87105897 0.41533641 448.88850991 C-1.11895644 448.89158315 -2.65328101 448.88793519 -4.18753646 448.87678976 C-14.10852052 448.80950786 -23.75775019 449.01822022 -30.48556519 457.32518005 Z " fill="#000000" transform="translate(81.54806518554688,-0.3876800537109375)"/>
<path d="M0 0 C13.63991224 10.90849405 22.77363957 23.86448591 25.71875 41.421875 C27.54080947 58.1240868 24.13295768 74.32640563 13.82421875 87.85546875 C11.63886049 90.35032507 9.3796614 92.69081638 7 95 C6.36320312 95.64582031 5.72640625 96.29164063 5.0703125 96.95703125 C-0.24307603 102.01687635 -6.28021443 105.14603702 -13 108 C-13.80566406 108.34289062 -14.61132812 108.68578125 -15.44140625 109.0390625 C-30.27550748 114.13456437 -47.89283295 111.9650244 -61.875 105.71484375 C-68.90867202 102.20777673 -74.45568851 97.52472028 -80 92 C-80.56460938 91.45859375 -81.12921875 90.9171875 -81.7109375 90.359375 C-91.75001981 79.84224115 -95.87880412 64.78444877 -96.4375 50.625 C-95.96725172 33.83918087 -89.64865062 18.60939926 -77.85546875 6.6953125 C-56.90839362 -13.07689248 -23.99843841 -16.60636928 0 0 Z M-71.24609375 23.546875 C-78.01652918 33.01643725 -81.12556859 44.43261815 -80 56 C-77.39924678 69.59225771 -71.05364554 80.24978701 -59.625 88.375 C-48.1125886 95.3258899 -35.87611831 97.09030804 -22.71484375 94.3046875 C-10.44988077 90.19911621 0.16643287 81.60279345 6 70 C7.18870373 67.04309948 8.14924573 64.06985455 9 61 C9.226875 60.195625 9.45375 59.39125 9.6875 58.5625 C11.3160035 45.20877127 8.22691027 33.10114861 0.02734375 22.43359375 C-8.19513294 12.70293792 -17.97408372 6.75840168 -30.765625 5.68359375 C-47.3681688 4.97884412 -60.5057554 10.7886549 -71.24609375 23.546875 Z " fill="#000000" transform="translate(291,48)"/>
<path d="M0 0 C0.73192566 -0.0065712 1.46385132 -0.0131424 2.21795654 -0.01991272 C4.64563089 -0.03965868 7.07324329 -0.05131219 9.50097656 -0.0612793 C10.33012825 -0.06535482 11.15927994 -0.06943035 12.01355743 -0.07362938 C16.40356701 -0.09449734 20.79354528 -0.10879494 25.18359375 -0.11816406 C29.7142609 -0.12921991 34.24443575 -0.16360789 38.77492905 -0.20333576 C42.26142274 -0.22950758 45.74779935 -0.23785647 49.23438263 -0.24144554 C50.90410938 -0.24631139 52.5738309 -0.25792541 54.24346161 -0.27648354 C56.58457663 -0.30088415 58.92442121 -0.2999087 61.265625 -0.29296875 C62.29453857 -0.31218384 62.29453857 -0.31218384 63.34423828 -0.33178711 C68.29893124 -0.27843304 71.05328111 1.12383248 74.89160156 4.17700195 C81.54559824 11.20066511 81.23702846 18.87320849 81.20727539 28.0625 C81.20411507 30.1057675 81.22761534 32.14758474 81.25292969 34.19067383 C81.25708597 42.59883348 81.03734985 48.22234697 75.70410156 54.92700195 C67.78258593 61.26421446 58.89868513 60.62082193 49.26269531 60.57543945 C47.74390015 60.57746384 46.22510594 60.5803783 44.70631409 60.58413696 C41.53499019 60.58854185 38.36392106 60.58218801 35.19262695 60.56811523 C31.14203625 60.55100953 27.09204141 60.56088458 23.04147243 60.57883263 C19.90920068 60.58970788 16.77706867 60.58620731 13.64479256 60.57844925 C12.15176382 60.57645832 10.6587221 60.57886731 9.16570854 60.58588791 C7.07457043 60.59356634 4.98437874 60.58181166 2.89331055 60.56518555 C1.11415504 60.56160538 1.11415504 60.56160538 -0.70094299 60.55795288 C-7.22235578 59.82886389 -11.85413576 57.25848238 -16.10839844 52.17700195 C-18.85286123 47.57511261 -19.49256521 44.17067364 -19.50683594 38.8371582 C-19.50970612 38.15197617 -19.51257629 37.46679413 -19.51553345 36.760849 C-19.51756408 35.31956144 -19.51210456 33.87824569 -19.49951172 32.43701172 C-19.48346657 30.2487934 -19.4993797 28.06242857 -19.51855469 25.87426758 C-19.51657159 24.46606043 -19.51272654 23.05785443 -19.50683594 21.6496582 C-19.50345215 20.38387939 -19.50006836 19.11810059 -19.49658203 17.81396484 C-18.97726657 12.94840359 -17.6832309 8.93772778 -14.35449219 5.21606445 C-13.75765625 4.74942383 -13.16082031 4.2827832 -12.54589844 3.80200195 C-11.94648437 3.31989258 -11.34707031 2.8377832 -10.72949219 2.34106445 C-7.237565 -0.16639169 -4.15288249 0.01608944 0 0 Z M-3.10839844 17.17700195 C-3.36141082 21.31662478 -3.29362392 25.46806191 -3.29589844 29.61450195 C-3.30814453 30.78561523 -3.32039063 31.95672852 -3.33300781 33.16333008 C-3.33494141 34.28030273 -3.336875 35.39727539 -3.33886719 36.5480957 C-3.34297607 37.57862061 -3.34708496 38.60914551 -3.35131836 39.67089844 C-3.35964912 42.34947599 -3.35964912 42.34947599 -1.10839844 44.17700195 C1.66987984 44.48448018 1.66987984 44.48448018 4.96191406 44.43579102 C6.87399658 44.4452475 6.87399658 44.4452475 8.82470703 44.45489502 C10.22200661 44.45131534 11.61930493 44.44721341 13.01660156 44.44262695 C14.44384833 44.44397366 15.87109465 44.44591425 17.29833984 44.44842529 C20.29106001 44.45137629 23.28366087 44.44707977 26.27636719 44.43774414 C30.1167653 44.42634951 33.95688388 44.43290912 37.79727173 44.44488907 C40.74489456 44.45210838 43.69245087 44.44981944 46.64007568 44.44463348 C48.05629509 44.44329718 49.4725205 44.44494405 50.88873291 44.44959259 C52.86625049 44.4546587 54.84378918 44.44557103 56.82128906 44.43579102 C57.94776855 44.43419983 59.07424805 44.43260864 60.23486328 44.43096924 C63.04633992 44.44667011 63.04633992 44.44667011 64.89160156 42.17700195 C65.18640927 39.57249338 65.18640927 39.57249338 65.12207031 36.5480957 C65.12013672 35.43112305 65.11820312 34.31415039 65.11621094 33.16333008 C65.10396484 31.9922168 65.09171875 30.82110352 65.07910156 29.61450195 C65.07845703 28.43952148 65.0778125 27.26454102 65.07714844 26.05395508 C65.56219996 20.75241768 65.56219996 20.75241768 63.89160156 16.17700195 C61.8414731 16.07760569 59.78788765 16.04900643 57.73535156 16.04760742 C56.41728516 16.04445526 55.09921875 16.0413031 53.74121094 16.03805542 C52.29134081 16.0398452 50.84147098 16.04189615 49.39160156 16.04418945 C47.91568994 16.04351638 46.43977843 16.04254632 44.96386719 16.04129028 C41.86685127 16.03981347 38.76986414 16.04196731 35.67285156 16.04663086 C31.69451608 16.05232815 27.71624805 16.04904905 23.73791504 16.0430584 C20.68912239 16.03945232 17.64034585 16.04059158 14.59155273 16.04318619 C13.1242675 16.04385533 11.65698082 16.04302748 10.18969727 16.04070663 C8.14241563 16.03817939 6.0951289 16.04271135 4.04785156 16.04760742 C2.88060547 16.04840302 1.71335937 16.04919861 0.51074219 16.05001831 C-2.03479292 15.87938484 -2.03479292 15.87938484 -3.10839844 17.17700195 Z " fill="#000000" transform="translate(89.1083984375,68.822998046875)"/>
<path d="M0 0 C0.73192566 -0.0065712 1.46385132 -0.0131424 2.21795654 -0.01991272 C4.64563089 -0.03965868 7.07324329 -0.05131219 9.50097656 -0.0612793 C10.33012825 -0.06535482 11.15927994 -0.06943035 12.01355743 -0.07362938 C16.40356701 -0.09449734 20.79354528 -0.10879494 25.18359375 -0.11816406 C29.7142609 -0.12921991 34.24443575 -0.16360789 38.77492905 -0.20333576 C42.26142274 -0.22950758 45.74779935 -0.23785647 49.23438263 -0.24144554 C50.90410938 -0.24631139 52.5738309 -0.25792541 54.24346161 -0.27648354 C56.58457663 -0.30088415 58.92442121 -0.2999087 61.265625 -0.29296875 C62.29453857 -0.31218384 62.29453857 -0.31218384 63.34423828 -0.33178711 C69.04532892 -0.27039554 72.48316451 1.88870071 76.53613281 5.73950195 C82.00001809 12.46428383 81.14153783 19.39998418 81.18676758 27.71118164 C81.19826831 29.18133178 81.21869028 30.65144079 81.24829102 32.12133789 C81.55389473 47.31615953 81.55389473 47.31615953 76.89160156 54.17700195 C71.72035265 59.34825086 66.13859133 60.42399554 59.00341797 60.45166016 C58.34239578 60.45677109 57.6813736 60.46188202 57.00032043 60.46714783 C54.83117428 60.48096354 52.66234879 60.48009303 50.49316406 60.4777832 C48.97390629 60.48167487 47.45464959 60.48601051 45.93539429 60.49076843 C42.75637276 60.49821364 39.57746233 60.49795199 36.3984375 60.49267578 C32.34119009 60.48688682 28.28440003 60.50380622 24.22722816 60.52702045 C21.09064105 60.54181268 17.95416266 60.54262201 14.81754684 60.53951073 C13.32254507 60.5400213 11.82753678 60.54520905 10.33256912 60.55532265 C-6.75870464 60.65675699 -6.75870464 60.65675699 -13.92089844 54.92700195 C-19.62467255 47.75654307 -19.58395212 41.21626606 -19.49951172 32.27099609 C-19.4834614 30.24743947 -19.49939327 28.22588754 -19.51855469 26.20239258 C-19.47357522 11.12677515 -19.47357522 11.12677515 -14.35449219 5.1184082 C-13.75765625 4.66336914 -13.16082031 4.20833008 -12.54589844 3.73950195 C-11.94648438 3.26641602 -11.34707031 2.79333008 -10.72949219 2.3059082 C-7.21541329 -0.14124554 -4.14598423 0.01606271 0 0 Z M-3.10839844 17.17700195 C-3.36141082 21.31662478 -3.29362392 25.46806191 -3.29589844 29.61450195 C-3.30814453 30.78561523 -3.32039063 31.95672852 -3.33300781 33.16333008 C-3.33494141 34.28030273 -3.336875 35.39727539 -3.33886719 36.5480957 C-3.34297607 37.57862061 -3.34708496 38.60914551 -3.35131836 39.67089844 C-3.35964912 42.34947599 -3.35964912 42.34947599 -1.10839844 44.17700195 C1.66987984 44.48448018 1.66987984 44.48448018 4.96191406 44.43579102 C6.87399658 44.4452475 6.87399658 44.4452475 8.82470703 44.45489502 C10.22200661 44.45131534 11.61930493 44.44721341 13.01660156 44.44262695 C14.44384833 44.44397366 15.87109465 44.44591425 17.29833984 44.44842529 C20.29106001 44.45137629 23.28366087 44.44707977 26.27636719 44.43774414 C30.1167653 44.42634951 33.95688388 44.43290912 37.79727173 44.44488907 C40.74489456 44.45210838 43.69245087 44.44981944 46.64007568 44.44463348 C48.05629509 44.44329718 49.4725205 44.44494405 50.88873291 44.44959259 C52.86625049 44.4546587 54.84378918 44.44557103 56.82128906 44.43579102 C57.94776855 44.43419983 59.07424805 44.43260864 60.23486328 44.43096924 C63.04633992 44.44667011 63.04633992 44.44667011 64.89160156 42.17700195 C65.18640927 39.57249338 65.18640927 39.57249338 65.12207031 36.5480957 C65.12013672 35.43112305 65.11820312 34.31415039 65.11621094 33.16333008 C65.10396484 31.9922168 65.09171875 30.82110352 65.07910156 29.61450195 C65.07845703 28.43952148 65.0778125 27.26454102 65.07714844 26.05395508 C65.56219996 20.75241768 65.56219996 20.75241768 63.89160156 16.17700195 C61.8414731 16.07760569 59.78788765 16.04900643 57.73535156 16.04760742 C56.41728516 16.04445526 55.09921875 16.0413031 53.74121094 16.03805542 C52.29134081 16.0398452 50.84147098 16.04189615 49.39160156 16.04418945 C47.91568994 16.04351638 46.43977843 16.04254632 44.96386719 16.04129028 C41.86685127 16.03981347 38.76986414 16.04196731 35.67285156 16.04663086 C31.69451608 16.05232815 27.71624805 16.04904905 23.73791504 16.0430584 C20.68912239 16.03945232 17.64034585 16.04059158 14.59155273 16.04318619 C13.1242675 16.04385533 11.65698082 16.04302748 10.18969727 16.04070663 C8.14241563 16.03817939 6.0951289 16.04271135 4.04785156 16.04760742 C2.88060547 16.04840302 1.71335937 16.04919861 0.51074219 16.05001831 C-2.03479292 15.87938484 -2.03479292 15.87938484 -3.10839844 17.17700195 Z " fill="#000000" transform="translate(361.1083984375,68.822998046875)"/>
<path d="M0 0 C2.35352451 1.56901634 2.87641182 2.6733741 3.875 5.3125 C4.07199522 9.5478972 2.25773241 12.5145413 -0.45828247 15.72232056 C-2.27000632 17.63274185 -4.12458834 19.48806689 -6.00390625 21.33203125 C-7.02254005 22.3478553 -7.02254005 22.3478553 -8.06175232 23.38420105 C-9.49135745 24.80710932 -10.92454325 26.2264281 -12.36108398 27.64233398 C-14.56565801 29.81561318 -16.75925158 31.9995129 -18.95117188 34.18554688 C-20.34312639 35.56833636 -21.73568364 36.95051944 -23.12890625 38.33203125 C-24.11643639 39.31318657 -24.11643639 39.31318657 -25.12391663 40.31416321 C-25.7347258 40.91536484 -26.34553497 41.51656647 -26.97485352 42.13598633 C-27.51207535 42.66638016 -28.04929718 43.19677399 -28.60279846 43.74324036 C-30.9493574 45.85393126 -32.13204543 46.00978114 -35.375 46.25 C-39 46 -39 46 -41.375 44.875 C-43.64943318 42.25065402 -43.93096951 40.45152438 -44 37 C-41.64638907 31.97705654 -37.66620193 28.39453098 -33.77734375 24.546875 C-33.0760585 23.84604797 -32.37477325 23.14522095 -31.65223694 22.42315674 C-30.17441565 20.94834791 -28.69417331 19.47596159 -27.21166992 18.00585938 C-24.93673607 15.74924222 -22.66996628 13.48466485 -20.40429688 11.21875 C-18.96661798 9.78598441 -17.52848268 8.35367662 -16.08984375 6.921875 C-15.40961655 6.24276062 -14.72938934 5.56364624 -14.02854919 4.86395264 C-13.08230431 3.92727753 -13.08230431 3.92727753 -12.11694336 2.97167969 C-11.56195663 2.42050476 -11.00696991 1.86932983 -10.43516541 1.30145264 C-7.03200263 -1.78464124 -4.30529363 -0.90637761 0 0 Z " fill="#000000" transform="translate(276,76)"/>
</svg>
