<?xml version="1.0" encoding="UTF-8"?>
<svg version="1.1" xmlns="http://www.w3.org/2000/svg" width="512" height="512">
<path d="M0 0 C0.87269531 -0.0038269 1.74539062 -0.00765381 2.64453125 -0.01159668 C4.48699092 -0.0143149 6.32948924 -0.00695994 8.171875 0.00976562 C10.99045934 0.03117752 13.80649485 0.00996199 16.625 -0.015625 C18.41667229 -0.01298171 20.20834299 -0.00785669 22 0 C22.84175781 -0.00809692 23.68351562 -0.01619385 24.55078125 -0.02453613 C25.33839844 -0.01192749 26.12601562 0.00068115 26.9375 0.01367188 C27.97197266 0.01844543 27.97197266 0.01844543 29.02734375 0.02331543 C31 0.53125 31 0.53125 35 4.53125 C35 16.41125 35 28.29125 35 40.53125 C145.88 40.53125 256.76 40.53125 371 40.53125 C371 28.65125 371 16.77125 371 4.53125 C375.5011443 0.0301057 375.5011443 0.0301057 379.0625 0.01367188 C380.24392578 -0.00524109 380.24392578 -0.00524109 381.44921875 -0.02453613 C382.29097656 -0.01643921 383.13273437 -0.00834229 384 0 C385.30904297 -0.00574036 385.30904297 -0.00574036 386.64453125 -0.01159668 C388.48699092 -0.0143149 390.32948924 -0.00695994 392.171875 0.00976562 C394.99045934 0.03117752 397.80649485 0.00996199 400.625 -0.015625 C402.41667229 -0.01298171 404.20834299 -0.00785669 406 0 C406.84175781 -0.00809692 407.68351562 -0.01619385 408.55078125 -0.02453613 C412.16414994 0.03330881 414.39672632 0.17077134 417.53808594 2.04785156 C419.61479272 5.57561732 419.49755831 8.82511115 419.390625 12.796875 C419.38496521 13.59027283 419.37930542 14.38367065 419.37347412 15.20111084 C419.35113147 17.72844473 419.30094176 20.25434665 419.25 22.78125 C419.22993214 24.49737532 419.21168187 26.21352292 419.1953125 27.9296875 C419.15127395 32.1307578 419.08226326 36.33076135 419 40.53125 C420.24088379 40.4998291 420.24088379 40.4998291 421.50683594 40.46777344 C425.2544337 40.38463381 429.00183749 40.33259469 432.75 40.28125 C434.05195313 40.24773438 435.35390625 40.21421875 436.6953125 40.1796875 C437.94570313 40.16679688 439.19609375 40.15390625 440.484375 40.140625 C442.21252441 40.1092041 442.21252441 40.1092041 443.97558594 40.07714844 C447 40.53125 447 40.53125 449.37402344 41.99316406 C451.79154944 45.76682778 451.57354476 49.13427844 451.53125 53.53125 C451.5350769 54.40394531 451.53890381 55.27664062 451.54284668 56.17578125 C451.5455649 58.01824092 451.53820994 59.86073924 451.52148438 61.703125 C451.50007248 64.52170934 451.52128801 67.33774485 451.546875 70.15625 C451.54423171 71.94792229 451.53910669 73.73959299 451.53125 75.53125 C451.53934692 76.37300781 451.54744385 77.21476562 451.55578613 78.08203125 C451.53687317 79.26345703 451.53687317 79.26345703 451.51757812 80.46875 C451.51439575 81.15839844 451.51121338 81.84804687 451.50793457 82.55859375 C451 84.53125 451 84.53125 447 88.53125 C437.76 88.53125 428.52 88.53125 419 88.53125 C419 196.77125 419 305.01125 419 416.53125 C422.96 416.53125 426.92 416.53125 431 416.53125 C435.51373512 421.04498512 435.50240831 421.53398892 435.51757812 427.53125 C435.52809204 428.57587402 435.52809204 428.57587402 435.53881836 429.64160156 C435.55639196 431.93855932 435.54477919 434.23428021 435.53125 436.53125 C435.53394513 438.13021073 435.53782773 439.72916987 435.54284668 441.328125 C435.54874082 444.67724226 435.54018192 448.02593243 435.52148438 451.375 C435.49869435 455.66603591 435.51181796 459.95607111 435.53577423 464.24707031 C435.5502348 467.54825366 435.54562515 470.84920011 435.53526306 474.15039062 C435.53259646 475.73242308 435.53586322 477.31447711 435.54518127 478.89648438 C435.55535179 481.10865163 435.5398419 483.319203 435.51757812 485.53125 C435.51439575 486.789375 435.51121338 488.0475 435.50793457 489.34375 C435 492.53125 435 492.53125 433.40515137 494.93640137 C430.14220018 497.10005448 427.90404089 497.03895302 424 497.04882812 C423.30358398 497.0558374 422.60716797 497.06284668 421.88964844 497.07006836 C419.59269068 497.08764196 417.29696979 497.07602919 415 497.0625 C413.40103927 497.06519513 411.80208013 497.06907773 410.203125 497.07409668 C406.85400774 497.07999082 403.50531757 497.07143192 400.15625 497.05273438 C395.86521409 497.02994435 391.57517889 497.04306796 387.28417969 497.06702423 C383.98299634 497.0814848 380.68204989 497.07687515 377.38085938 497.06651306 C375.79882692 497.06384646 374.21677289 497.06711322 372.63476562 497.07643127 C370.42259837 497.08660179 368.212047 497.0710919 366 497.04882812 C364.741875 497.04564575 363.48375 497.04246338 362.1875 497.03918457 C359 496.53125 359 496.53125 356.59484863 494.93640137 C354.43119552 491.67345018 354.49229698 489.43529089 354.48242188 485.53125 C354.47190796 484.48662598 354.47190796 484.48662598 354.46118164 483.42089844 C354.44360804 481.12394068 354.45522081 478.82821979 354.46875 476.53125 C354.46605487 474.93228927 354.46217227 473.33333013 354.45715332 471.734375 C354.45125918 468.38525774 354.45981808 465.03656757 354.47851562 461.6875 C354.50130565 457.39646409 354.48818204 453.10642889 354.46422577 448.81542969 C354.4497652 445.51424634 354.45437485 442.21329989 354.46473694 438.91210938 C354.46740354 437.33007692 354.46413678 435.74802289 354.45481873 434.16601562 C354.44464821 431.95384837 354.4601581 429.743297 354.48242188 427.53125 C354.48560425 426.273125 354.48878662 425.015 354.49206543 423.71875 C355 420.53125 355 420.53125 359 416.53125 C362.96 416.53125 366.92 416.53125 371 416.53125 C371 308.29125 371 200.05125 371 88.53125 C365.72 88.53125 360.44 88.53125 355 88.53125 C355.04640625 90.50609375 355.0928125 92.4809375 355.140625 94.515625 C355.17813988 97.10415157 355.21454034 99.69269446 355.25 102.28125 C355.28351563 103.58320312 355.31703125 104.88515625 355.3515625 106.2265625 C355.36445313 107.47695312 355.37734375 108.72734375 355.390625 110.015625 C355.41157227 111.16772461 355.43251953 112.31982422 355.45410156 113.50683594 C354.88773738 117.27894317 353.98864665 118.22028629 351 120.53125 C347.984375 120.921875 347.984375 120.921875 344.75 120.78125 C343.67234375 120.74515625 342.5946875 120.7090625 341.484375 120.671875 C340.66453125 120.62546875 339.8446875 120.5790625 339 120.53125 C338.94360635 138.07367783 338.93314325 155.61546019 338.97665405 173.15791035 C338.99580015 181.30409775 339.00018307 189.44978341 338.96923828 197.59594727 C338.94228978 204.70012101 338.9436251 211.80364462 338.97825909 218.90779465 C338.99561149 222.6661279 338.99925194 226.42329756 338.96896362 230.18157387 C338.94083698 233.72725974 338.95084379 237.27089382 338.98873711 240.81646919 C338.99956548 242.72164494 338.97118848 244.62692074 338.94117737 246.53189087 C339.07450131 254.49532477 340.85807004 258.94301037 346.00439453 265.04628277 C352.79105961 273.49717179 355.30661943 284.00924072 355.3359375 294.60546875 C355.3425943 295.45172318 355.3492511 296.2979776 355.35610962 297.1698761 C355.36618044 298.94729453 355.37092838 300.72475034 355.37060547 302.50219727 C355.37500443 305.22149106 355.41145132 307.93919309 355.44921875 310.65820312 C355.45508297 312.39061948 355.459055 314.12304349 355.4609375 315.85546875 C355.47530853 316.66594162 355.48967957 317.47641449 355.50448608 318.31144714 C355.47512028 321.92851214 355.32415893 324.08775689 353.15966797 327.04907227 C348.93768141 329.94661696 343.92725114 328.74547831 339 328.53125 C339 334.14125 339 339.75125 339 345.53125 C340.65 346.19125 342.3 346.85125 344 347.53125 C345.87890625 348.7578125 345.87890625 348.7578125 347.5625 350.15625 C348.12066406 350.60226562 348.67882812 351.04828125 349.25390625 351.5078125 C355.50439596 358.75110931 355.61956986 365.98469327 355.5 375.28125 C355.51546875 376.49941406 355.5309375 377.71757812 355.546875 378.97265625 C355.54171875 380.14183594 355.5365625 381.31101562 355.53125 382.515625 C355.52673828 383.57491211 355.52222656 384.63419922 355.51757812 385.72558594 C354.83565722 389.42211189 354.06427208 390.33314376 351 392.53125 C347.69242578 393.13704747 344.41719058 393.077366 341.0625 393.04882812 C339.54970459 393.05934204 339.54970459 393.05934204 338.00634766 393.07006836 C334.67061886 393.08768218 331.33573752 393.0760131 328 393.0625 C325.68359209 393.06519393 323.36718528 393.06907551 321.05078125 393.07409668 C316.19520302 393.07999634 311.33991904 393.07141338 306.484375 393.05273438 C300.25635354 393.02994496 294.02902155 393.04306548 287.80102539 393.06702423 C283.01752515 393.08146932 278.23418873 393.07688205 273.45068359 393.06651306 C271.15413329 393.06384223 268.85756817 393.067128 266.56103516 393.07643127 C263.3527886 393.08657527 260.14566294 393.07112483 256.9375 393.04882812 C255.98568848 393.05692505 255.03387695 393.06502197 254.05322266 393.07336426 C247.64046884 392.99068001 247.64046884 392.99068001 244.41125488 390.67425537 C242.53907443 387.83132968 242.4831985 385.90792683 242.46875 382.515625 C242.46359375 381.34644531 242.4584375 380.17726563 242.453125 378.97265625 C242.46859375 377.75449219 242.4840625 376.53632813 242.5 375.28125 C242.48453125 374.07855469 242.4690625 372.87585938 242.453125 371.63671875 C242.48967848 363.31166427 243.45523218 357.56757742 249 351.25390625 C249.66 350.70605469 250.32 350.15820312 251 349.59375 C251.66 349.02785156 252.32 348.46195312 253 347.87890625 C255 346.53125 255 346.53125 259 345.53125 C259 339.92125 259 334.31125 259 328.53125 C257.1025 328.61375 255.205 328.69625 253.25 328.78125 C247.70501239 329.02233642 247.70501239 329.02233642 244.84692383 327.03149414 C242.26535715 323.53673877 242.40717846 320.31947905 242.43359375 316.13671875 C242.42739517 315.31230789 242.42119659 314.48789703 242.41481018 313.63850403 C242.40770896 311.88930437 242.41089139 310.14003716 242.42358398 308.39086914 C242.43725862 305.76509955 242.40362188 303.14303591 242.36523438 300.51757812 C242.29019039 284.36445547 245.55662852 271.15532469 256.57810688 258.75583267 C258.37195882 255.94931235 258.3834259 254.20451591 258.39872742 250.887146 C258.41126556 249.73732239 258.42380371 248.58749878 258.4367218 247.40283203 C258.43528671 246.1455127 258.43385162 244.88819336 258.43237305 243.59277344 C258.44139141 242.2522898 258.45171881 240.91181442 258.46325684 239.5713501 C258.49084467 235.93531753 258.5001137 232.29944136 258.50611091 228.66331768 C258.51548999 224.86225367 258.54169297 221.06130669 258.56611633 217.26031494 C258.60979792 210.06394679 258.63833465 202.86760133 258.66143972 195.67114091 C258.68848253 187.47766641 258.73239458 179.28430955 258.77772844 171.09091902 C258.87059846 154.23775656 258.94226836 137.3845687 259 120.53125 C258.18015625 120.57765625 257.3603125 120.6240625 256.515625 120.671875 C255.43796875 120.70796875 254.3603125 120.7440625 253.25 120.78125 C252.18265625 120.82765625 251.1153125 120.8740625 250.015625 120.921875 C247 120.53125 247 120.53125 243 116.53125 C243 107.29125 243 98.05125 243 88.53125 C216.6 88.53125 190.2 88.53125 163 88.53125 C163 97.77125 163 107.01125 163 116.53125 C159 120.53125 159 120.53125 155.984375 120.921875 C154.91703125 120.87546875 153.8496875 120.8290625 152.75 120.78125 C151.67234375 120.74515625 150.5946875 120.7090625 149.484375 120.671875 C148.66453125 120.62546875 147.8446875 120.5790625 147 120.53125 C146.94360635 138.07367783 146.93314325 155.61546019 146.97665405 173.15791035 C146.99580015 181.30409775 147.00018307 189.44978341 146.96923828 197.59594727 C146.94228978 204.70012101 146.9436251 211.80364462 146.97825909 218.90779465 C146.99561149 222.6661279 146.99925194 226.42329756 146.96896362 230.18157387 C146.94083698 233.72725974 146.95084379 237.27089382 146.98873711 240.81646919 C146.99956548 242.72164494 146.97118848 244.62692074 146.94117737 246.53189087 C147.07450131 254.49532477 148.85807004 258.94301037 154.00439453 265.04628277 C160.79105961 273.49717179 163.30661943 284.00924072 163.3359375 294.60546875 C163.3459227 295.87485039 163.3459227 295.87485039 163.35610962 297.1698761 C163.36618044 298.94729453 163.37092838 300.72475034 163.37060547 302.50219727 C163.37500443 305.22149106 163.41145132 307.93919309 163.44921875 310.65820312 C163.45508297 312.39061948 163.459055 314.12304349 163.4609375 315.85546875 C163.47530853 316.66594162 163.48967957 317.47641449 163.50448608 318.31144714 C163.47512028 321.92851214 163.32415893 324.08775689 161.15966797 327.04907227 C156.93768141 329.94661696 151.92725114 328.74547831 147 328.53125 C147 334.14125 147 339.75125 147 345.53125 C148.65 346.19125 150.3 346.85125 152 347.53125 C153.87890625 348.7578125 153.87890625 348.7578125 155.5625 350.15625 C156.12066406 350.60226562 156.67882812 351.04828125 157.25390625 351.5078125 C163.50439596 358.75110931 163.61956986 365.98469327 163.5 375.28125 C163.51546875 376.49941406 163.5309375 377.71757812 163.546875 378.97265625 C163.54171875 380.14183594 163.5365625 381.31101562 163.53125 382.515625 C163.52673828 383.57491211 163.52222656 384.63419922 163.51757812 385.72558594 C162.83565722 389.42211189 162.06427208 390.33314376 159 392.53125 C155.69242578 393.13704747 152.41719058 393.077366 149.0625 393.04882812 C147.54970459 393.05934204 147.54970459 393.05934204 146.00634766 393.07006836 C142.67061886 393.08768218 139.33573752 393.0760131 136 393.0625 C133.68359209 393.06519393 131.36718528 393.06907551 129.05078125 393.07409668 C124.19520302 393.07999634 119.33991904 393.07141338 114.484375 393.05273438 C108.25635354 393.02994496 102.02902155 393.04306548 95.80102539 393.06702423 C91.01752515 393.08146932 86.23418873 393.07688205 81.45068359 393.06651306 C79.15413329 393.06384223 76.85756817 393.067128 74.56103516 393.07643127 C71.3527886 393.08657527 68.14566294 393.07112483 64.9375 393.04882812 C63.98568848 393.05692505 63.03387695 393.06502197 62.05322266 393.07336426 C55.64046884 392.99068001 55.64046884 392.99068001 52.41125488 390.67425537 C50.53907443 387.83132968 50.4831985 385.90792683 50.46875 382.515625 C50.46101563 380.76185547 50.46101563 380.76185547 50.453125 378.97265625 C50.46859375 377.75449219 50.4840625 376.53632813 50.5 375.28125 C50.47679688 373.47720703 50.47679688 373.47720703 50.453125 371.63671875 C50.48967848 363.31166427 51.45523218 357.56757742 57 351.25390625 C57.66 350.70605469 58.32 350.15820312 59 349.59375 C59.66 349.02785156 60.32 348.46195312 61 347.87890625 C63 346.53125 63 346.53125 67 345.53125 C67 339.92125 67 334.31125 67 328.53125 C65.1025 328.61375 63.205 328.69625 61.25 328.78125 C55.70501239 329.02233642 55.70501239 329.02233642 52.84692383 327.03149414 C50.26535715 323.53673877 50.40717846 320.31947905 50.43359375 316.13671875 C50.42739517 315.31230789 50.42119659 314.48789703 50.41481018 313.63850403 C50.40770896 311.88930437 50.41089139 310.14003716 50.42358398 308.39086914 C50.43725862 305.76509955 50.40362188 303.14303591 50.36523438 300.51757812 C50.29019039 284.36445547 53.55662852 271.15532469 64.57810688 258.75583267 C66.37195882 255.94931235 66.3834259 254.20451591 66.39872742 250.887146 C66.41753464 249.16241058 66.41753464 249.16241058 66.4367218 247.40283203 C66.43456917 245.51685303 66.43456917 245.51685303 66.43237305 243.59277344 C66.44139141 242.2522898 66.45171881 240.91181442 66.46325684 239.5713501 C66.49084467 235.93531753 66.5001137 232.29944136 66.50611091 228.66331768 C66.51548999 224.86225367 66.54169297 221.06130669 66.56611633 217.26031494 C66.60979792 210.06394679 66.63833465 202.86760133 66.66143972 195.67114091 C66.68848253 187.47766641 66.73239458 179.28430955 66.77772844 171.09091902 C66.87059846 154.23775656 66.94226836 137.3845687 67 120.53125 C66.18015625 120.57765625 65.3603125 120.6240625 64.515625 120.671875 C63.43796875 120.70796875 62.3603125 120.7440625 61.25 120.78125 C60.18265625 120.82765625 59.1153125 120.8740625 58.015625 120.921875 C55 120.53125 55 120.53125 52.63775635 118.70465088 C50.38622952 115.71673977 50.54189589 113.72697625 50.609375 110.015625 C50.62226562 108.76523438 50.63515625 107.51484375 50.6484375 106.2265625 C50.68195313 104.92460938 50.71546875 103.62265625 50.75 102.28125 C50.76804687 100.96382813 50.78609375 99.64640625 50.8046875 98.2890625 C50.85183118 95.03614844 50.92357384 91.78360783 51 88.53125 C45.72 88.53125 40.44 88.53125 35 88.53125 C35 196.77125 35 305.01125 35 416.53125 C38.96 416.53125 42.92 416.53125 47 416.53125 C51.51373512 421.04498512 51.50240831 421.53398892 51.51757812 427.53125 C51.5245874 428.22766602 51.53159668 428.92408203 51.53881836 429.64160156 C51.55639196 431.93855932 51.54477919 434.23428021 51.53125 436.53125 C51.53394513 438.13021073 51.53782773 439.72916987 51.54284668 441.328125 C51.54874082 444.67724226 51.54018192 448.02593243 51.52148438 451.375 C51.49869435 455.66603591 51.51181796 459.95607111 51.53577423 464.24707031 C51.5502348 467.54825366 51.54562515 470.84920011 51.53526306 474.15039062 C51.53259646 475.73242308 51.53586322 477.31447711 51.54518127 478.89648438 C51.55535179 481.10865163 51.5398419 483.319203 51.51757812 485.53125 C51.51439575 486.789375 51.51121338 488.0475 51.50793457 489.34375 C51 492.53125 51 492.53125 49.40515137 494.93640137 C46.14220018 497.10005448 43.90404089 497.03895302 40 497.04882812 C39.30358398 497.0558374 38.60716797 497.06284668 37.88964844 497.07006836 C35.59269068 497.08764196 33.29696979 497.07602919 31 497.0625 C29.40103927 497.06519513 27.80208013 497.06907773 26.203125 497.07409668 C22.85400774 497.07999082 19.50531757 497.07143192 16.15625 497.05273438 C11.86521409 497.02994435 7.57517889 497.04306796 3.28417969 497.06702423 C-0.01700366 497.0814848 -3.31795011 497.07687515 -6.61914062 497.06651306 C-8.20117308 497.06384646 -9.78322711 497.06711322 -11.36523438 497.07643127 C-13.57740163 497.08660179 -15.787953 497.0710919 -18 497.04882812 C-19.258125 497.04564575 -20.51625 497.04246338 -21.8125 497.03918457 C-25 496.53125 -25 496.53125 -27.40515137 494.93640137 C-29.56880448 491.67345018 -29.50770302 489.43529089 -29.51757812 485.53125 C-29.52809204 484.48662598 -29.52809204 484.48662598 -29.53881836 483.42089844 C-29.55639196 481.12394068 -29.54477919 478.82821979 -29.53125 476.53125 C-29.53394513 474.93228927 -29.53782773 473.33333013 -29.54284668 471.734375 C-29.54874082 468.38525774 -29.54018192 465.03656757 -29.52148438 461.6875 C-29.49869435 457.39646409 -29.51181796 453.10642889 -29.53577423 448.81542969 C-29.5502348 445.51424634 -29.54562515 442.21329989 -29.53526306 438.91210938 C-29.53259646 437.33007692 -29.53586322 435.74802289 -29.54518127 434.16601562 C-29.55535179 431.95384837 -29.5398419 429.743297 -29.51757812 427.53125 C-29.51439575 426.273125 -29.51121338 425.015 -29.50793457 423.71875 C-29 420.53125 -29 420.53125 -25 416.53125 C-21.04 416.53125 -17.08 416.53125 -13 416.53125 C-13 308.29125 -13 200.05125 -13 88.53125 C-22.24 88.53125 -31.48 88.53125 -41 88.53125 C-45.5011443 84.0301057 -45.5011443 84.0301057 -45.51757812 80.46875 C-45.53649109 79.28732422 -45.53649109 79.28732422 -45.55578613 78.08203125 C-45.54768921 77.24027344 -45.53959229 76.39851563 -45.53125 75.53125 C-45.5350769 74.65855469 -45.53890381 73.78585938 -45.54284668 72.88671875 C-45.5455649 71.04425908 -45.53820994 69.20176076 -45.52148438 67.359375 C-45.50007248 64.54079066 -45.52128801 61.72475515 -45.546875 58.90625 C-45.54423171 57.11457771 -45.53910669 55.32290701 -45.53125 53.53125 C-45.53934692 52.68949219 -45.54744385 51.84773438 -45.55578613 50.98046875 C-45.49677844 47.29446774 -45.39287016 45.14450498 -43.37402344 41.99316406 C-40.23776717 40.06187009 -38.1559854 40.07386845 -34.484375 40.140625 C-33.23398437 40.15351562 -31.98359375 40.16640625 -30.6953125 40.1796875 C-28.74238281 40.22996094 -28.74238281 40.22996094 -26.75 40.28125 C-25.43257812 40.29929688 -24.11515625 40.31734375 -22.7578125 40.3359375 C-19.50447692 40.38308729 -16.25260375 40.44888956 -13 40.53125 C-13.02094727 39.46165039 -13.04189453 38.39205078 -13.06347656 37.29003906 C-13.13594626 33.31686827 -13.18182463 29.34375575 -13.21972656 25.37011719 C-13.23982628 23.65126721 -13.26711089 21.93248548 -13.30175781 20.21386719 C-13.35035034 17.74136511 -13.37298435 15.2697679 -13.390625 12.796875 C-13.41127014 12.03006409 -13.43191528 11.26325317 -13.45318604 10.47320557 C-13.45456696 7.18024132 -13.22174082 4.90792796 -11.53808594 2.04785156 C-7.74753818 -0.21714292 -4.34149811 -0.04176116 0 0 Z M3 16.53125 C3 148.53125 3 280.53125 3 416.53125 C8.28 416.53125 13.56 416.53125 19 416.53125 C19 284.53125 19 152.53125 19 16.53125 C13.72 16.53125 8.44 16.53125 3 16.53125 Z M387 16.53125 C387 148.53125 387 280.53125 387 416.53125 C392.28 416.53125 397.56 416.53125 403 416.53125 C403 284.53125 403 152.53125 403 16.53125 C397.72 16.53125 392.44 16.53125 387 16.53125 Z M-29 56.53125 C-29 61.81125 -29 67.09125 -29 72.53125 C-23.72 72.53125 -18.44 72.53125 -13 72.53125 C-13 67.25125 -13 61.97125 -13 56.53125 C-18.28 56.53125 -23.56 56.53125 -29 56.53125 Z M35 56.53125 C35 61.81125 35 67.09125 35 72.53125 C145.88 72.53125 256.76 72.53125 371 72.53125 C371 67.25125 371 61.97125 371 56.53125 C260.12 56.53125 149.24 56.53125 35 56.53125 Z M419 56.53125 C419 61.81125 419 67.09125 419 72.53125 C424.28 72.53125 429.56 72.53125 435 72.53125 C435 67.25125 435 61.97125 435 56.53125 C429.72 56.53125 424.44 56.53125 419 56.53125 Z M67 88.53125 C67 93.81125 67 99.09125 67 104.53125 C93.4 104.53125 119.8 104.53125 147 104.53125 C147 99.25125 147 93.97125 147 88.53125 C120.6 88.53125 94.2 88.53125 67 88.53125 Z M259 88.53125 C259 93.81125 259 99.09125 259 104.53125 C285.4 104.53125 311.8 104.53125 339 104.53125 C339 99.25125 339 93.97125 339 88.53125 C312.6 88.53125 286.2 88.53125 259 88.53125 Z M83 120.53125 C83 161.78125 83 203.03125 83 245.53125 C87.29 244.21125 91.58 242.89125 96 241.53125 C99.80308734 241.17206953 103.22497397 240.96502147 107 241.03125 C108.32257813 241.00804687 108.32257813 241.00804687 109.671875 240.984375 C117.79607087 241.03133567 122.63617296 242.95776476 131 245.53125 C131 204.28125 131 163.03125 131 120.53125 C115.16 120.53125 99.32 120.53125 83 120.53125 Z M275 120.53125 C275 161.78125 275 203.03125 275 245.53125 C279.29 244.21125 283.58 242.89125 288 241.53125 C291.80308734 241.17206953 295.22497397 240.96502147 299 241.03125 C300.32257813 241.00804687 300.32257813 241.00804687 301.671875 240.984375 C309.79607087 241.03133567 314.63617296 242.95776476 323 245.53125 C323 204.28125 323 163.03125 323 120.53125 C307.16 120.53125 291.32 120.53125 275 120.53125 Z M76.25 271.34375 C66.23438767 283.41267693 67 297.28241582 67 312.53125 C93.4 312.53125 119.8 312.53125 147 312.53125 C147.11421842 288.3541487 147.11421842 288.3541487 135.375 268.15625 C125.98247817 259.47088715 115.45000769 257.02837734 103.12109375 257.25390625 C92.03194307 257.76500904 83.6407008 263.467643 76.25 271.34375 Z M268.25 271.34375 C258.23438767 283.41267693 259 297.28241582 259 312.53125 C285.4 312.53125 311.8 312.53125 339 312.53125 C339.11421842 288.3541487 339.11421842 288.3541487 327.375 268.15625 C317.98247817 259.47088715 307.45000769 257.02837734 295.12109375 257.25390625 C284.03194307 257.76500904 275.6407008 263.467643 268.25 271.34375 Z M83 328.53125 C83 333.81125 83 339.09125 83 344.53125 C98.84 344.53125 114.68 344.53125 131 344.53125 C131 339.25125 131 333.97125 131 328.53125 C115.16 328.53125 99.32 328.53125 83 328.53125 Z M275 328.53125 C275 333.81125 275 339.09125 275 344.53125 C290.84 344.53125 306.68 344.53125 323 344.53125 C323 339.25125 323 333.97125 323 328.53125 C307.16 328.53125 291.32 328.53125 275 328.53125 Z M69 363.53125 C66.21939819 367.9549347 67 370.89249631 67 376.53125 C93.4 376.53125 119.8 376.53125 147 376.53125 C147.25313245 368.72407089 147.25313245 368.72407089 144 362.53125 C140.16828909 360.54864657 136.92937148 360.27437989 132.65258789 360.2565918 C131.39100357 360.24705978 130.12941925 360.23752777 128.8296051 360.22770691 C127.46062187 360.22796836 126.09163862 360.2289055 124.72265625 360.23046875 C123.30927912 360.22657834 121.89590316 360.22224296 120.48252869 360.21748352 C117.52452804 360.21003521 114.56664679 360.2103025 111.60864258 360.21557617 C107.82804432 360.2213698 104.04793613 360.20443616 100.26741886 360.1812315 C97.34965687 360.16646176 94.43201204 360.16562682 91.51421928 360.16874123 C90.12083401 360.16822967 88.7274419 360.16302302 87.33409309 360.15292931 C85.38170268 360.14052034 83.42921281 360.14932 81.47680664 360.15893555 C80.36825821 360.15830612 79.25970978 360.1576767 78.11756897 360.1570282 C74.50949833 360.59012806 72.10194164 361.66457001 69 363.53125 Z M261 363.53125 C258.21939819 367.9549347 259 370.89249631 259 376.53125 C285.4 376.53125 311.8 376.53125 339 376.53125 C339.25313245 368.72407089 339.25313245 368.72407089 336 362.53125 C332.16828909 360.54864657 328.92937148 360.27437989 324.65258789 360.2565918 C323.39100357 360.24705978 322.12941925 360.23752777 320.8296051 360.22770691 C319.46062187 360.22796836 318.09163862 360.2289055 316.72265625 360.23046875 C315.30927912 360.22657834 313.89590316 360.22224296 312.48252869 360.21748352 C309.52452804 360.21003521 306.56664679 360.2103025 303.60864258 360.21557617 C299.82804432 360.2213698 296.04793613 360.20443616 292.26741886 360.1812315 C289.34965687 360.16646176 286.43201204 360.16562682 283.51421928 360.16874123 C282.12083401 360.16822967 280.7274419 360.16302302 279.33409309 360.15292931 C277.38170268 360.14052034 275.42921281 360.14932 273.47680664 360.15893555 C272.36825821 360.15830612 271.25970978 360.1576767 270.11756897 360.1570282 C266.50949833 360.59012806 264.10194164 361.66457001 261 363.53125 Z M-13 432.53125 C-13 448.37125 -13 464.21125 -13 480.53125 C2.84 480.53125 18.68 480.53125 35 480.53125 C35 464.69125 35 448.85125 35 432.53125 C19.16 432.53125 3.32 432.53125 -13 432.53125 Z M371 432.53125 C371 448.37125 371 464.21125 371 480.53125 C386.84 480.53125 402.68 480.53125 419 480.53125 C419 464.69125 419 448.85125 419 432.53125 C403.16 432.53125 387.32 432.53125 371 432.53125 Z " fill="#000000" transform="translate(53,7.46875)"/>
<path d="M0 0 C3.63303084 1.69586126 5.94549046 3.73800488 8.75 6.625 C9.54921875 7.44226563 10.3484375 8.25953125 11.171875 9.1015625 C11.77515625 9.72804688 12.3784375 10.35453125 13 11 C11.22256187 15.62133915 8.93994379 17.06005621 5 21 C43.28 21 81.56 21 121 21 C118.36 18.36 115.72 15.72 113 13 C114.92140868 9.15718264 116.5926816 7.19568073 119.625 4.25 C120.85089844 3.05117188 120.85089844 3.05117188 122.1015625 1.828125 C122.72804688 1.22484375 123.35453125 0.6215625 124 0 C127.83418237 1.58078388 130.26189306 4.01807328 133.16796875 6.9375 C133.64825027 7.41823975 134.1285318 7.89897949 134.62336731 8.39428711 C135.6333707 9.40730151 136.64095273 10.4227352 137.64624023 11.44042969 C139.18746045 12.99995998 140.73658712 14.5512857 142.28710938 16.1015625 C150.81714453 24.67429784 150.81714453 24.67429784 151.5 29.625 C151.44075922 33.33106991 150.55339362 34.97372 148.05859375 37.6796875 C147.42356934 38.3711084 146.78854492 39.0625293 146.13427734 39.77490234 C142.33157265 43.73942426 138.46728331 47.63612095 134.5625 51.5 C133.73556641 52.32242188 132.90863281 53.14484375 132.05664062 53.9921875 C130.04005041 55.99712113 128.02114764 57.99966253 126 60 C122.36696916 58.30413874 120.05450954 56.26199512 117.25 53.375 C116.05117188 52.14910156 116.05117188 52.14910156 114.828125 50.8984375 C114.22484375 50.27195312 113.6215625 49.64546875 113 49 C114.77743813 44.37866085 117.06005621 42.93994379 121 39 C82.72 39 44.44 39 5 39 C7.64 41.64 10.28 44.28 13 47 C11.07859132 50.84281736 9.4073184 52.80431927 6.375 55.75 C5.14910156 56.94882812 5.14910156 56.94882812 3.8984375 58.171875 C3.27195313 58.77515625 2.64546875 59.3784375 2 60 C-1.83418237 58.41921612 -4.26189306 55.98192672 -7.16796875 53.0625 C-7.64825027 52.58176025 -8.1285318 52.10102051 -8.62336731 51.60571289 C-9.6333707 50.59269849 -10.64095273 49.5772648 -11.64624023 48.55957031 C-13.18746045 47.00004002 -14.73658712 45.4487143 -16.28710938 43.8984375 C-24.81714453 35.32570216 -24.81714453 35.32570216 -25.5 30.375 C-25.44075922 26.66893009 -24.55339362 25.02628 -22.05859375 22.3203125 C-21.42356934 21.6288916 -20.78854492 20.9374707 -20.13427734 20.22509766 C-16.33157265 16.26057574 -12.46728331 12.36387905 -8.5625 8.5 C-7.73556641 7.67757813 -6.90863281 6.85515625 -6.05664062 6.0078125 C-4.04005041 4.00287887 -2.02114764 2.00033747 0 0 Z " fill="#000000" transform="translate(193,426)"/>
</svg>
