<?xml version="1.0" encoding="UTF-8"?>
<svg version="1.1" xmlns="http://www.w3.org/2000/svg" width="512" height="512">
<path d="M0 0 C1.13122284 -0.00990463 2.26244568 -0.01980927 3.427948 -0.03001404 C4.65975296 -0.02551239 5.89155792 -0.02101074 7.16069031 -0.01637268 C9.11760803 -0.02666756 9.11760803 -0.02666756 11.11405945 -0.03717041 C14.68657205 -0.05509685 18.25883894 -0.05393403 21.83138299 -0.04822803 C24.81826228 -0.04513421 27.80509451 -0.05123103 30.79196709 -0.05726677 C37.84248636 -0.07130981 44.89288448 -0.06975369 51.94340515 -0.05836487 C59.20470975 -0.04689435 66.46564455 -0.0609416 73.7269004 -0.08776134 C79.97083768 -0.10995582 86.21465921 -0.116547 92.45863312 -0.11068493 C96.18350367 -0.10732179 99.90813743 -0.10968679 103.63297462 -0.12693596 C107.7908867 -0.14535014 111.94808532 -0.13117963 116.10600281 -0.11402893 C117.33173508 -0.1236969 118.55746735 -0.13336487 119.82034302 -0.14332581 C127.72394676 -0.07512687 133.11339718 0.91109609 139.35868835 6.0634613 C139.84337585 6.60357849 140.32806335 7.14369568 140.82743835 7.70018005 C143.07491762 10.08812677 145.3327365 12.32108106 147.82743835 14.45018005 C151.99289668 18.04985762 156.04067308 21.77014106 160.07743835 25.51268005 C160.72777039 26.11088562 161.37810242 26.70909119 162.04814148 27.32542419 C171.97673665 36.5648188 171.97673665 36.5648188 172.5657196 41.3056488 C172.59021179 42.05459412 172.61470398 42.80353943 172.63993835 43.57518005 C172.67732117 44.31123474 172.71470398 45.04728943 172.7532196 45.8056488 C171.62426456 52.65188076 166.70059367 57.51219721 161.95243835 62.20018005 C161.4007196 62.77187927 160.84900085 63.34357849 160.28056335 63.93260193 C155.77660801 68.43127094 152.08209314 70.29585823 145.57743835 70.51268005 C137.62561283 69.23552261 131.41827604 61.67341101 126.0579071 56.12205505 C123.50331729 53.56169867 120.76966379 51.22314669 118.0266571 48.8681488 C116.7501439 47.75596834 115.52460821 46.58484991 114.32743835 45.38768005 C112.39057706 45.05832625 112.39057706 45.05832625 110.15312195 45.0688324 C109.28034607 45.04877136 108.40757019 45.02871033 107.50834656 45.00804138 C106.59013123 44.99668152 105.67191589 44.98532166 104.72587585 44.97361755 C103.88258728 44.95597351 103.03929871 44.93832947 102.17045593 44.92015076 C99.01464549 44.8569949 95.85851281 44.81086963 92.70243835 44.76268005 C85.64868835 44.63893005 78.59493835 44.51518005 71.32743835 44.38768005 C71.32743835 58.57768005 71.32743835 72.76768005 71.32743835 87.38768005 C76.93743835 87.38768005 82.54743835 87.38768005 88.32743835 87.38768005 C96.87363866 90.42383016 102.37098542 96.35303717 106.32743835 104.38768005 C107.40627204 108.49531753 107.33079409 112.22551776 107.1516571 116.4540863 C106.00832706 131.96244432 106.00832706 131.96244432 111.1204071 145.84861755 C113.94859341 148.49466306 117.10298723 150.48445075 120.49247742 152.33885193 C123.28662367 153.9359318 125.63570919 155.99026518 128.07743835 158.07518005 C128.95528992 158.78932068 129.83314148 159.5034613 130.7375946 160.23924255 C135.05783775 163.82315467 139.21348942 167.5700457 143.32743835 171.38768005 C144.00419617 171.99869568 144.68095398 172.6097113 145.3782196 173.23924255 C165.99260844 192.65560077 178.51916198 223.14837836 179.41755867 251.20178413 C179.44983437 254.42962175 179.45117549 257.65603348 179.44096375 260.88401794 C179.44110977 262.1045285 179.4412558 263.32503906 179.44140625 264.58253479 C179.44083228 267.9021688 179.43584493 271.22173927 179.42883229 274.54136205 C179.42254675 278.02068596 179.42199086 281.50001088 179.42080688 284.9793396 C179.41770882 291.55579305 179.40951614 298.13222972 179.3994574 304.7086758 C179.38824871 312.20087989 179.38277386 319.69308482 179.37776196 327.18529522 C179.36733213 342.58609986 179.34976244 357.98688779 179.32743835 373.38768005 C197.85152873 373.32711854 216.37547441 373.24959952 234.89940739 373.15196514 C243.50064938 373.10702459 252.10185012 373.06760592 260.70317078 373.04124451 C268.20122742 373.01825032 275.69915335 372.98483643 283.1971063 372.93897849 C287.16619418 372.91506538 291.13515275 372.89632411 295.10431099 372.89006615 C298.84311783 372.88400659 302.58159391 372.86397562 306.32027817 372.83340454 C308.34065653 372.82047019 310.36111221 372.82219187 312.38153076 372.82440186 C319.50478683 372.75076317 325.40072922 372.68928527 331.06962585 367.9228363 C335.27437385 362.4566639 335.93906055 358.21560783 335.32743835 351.38768005 C332.67761987 336.23989879 325.85743768 324.81916267 313.51493835 315.51268005 C304.16229076 309.31655103 293.69174604 307.23301629 282.65336609 307.26170349 C281.79099335 307.25983536 280.92862061 307.25796722 280.04011536 307.25604248 C278.1729506 307.252048 276.30578098 307.24996452 274.43861198 307.24958038 C270.47021435 307.24615724 266.50197945 307.22479155 262.53363895 307.20434952 C255.14888315 307.16634229 247.7643052 307.13507115 240.37944031 307.13719177 C235.23819183 307.13797749 230.09754482 307.11468153 224.95645332 307.07530975 C222.99765284 307.06483237 221.03878308 307.06333847 219.07996941 307.070961 C216.34335175 307.08055248 213.60856792 307.0594616 210.87211609 307.03123474 C210.06213669 307.04143143 209.25215729 307.05162811 208.41763306 307.06213379 C204.50901101 306.98971775 202.72065797 306.756133 199.82073975 304.03886414 C198.00432184 300.81402402 197.78402648 299.03630266 198.32743835 295.38768005 C200.1072824 292.25176435 200.85052042 291.5466527 204.32743835 290.38768005 C207.04803537 290.28614734 209.74308909 290.24084338 212.46391296 290.24241638 C213.29363617 290.23905777 214.12335938 290.23569916 214.97822571 290.23223877 C217.72875966 290.22272119 220.47923269 290.22078461 223.2297821 290.2197113 C225.1473086 290.216497 227.06483486 290.21313279 228.98236084 290.20962524 C233.00990872 290.20363035 237.03743515 290.20178549 241.06498718 290.20237732 C246.1990904 290.20247844 251.33305376 290.18887993 256.46712399 290.17160511 C260.4333864 290.16042001 264.39961585 290.15846018 268.36589241 290.15898705 C270.25670919 290.15781465 272.14752704 290.15343496 274.03832817 290.14565468 C296.32433806 290.06260835 316.47898645 293.28804823 333.32743835 309.38768005 C345.91989974 322.74894434 353.09765781 340.12011632 352.6282196 358.55174255 C352.07807372 363.73883235 350.66193207 368.71869263 348.32743835 373.38768005 C349.48678894 373.36673279 350.64613953 373.34578552 351.84062195 373.32420349 C356.18294193 373.25125775 360.52520885 373.20568379 364.8679657 373.16795349 C366.73980345 373.14796143 368.61157974 373.12075837 370.48320007 373.08592224 C393.19280345 372.67412143 393.19280345 372.67412143 402.20243835 380.57518005 C408.56445733 387.70425096 410.01027337 394.53695959 409.7141571 404.01268005 C408.88837369 411.21951716 405.7387898 417.48092408 400.32743835 422.38768005 C396.64413475 424.71470723 392.79258925 426.64465243 388.88993835 428.57518005 C387.8657782 429.09531677 386.84161804 429.61545349 385.78642273 430.15135193 C377.6864231 434.25640028 377.6864231 434.25640028 374.27983093 435.50218201 C369.99822517 438.23656068 368.69302009 441.72164556 366.64775085 446.26268005 C366.02306412 447.58223694 366.02306412 447.58223694 365.38575745 448.92845154 C364.05686804 451.74025132 362.75286436 454.56261666 361.45243835 457.38768005 C350.54710695 480.91465857 339.42368348 498.97804858 314.44462585 509.3447113 C305.41915169 512.36451281 297.05452053 512.67766649 287.60748291 512.65510559 C286.11778707 512.65884645 284.6280932 512.6634497 283.1384024 512.66883624 C279.06205183 512.68102735 274.98578357 512.68081039 270.90941894 512.67844748 C266.50646897 512.67803834 262.10354505 512.68908757 257.7006073 512.69856262 C249.08175416 512.71515109 240.46292838 512.72067115 231.84406061 512.72178738 C224.83777776 512.72273866 217.83150392 512.72685293 210.82522392 512.73318863 C190.95220156 512.75079338 171.07920078 512.76002843 151.20617057 512.75852768 C150.13558103 512.75844777 149.06499149 512.75836786 147.96195984 512.75828552 C146.89006052 512.75820376 145.81816121 512.758122 144.7137801 512.75803776 C127.33581433 512.75722457 109.95793516 512.77637263 92.57999445 512.80456226 C74.72771915 512.83329247 56.8754861 512.84710255 39.0231871 512.8453747 C29.00388074 512.84471096 18.98466524 512.85019668 8.96537971 512.8717308 C0.4367257 512.88994415 -8.09179623 512.89428848 -16.62046128 512.88071196 C-20.97010251 512.87418375 -25.31949034 512.87405987 -29.66910744 512.89141846 C-33.65462079 512.90716025 -37.63968005 512.90427452 -41.6251824 512.88685019 C-43.06317265 512.88378278 -44.50119689 512.88740299 -45.93914705 512.89857034 C-58.05808572 512.98641872 -67.63325984 510.80358174 -76.67256165 502.38768005 C-85.30433697 493.11651396 -87.28986856 483.22560989 -87.2389679 470.86424255 C-87.24516647 469.60050812 -87.25136505 468.33677368 -87.25775146 467.03474426 C-87.26482073 464.38016783 -87.2636992 461.72712699 -87.24897766 459.07273865 C-87.23167743 455.67616124 -87.25545799 452.28125796 -87.29046726 448.88486671 C-87.31769531 445.62797118 -87.30771251 442.3712198 -87.3014679 439.11424255 C-87.32135521 437.28924728 -87.32135521 437.28924728 -87.34164429 435.42738342 C-87.24900856 427.08540415 -87.24900856 427.08540415 -84.3598175 423.58836365 C-80.69165606 421.94940499 -78.5045587 422.32323643 -74.67256165 423.38768005 C-72.0880088 425.28301881 -71.70980659 426.27594522 -70.67256165 429.38768005 C-70.58172271 431.07871515 -70.54744648 432.77306451 -70.54658508 434.46653748 C-70.54277832 435.5015892 -70.53897156 436.53664093 -70.53504944 437.60305786 C-70.53402222 438.72178787 -70.532995 439.84051788 -70.53193665 440.9931488 C-70.51360522 443.36229902 -70.49403461 445.7314399 -70.4733429 448.10057068 C-70.44440317 451.83551214 -70.42256234 455.5698556 -70.42207336 459.30491638 C-70.4187308 462.90986686 -70.38412619 466.51343845 -70.34443665 470.1181488 C-70.35150635 471.22675766 -70.35857605 472.33536652 -70.36585999 473.47756958 C-70.25782128 480.39353823 -69.19701966 485.04186526 -64.67256165 490.38768005 C-62.76893381 492.24694075 -62.76893381 492.24694075 -60.73506165 493.32518005 C-60.10728821 493.70545349 -59.47951477 494.08572693 -58.8327179 494.4775238 C-53.68566914 496.64617183 -48.18423376 496.53310238 -42.68457031 496.52139282 C-41.89766825 496.52365838 -41.11076619 496.52592394 -40.30001861 496.52825814 C-37.67247556 496.53457049 -35.04498447 496.53377056 -32.41743469 496.53294373 C-30.52969801 496.53593695 -28.64196195 496.53933985 -26.75422668 496.54312134 C-21.63223694 496.55194906 -16.5102639 496.55429894 -11.38826728 496.55493712 C-8.18638228 496.55564834 -4.98450152 496.55778401 -1.78261757 496.56043434 C9.39298649 496.56968377 20.56857864 496.57376974 31.7441864 496.57298279 C42.15286841 496.57238213 52.56149857 496.58293256 62.97016746 496.59872645 C71.91388197 496.61181267 80.85757956 496.61716623 89.80130357 496.61652738 C95.13970303 496.61627271 100.4780564 496.61910701 105.8164463 496.62970543 C110.83891009 496.63940456 115.86128391 496.63945312 120.88375092 496.6321888 C122.72312998 496.63114521 124.56251469 496.63349241 126.40188408 496.63954926 C128.92085952 496.64730425 131.43952695 496.64260136 133.95849609 496.63491821 C135.03946319 496.64263356 135.03946319 496.64263356 136.142268 496.65050477 C143.02376863 496.60440725 150.45396641 496.03896115 155.70243835 491.20018005 C156.32892273 490.64975037 156.9554071 490.09932068 157.60087585 489.5322113 C162.29157137 483.70598543 162.7639983 478.09462921 162.70838928 470.89736938 C162.71306925 469.960788 162.71774923 469.02420662 162.72257102 468.05924398 C162.73450698 464.93054018 162.72506873 461.80227554 162.71562195 458.67356873 C162.71968856 456.42590581 162.72503095 454.1782449 162.73155212 451.93058777 C162.74522936 445.82869878 162.739923 439.72696199 162.73041487 433.62507033 C162.72281016 427.22597457 162.7298671 420.82689169 162.73457336 414.42779541 C162.74038257 402.9809638 162.7310584 391.53421616 162.71579535 380.08739875 C162.702428 369.7432036 162.70469105 359.39910964 162.71855164 349.05491638 C162.73467351 337.01765481 162.74054395 324.98046957 162.73171484 312.94319326 C162.72705931 306.58114499 162.72635384 300.21916611 162.73632431 293.85712242 C162.74506151 287.86277805 162.73884994 281.86862232 162.72164154 275.8742981 C162.71771052 273.68716557 162.71875182 271.50001687 162.72542953 269.31289101 C162.77016272 253.15782895 162.19517414 236.93391875 156.20243835 221.70018005 C155.90385925 220.91965271 155.60528015 220.13912537 155.2976532 219.33494568 C147.63973761 200.10985632 134.41802182 184.75075337 118.40556335 171.8915863 C114.26394613 168.52258041 110.22538144 165.03957598 106.18632507 161.54881287 C105.62703308 161.06638123 105.06774109 160.58394958 104.49150085 160.0868988 C103.75601013 159.45014221 103.75601013 159.45014221 103.00566101 158.80052185 C102.45184753 158.33428406 101.89803406 157.86804626 101.32743835 157.38768005 C100.66526306 156.71085175 100.00308777 156.03402344 99.32084656 155.33668518 C95.11999907 152.60151753 91.67051972 152.78943578 86.75468445 152.79075623 C85.79626648 152.77571548 84.83784851 152.76067474 83.85038757 152.74517822 C80.6836947 152.70210925 77.51783821 152.68940276 74.35087585 152.6806488 C72.1423461 152.6652492 69.93381945 152.64939882 67.72529602 152.63311768 C63.09342023 152.60465261 58.46183844 152.59324746 53.82987976 152.59153748 C47.91459951 152.58636642 42.00163925 152.52147677 36.08696556 152.44124889 C31.52274852 152.38907164 26.95908391 152.37797619 22.3945961 152.37803078 C20.21538051 152.37149259 18.03615506 152.3503248 15.85723495 152.3138485 C1.81512243 151.78213925 1.81512243 151.78213925 -10.36152649 157.75218201 C-11.8370703 159.26059546 -13.27978303 160.80252757 -14.67256165 162.38768005 C-15.90472173 163.47081799 -17.1510227 164.53855333 -18.42256165 165.57518005 C-19.50703258 166.51136388 -20.5903799 167.44885098 -21.67256165 168.38768005 C-25.82219167 171.98425367 -30.02337529 175.45357654 -34.36006165 178.82518005 C-47.76045874 189.78556358 -57.15229282 204.43213692 -63.54756165 220.38768005 C-63.82180969 221.06210144 -64.09605774 221.73652283 -64.37861633 222.43138123 C-68.99200821 234.64540786 -70.11918393 247.01707853 -70.07319641 259.96434021 C-70.07895756 261.45596358 -70.08604785 262.94758231 -70.09434509 264.43919373 C-70.10930447 267.61636807 -70.11524601 270.79337606 -70.11381721 273.97058487 C-70.11176343 278.99719125 -70.13147876 284.02357721 -70.1539917 289.05012512 C-70.19472638 298.79922431 -70.21352996 308.54830511 -70.23016357 318.29747009 C-70.25261476 330.74312007 -70.28606022 343.1887183 -70.33736271 355.63428342 C-70.3572505 360.62975491 -70.36686183 365.62510856 -70.36831486 370.6206181 C-70.3710653 373.72161729 -70.38189379 376.82255113 -70.39482498 379.92352295 C-70.39910237 381.35983042 -70.3999662 382.79615276 -70.39715004 384.23246384 C-70.39374518 386.19392676 -70.40368187 388.15539928 -70.41427612 390.11683655 C-70.41591043 391.21364557 -70.41754473 392.3104546 -70.41922855 393.44050026 C-70.68383848 396.51887043 -71.23972406 398.65612215 -72.67256165 401.38768005 C-76.1850931 403.72936769 -77.5372552 403.88391683 -81.67256165 403.38768005 C-84.32861233 401.75604248 -84.32861233 401.75604248 -86.67256165 399.38768005 C-87.29897404 396.51504517 -87.29897404 396.51504517 -87.30075073 393.11888123 C-87.31340469 391.82967773 -87.32605865 390.54047424 -87.33909607 389.21220398 C-87.32777895 387.78501492 -87.31595143 386.35782984 -87.30366516 384.9306488 C-87.30880449 383.42557431 -87.31608587 381.92050582 -87.3253479 380.41545105 C-87.34389425 376.32334076 -87.33089317 372.23188063 -87.3112576 368.13979721 C-87.29484811 363.84098834 -87.30368943 359.54221998 -87.30877686 355.24339294 C-87.31330304 348.00687843 -87.29741483 340.77062185 -87.26948547 333.53416443 C-87.2376247 325.21599581 -87.2373719 316.89829738 -87.25470024 308.58009624 C-87.27069451 300.54329335 -87.26373726 292.50665964 -87.24676323 284.46986389 C-87.2399621 281.07005704 -87.2408533 277.67038867 -87.24830818 274.27058411 C-87.31858739 233.42862599 -79.54384826 201.45025445 -51.21943665 170.92674255 C-47.91746267 167.63489733 -44.40034167 164.73499506 -40.74287415 161.84861755 C-36.37976091 158.35146572 -32.18632767 154.66845637 -27.9745636 150.99168396 C-26.21039493 149.45332699 -24.44197601 147.91999793 -22.67256165 146.38768005 C-22.10746887 145.89203552 -21.5423761 145.39639099 -20.9601593 144.88572693 C-16.90001418 141.38768005 -16.90001418 141.38768005 -14.67256165 141.38768005 C-14.69874573 140.37979431 -14.72492981 139.37190857 -14.75190735 138.33348083 C-14.84324405 134.55034586 -14.90010926 130.76730571 -14.94721985 126.98338318 C-14.97217606 125.35398403 -15.00615418 123.72469463 -15.04975891 122.09568787 C-15.32228882 111.64336424 -15.47165113 102.63409333 -7.91596985 94.49559021 C0.7767453 86.19495861 9.06917676 87.38768005 21.32743835 87.38768005 C21.32743835 73.19768005 21.32743835 59.00768005 21.32743835 44.38768005 C13.08556126 44.5452087 13.08556126 44.5452087 4.84477234 44.74803162 C-1.84622611 44.81241307 -6.42126619 44.73854762 -11.67256165 40.38768005 C-15.85071349 34.98769648 -15.15155221 28.41301391 -15.11006165 21.88768005 C-15.13004211 20.77264099 -15.15002258 19.65760193 -15.17060852 18.5087738 C-15.16695 12.3697752 -15.10793628 8.05809163 -10.67256165 3.38768005 C-6.99307751 0.77287178 -4.49399783 0.0111367 0 0 Z M1.32743835 15.38768005 C1.32743835 19.67768005 1.32743835 23.96768005 1.32743835 28.38768005 C3.52492233 28.3931485 3.52492233 28.3931485 5.76679993 28.39872742 C19.56880133 28.43565873 33.37061027 28.49317431 47.17243385 28.57158279 C54.26821387 28.61136658 61.3638831 28.64376234 68.45976257 28.65867615 C75.30691057 28.67308804 82.15370274 28.70820673 89.00069809 28.75598907 C91.61374808 28.77083334 94.22684709 28.7787228 96.83993912 28.7795639 C100.49841734 28.78192601 104.15594081 28.80894731 107.81425476 28.84178162 C108.89607025 28.83675125 109.97788574 28.83172089 111.09248352 28.82653809 C118.42616553 28.92845626 121.74688999 30.11947739 127.16337585 35.0634613 C127.67126648 35.60357849 128.1791571 36.14369568 128.70243835 36.70018005 C134.19319344 42.36062735 140.24992709 47.37373326 146.32743835 52.38768005 C150.14428062 50.83267024 152.51939568 48.3517251 155.32743835 45.38768005 C153.96492016 42.3039313 152.4551799 40.31299722 149.98368835 38.0322113 C149.31893494 37.413703 148.65418152 36.7951947 147.96928406 36.15794373 C147.26247498 35.51188171 146.55566589 34.8658197 145.82743835 34.20018005 C145.10709412 33.53542664 144.38674988 32.87067322 143.64457703 32.18577576 C142.20449382 30.85888686 140.76207 29.53453324 139.31718445 28.21287537 C137.60747145 26.64455458 135.91131211 25.06378698 134.2219696 23.47361755 C133.36989929 22.68213318 132.51782898 21.8906488 131.63993835 21.07518005 C130.91419617 20.39842224 130.18845398 19.72166443 129.4407196 19.0243988 C125.56760919 16.024707 121.97664208 15.13711058 117.13253784 15.14717102 C116.10755188 15.14442169 115.08256592 15.14167236 114.02651978 15.13883972 C112.3563253 15.14962555 112.3563253 15.14962555 110.65238953 15.16062927 C109.47147736 15.16033722 108.29056519 15.16004517 107.0738678 15.15974426 C103.84485832 15.16089702 100.61602327 15.17091216 97.38704848 15.18489218 C94.0091387 15.19741356 90.63122531 15.19857114 87.2532959 15.20094299 C80.86084739 15.20715363 74.46846748 15.22355879 68.07604915 15.24364197 C60.79675851 15.26601395 53.51746456 15.27699766 46.23814809 15.28703284 C31.26787235 15.30792541 16.29766478 15.34349719 1.32743835 15.38768005 Z M37.32743835 44.38768005 C37.32743835 58.57768005 37.32743835 72.76768005 37.32743835 87.38768005 C43.26743835 87.38768005 49.20743835 87.38768005 55.32743835 87.38768005 C55.32743835 73.19768005 55.32743835 59.00768005 55.32743835 44.38768005 C49.38743835 44.38768005 43.44743835 44.38768005 37.32743835 44.38768005 Z M2.32743835 107.38768005 C-1.99819583 116.03894843 1.32743835 126.71526797 1.32743835 136.38768005 C31.02743835 136.38768005 60.72743835 136.38768005 91.32743835 136.38768005 C93.52122675 117.44484093 93.52122675 117.44484093 86.60513306 104.60043335 C83.40918825 102.8987599 80.41772006 102.9608317 76.88432312 102.98362732 C76.14074554 102.97676407 75.39716797 102.96990082 74.63105774 102.96282959 C72.17679161 102.9445511 69.7231641 102.94840049 67.2688446 102.9540863 C65.56017855 102.94952487 63.85151433 102.94421941 62.14285278 102.9382019 C58.56262253 102.92926867 54.9826153 102.93169613 51.40238953 102.94163513 C46.81780466 102.95312303 42.23399022 102.93291759 37.64950657 102.90371799 C34.12098309 102.88535758 30.59264427 102.88564814 27.06408501 102.89135551 C25.3740169 102.89150876 23.6839363 102.88546162 21.99391365 102.87306404 C19.62876927 102.8581589 17.26504844 102.86882618 14.89994812 102.88597107 C14.20420181 102.8763031 13.50845551 102.86663513 12.79162598 102.85667419 C8.05137499 102.92850398 5.66131702 104.0467401 2.32743835 107.38768005 Z M179.32743835 389.38768005 C179.32743835 400.27768005 179.32743835 411.16768005 179.32743835 422.38768005 C203.05096037 422.64334179 226.7741456 422.83913882 250.49877262 422.95761395 C261.51692949 423.01410948 272.53420977 423.09100058 283.55180359 423.21751404 C293.16531104 423.32785106 302.77818312 423.39828345 312.39230627 423.4226535 C317.47380591 423.4368788 322.55348943 423.46981834 327.63440132 423.55071068 C361.45045325 424.6149026 361.45045325 424.6149026 390.33636475 408.65359497 C393.28246339 405.30082648 393.72386783 402.99063614 393.6829071 398.4931488 C393.04790608 394.7319889 391.05121517 392.98476957 388.32743835 390.38768005 C384.56511531 389.13357237 381.06457999 389.25302858 377.14611816 389.26742554 C376.3023431 389.26657111 375.45856804 389.26571669 374.58922404 389.26483637 C371.75169665 389.26318453 368.91422791 389.26869814 366.07670593 389.27415466 C364.0467326 389.27443662 362.01675916 389.27427863 359.98678589 389.27371216 C354.46646955 389.27342453 348.94617481 389.27931566 343.4258635 389.28628612 C337.6602834 389.29252543 331.89470283 389.29312391 326.12911987 389.29431152 C315.20693067 389.29742313 304.28475145 389.30563423 293.36256665 389.31566101 C280.929845 389.32682744 268.49712287 389.33233394 256.06439745 389.33735645 C230.48540536 389.34781697 204.90642284 389.36561389 179.32743835 389.38768005 Z M179.32743835 438.38768005 C178.99743835 452.90768005 178.66743835 467.42768005 178.32743835 482.38768005 C177.00743835 486.01768005 175.68743835 489.64768005 174.32743835 493.38768005 C173.99743835 494.70768005 173.66743835 496.02768005 173.32743835 497.38768005 C188.47092001 497.43458303 203.61439831 497.46975798 218.75793648 497.4913044 C225.79073147 497.50157859 232.82348109 497.5155643 239.85624695 497.53855896 C246.65139568 497.56076594 253.44649739 497.57227068 260.24168015 497.57743454 C262.82582716 497.58111157 265.4099718 497.58829157 267.99409866 497.59914017 C299.40143432 498.07524141 299.40143432 498.07524141 326.32743835 483.38768005 C326.94232117 482.86560974 327.55720398 482.34353943 328.1907196 481.8056488 C339.5061845 471.49377281 347.56077311 452.68767578 352.32743835 438.38768005 C295.23743835 438.38768005 238.14743835 438.38768005 179.32743835 438.38768005 Z " fill="#000000" transform="translate(94.67256164550781,-0.3876800537109375)"/>
<path d="M0 0 C0.88041962 -0.00540298 1.76083923 -0.01080597 2.66793823 -0.01637268 C5.56599982 -0.02883746 8.46306369 -0.01238526 11.36108398 0.00561523 C13.38077344 0.00546021 15.40046319 0.00397063 17.42015076 0.00120544 C21.64758497 -0.00017749 25.87467947 0.0123632 30.10205078 0.03515625 C35.51824571 0.0635586 40.93387712 0.06079713 46.35011387 0.04806614 C50.51857815 0.04110894 54.68691236 0.04889845 58.85536003 0.06132317 C60.85243163 0.06583597 62.84951719 0.06617596 64.84659004 0.06225777 C67.63760097 0.05934472 70.42783703 0.07585649 73.21875 0.09765625 C74.45402184 0.09090378 74.45402184 0.09090378 75.71424866 0.08401489 C83.43638625 0.18414043 87.46501956 3.67557719 93.16967773 8.62670898 C97.25928806 12.14244062 101.38248126 15.58520467 105.60717773 18.93920898 C126.50393262 36.02268743 140.72124429 58.13928443 143.86101198 85.38906217 C144.57084338 93.55401954 144.33955835 101.80791704 144.33520508 109.99560547 C144.341198 112.25377116 144.3480053 114.51193482 144.3555603 116.77009583 C144.37313747 122.868719 144.37791183 128.96728597 144.37919188 135.06593204 C144.38061733 138.87840843 144.38489411 142.69087071 144.39018631 146.50334358 C144.40769993 159.12378583 144.41703002 171.74418732 144.41552536 184.36463844 C144.41544545 185.04272084 144.41536554 185.72080324 144.4152832 186.41943359 C144.41520144 187.09834961 144.41511968 187.77726562 144.41503544 188.47675485 C144.41422078 199.50382758 144.43341421 210.53076431 144.46155994 221.55779766 C144.49028394 232.90131678 144.50373446 244.24474878 144.50237238 255.58831269 C144.5018623 261.94880888 144.50757329 268.30915055 144.52872849 274.66961479 C144.54805702 280.64268898 144.54827216 286.61546013 144.53369522 292.58854485 C144.53160021 294.78073061 144.53634903 296.9729351 144.54841614 299.16508865 C144.56381443 302.15574134 144.55459641 305.14534162 144.53915405 308.13597107 C144.54944118 309.00454457 144.55972831 309.87311808 144.57032716 310.76801199 C144.50735372 316.28038525 143.63144295 319.25886252 140.04467773 323.50170898 C136.92137135 325.06336218 133.59804427 324.64969388 130.16911316 324.64888 C129.34605456 324.65255669 128.52299596 324.65623338 127.6749962 324.66002148 C124.90132589 324.67108474 122.12769301 324.67490661 119.35400391 324.67871094 C117.3716978 324.68497354 115.38939287 324.69162016 113.40708923 324.69862366 C108.01035393 324.71605111 102.6136275 324.72658995 97.21687102 324.73482919 C93.84752926 324.73997514 90.47819028 324.74605102 87.10885048 324.75234032 C76.57375858 324.77139638 66.03867371 324.78562721 55.50356787 324.79395229 C43.32975676 324.80373033 31.15612721 324.830063 18.98238009 324.87045318 C9.58106395 324.90057808 0.17979997 324.91541767 -9.22156352 324.9187333 C-14.84053288 324.92108773 -20.45930837 324.93009937 -26.07822609 324.95519447 C-31.3633386 324.97841707 -36.6481288 324.98273184 -41.93327904 324.97243309 C-43.87432297 324.97193622 -45.81538245 324.97830103 -47.75637817 324.99198914 C-50.40424375 325.00961909 -53.05094143 325.00264615 -55.69880676 324.98945618 C-56.85387143 325.00591005 -56.85387143 325.00591005 -58.03227073 325.02269632 C-62.95732178 324.96337115 -65.50703327 324.03095868 -68.95532227 320.50170898 C-70.66302768 317.08629816 -70.10326246 313.1744778 -70.10249329 309.41612244 C-70.10800832 307.98597355 -70.10800832 307.98597355 -70.11363477 306.52693278 C-70.12470423 303.31140687 -70.1285211 300.09591324 -70.13232422 296.88037109 C-70.13858684 294.58256426 -70.14523346 292.28475844 -70.15223694 289.98695374 C-70.17331885 282.41766063 -70.18364908 274.84836724 -70.19360352 267.27905273 C-70.19765074 264.67235364 -70.20176765 262.06565464 -70.2059536 259.45895576 C-70.22283424 248.60814522 -70.23746444 237.75733762 -70.24470234 226.90651608 C-70.24661212 224.08920732 -70.24853245 221.27189857 -70.25048828 218.45458984 C-70.25097202 217.75439504 -70.25145576 217.05420023 -70.25195416 216.3327874 C-70.26023231 205.02146037 -70.28552693 193.71023986 -70.31806896 182.39895921 C-70.35125035 170.76985216 -70.36882957 159.14080446 -70.37234658 147.51165015 C-70.37469074 140.98910486 -70.38356733 134.46672749 -70.40880775 127.94422722 C-70.43221396 121.79563471 -70.43627138 115.64731911 -70.42604637 109.49869347 C-70.4255538 107.2530805 -70.43179104 105.00745333 -70.44560242 102.76188278 C-70.61241682 74.00809239 -63.34289187 49.68716933 -43.01000977 28.51342773 C-37.6609478 23.13104374 -31.80699803 18.32123293 -25.95532227 13.50170898 C-24.91315263 12.63121705 -23.87146296 11.76015007 -22.83032227 10.88842773 C-20.22646769 8.72680389 -17.63022273 6.57475685 -14.95532227 4.50170898 C-14.09846329 3.81209579 -13.24160431 3.1224826 -12.35877991 2.41197205 C-8.01852805 -0.02408671 -4.88373186 -0.05747574 0 0 Z M-17.37801552 27.92954445 C-19.70282005 30.24676983 -22.22721713 32.19163888 -24.83032227 34.18920898 C-40.71174147 47.15315266 -50.41345886 64.33608699 -53.95532227 84.50170898 C-54.1992861 87.41845287 -54.21030596 90.30881304 -54.18237305 93.234375 C-54.1826651 94.05498917 -54.18295715 94.87560333 -54.18325806 95.72108459 C-54.18187879 98.39937386 -54.16638462 101.07737534 -54.15063477 103.75561523 C-54.14689963 105.62605131 -54.14405503 107.49648936 -54.14205933 109.3669281 C-54.13446225 114.2643077 -54.11484789 119.16156664 -54.09265137 124.05889893 C-54.0684892 129.94860593 -54.05939325 135.83835351 -54.04774475 141.72809601 C-54.0284209 150.6527173 -53.990071 159.57707443 -53.95532227 168.50170898 C-37.12532227 168.50170898 -20.29532227 168.50170898 -2.95532227 168.50170898 C-1.30532227 164.54170898 0.34467773 160.58170898 2.04467773 156.50170898 C8.38184282 146.93383229 16.62594977 139.95405324 28.04467773 137.50170898 C39.41797903 135.24117705 51.09186976 137.2455211 60.79467773 143.70874023 C67.6810822 149.19634379 72.01704083 155.28811976 75.04467773 163.50170898 C76.03467773 165.97670898 76.03467773 165.97670898 77.04467773 168.50170898 C93.87467773 168.50170898 110.70467773 168.50170898 128.04467773 168.50170898 C128.13213343 154.64918795 128.13213343 154.64918795 128.19116211 140.79663086 C128.20900044 135.13532938 128.22995603 129.47417533 128.27099609 123.81298828 C128.30392187 119.24178529 128.32159972 114.67074072 128.32930946 110.09942818 C128.33479404 108.36737135 128.34550129 106.63532184 128.3618679 104.90333366 C128.58362165 80.43244186 123.06098936 58.88391443 105.69116211 40.78466797 C99.84970789 34.89915914 93.56114586 29.62547548 87.04467773 24.50170898 C86.43815872 23.86354752 85.83163971 23.22538605 85.20674133 22.56788635 C77.22665165 14.8668281 69.34403828 15.24342618 58.87670898 15.26342773 C57.11087889 15.24529639 55.34506464 15.22555727 53.57926941 15.20429993 C49.88814821 15.17007694 46.1985492 15.16702809 42.50732422 15.18408203 C37.81599414 15.20162635 33.13179252 15.12371378 28.44179249 15.01950359 C24.79587892 14.95247808 21.15163351 14.94643713 17.50519371 14.95679665 C15.778572 14.95294142 14.05185438 14.92886417 12.32584572 14.88269615 C-1.21240619 14.56148713 -8.02753864 18.23633063 -17.37801552 27.92954445 Z M18.73999023 159.49780273 C13.66677814 165.4944797 12.29640272 171.73490627 12.60327148 179.50561523 C13.62436893 186.43642711 16.53083129 191.67835211 22.04467773 196.00170898 C28.73494854 200.64173551 35.04114223 201.44857807 43.04467773 200.50170898 C50.446269 198.27605567 55.28328697 194.21121683 59.04467773 187.50170898 C62.06809911 181.21507765 62.17108513 173.84336786 60.42749023 167.12280273 C57.68376961 160.91908043 52.67506668 156.0389007 46.44311523 153.40014648 C36.05721488 150.12200094 26.67665252 151.80213222 18.73999023 159.49780273 Z M-53.95532227 184.50170898 C-53.95532227 203.97170898 -53.95532227 223.44170898 -53.95532227 243.50170898 C6.10467773 243.50170898 66.16467773 243.50170898 128.04467773 243.50170898 C128.04467773 224.03170898 128.04467773 204.56170898 128.04467773 184.50170898 C111.21467773 184.50170898 94.38467773 184.50170898 77.04467773 184.50170898 C75.39467773 188.46170898 73.74467773 192.42170898 72.04467773 196.50170898 C66.44914456 205.66837512 58.44234207 212.30607434 47.97436523 215.02905273 C34.40450118 217.21832414 22.346915 215.28772165 11.03686523 207.17749023 C3.76189546 201.05795683 1.07190141 193.22736029 -2.95532227 184.50170898 C-19.78532227 184.50170898 -36.61532227 184.50170898 -53.95532227 184.50170898 Z M-53.95532227 258.50170898 C-53.95532227 275.33170898 -53.95532227 292.16170898 -53.95532227 309.50170898 C6.10467773 309.50170898 66.16467773 309.50170898 128.04467773 309.50170898 C128.04467773 292.67170898 128.04467773 275.84170898 128.04467773 258.50170898 C67.98467773 258.50170898 7.92467773 258.50170898 -53.95532227 258.50170898 Z " fill="#000000" transform="translate(103.955322265625,161.498291015625)"/>
<path d="M0 0 C4.34473891 3.24060072 8.16626127 7.23706507 9.890625 12.41015625 C9.96113614 15.14880912 9.98420265 17.86043213 9.953125 20.59765625 C9.94861328 21.34724609 9.94410156 22.09683594 9.93945312 22.86914062 C9.92768854 24.71618008 9.90975365 26.56317838 9.890625 28.41015625 C10.97601563 28.37535156 12.06140625 28.34054688 13.1796875 28.3046875 C14.62498442 28.27653237 16.07029821 28.24923406 17.515625 28.22265625 C18.22847656 28.19751953 18.94132812 28.17238281 19.67578125 28.14648438 C25.49926133 28.06634474 29.5142306 29.24237663 33.9375 33.27734375 C39.14219755 39.41315691 41.3978406 43.61536464 41.203125 51.78125 C40.49967002 57.69906498 38.2294328 62.01049355 34.140625 66.28515625 C26.00453092 71.60491007 19.43154322 71.80284648 9.890625 71.41015625 C9.93703125 72.40015625 9.9834375 73.39015625 10.03125 74.41015625 C10.51898515 88.99971862 10.51898515 88.99971862 5.890625 94.41015625 C-0.47868153 100.22839601 -5.44551298 101.78720826 -14.03515625 101.68359375 C-21.09585652 101.05557721 -25.40484436 97.66521751 -29.8828125 92.38671875 C-32.8605406 87.58821424 -33.34778941 83.09246253 -33.234375 77.53515625 C-33.21632813 76.38273437 -33.19828125 75.2303125 -33.1796875 74.04296875 C-33.15648437 73.17414063 -33.13328125 72.3053125 -33.109375 71.41015625 C-33.94339844 71.4565625 -34.77742188 71.50296875 -35.63671875 71.55078125 C-43.86354965 71.81464295 -50.66430028 71.53909419 -56.921875 65.7265625 C-62.44397583 59.5540219 -63.57060293 54.96736329 -63.421875 46.67578125 C-62.84367775 40.63362004 -60.64797866 36.52083358 -56.109375 32.53515625 C-50.82539924 28.79234009 -47.34208387 28.13626011 -40.859375 28.28515625 C-40.11429687 28.29417969 -39.36921875 28.30320313 -38.6015625 28.3125 C-36.77069441 28.33597267 -34.93999262 28.371841 -33.109375 28.41015625 C-33.16738281 27.51554687 -33.22539062 26.6209375 -33.28515625 25.69921875 C-33.62441391 16.60711357 -32.81724398 9.74910686 -26.65234375 2.7578125 C-19.36178873 -3.87870856 -8.49685987 -4.81834127 0 0 Z M-15.32421875 14.71875 C-18.16539082 19.00226763 -17.66864177 23.4449823 -17.671875 28.47265625 C-17.6808032 30.4636447 -17.70237712 32.45462779 -17.73828125 34.4453125 C-17.7393689 35.76607788 -17.7393689 35.76607788 -17.74047852 37.11352539 C-18.109375 39.41015625 -18.109375 39.41015625 -19.33813477 41.19506836 C-21.62192832 42.76177278 -23.06245815 42.79291243 -25.8203125 42.81640625 C-26.73554688 42.83832031 -27.65078125 42.86023438 -28.59375 42.8828125 C-29.54765625 42.89183594 -30.5015625 42.90085937 -31.484375 42.91015625 C-39.88996274 42.68067358 -39.88996274 42.68067358 -47.109375 46.41015625 C-47.859375 49.41015625 -47.859375 49.41015625 -47.109375 52.41015625 C-44.16905092 55.25722301 -42.0423839 55.78399297 -38.01171875 55.81640625 C-36.56249023 55.84927734 -36.56249023 55.84927734 -35.08398438 55.8828125 C-33.05533886 55.90107683 -31.02669302 55.91930586 -28.99804688 55.9375 C-28.03318359 55.95941406 -27.06832031 55.98132813 -26.07421875 56.00390625 C-25.1937085 56.01099609 -24.31319824 56.01808594 -23.40600586 56.02539062 C-21.109375 56.41015625 -21.109375 56.41015625 -19.32446289 57.62524414 C-17.72141749 59.98004922 -17.72596967 61.53784724 -17.703125 64.375 C-17.68121094 65.33986328 -17.65929687 66.30472656 -17.63671875 67.29882812 C-17.62769531 68.30494141 -17.61867188 69.31105469 -17.609375 70.34765625 C-17.59147259 72.33610248 -17.56071675 74.3244845 -17.515625 76.3125 C-17.50853516 77.19413818 -17.50144531 78.07577637 -17.49414062 78.98413086 C-17.03902419 81.85373238 -16.00395815 83.24989232 -14.109375 85.41015625 C-9.76753298 85.22551259 -9.76753298 85.22551259 -6.109375 83.41015625 C-5.97652027 81.90858012 -5.90606613 80.40136591 -5.86328125 78.89453125 C-5.83041016 77.97285156 -5.79753906 77.05117187 -5.76367188 76.1015625 C-5.70296482 74.15635359 -5.6456173 72.21103663 -5.59179688 70.265625 C-5.25518463 61.13263603 -5.25518463 61.13263603 -3.109375 57.41015625 C-0.65520148 56.18306949 1.01579418 56.26904305 3.7578125 56.234375 C5.20994141 56.19860352 5.20994141 56.19860352 6.69140625 56.16210938 C8.73286344 56.11930881 10.77459458 56.08796704 12.81640625 56.06835938 C18.55934794 55.99781743 18.55934794 55.99781743 23.58203125 53.52734375 C25.10512048 51.46145971 25.10512048 51.46145971 24.953125 48.84765625 C23.47854291 45.46479146 22.28063354 44.92157063 18.890625 43.41015625 C15.3327535 42.95565252 11.78681864 42.89867833 8.203125 42.84765625 C6.30321019 42.81329744 4.40342045 42.7707367 2.50390625 42.71875 C1.24767456 42.70026001 1.24767456 42.70026001 -0.03393555 42.68139648 C-2.109375 42.41015625 -2.109375 42.41015625 -4.109375 40.41015625 C-5.07558467 37.51422614 -5.25342584 34.78843398 -5.3203125 31.75 C-5.34867187 30.87408203 -5.37703125 29.99816406 -5.40625 29.09570312 C-5.45843847 27.25997363 -5.50267814 25.42400135 -5.5390625 23.58789062 C-5.57 22.71326172 -5.6009375 21.83863281 -5.6328125 20.9375 C-5.6625415 19.74241821 -5.6625415 19.74241821 -5.69287109 18.52319336 C-6.21412685 15.87872173 -6.91842855 14.96023687 -9.109375 13.41015625 C-12.96416012 13.07103748 -12.96416012 13.07103748 -15.32421875 14.71875 Z " fill="#000000" transform="translate(350.109375,114.58984375)"/>
<path d="M0 0 C2.28710854 2.27661722 2.95446234 3.56526713 3.29296875 6.796875 C3.25816406 7.77140625 3.22335937 8.7459375 3.1875 9.75 C3.16042969 10.73484375 3.13335937 11.7196875 3.10546875 12.734375 C3.07066406 13.48203125 3.03585937 14.2296875 3 15 C4.10408203 14.91298828 4.10408203 14.91298828 5.23046875 14.82421875 C13.14630051 14.45822917 13.14630051 14.45822917 17.25 17.0625 C19 20 19 20 19 23.625 C18.05456241 26.81585187 17.63628553 28.10187442 15 30 C12.47524538 31.26237731 10.68799534 31.09856404 7.875 31.0625 C6.96492188 31.05347656 6.05484375 31.04445312 5.1171875 31.03515625 C4.41851562 31.02355469 3.71984375 31.01195312 3 31 C3.04640625 31.74765625 3.0928125 32.4953125 3.140625 33.265625 C3.43234391 41.22538383 3.43234391 41.22538383 1.5 44.6875 C-2.069494 46.56148435 -5.06133194 46.89588556 -9 46 C-11.5 44.125 -11.5 44.125 -13 41 C-13.3080206 37.63744182 -13.23524404 34.3652967 -13 31 C-13.66386719 31.04640625 -14.32773437 31.0928125 -15.01171875 31.140625 C-19.26518048 31.31448913 -22.23767032 31.36591825 -26.125 29.5 C-28.40468273 26.46042303 -28.69079802 24.63732716 -28.3984375 20.90625 C-28 19 -28 19 -26.6875 16.5 C-22.35603598 14.08243869 -17.85001072 14.69896485 -13 15 C-13.02320313 14.32453125 -13.04640625 13.6490625 -13.0703125 12.953125 C-13.09738281 11.61507812 -13.09738281 11.61507812 -13.125 10.25 C-13.14820313 9.36828125 -13.17140625 8.4865625 -13.1953125 7.578125 C-12.98884981 4.85281747 -12.44007042 3.30103779 -11 1 C-7.44020669 -1.76872813 -4.1946238 -1.06772242 0 0 Z " fill="#000000" transform="translate(440,74)"/>
<path d="M0 0 C3.375 0.9375 3.375 0.9375 5.3125 2 C7.12923979 5.31287844 7.28375561 8.35967196 6.375 11.9375 C3.65817431 16.07431992 0.48174522 19.19966985 -3.625 21.9375 C-7.17525388 22.26025035 -9.72208604 22.34143519 -13 20.875 C-15.57706416 17.80234658 -15.82187078 15.94053918 -15.625 11.9375 C-13.66832033 8.86189793 -11.25817623 6.44064283 -8.625 3.9375 C-7.8 3.091875 -6.975 2.24625 -6.125 1.375 C-3.625 -0.0625 -3.625 -0.0625 0 0 Z " fill="#000000" transform="translate(145.625,327.0625)"/>
</svg>
