<?xml version="1.0" encoding="UTF-8"?>
<svg version="1.1" xmlns="http://www.w3.org/2000/svg" width="512" height="512">
<path d="M0 0 C2.114209 0.97662633 4.24165424 1.91547155 6.37597656 2.84716797 C32.50417728 14.44389571 56.97240279 30.78714597 79.30859375 48.52734375 C81.08811442 49.93415834 82.88579316 51.31399654 84.68847656 52.69091797 C91.0809715 57.66732362 95.72586645 62.61306315 99.18066406 70.00732422 C99.55191406 70.76013672 99.92316406 71.51294922 100.30566406 72.28857422 C102.95241078 80.51239438 102.35548068 92.0462403 98.55566406 99.80419922 C92.83957401 108.96293441 85.21646447 115.03150523 74.57519531 117.64794922 C64.43876461 119.16924061 55.15744328 117.43772812 46.74316406 111.44482422 C43.97880231 109.30977946 41.30268428 107.11323928 38.66503906 104.82373047 C-11.95943893 60.9343804 -79.68830279 38.89786475 -145.81933594 36.00732422 C-146.59954102 35.97268066 -147.37974609 35.93803711 -148.18359375 35.90234375 C-153.07196106 35.72041422 -157.93463059 35.79609903 -162.81933594 36.00732422 C-164.28016602 36.06895752 -164.28016602 36.06895752 -165.77050781 36.13183594 C-234.95824772 39.38345194 -298.97777611 63.98040015 -352.34277344 108.09326172 C-361.26014277 115.30628743 -370.25787207 118.99988232 -381.81933594 118.00732422 C-391.25641781 116.25916777 -399.60279543 111.58578303 -405.53417969 103.95263672 C-411.32154118 95.19243604 -412.47501676 85.27840616 -410.81933594 75.00732422 C-406.8834897 63.35214085 -399.26812497 56.34681078 -389.81933594 49.00732422 C-388.75803467 48.18216309 -388.75803467 48.18216309 -387.67529297 47.34033203 C-365.73104947 30.37775038 -342.65576235 16.01405098 -317.70458984 3.92333984 C-315.90820782 3.05050569 -314.1194073 2.16211894 -312.33105469 1.27294922 C-220.88093 -43.07883539 -113.01805822 -42.70722709 0 0 Z M-313.81933594 21.00732422 C-314.71700684 21.44657227 -315.61467773 21.88582031 -316.53955078 22.33837891 C-340.64801846 34.24913624 -363.18755086 49.18956003 -383.75683594 66.50732422 C-384.31822266 66.97541504 -384.87960937 67.44350586 -385.45800781 67.92578125 C-389.6414132 71.54284583 -393.27383633 75.18757257 -394.35058594 80.75341797 C-394.27735909 87.06008063 -393.72696662 90.96853729 -389.81933594 96.00732422 C-385.85026838 99.51487229 -382.36360254 100.55494313 -377.26074219 101.22216797 C-370.89073021 100.66160691 -366.157529 97.02158907 -361.38183594 93.06982422 C-360.14587466 92.07766945 -358.90885566 91.08683118 -357.67089844 90.09716797 C-357.03571289 89.58653809 -356.40052734 89.0759082 -355.74609375 88.54980469 C-301.75022435 45.32300503 -233.00395645 20.48258451 -163.81933594 19.00732422 C-163.15417969 18.98686035 -162.48902344 18.96639648 -161.80371094 18.9453125 C-84.54369609 16.71524051 -7.4477903 43.82219772 51.81298828 93.20068359 C53.1068042 94.27286133 53.1068042 94.27286133 54.42675781 95.36669922 C55.58002563 96.34074707 55.58002563 96.34074707 56.7565918 97.33447266 C61.73627147 100.77094814 66.18074019 101.39996002 72.00488281 100.53857422 C76.91077694 99.34072574 79.52462425 96.85327029 82.55566406 92.94482422 C84.99815074 88.18300146 84.9256384 83.21421933 84.18066406 78.00732422 C76.94602061 61.56495274 50.81750338 48.40797207 36.18066406 39.00732422 C35.5802832 38.62012207 34.97990234 38.23291992 34.36132812 37.83398438 C-52.62066591 -17.71984505 -163.72197166 -30.4693971 -313.81933594 21.00732422 Z " fill="#000000" transform="translate(410.8193359375,77.99267578125)"/>
<path d="M0 0 C1.49466797 1.11181641 1.49466797 1.11181641 3.01953125 2.24609375 C12.42655263 9.48117916 18.4681579 16.10938443 21 28 C22.08872722 37.0686029 20.58690563 45.7298148 15.25 53.25 C9.29345441 60.49129071 2.65378976 65.96338693 -6.91796875 67.25976562 C-23.00731406 68.75399188 -32.83859006 62.09194471 -45.27734375 52.73828125 C-50.61456777 48.76047392 -56.23866155 45.32648708 -62 42 C-63.1240625 41.34386719 -64.248125 40.68773437 -65.40625 40.01171875 C-86.87893303 27.82571966 -111.62486138 20.42929582 -136 17 C-137.2890625 16.81566406 -138.578125 16.63132812 -139.90625 16.44140625 C-147.31900706 15.65508501 -154.80343699 15.75562055 -162.25 15.75 C-163.05268311 15.74932526 -163.85536621 15.74865051 -164.68237305 15.74795532 C-177.34012398 15.76483611 -189.58375824 16.34474279 -202 19 C-202.81742676 19.17160645 -203.63485352 19.34321289 -204.47705078 19.52001953 C-235.54047106 26.23692142 -263.47958887 39.18881826 -288.63647461 58.5847168 C-298.92797228 66.33260126 -308.3418748 68.23619534 -321 67 C-328.75531153 65.34773656 -334.90952268 61.01336921 -340 55 C-345.93309787 45.38987719 -348.60689505 36.24076585 -346.421875 25.03515625 C-340.17875905 2.98560581 -312.68998849 -10.04402824 -294.00610352 -20.5637207 C-206.93324856 -68.79506825 -94.90769217 -64.33251826 0 0 Z M-207 -33 C-208.82023884 -32.66756516 -210.64055456 -32.33555109 -212.4609375 -32.00390625 C-234.07774121 -27.86080918 -255.26452859 -20.74981237 -275 -11 C-276.16668213 -10.42596436 -276.16668213 -10.42596436 -277.35693359 -9.84033203 C-293.0336659 -2.04438638 -307.16466047 7.30323286 -321 18 C-321.6496875 18.47050781 -322.299375 18.94101563 -322.96875 19.42578125 C-326.93162867 22.40765319 -328.67161597 25.23344554 -330 30 C-330.23951032 36.28714603 -329.32445205 41.22034247 -325 46 C-320.13665645 49.6961411 -316.58159741 50.44340615 -310.52734375 50.43359375 C-304.83012056 49.45617215 -300.74284483 46.14742925 -296.375 42.5625 C-258.96887565 13.02759095 -210.64168263 -1.53397282 -163.375 -1.3125 C-162.54239655 -1.31034485 -161.70979309 -1.3081897 -160.85195923 -1.30596924 C-147.69991528 -1.25150813 -134.91548998 -0.67266318 -122 2 C-121.00258789 2.20399414 -120.00517578 2.40798828 -118.97753906 2.61816406 C-84.54971276 9.86224267 -53.74193233 24.3371001 -25.72998047 45.56079102 C-19.85730492 49.98860195 -15.22240361 50.77931711 -8 50 C-4.03821111 48.69186216 -1.42453573 46.4692237 1.375 43.375 C3.82491189 38.28672145 4.60921912 33.56632766 3.65234375 27.96484375 C0.77690626 20.31272322 -7.59282166 15.556753 -14 11 C-14.60312012 10.56896973 -15.20624023 10.13793945 -15.82763672 9.69384766 C-25.76490552 2.66768728 -36.22973366 -3.35111457 -47 -9 C-47.71542969 -9.3801123 -48.43085938 -9.76022461 -49.16796875 -10.15185547 C-70.47157398 -21.33236778 -94.38877033 -28.66955613 -118 -33 C-119.21695557 -33.24121582 -119.21695557 -33.24121582 -120.45849609 -33.48730469 C-147.80146407 -38.75287525 -179.72911449 -38.53888296 -207 -33 Z " fill="#000000" transform="translate(419,201)"/>
<path d="M0 0 C6.88493394 6.28823966 11.16413956 14.1993988 11.9140625 23.5546875 C12.36836543 34.40116992 8.40157421 43.39456431 1.1640625 51.359375 C-5.38802199 57.52513375 -14.27286351 60.73956163 -23.2421875 60.60546875 C-31.84545395 59.80430497 -38.06116375 57.07984633 -45.390625 52.7421875 C-69.83330137 38.34958048 -96.68388816 33.74459521 -124.421875 40.28515625 C-135.90515176 43.27659809 -146.28246981 48.18821007 -156.24731445 54.5847168 C-165.6255643 60.57899365 -176.4842381 61.1932356 -187.2578125 58.98828125 C-196.1964378 55.81197729 -202.43422701 49.75694941 -206.7421875 41.41796875 C-211.06247204 32.26136567 -211.41380409 23.59847484 -208.2109375 14.01953125 C-201.63183561 -2.37516621 -183.74553566 -10.94804595 -168.37109375 -17.703125 C-115.7428175 -39.77887412 -45.58261166 -37.86996444 0 0 Z M-132.2421875 -11.39453125 C-132.9964502 -11.2229248 -133.75071289 -11.05131836 -134.52783203 -10.87451172 C-152.9751048 -6.5149556 -178.65002912 1.9632152 -191.1796875 16.91796875 C-193.29865523 22.27771065 -193.78115421 26.80891306 -192.1171875 32.35546875 C-188.9504312 37.844513 -185.26599758 41.50538122 -179.11328125 43.1875 C-170.85802639 43.96929781 -165.53109475 40.18961535 -158.78808594 36.02856445 C-133.4930148 20.61144135 -101.19219419 16.5548296 -72.43652344 23.06201172 C-58.20432879 26.58680759 -43.91426726 32.02421793 -31.9296875 40.60546875 C-27.35004959 43.59439172 -22.51257037 43.44715676 -17.2421875 42.60546875 C-13.22477331 41.27868436 -10.67480834 39.09501339 -7.8671875 35.91796875 C-5.13395843 30.34638641 -4.5777086 25.82039842 -6.3671875 19.85546875 C-15.47258049 4.07278757 -41.51740204 -4.84688383 -58.2421875 -9.39453125 C-82.39808763 -15.58111696 -107.78707549 -16.96857835 -132.2421875 -11.39453125 Z " fill="#000000" transform="translate(355.2421875,281.39453125)"/>
<path d="M0 0 C11.15126795 8.03820565 20.32099491 20.09790953 23.41015625 33.7265625 C25.68153136 52.36065925 23.49621152 68.46878038 11.8125 83.62109375 C1.3324615 96.04742512 -12.86567493 102.77128596 -28.921875 104.28515625 C-44.63465951 104.92216103 -58.9669818 99.52956598 -70.875 89.46484375 C-82.07023248 78.78139333 -88.1243012 65.68326463 -88.65600586 50.28881836 C-88.84848157 33.41213028 -84.25612694 19.20690801 -72.5 6.71484375 C-52.45375782 -12.12197206 -23.17278216 -14.57543346 0 0 Z M-63.83984375 23.03125 C-70.89612485 33.48272722 -72.42870592 43.6465277 -71.1875 56.02734375 C-68.65245246 66.89713295 -61.21581639 75.99215616 -51.9375 82.0703125 C-41.42638318 87.81857951 -30.5443875 88.13785877 -19.1484375 85.06640625 C-14.54786264 83.4519565 -10.94958646 81.09220955 -7.1875 78.02734375 C-6.56101562 77.52460938 -5.93453125 77.021875 -5.2890625 76.50390625 C1.28929115 70.61498704 6.46852581 61.26026259 7.05078125 52.40234375 C7.38039287 39.59604954 5.61019433 30.26495006 -2.9921875 20.25 C-10.93081118 12.21249667 -20.92047931 7.89675426 -32.1875 7.52734375 C-44.5205588 7.93170633 -56.06222024 13.30380444 -63.83984375 23.03125 Z " fill="#000000" transform="translate(288.1875,362.97265625)"/>
</svg>
